<?xml version="1.0" encoding="UTF-8" standalone="no"?>
<!-- Created with Inkscape (http://www.inkscape.org/) -->

<svg
   width="150"
   height="150"
   viewBox="0 0 39.687499 39.687501"
   version="1.1"
   id="svg5"
   inkscape:version="1.1.1 (3bf5ae0d25, 2021-09-20)"
   sodipodi:docname="zzz - Copie.svg"
   inkscape:export-filename="C:\Users\Clément\Desktop\freepic\res\img/icon.png"
   inkscape:export-xdpi="96"
   inkscape:export-ydpi="96"
   xmlns:inkscape="http://www.inkscape.org/namespaces/inkscape"
   xmlns:sodipodi="http://sodipodi.sourceforge.net/DTD/sodipodi-0.dtd"
   xmlns="http://www.w3.org/2000/svg"
   xmlns:svg="http://www.w3.org/2000/svg">
  <sodipodi:namedview
     id="namedview7"
     pagecolor="#ffffff"
     bordercolor="#666666"
     borderopacity="1.0"
     inkscape:pageshadow="2"
     inkscape:pageopacity="0.0"
     inkscape:pagecheckerboard="true"
     inkscape:document-units="mm"
     showgrid="false"
     units="px"
     inkscape:zoom="1.5144501"
     inkscape:cx="151.87031"
     inkscape:cy="28.723297"
     inkscape:window-width="1920"
     inkscape:window-height="1013"
     inkscape:window-x="-9"
     inkscape:window-y="-9"
     inkscape:window-maximized="1"
     inkscape:current-layer="layer1"
     inkscape:snap-object-midpoints="false"
     inkscape:snap-center="false" />
  <defs
     id="defs2">
    <clipPath
       clipPathUnits="userSpaceOnUse"
       id="clipPath168419-0">
      <path
         style="fill:#d4d591;fill-opacity:1;stroke:#000000;stroke-width:0.264583px;stroke-linecap:butt;stroke-linejoin:miter;stroke-opacity:1"
         d="m 1976.6629,1120.9601 c -14.9756,1.5925 -25.8038,9.2969 -36.1081,17.7735 -10.8363,13.4703 -17.8314,26.9407 -24.1344,40.4111 -5.0825,17.6623 -6.7297,33.8216 -6.174,49.0172 2.96,13.8998 7.3576,26.531 16.2768,35.1727 10.0404,8.8438 23.2314,13.9465 38.9144,16.0897 14.6068,1.5407 26.9047,-0.7669 39.4757,-2.6193 16.4002,-3.4206 25.6399,-12.8083 33.676,-23.199 4.188,-8.0615 7.6011,-17.2853 8.9802,-29.56 0.1671,-11.8575 -2.4879,-24.9245 -4.6772,-37.7919 -3.678,-11.8565 -9.5794,-24.1299 -18.896,-37.0436 -6.3738,-10.6207 -16.705,-17.504 -27.502,-23.9473 -6.0539,-1.7474 -10.1493,-4.5965 -19.8314,-4.3031 z"
         id="path168421-4"
         sodipodi:nodetypes="ccccccccccccc" />
    </clipPath>
    <linearGradient
       x1="-989.37677"
       y1="-3204.3379"
       x2="1175.8552"
       y2="2649.3293"
       gradientUnits="userSpaceOnUse"
       id="color-1"
       gradientTransform="matrix(0.17670732,0,0,0.17670732,-22.688903,-12.005473)">
      <stop
         offset="0"
         stop-color="#2a221e"
         id="stop2" />
      <stop
         offset="1"
         stop-color="#2a221e"
         stop-opacity="0"
         id="stop4" />
    </linearGradient>
    <linearGradient
       x1="-3323.7942"
       y1="-330.77435"
       x2="2849.8162"
       y2="585.84308"
       gradientUnits="userSpaceOnUse"
       id="color-2"
       gradientTransform="matrix(0.17670732,0,0,0.17670732,-22.688903,-12.005473)">
      <stop
         offset="0"
         stop-color="#2a221e"
         id="stop7" />
      <stop
         offset="1"
         stop-color="#2a221e"
         stop-opacity="0"
         id="stop9" />
    </linearGradient>
  </defs>
  <g
     inkscape:label="Calque 1"
     inkscape:groupmode="layer"
     id="layer1">
    <path
       style="fill:#e8ae02;fill-opacity:1;stroke:#ab8105;stroke-width:0.490704px;stroke-linecap:butt;stroke-linejoin:miter;stroke-opacity:1"
       d="M 9.5937964,7.8860167 C 12.905039,4.8445659 16.374646,4.8118952 19.916452,6.1511262 22.673669,2.6328535 26.316781,2.104468 29.978913,1.6403788 36.049573,7.9325917 37.71974,15.104904 38.04621,22.545945 38.04141,28.974353 33.795672,33.010226 29.371693,36.945649 24.005806,34.871461 18.339911,33.877275 13.497309,29.919286 11.828044,30.924303 10.36559,32.215692 7.2516865,31.220478 6.3347363,30.019547 6.2040692,28.604143 6.5577145,27.056709 3.9504374,27.025986 2.0811106,26.046196 1.0927851,23.933874 0.94898947,16.321686 3.9556794,11.103918 9.5937964,7.8860167 Z"
       id="path4634-89"
       sodipodi:nodetypes="cccccccccc"
       inkscape:export-filename="C:\Users\Clément\Desktop\Cloud Chaos\Sprites\items/amber.png"
       inkscape:export-xdpi="96"
       inkscape:export-ydpi="96" />
    <path
       style="fill:none;stroke:#000000;stroke-width:0.490704px;stroke-linecap:butt;stroke-linejoin:miter;stroke-opacity:1"
       d="m 19.916452,17.25449 c 0.197117,0.443279 -0.08552,0.955527 0.260257,1.301191 0.869789,0.869773 1.535667,-0.372728 1.30116,-0.60722 -0.186222,-0.186253 -0.442124,-0.307814 -0.69394,-0.43373 -0.115765,-0.0578 -0.318093,0.0578 -0.433747,0 -0.150764,-0.07538 -0.275808,-0.319439 -0.43373,-0.260241 -0.247066,0.0928 -0.479118,1.376589 -0.08679,1.47468 0.31909,0.07966 0.961102,0.07966 1.214375,-0.17341 0.173236,-0.17322 -0.07966,-0.657864 -0.260194,-0.693956 -0.200506,-0.04006 -0.462632,-0.231324 -0.607203,-0.08679 -0.116715,0.116398 0.143003,0.72433 0.173409,0.693972 0.08836,-0.08836 -0.01267,-0.520483 -0.173409,-0.520483 -0.163575,0 0.185271,0.322099 0.346994,0.346978 0.25717,0.03959 0.520403,0 0.780692,0 0.02898,0 0.114816,0.0063 0.08679,0 -0.341245,-0.08536 -0.699642,-0.08806 -1.040935,-0.173394 -0.244658,-0.06129 -0.607187,-0.281542 -0.607187,-0.17341 0,0.199968 1.116933,0.194931 1.12767,0.17341 0.02296,-0.04593 -0.0757,-0.513072 -0.08679,-0.520483 -0.09312,-0.06208 -0.569734,0.0643 -0.607219,0.08679 -0.210214,0.126058 -0.01916,0.44092 0.08662,0.520451 0.03579,0.02692 0.575515,0.03183 0.607251,0 0.234507,-0.234522 -0.651166,-0.476505 -0.780725,-0.346978 -0.06144,0.06144 0,0.17341 0,0.260242 0,0.0578 -0.04798,0.141578 0,0.17341 0.391844,0.261223 1.301177,-0.08346 1.301177,-0.607236 0,-0.04878 -1.269029,-0.414346 -1.127703,0.433731 0.01426,0.09011 0.01267,0.205384 0.08679,0.260241 0.141579,0.106422 0.964427,-0.07649 0.693956,-0.346978 -0.256061,-0.256076 -0.686354,0.04703 -0.954182,-0.08679 -0.175817,-0.08789 -0.256916,-0.229107 -0.43373,-0.346978 -0.06018,-0.04007 -0.200159,0.04006 -0.260211,0 -0.0681,-0.04546 -0.09581,-0.147597 -0.1736,-0.17341 -0.109747,-0.03659 -0.232495,0.01678 -0.346978,0 -0.767453,-0.109589 -1.555636,-0.08679 -2.342126,-0.08679"
       id="path6688-7"
       inkscape:export-filename="C:\Users\Clément\Desktop\Cloud Chaos\Sprites\items/amber.png"
       inkscape:export-xdpi="96"
       inkscape:export-ydpi="96" />
    <path
       style="fill:none;stroke:#000000;stroke-width:0.490704px;stroke-linecap:butt;stroke-linejoin:miter;stroke-opacity:1"
       d="m 20.436951,17.774988 c 0.02898,-0.115765 0.02756,-0.243486 0.08679,-0.346994 0.06081,-0.106421 0.192176,-0.158207 0.260226,-0.260242 0.153296,-0.230104 0.0388,-0.453336 0.08678,-0.693956 0.04624,-0.231054 0.188439,-0.391827 0.260226,-0.607219 0.126534,-0.379649 0,-0.984572 0,-1.387929"
       id="path6690-4"
       inkscape:export-filename="C:\Users\Clément\Desktop\Cloud Chaos\Sprites\items/amber.png"
       inkscape:export-xdpi="96"
       inkscape:export-ydpi="96" />
    <path
       style="fill:none;stroke:#000000;stroke-width:0.490704px;stroke-linecap:butt;stroke-linejoin:miter;stroke-opacity:1"
       d="m 20.697177,18.72917 c 0.08679,0.144429 0.152189,0.304204 0.260257,0.433715 0.158206,0.189737 0.215075,-9.67e-4 0.346978,0.08679 0.08679,0.0578 0.186523,0.09977 0.260226,0.17341 0.05179,0.05194 -0.09391,0.17341 0.08679,0.17341 0.128117,0 -0.426035,-0.946502 -0.346978,-0.867446 0.366678,0.366742 0.182483,0.963178 0.520435,1.301176 0.02296,0.02296 -0.390354,-0.737348 -0.346994,-0.693972 0.335703,0.335671 -0.104204,1.092641 0.08679,1.474681 0.04988,0.09977 0.16264,0.281969 0.260209,0.346978 0.120199,0.08013 1.23859,0.409596 1.387897,0.260226 0.04086,-0.04086 0,-0.115765 0,-0.17341 0,-0.448538 -0.21297,-0.630911 -0.607172,-0.867461 -0.07839,-0.04703 -0.195597,-0.02218 -0.260226,-0.08679 -0.04561,-0.04576 -0.04118,-0.127801 -0.08679,-0.17341 -0.04086,-0.04086 -0.121625,0.02582 -0.17341,0 -0.04941,-0.02486 -0.175817,-0.257961 -0.260257,-0.17341 -0.106422,0.106263 0.368705,0.715683 0.43373,0.780709 0.01425,0.01425 -0.373536,-0.66743 -0.43373,-0.607204 -0.176197,0.176197 0.26173,0.868189 0.43373,0.954182 0.109747,0.05479 0.156148,-0.08108 0.08679,-0.17341 -0.10468,-0.13952 -0.442331,-0.351286 -0.607252,-0.433731 -0.08188,-0.04086 -0.289112,-0.173394 -0.260209,-0.08679 0.06556,0.19726 0.860049,1.001264 1.127686,0.867445 0.02597,-0.01267 0,-0.0578 0,-0.08679 0,-0.522432 -0.346978,-0.673591 -0.346978,-0.780709 0,-0.08932 0.596656,0.255443 0.607204,0.260241 0.176561,0.08029 0.520483,0.0662 0.520483,0.260226 0,0.08836 -1.099514,-0.173395 -1.214456,-0.173395"
       id="path6692-6"
       inkscape:export-filename="C:\Users\Clément\Desktop\Cloud Chaos\Sprites\items/amber.png"
       inkscape:export-xdpi="96"
       inkscape:export-ydpi="96" />
    <path
       style="fill:none;stroke:#000000;stroke-width:0.490704px;stroke-linecap:butt;stroke-linejoin:miter;stroke-opacity:1"
       d="m 19.916452,18.815907 c 0,0.144428 0,0.289159 0,0.433714 0,0.330635 -0.117982,1.120973 0,1.474681 0.0095,0.02756 0.0776,-0.02739 0.08679,0 0.05907,0.17767 0.141103,0.910568 0.08679,1.127687 -0.127484,0.509493 -0.452766,0.837895 -0.607172,1.301192"
       id="path6694-1"
       inkscape:export-filename="C:\Users\Clément\Desktop\Cloud Chaos\Sprites\items/amber.png"
       inkscape:export-xdpi="96"
       inkscape:export-ydpi="96" />
    <path
       style="fill:none;stroke:#000000;stroke-width:0.490704px;stroke-linecap:butt;stroke-linejoin:miter;stroke-opacity:1"
       d="m 21.9116,18.555681 c 0.45351,0.452355 1.044862,0.522415 1.561417,0.780709 0.05179,0.02582 0.132552,-0.04086 0.173426,0 0.02059,0.02043 -0.02059,0.06635 0,0.08679 0.279546,0.279514 0.925027,0.260226 1.301192,0.260226"
       id="path6696-8"
       inkscape:export-filename="C:\Users\Clément\Desktop\Cloud Chaos\Sprites\items/amber.png"
       inkscape:export-xdpi="96"
       inkscape:export-ydpi="96" />
    <path
       style="fill:#e8ae02;fill-opacity:0.795527;stroke:#ab8105;stroke-width:0.472891px;stroke-linecap:butt;stroke-linejoin:miter;stroke-opacity:1"
       d="M 9.2761321,8.9511021 C 12.467207,6.0200474 15.81085,5.9885644 19.224095,7.2791612 c 2.65713,-3.3905509 6.168023,-3.8997425 9.697239,-4.3470133 5.850295,6.0638191 7.459824,12.9757941 7.774464,20.1467601 -0.0048,6.195071 -4.096258,10.084426 -8.359671,13.877003 -5.171082,-1.998902 -10.63134,-2.956979 -15.298141,-6.771316 -1.608689,0.96853 -3.01806,2.213059 -6.0189538,1.253952 C 6.1353703,30.281198 6.0094542,28.917198 6.3502719,27.425921 3.8376181,27.396307 2.0361507,26.452102 1.0836949,24.416444 0.94512537,17.080572 3.8426699,12.052193 9.2761321,8.9511021 Z"
       id="path4634-8-4"
       sodipodi:nodetypes="cccccccccc"
       inkscape:export-filename="C:\Users\Clément\Desktop\Cloud Chaos\Sprites\items/amber.png"
       inkscape:export-xdpi="96"
       inkscape:export-ydpi="96" />
  </g>
</svg>
