<?xml version="1.0" encoding="UTF-8" standalone="no"?>
<!-- Created with Inkscape (http://www.inkscape.org/) -->

<svg
   width="150"
   height="150"
   viewBox="0 0 39.687499 39.687501"
   version="1.1"
   id="svg5"
   inkscape:version="1.1.1 (3bf5ae0d25, 2021-09-20)"
   sodipodi:docname="zzz - Copie (11).svg"
   inkscape:export-filename="C:\Users\Clément\Desktop\freepic\res\img/icon.png"
   inkscape:export-xdpi="96"
   inkscape:export-ydpi="96"
   xmlns:inkscape="http://www.inkscape.org/namespaces/inkscape"
   xmlns:sodipodi="http://sodipodi.sourceforge.net/DTD/sodipodi-0.dtd"
   xmlns="http://www.w3.org/2000/svg"
   xmlns:svg="http://www.w3.org/2000/svg">
  <sodipodi:namedview
     id="namedview7"
     pagecolor="#ffffff"
     bordercolor="#666666"
     borderopacity="1.0"
     inkscape:pageshadow="2"
     inkscape:pageopacity="0.0"
     inkscape:pagecheckerboard="true"
     inkscape:document-units="mm"
     showgrid="false"
     units="px"
     inkscape:zoom="3.0289002"
     inkscape:cx="72.963777"
     inkscape:cy="63.884574"
     inkscape:window-width="1920"
     inkscape:window-height="1013"
     inkscape:window-x="-9"
     inkscape:window-y="-9"
     inkscape:window-maximized="1"
     inkscape:current-layer="layer1"
     inkscape:snap-object-midpoints="false"
     inkscape:snap-center="false" />
  <defs
     id="defs2">
    <clipPath
       clipPathUnits="userSpaceOnUse"
       id="clipPath168419-0">
      <path
         style="fill:#d4d591;fill-opacity:1;stroke:#000000;stroke-width:0.264583px;stroke-linecap:butt;stroke-linejoin:miter;stroke-opacity:1"
         d="m 1976.6629,1120.9601 c -14.9756,1.5925 -25.8038,9.2969 -36.1081,17.7735 -10.8363,13.4703 -17.8314,26.9407 -24.1344,40.4111 -5.0825,17.6623 -6.7297,33.8216 -6.174,49.0172 2.96,13.8998 7.3576,26.531 16.2768,35.1727 10.0404,8.8438 23.2314,13.9465 38.9144,16.0897 14.6068,1.5407 26.9047,-0.7669 39.4757,-2.6193 16.4002,-3.4206 25.6399,-12.8083 33.676,-23.199 4.188,-8.0615 7.6011,-17.2853 8.9802,-29.56 0.1671,-11.8575 -2.4879,-24.9245 -4.6772,-37.7919 -3.678,-11.8565 -9.5794,-24.1299 -18.896,-37.0436 -6.3738,-10.6207 -16.705,-17.504 -27.502,-23.9473 -6.0539,-1.7474 -10.1493,-4.5965 -19.8314,-4.3031 z"
         id="path168421-4"
         sodipodi:nodetypes="ccccccccccccc" />
    </clipPath>
    <linearGradient
       x1="-989.37677"
       y1="-3204.3379"
       x2="1175.8552"
       y2="2649.3293"
       gradientUnits="userSpaceOnUse"
       id="color-1"
       gradientTransform="matrix(0.17670732,0,0,0.17670732,-22.688903,-12.005473)">
      <stop
         offset="0"
         stop-color="#2a221e"
         id="stop2" />
      <stop
         offset="1"
         stop-color="#2a221e"
         stop-opacity="0"
         id="stop4" />
    </linearGradient>
    <linearGradient
       x1="-3323.7942"
       y1="-330.77435"
       x2="2849.8162"
       y2="585.84308"
       gradientUnits="userSpaceOnUse"
       id="color-2"
       gradientTransform="matrix(0.17670732,0,0,0.17670732,-22.688903,-12.005473)">
      <stop
         offset="0"
         stop-color="#2a221e"
         id="stop7" />
      <stop
         offset="1"
         stop-color="#2a221e"
         stop-opacity="0"
         id="stop9" />
    </linearGradient>
  </defs>
  <g
     inkscape:label="Calque 1"
     inkscape:groupmode="layer"
     id="layer1">
    <path
       style="fill:#666666;fill-opacity:1;stroke:#000000;stroke-width:0.234938;stroke-linecap:butt;stroke-linejoin:miter;stroke-miterlimit:4;stroke-dasharray:none;stroke-opacity:1"
       d="m 1.0729517,10.852031 c 0.3450554,0.07096 0.6517268,-0.04984 0.9023335,-0.451173 l 21.7312998,-0.05016 c 0.419528,0.377491 1.025384,0.475483 1.629227,0.576497 0.227832,0.327081 0.56667,0.441431 1.077775,0.225569 0.02166,0.192657 0.01365,0.407632 0.401056,0.325859 l 11.178962,0.05016 c 0.743662,0.216568 1.247194,0.621826 0.601545,1.930005 -3.892627,3.444994 -8.475288,5.65517 -14.161683,5.890263 -1.700858,2.232407 -1.56523,4.174856 0.325847,5.840126 0.716568,0.860559 1.763878,1.721128 1.879864,2.581686 0.914446,1.300475 0.527973,2.254041 0.05016,3.183254 -1.44412,-0.211442 -3.004074,-0.191217 -4.637026,-0.02502 -2.927477,-1.493631 -5.904706,-2.701238 -9.574807,0.07519 L 7.9407462,31.05445 C 7.6403159,30.922113 7.3544019,30.777948 7.5397135,30.252369 c -0.085478,-1.08615 -0.2663698,-2.1723 0.075186,-3.25845 0.242178,-0.437814 0.5118414,-0.870146 0.5263695,-1.353505 C 12.393879,22.737441 12.125431,20.349516 8.9182778,18.296388 6.2998864,17.186912 3.5267997,16.406209 1.148138,14.787287 0.96309737,13.598585 0.82952787,12.370296 1.0729517,10.852008 Z"
       id="path1308-6"
       sodipodi:nodetypes="ccccccccccccccccccccc"
       inkscape:export-filename="C:\Users\Clément\Desktop\Cloud Chaos\Sprites\items/anvil.png"
       inkscape:export-xdpi="96"
       inkscape:export-ydpi="96" />
    <path
       style="fill:#504f4c;fill-opacity:1;stroke:#000000;stroke-width:0;stroke-linecap:butt;stroke-linejoin:miter;stroke-miterlimit:4;stroke-dasharray:none;stroke-opacity:1"
       d="m 7.909405,17.713563 c 8.416114,0.690436 16.243869,0.172799 24.143807,-0.169126 l -2.359247,1.018266 C 23.056322,18.873362 16.428451,19.31826 9.745414,18.948071 9.3380105,18.451581 8.5802642,18.132582 7.909405,17.713563 Z"
       id="path3364-1"
       sodipodi:nodetypes="ccccc"
       inkscape:export-filename="C:\Users\Clément\Desktop\Cloud Chaos\Sprites\items/anvil.png"
       inkscape:export-xdpi="96"
       inkscape:export-ydpi="96" />
    <path
       style="fill:#504f4c;fill-opacity:1;stroke:#000000;stroke-width:0;stroke-miterlimit:4;stroke-dasharray:none;stroke-opacity:1"
       id="path4060-5"
       d="m 2.9901924,11.186165 c 0.041277,-0.01214 0.085046,-0.05427 0.1235376,-0.03543 0.026543,0.01366 -0.012134,0.05807 -0.017551,0.0871 -0.039759,0.07021 -0.1950079,0.184185 -0.1188356,0.210729 0.092304,0.03228 0.1458117,-0.142779 0.2401088,-0.168444 0.034451,-0.0087 -0.00758,0.07096 -0.012134,0.106387 0.075837,-0.08472 0.1516294,-0.169602 0.2274658,-0.254387 -0.040194,0.09523 -0.1628207,0.1914 -0.1203524,0.285655 0.035318,0.07875 0.076595,-0.172583 0.1557138,-0.207197 0.045284,-0.01982 -0.06197,0.169971 -0.018525,0.147024 0.075186,-0.03923 0.1280767,-0.295316 0.1417164,-0.211539 0.1476317,0.913319 -0.2218105,0.150817 -0.089378,0.411792 0.039218,-0.01722 0.086236,-0.02253 0.1176222,-0.05179 0.1453567,-0.135811 0.2191997,-0.504809 0.4062879,-0.437162 0.1753446,0.06338 -0.2057333,0.312347 -0.2856539,0.480769 -0.00758,0.01603 0.048103,0.01625 0.042035,0.03294 -0.033693,0.09144 -0.1401999,0.155304 -0.1467217,0.252395 -0.00433,0.05254 0.090245,-0.0546 0.1352052,-0.0819 0.7862283,-0.756304 -0.094253,0.03542 0.1235377,0.01853 0.1130719,-0.0087 0.127925,-0.191617 0.2159169,-0.263216 0.02091,-0.01702 0.015276,0.05427 0.00867,0.0805 -0.02405,0.10054 -0.1684758,0.218572 -0.097938,0.293909 0.062944,0.06727 0.1111003,-0.147025 0.166645,-0.220479 0.069228,-0.100209 0.1898834,-0.420869 0.2077267,-0.30043 0.023185,0.156559 -0.1270151,0.289977 -0.1876516,0.436189 -0.024376,0.05862 -0.050268,0.117006 -0.067169,0.178184 -0.0065,0.02058 -0.015276,0.07834 0,0.06393 0.084611,-0.07626 0.1459743,-0.174683 0.2189721,-0.262037 0,0 0.056552,-0.07204 0.056552,-0.07204 v 0 c -0.041819,0.03683 -0.080171,0.07812 -0.1253466,0.110808 -0.020042,0.01517 -0.076595,0.05199 -0.067711,0.02914 0.053086,-0.138846 0.3202785,-0.529392 0.305068,-0.743761 -0.00433,-0.03597 -0.063161,0.03468 -0.094903,0.052 -0.1186838,0.205961 -0.2372919,0.411912 -0.3559215,0.617872 0.0065,-0.0481 0.066411,-0.15762 0.019716,-0.144144 -0.076703,0.02232 -0.1663525,0.261917 -0.1542078,0.183069 0.1394522,-0.905777 0.3284147,-0.387556 0.1305035,-0.371283 -0.013651,0.001 -0.023293,-0.01214 -0.034884,-0.01799 0.1044375,-0.237911 0.1188356,-0.207869 -0.1585305,0.0338 -0.07302,0.06371 -0.2312793,0.291081 -0.2154402,0.19543 0.02806,-0.168465 0.2502166,-0.272795 0.256576,-0.443458 0.02405,-0.641154 -0.5607232,1.074297 -0.1553887,-0.03011 -0.039218,0.01084 -0.077895,0.02362 -0.1176223,0.03272 -1.949e-4,6.5e-5 -0.1382388,0.01832 -0.1526043,0.03575 -0.061103,0.07409 -0.1907718,0.331449 -0.156873,0.241593 0.2146278,-0.569412 0.5604849,-1.082769 0.2050399,-0.53145 -0.078762,0.09685 -0.1577722,0.193621 -0.2365986,0.290453 -2.492e-4,-0.02438 0.02091,-0.08439 0,-0.07303 -0.1022713,0.05319 -0.3171911,0.320324 -0.2712775,0.214554 0.073236,-0.16879 0.3232795,-0.238278 0.3598544,-0.418617 0.02535,-0.123841 -0.2113453,0.13839 -0.3170611,0.207455 0.0065,-0.02124 0.010833,-0.04225 0.016792,-0.06348 0,0 -0.1050875,0.07302 -0.1050875,0.07302 z"
       inkscape:export-filename="C:\Users\Clément\Desktop\Cloud Chaos\Sprites\items/anvil.png"
       inkscape:export-xdpi="96"
       inkscape:export-ydpi="96" />
    <path
       style="fill:#504f4c;fill-opacity:1;stroke:#000000;stroke-width:0;stroke-miterlimit:4;stroke-dasharray:none;stroke-opacity:1"
       id="path4062-4"
       d="m 7.9687306,12.203618 c 0.087861,-0.194834 0.1758538,-0.389647 0.2638131,-0.584482 0.017334,0.04528 0.00867,0.159939 0.051569,0.135813 0.1101901,-0.06338 0.1144369,-0.340928 0.2350818,-0.300519 0.1258125,0.04215 -0.043335,0.298471 0.047453,0.395183 0.057094,0.06079 0.1737627,-0.03824 0.2294376,-0.100323 0.1385314,-0.15475 0.221518,-0.351425 0.3323365,-0.527127 0.035319,0.18139 -0.019717,0.643796 0.2842879,0.343635 0.096965,-0.09578 0.116561,-0.261104 0.2282241,-0.339151 0.041282,-0.02882 0.097936,0.05418 0.1098976,0.102916 0.1103439,0.448756 -0.1392992,0.418238 0.1017279,0.421012 0.3395189,-0.0884 -0.5878835,0.173231 0.2938769,-0.526912 0.109594,-0.087 -0.09241,0.268786 -0.0961,0.408682 -0.0042,0.108989 0.243675,-0.05536 0.254193,0.03944 0.01517,0.130504 -0.08536,0.24831 -0.127924,0.372475 0.138683,-0.08775 0.27741,-0.175366 0.416124,-0.263043 -0.01365,0.128997 -0.163914,0.426102 -0.0403,0.386831 0.231235,-0.07345 0.288253,-0.408076 0.496913,-0.53196 0.05839,-0.03468 0.06001,0.125358 0.109442,0.17192 0.06306,0.05936 0.261669,0.115955 0.337353,0.141261 0.501972,-0.600796 0.03121,-0.221767 0.392052,-0.0182 0.05807,0.03272 0.122616,-0.132778 0.176536,-0.09371 0.09533,0.06923 0.02319,0.32029 0.140959,0.324308 0.114133,0.0043 0.08244,-0.213663 0.135507,-0.314914 0.03044,-0.05817 0.07561,-0.107255 0.113528,-0.160893 0,0 0.0043,-0.153082 0.0043,-0.153082 v 0 c -0.03771,-0.03824 -0.06348,-0.09349 -0.112768,-0.114437 -0.03922,-0.01668 -0.08504,0.01084 -0.127936,0.01214 -0.01809,8.02e-4 -0.271331,-0.01084 -0.284799,0.0033 -0.315382,0.319997 -0.116863,0.564082 -0.331144,0.100643 -0.113072,0.172571 -0.166472,0.405172 -0.339412,0.517725 -0.06988,0.0455 -0.03044,-0.213393 -0.113374,-0.22309 -0.143082,-0.0168 -0.412746,0.460827 -0.358413,-0.06381 0.01635,-0.16085 0.24781,-0.3373 0.14567,-0.46271 -0.08548,-0.104871 -0.220186,0.157316 -0.330268,0.235969 -1.3490534,1.037778 -0.428269,0.431336 -0.118987,-0.247053 0.03456,-0.07584 -0.160936,0.05862 -0.244074,0.05363 -0.04528,-0.0033 -0.08082,-0.04376 -0.113538,-0.07519 -0.03001,-0.02882 -0.03001,-0.102595 -0.0714,-0.102048 -0.04853,8.12e-4 -0.067605,0.06956 -0.1014075,0.104437 -0.041385,0.05839 -0.082771,0.116713 -0.1241438,0.175042 -0.02654,-0.04399 -0.035745,-0.158987 -0.079413,-0.132021 -0.1014077,0.06293 -0.1085215,0.217335 -0.1935227,0.301113 -0.04279,0.04215 -0.110504,0.0572 -0.1706978,0.05807 -0.3919759,0.0065 0.074754,-0.327678 -0.4470007,0.255113 -0.026543,-0.137329 -0.036509,-0.278677 -0.079086,-0.411737 -0.024918,-0.07703 -0.044094,-0.237109 -0.1206556,-0.210707 -0.1439915,0.04951 -0.1779012,0.249935 -0.2903883,0.352522 -0.040302,0.03683 -0.1009706,0.06197 -0.154847,0.05351 -0.036509,-0.0065 -0.043769,-0.117015 -0.066952,-0.08818 -0.1029211,0.128229 -0.145205,0.295198 -0.2177587,0.442787 0,0 -0.044094,0.135661 -0.044094,0.135661 z"
       inkscape:export-filename="C:\Users\Clément\Desktop\Cloud Chaos\Sprites\items/anvil.png"
       inkscape:export-xdpi="96"
       inkscape:export-ydpi="96" />
    <path
       style="fill:#504f4c;fill-opacity:1;stroke:#000000;stroke-width:0;stroke-miterlimit:4;stroke-dasharray:none;stroke-opacity:1"
       id="path4064-7"
       d="m 10.531176,11.618844 c 0.02557,-0.0076 0.654978,-0.262741 0.713881,-0.0087 0.06294,0.271559 -0.382518,0.846659 -0.104328,0.829726 0.4223,-0.02557 0.533951,-0.696191 0.91542,-0.879086 0.121403,-0.05817 -0.01213,0.322674 0.104438,0.390124 0.113071,0.06545 0.250292,-0.07487 0.375421,-0.112313 0.02482,0.08439 0.103355,0.170351 0.0741,0.253293 -0.08688,0.245635 -0.284407,0.437956 -0.401075,0.670956 -0.0087,0.01744 0.03121,0.04192 0.04865,0.03294 0.18244,-0.09652 0.347427,-0.22286 0.521147,-0.334287 0,0 0.261202,-0.186253 0.261202,-0.186253 v 0 c -0.550106,-0.03489 0.343409,0.07746 -0.03163,-0.366442 -0.136116,-0.161184 -0.445809,0.337559 -0.617893,0.13733 -0.308514,-0.710749 0.198246,0.212211 -0.666191,0.0571 -0.150513,-0.02696 -0.06001,-0.300767 -0.109746,-0.445365 -0.04442,-0.129441 -0.03726,-0.400428 -0.171325,-0.37305 -0.298004,0.06078 -0.437337,0.453415 -0.723748,0.55574 -0.09263,0.03305 -0.121253,-0.154815 -0.181868,-0.232223 0,0 -0.0065,0.01084 -0.0065,0.01084 z"
       inkscape:export-filename="C:\Users\Clément\Desktop\Cloud Chaos\Sprites\items/anvil.png"
       inkscape:export-xdpi="96"
       inkscape:export-ydpi="96" />
    <path
       style="fill:#504f4c;fill-opacity:1;stroke:#000000;stroke-width:0;stroke-miterlimit:4;stroke-dasharray:none;stroke-opacity:1"
       id="path4066-3"
       d="m 21.639233,10.627718 c -0.07822,0.169797 -0.156538,0.339584 -0.234779,0.50937 -0.02166,-0.05134 -0.02557,-0.194098 -0.0649,-0.154229 -0.103788,0.106278 -0.110949,0.276315 -0.182072,0.40672 -0.04594,0.08429 -0.09339,0.295308 -0.167512,0.234238 -0.08656,-0.488245 0.05623,-0.373343 -0.220814,-0.503706 -0.06305,0.201314 -0.126116,0.402637 -0.189169,0.603961 -0.04171,-0.0831 -0.04669,-0.299208 -0.124891,-0.249188 -0.125358,0.08006 -0.01517,0.350494 -0.145064,0.42164 -0.08818,0.0481 -0.02655,-0.278038 -0.126711,-0.273476 -0.320745,0.01517 0.06121,0.713435 -0.241182,0.01972 -0.19647,-0.174533 -0.04485,-0.100974 -0.250964,0.167619 -0.07107,0.09263 -0.252784,0.329174 -0.372617,0.07292 -0.230435,-0.492936 0.147026,-0.445743 -0.276315,-0.421552 -0.146722,-0.04128 -0.187478,-0.0728 -0.343366,-0.03391 -0.065,0.01625 -0.123071,0.05331 -0.185592,0.07779 -0.06186,0.02405 -0.164284,0.129898 -0.187577,0.0676 -0.04669,-0.125043 0.04334,-0.263542 0.065,-0.395323 0,0 -0.09381,0.171162 -0.09381,0.171162 v 0 c 0.01722,0.05991 0.0043,0.138998 0.05233,0.179527 0.03922,0.03348 0.104871,-0.01592 0.154522,-0.0033 0.0455,0.01214 0.07324,0.06457 0.118532,0.07746 0.416547,0.118534 -0.07031,-0.141262 0.32653,0.09849 0.113072,0.124751 0.170231,0.223998 0.343084,0.272751 0.06749,0.01896 0.163146,0.05893 0.210142,0.0076 0.122477,-0.13566 0.05254,-0.462828 0.232277,-0.496641 0.145811,-0.02741 -0.06348,0.463079 0.08255,0.437349 0.161423,-0.02849 0.08558,-0.316357 0.128531,-0.474531 0.03726,0.152454 0.03575,0.320269 0.112325,0.45737 0.02124,0.03771 0.104763,0.0076 0.12656,-0.02925 0.07324,-0.125964 0.01972,-0.325024 0.132931,-0.416407 0.06294,-0.0506 0.05926,0.240109 0.131414,0.203567 0.417597,-0.21193 -0.05352,-0.511918 0.288957,-0.242686 0.20673,0.629353 0,0.214203 0.334146,-0.330269 0.03456,-0.05623 0.17425,0.163676 0.219892,0.123234 0.08137,-0.07215 0.10823,-0.188682 0.162258,-0.283021 0.03975,-0.03272 0.07908,-0.06565 0.118836,-0.09837 0,0 0.06641,-0.204401 0.06641,-0.204401 z"
       inkscape:export-filename="C:\Users\Clément\Desktop\Cloud Chaos\Sprites\items/anvil.png"
       inkscape:export-xdpi="96"
       inkscape:export-ydpi="96" />
  </g>
</svg>
