<?xml version="1.0" encoding="UTF-8" standalone="no"?>
<!-- Created with Inkscape (http://www.inkscape.org/) -->

<svg
   width="150"
   height="150"
   viewBox="0 0 39.687499 39.687501"
   version="1.1"
   id="svg5"
   inkscape:version="1.1.1 (3bf5ae0d25, 2021-09-20)"
   sodipodi:docname="zzz - Copie (12).svg"
   inkscape:export-filename="C:\Users\Clément\Desktop\freepic\res\img/icon.png"
   inkscape:export-xdpi="96"
   inkscape:export-ydpi="96"
   xmlns:inkscape="http://www.inkscape.org/namespaces/inkscape"
   xmlns:sodipodi="http://sodipodi.sourceforge.net/DTD/sodipodi-0.dtd"
   xmlns:xlink="http://www.w3.org/1999/xlink"
   xmlns="http://www.w3.org/2000/svg"
   xmlns:svg="http://www.w3.org/2000/svg">
  <sodipodi:namedview
     id="namedview7"
     pagecolor="#ffffff"
     bordercolor="#666666"
     borderopacity="1.0"
     inkscape:pageshadow="2"
     inkscape:pageopacity="0.0"
     inkscape:pagecheckerboard="true"
     inkscape:document-units="mm"
     showgrid="false"
     units="px"
     inkscape:zoom="3.0289002"
     inkscape:cx="61.738581"
     inkscape:cy="56.951365"
     inkscape:window-width="1920"
     inkscape:window-height="1013"
     inkscape:window-x="-9"
     inkscape:window-y="-9"
     inkscape:window-maximized="1"
     inkscape:current-layer="layer1"
     inkscape:snap-object-midpoints="false"
     inkscape:snap-center="false" />
  <defs
     id="defs2">
    <clipPath
       clipPathUnits="userSpaceOnUse"
       id="clipPath168419-0">
      <path
         style="fill:#d4d591;fill-opacity:1;stroke:#000000;stroke-width:0.264583px;stroke-linecap:butt;stroke-linejoin:miter;stroke-opacity:1"
         d="m 1976.6629,1120.9601 c -14.9756,1.5925 -25.8038,9.2969 -36.1081,17.7735 -10.8363,13.4703 -17.8314,26.9407 -24.1344,40.4111 -5.0825,17.6623 -6.7297,33.8216 -6.174,49.0172 2.96,13.8998 7.3576,26.531 16.2768,35.1727 10.0404,8.8438 23.2314,13.9465 38.9144,16.0897 14.6068,1.5407 26.9047,-0.7669 39.4757,-2.6193 16.4002,-3.4206 25.6399,-12.8083 33.676,-23.199 4.188,-8.0615 7.6011,-17.2853 8.9802,-29.56 0.1671,-11.8575 -2.4879,-24.9245 -4.6772,-37.7919 -3.678,-11.8565 -9.5794,-24.1299 -18.896,-37.0436 -6.3738,-10.6207 -16.705,-17.504 -27.502,-23.9473 -6.0539,-1.7474 -10.1493,-4.5965 -19.8314,-4.3031 z"
         id="path168421-4"
         sodipodi:nodetypes="ccccccccccccc" />
    </clipPath>
    <linearGradient
       x1="-989.37677"
       y1="-3204.3379"
       x2="1175.8552"
       y2="2649.3293"
       gradientUnits="userSpaceOnUse"
       id="color-1"
       gradientTransform="matrix(0.17670732,0,0,0.17670732,-22.688903,-12.005473)">
      <stop
         offset="0"
         stop-color="#2a221e"
         id="stop2" />
      <stop
         offset="1"
         stop-color="#2a221e"
         stop-opacity="0"
         id="stop4" />
    </linearGradient>
    <linearGradient
       x1="-3323.7942"
       y1="-330.77435"
       x2="2849.8162"
       y2="585.84308"
       gradientUnits="userSpaceOnUse"
       id="color-2"
       gradientTransform="matrix(0.17670732,0,0,0.17670732,-22.688903,-12.005473)">
      <stop
         offset="0"
         stop-color="#2a221e"
         id="stop7" />
      <stop
         offset="1"
         stop-color="#2a221e"
         stop-opacity="0"
         id="stop9" />
    </linearGradient>
    <radialGradient
       inkscape:collect="always"
       xlink:href="#linearGradient203997"
       id="radialGradient203999-2-8"
       cx="1941.9802"
       cy="1670.7018"
       fx="1941.9802"
       fy="1670.7018"
       r="62.113438"
       gradientTransform="matrix(1,0,0,0.27108435,-553.78244,973.83709)"
       gradientUnits="userSpaceOnUse" />
    <linearGradient
       inkscape:collect="always"
       id="linearGradient203997">
      <stop
         style="stop-color:#85cce3;stop-opacity:1"
         offset="0"
         id="stop203993" />
      <stop
         style="stop-color:#85cce3;stop-opacity:0"
         offset="1"
         id="stop203995" />
    </linearGradient>
    <radialGradient
       inkscape:collect="always"
       xlink:href="#linearGradient203997"
       id="radialGradient203999-0-2-6"
       cx="1941.9802"
       cy="1670.7018"
       fx="1941.9802"
       fy="1670.7018"
       r="62.113438"
       gradientTransform="matrix(1,0,0,0.27108435,-552.6598,1027.7186)"
       gradientUnits="userSpaceOnUse" />
    <radialGradient
       inkscape:collect="always"
       xlink:href="#linearGradient203997"
       id="radialGradient203999-3-1-5"
       cx="1941.9802"
       cy="1670.7018"
       fx="1941.9802"
       fy="1670.7018"
       r="62.113438"
       gradientTransform="matrix(1,0,0,0.27108435,-556.40157,1087.2129)"
       gradientUnits="userSpaceOnUse" />
  </defs>
  <g
     inkscape:label="Calque 1"
     inkscape:groupmode="layer"
     id="layer1">
    <g
       id="g79280-2-4"
       transform="matrix(0.14172384,0,0,0.14172384,-182.60677,-187.64927)"
       inkscape:export-filename="C:\Users\Clément\Desktop\allCollectibles.png"
       inkscape:export-xdpi="96"
       inkscape:export-ydpi="96">
      <path
         style="fill:#b28544;fill-opacity:1;stroke:#000000;stroke-width:0.264583px;stroke-linecap:butt;stroke-linejoin:miter;stroke-opacity:1"
         d="m 1349.9041,1387.3558 c 5.5626,-9.105 12.8346,-18.2099 21.8894,-27.3149 12.8418,-7.3114 26.3886,-12.5076 40.224,-16.838 13.36,-3.9483 28.6546,-2.0927 43.4046,-1.8709 17.4677,1.1088 30.7099,6.9127 43.7788,12.9091 10.0667,12.7772 17.7469,25.0771 22.8248,36.8565 3.1856,15.5824 4.9199,30.0036 5.6126,43.5916 l -1.4967,11.5996 8.6061,8.2319 -1.8709,42.6562 -8.2319,11.4124 0.5613,16.4638 3.1805,14.0316 -7.2964,-0.1871 0.5612,4.8643 c -1.5279,1.9643 -3.2132,3.4566 -5.2385,3.9289 l -2.4321,0.3742 -0.3742,-2.9935 -6.5481,-0.9354 -0.1871,-17.3992 -5.9868,-1.3097 -3.9289,12.1608 -11.5995,12.1608 -4.8643,-3.7418 -7.8577,9.3544 0.5612,17.0251 -11.4124,15.3413 -17.7734,7.2964 -6.9223,-0.7483 0.7484,-41.3466 -5.7998,-9.5415 2.4322,-72.5904 -0.1871,-45.2755 z"
         id="path179612-5-1-27"
         sodipodi:nodetypes="cccccccccccccccccccccccccccccccccc" />
      <path
         style="fill:#85cce3;fill-opacity:1;stroke:#000000;stroke-width:0.264583px;stroke-linecap:butt;stroke-linejoin:miter;stroke-opacity:1"
         d="m 1336.2067,1418.7254 0.1984,11.6417 c 30.5276,5.646 65.2201,4.3505 98.0943,6.0854 0,0 0,-11.3771 -0.6615,-11.3771 -0.6614,0 -19.3146,-1.7198 -19.3146,-1.7198 l -0.7937,-4.3656 z"
         id="path176395-2-4-0"
         sodipodi:nodetypes="cccsccc" />
      <path
         style="fill:#85cce3;fill-opacity:1;stroke:#000000;stroke-width:0.264583px;stroke-linecap:butt;stroke-linejoin:miter;stroke-opacity:1"
         d="m 1336.2067,1468.2686 0.6614,11.6417 c 30.8627,9.2742 63.0748,6.7414 94.8532,8.0037 l 2.1166,-2.249 0.3969,-15.2135 -4.8948,3.9687 c -31.2809,0.1568 -62.5809,0.4912 -93.1333,-6.1516 z"
         id="path176719-2-5-4"
         sodipodi:nodetypes="ccccccc" />
      <path
         style="fill:#85cce3;fill-opacity:1;stroke:#000000;stroke-width:0.264583px;stroke-linecap:butt;stroke-linejoin:miter;stroke-opacity:1"
         d="m 1337.0004,1523.6327 c -0.2623,4.7152 0.086,8.5581 1.0584,11.5094 6.9879,4.1387 14.4196,7.6969 23.6802,8.8635 23.4597,2.0023 46.9194,1.033 70.3791,-0.2646 v -14.8166 l -2.3812,1.7198 c -20.5466,1.6957 -40.9249,1.876 -61.1188,0.3968 -11.322,-1.402 -22.2215,-3.3802 -31.6177,-7.4083 z"
         id="path176958-9-9-43"
         sodipodi:nodetypes="cccccccc" />
      <path
         style="fill:#a4814e;fill-opacity:1;stroke:#000000;stroke-width:0.264583px;stroke-linecap:butt;stroke-linejoin:miter;stroke-opacity:1"
         d="m 1489.665,1427.4567 c -9.0305,-1.3353 -18.3875,-0.7117 -27.649,-0.6615 l -13.3614,9.2604 c -20.6789,1.9901 -39.9563,-0.6914 -59.9281,-1.0583 -19.1311,-1.1359 -38.0842,-2.0048 -57.6792,-3.8365 l -7.276,-0.1323 0.7937,12.9646 7.5406,-0.1323 -0.7937,21.6959 4.8948,2.7781 c 9.6781,2.5069 19.7237,3.7276 29.8979,4.4979 22.4566,1.9073 42.6919,1.5933 63.2354,1.5875 l 17.9917,-13.0969 42.5979,-1.3229 z"
         id="path177433-1-9-6"
         sodipodi:nodetypes="ccccccccccccccc" />
      <path
         style="fill:#a4814e;fill-opacity:1;stroke:#000000;stroke-width:0.264583px;stroke-linecap:butt;stroke-linejoin:miter;stroke-opacity:1"
         d="m 1373.8437,1436.2541 0.8598,14.7505 10.2527,0.7937 -0.5292,-15.8088 z"
         id="path178319-1-4-2" />
      <path
         style="fill:#a4814e;fill-opacity:1;stroke:#000000;stroke-width:0.264583px;stroke-linecap:butt;stroke-linejoin:miter;stroke-opacity:1"
         d="m 1333.0194,1476.2229 0.2338,-3.8353 -4.303,-4.5369 -0.3742,-8.4658 -5.0046,0.1872 1.029,34.471 2.0112,0.8887 6.5481,-0.4677 c 0.075,8.6655 0.4375,17.6185 -1.4032,24.3683 1.1728,1.8769 2.5853,3.634 5.2385,4.7707 8.5694,2.7687 17.0423,5.7949 26.3315,6.6442 22.3565,3.0074 44.4236,1.3859 66.5427,0.5953 l 23.6802,-17.1318 4.7726,0.8653 0.1871,-14.2187 15.9961,-16.9315 14.1252,-0.4678 -0.1871,-9.448 -36.1081,0.3742 -19.8314,14.4058 -57.0621,-1.6837 c -12.953,-0.6712 -25.7426,-3.1393 -38.4467,-6.5482 l -4.5837,-1.4031 z"
         id="path178655-0-5-5"
         sodipodi:nodetypes="cccccccccccccccccccccccc" />
      <path
         style="fill:#a4814e;fill-opacity:1;stroke:#000000;stroke-width:0.264583px;stroke-linecap:butt;stroke-linejoin:miter;stroke-opacity:1"
         d="m 1333.5339,1528.5142 c -1.9645,-1.029 -4.9579,-2.6192 -4.9579,-2.6192 l 0.2807,-4.116 -5.0514,0.3742 0.093,18.8024 5.0514,6.1739 -0.2806,7.0159 -8.6061,0.6548 -4.0224,6.2674 -0.1871,11.5995 17.5863,-1.1225 c 0.9994,7.8574 7.6434,10.2874 12.9528,14.0006 10.3057,4.2006 20.4241,5.4043 30.5594,6.8792 21.4771,1.1698 41.1204,-0.7637 60.325,-3.4396 l 0.6615,-36.2479 10.3187,-0.2646 10.3188,-7.8052 0.6614,-9.525 22.3573,-0.9261 -1.1906,-9.9218 -24.2094,3.0427 c -8.6435,4.2105 -15.8801,11.0002 -23.5479,16.9995 l -27.7813,0.6614 c -13.826,0.4136 -27.9421,0.4127 -42.9947,-0.926 -8.2461,-2.3264 -17.1379,-3.2967 -23.7464,-9.062 z"
         id="path179069-8-2-6"
         sodipodi:nodetypes="cccccccccccccccccccccccccc" />
      <path
         style="fill:#a4814e;fill-opacity:1;stroke:#000000;stroke-width:0.264583px;stroke-linecap:butt;stroke-linejoin:miter;stroke-opacity:1"
         d="m 1330.2598,1382.9592 10.1028,-0.8419 -0.3742,-12.8155 -9.6351,-0.4678 -8.6996,11.6931 0.6548,17.7734 0.8419,13.9381 7.1094,-0.6548 -0.1871,6.361 6.2675,1.1225 77.7353,-0.093 0.4678,4.2095 19.2701,2.1515 8.8867,-0.8419 -1.4032,-23.1054 -17.6799,-16.6509 c -16.2244,-0.9707 -32.8869,-1.2112 -49.8591,-0.9355 -14.1381,0.086 -28.2239,-0.1144 -42.8433,2.6193 z"
         id="path177852-8-0-0"
         sodipodi:nodetypes="ccccccccccccccccccc" />
      <path
         style="fill:#a4814e;fill-opacity:1;stroke:#000000;stroke-width:0.264583px;stroke-linecap:butt;stroke-linejoin:miter;stroke-opacity:1"
         d="m 1375.5634,1361.7739 -1.3229,1.5875 -1.1906,11.8401 1.7198,36.9755 8.0698,-0.1323 -0.2646,-49.6094 -0.7937,-0.5953 z"
         id="path178152-1-3-5" />
      <path
         style="fill:#a4814e;fill-opacity:1;stroke:#000000;stroke-width:0.264583px;stroke-linecap:butt;stroke-linejoin:miter;stroke-opacity:1"
         d="m 1377.0187,1469.1947 v 24.1432 l -0.6615,1.9182 -0.463,5.7547 1.4552,8.0698 7.5406,-0.463 -0.7937,-12.6339 0.3968,-11.377 0.7276,-15.1474 z"
         id="path178420-4-9-9" />
      <path
         style="fill:#a4814e;fill-opacity:1;stroke:#000000;stroke-width:0.264583px;stroke-linecap:butt;stroke-linejoin:miter;stroke-opacity:1"
         d="m 1378.1545,1540.3008 -0.4677,1.4032 0.4677,24.6957 -1.3096,15.6219 c 0,0 -0.3742,10.664 -0.2806,11.1318 0.093,0.4677 0.4677,8.3254 0.4677,8.3254 l 7.2964,0.3742 2.8999,-9.7286 -0.8419,-25.4441 0.1871,-26.9408 z"
         id="path178554-5-1-7" />
      <path
         style="fill:#a4814e;fill-opacity:1;stroke:#000000;stroke-width:0.264583px;stroke-linecap:butt;stroke-linejoin:miter;stroke-opacity:1"
         d="m 1476.6299,1360.2051 -23.2833,-17.1979 2.9104,-15.875 2.249,-1.0584 15.7427,3.7042 -0.6615,10.1865 9.1281,4.4979 -1.0583,5.0271 5.424,7.1437 -2.1167,4.3656 z"
         id="path189319-3-4" />
      <path
         style="fill:#a4814e;fill-opacity:1;stroke:#000000;stroke-width:0.264583px;stroke-linecap:butt;stroke-linejoin:miter;stroke-opacity:1"
         d="m 1398.3133,1348.6957 -1.4553,-7.9375 1.9844,-2.1167 14.2875,2.6459 1.7198,2.7781 z"
         id="path189321-6-0" />
      <ellipse
         style="opacity:1;fill:url(#radialGradient203999-2-8);fill-opacity:1;stroke:#000000;stroke-width:0;stroke-miterlimit:4;stroke-dasharray:none;stroke-opacity:1"
         id="path203903-1-2"
         cx="1388.1978"
         cy="1426.7382"
         rx="62.113438"
         ry="16.83798" />
      <ellipse
         style="fill:url(#radialGradient203999-0-2-6);fill-opacity:1;stroke:#000000;stroke-width:0;stroke-miterlimit:4;stroke-dasharray:none;stroke-opacity:1"
         id="path203903-0-6-9"
         cx="1389.3204"
         cy="1480.6196"
         rx="62.113438"
         ry="16.83798" />
      <ellipse
         style="fill:url(#radialGradient203999-3-1-5);fill-opacity:1;stroke:#000000;stroke-width:0;stroke-miterlimit:4;stroke-dasharray:none;stroke-opacity:1"
         id="path203903-03-0-8"
         cx="1385.5786"
         cy="1540.1138"
         rx="62.113438"
         ry="16.83798" />
    </g>
  </g>
</svg>
