<?xml version="1.0" encoding="UTF-8" standalone="no"?>
<!-- Created with Inkscape (http://www.inkscape.org/) -->

<svg
   width="150"
   height="150"
   viewBox="0 0 39.687499 39.687501"
   version="1.1"
   id="svg5"
   inkscape:version="1.1.1 (3bf5ae0d25, 2021-09-20)"
   sodipodi:docname="zzz - Copie (10).svg"
   inkscape:export-filename="C:\Users\Clément\Desktop\freepic\res\img/icon.png"
   inkscape:export-xdpi="96"
   inkscape:export-ydpi="96"
   xmlns:inkscape="http://www.inkscape.org/namespaces/inkscape"
   xmlns:sodipodi="http://sodipodi.sourceforge.net/DTD/sodipodi-0.dtd"
   xmlns="http://www.w3.org/2000/svg"
   xmlns:svg="http://www.w3.org/2000/svg">
  <sodipodi:namedview
     id="namedview7"
     pagecolor="#ffffff"
     bordercolor="#666666"
     borderopacity="1.0"
     inkscape:pageshadow="2"
     inkscape:pageopacity="0.0"
     inkscape:pagecheckerboard="true"
     inkscape:document-units="mm"
     showgrid="false"
     units="px"
     inkscape:zoom="3.0289002"
     inkscape:cx="62.729039"
     inkscape:cy="70.487631"
     inkscape:window-width="1920"
     inkscape:window-height="1013"
     inkscape:window-x="-9"
     inkscape:window-y="-9"
     inkscape:window-maximized="1"
     inkscape:current-layer="layer1"
     inkscape:snap-object-midpoints="false"
     inkscape:snap-center="false" />
  <defs
     id="defs2">
    <clipPath
       clipPathUnits="userSpaceOnUse"
       id="clipPath168419-0">
      <path
         style="fill:#d4d591;fill-opacity:1;stroke:#000000;stroke-width:0.264583px;stroke-linecap:butt;stroke-linejoin:miter;stroke-opacity:1"
         d="m 1976.6629,1120.9601 c -14.9756,1.5925 -25.8038,9.2969 -36.1081,17.7735 -10.8363,13.4703 -17.8314,26.9407 -24.1344,40.4111 -5.0825,17.6623 -6.7297,33.8216 -6.174,49.0172 2.96,13.8998 7.3576,26.531 16.2768,35.1727 10.0404,8.8438 23.2314,13.9465 38.9144,16.0897 14.6068,1.5407 26.9047,-0.7669 39.4757,-2.6193 16.4002,-3.4206 25.6399,-12.8083 33.676,-23.199 4.188,-8.0615 7.6011,-17.2853 8.9802,-29.56 0.1671,-11.8575 -2.4879,-24.9245 -4.6772,-37.7919 -3.678,-11.8565 -9.5794,-24.1299 -18.896,-37.0436 -6.3738,-10.6207 -16.705,-17.504 -27.502,-23.9473 -6.0539,-1.7474 -10.1493,-4.5965 -19.8314,-4.3031 z"
         id="path168421-4"
         sodipodi:nodetypes="ccccccccccccc" />
    </clipPath>
    <linearGradient
       x1="-989.37677"
       y1="-3204.3379"
       x2="1175.8552"
       y2="2649.3293"
       gradientUnits="userSpaceOnUse"
       id="color-1"
       gradientTransform="matrix(0.17670732,0,0,0.17670732,-22.688903,-12.005473)">
      <stop
         offset="0"
         stop-color="#2a221e"
         id="stop2" />
      <stop
         offset="1"
         stop-color="#2a221e"
         stop-opacity="0"
         id="stop4" />
    </linearGradient>
    <linearGradient
       x1="-3323.7942"
       y1="-330.77435"
       x2="2849.8162"
       y2="585.84308"
       gradientUnits="userSpaceOnUse"
       id="color-2"
       gradientTransform="matrix(0.17670732,0,0,0.17670732,-22.688903,-12.005473)">
      <stop
         offset="0"
         stop-color="#2a221e"
         id="stop7" />
      <stop
         offset="1"
         stop-color="#2a221e"
         stop-opacity="0"
         id="stop9" />
    </linearGradient>
  </defs>
  <g
     inkscape:label="Calque 1"
     inkscape:groupmode="layer"
     id="layer1">
    <g
       id="g12150"
       transform="matrix(1.7603498,2.4528404,-2.4528404,1.7603498,-762.96698,-1146.2254)">
      <path
         style="fill:#a9d739;fill-opacity:1;stroke:#86b006;stroke-width:0.2;stroke-linecap:butt;stroke-linejoin:miter;stroke-miterlimit:4;stroke-dasharray:none;stroke-opacity:1"
         d="m 460.71554,10.379409 0.36449,-0.183077 c 1.55391,1.923443 2.26864,3.6604 3.32081,5.472344 0.3902,0.990873 0.74793,1.916792 1.07577,2.782944 0.1306,0.625552 0.27887,1.23343 0.35079,1.917659 -0.0714,0.880876 -0.27368,1.761751 0.18708,2.642627 -0.39954,-0.720577 -0.96775,-1.398986 -1.14591,-2.174906 -0.23853,-1.350154 -0.47655,-2.700136 -1.26285,-4.232881 -0.44581,-1.531972 -1.4364,-3.132043 -2.36199,-4.723989 -0.24119,-0.468184 -0.41128,-0.908252 -0.52819,-1.500721 z"
         id="path3998"
         sodipodi:nodetypes="cccccccccc" />
      <path
         style="fill:#587500;fill-opacity:1;stroke:#86b006;stroke-width:0;stroke-linecap:butt;stroke-linejoin:miter;stroke-miterlimit:4;stroke-dasharray:none;stroke-opacity:1"
         d="m 461.02247,9.5073894 c -0.0849,0.077868 -0.11032,0.1887891 -0.11325,0.312177 -0.26337,0.1502057 -0.33696,0.3655196 -0.27101,0.6072016 l 0.53517,-0.219554 c -0.0707,-0.10104 -0.15952,-0.165805 -0.20582,-0.3156066 0.10127,-0.1200472 0.18212,-0.2459304 0.21953,-0.384218 z"
         id="path5884"
         sodipodi:nodetypes="ccccccc" />
      <path
         style="fill:#ffffff;fill-opacity:1;stroke:#000000;stroke-width:0;stroke-linecap:butt;stroke-linejoin:miter;stroke-miterlimit:4;stroke-dasharray:none;stroke-opacity:1"
         d="m 460.74151,10.34208 c 0.0356,0.162612 0.12502,0.217694 0.22217,0.257247 l 0.0702,-0.350791 c 0.0844,0.167681 0.22879,0.155538 0.37418,0.140316 l -0.31573,-0.280633 -0.45601,0.210475 -0.15203,0.280633 0.14034,0.02339 c 0.0715,-0.03126 0.10983,-0.158727 0.11688,-0.280637 z"
         id="path5030"
         sodipodi:nodetypes="ccccccccc" />
    </g>
    <g
       id="g12145"
       transform="matrix(2.3848462,-0.10597917,0.10597917,2.3848462,-1088.9443,26.414813)">
      <path
         style="fill:#a9d739;fill-opacity:1;stroke:#86b006;stroke-width:0.2;stroke-linecap:butt;stroke-linejoin:miter;stroke-miterlimit:4;stroke-dasharray:none;stroke-opacity:1"
         d="m 466.29659,11.194213 0.36449,-0.183077 c 1.55391,1.923443 2.26864,3.6604 3.32081,5.472344 0.3902,0.990873 0.74793,1.916792 1.07577,2.782944 0.1306,0.625552 0.27887,1.23343 0.35079,1.917659 -0.0714,0.880876 -0.27368,1.761751 0.18708,2.642627 -0.39954,-0.720577 -0.96775,-1.398986 -1.14591,-2.174906 -0.23853,-1.350154 -0.47655,-2.700136 -1.26285,-4.232881 -0.44581,-1.531972 -1.4364,-3.132043 -2.36199,-4.723989 -0.24119,-0.468184 -0.41128,-0.908252 -0.52819,-1.500721 z"
         id="path3998-9"
         sodipodi:nodetypes="cccccccccc" />
      <path
         style="fill:#587500;fill-opacity:1;stroke:#86b006;stroke-width:0;stroke-linecap:butt;stroke-linejoin:miter;stroke-miterlimit:4;stroke-dasharray:none;stroke-opacity:1"
         d="m 466.60352,10.322194 c -0.0849,0.07787 -0.11032,0.188789 -0.11325,0.312177 -0.26337,0.150205 -0.33696,0.365519 -0.27101,0.607201 l 0.53517,-0.219554 c -0.0707,-0.10104 -0.15952,-0.165805 -0.20582,-0.315606 0.10127,-0.120048 0.18212,-0.245931 0.21953,-0.384218 z"
         id="path5884-1"
         sodipodi:nodetypes="ccccccc" />
      <path
         style="fill:#ffffff;fill-opacity:1;stroke:#000000;stroke-width:0;stroke-linecap:butt;stroke-linejoin:miter;stroke-miterlimit:4;stroke-dasharray:none;stroke-opacity:1"
         d="m 466.32256,11.156884 c 0.0356,0.162612 0.12502,0.217694 0.22217,0.257247 l 0.0702,-0.350791 c 0.0844,0.167681 0.22879,0.155538 0.37418,0.140316 l -0.31573,-0.280633 -0.45601,0.210475 -0.15203,0.280633 0.14034,0.02339 c 0.0715,-0.03126 0.10983,-0.158727 0.11688,-0.280637 z"
         id="path5030-1"
         sodipodi:nodetypes="ccccccccc" />
    </g>
  </g>
</svg>
