<?xml version="1.0" encoding="UTF-8" standalone="no"?>
<!-- Created with Inkscape (http://www.inkscape.org/) -->

<svg
   width="150"
   height="150"
   viewBox="0 0 39.687499 39.687501"
   version="1.1"
   id="svg5"
   inkscape:version="1.1.1 (3bf5ae0d25, 2021-09-20)"
   sodipodi:docname="zzz - Copie - Copie (3).svg"
   inkscape:export-filename="C:\Users\Clément\Desktop\freepic\res\img/icon.png"
   inkscape:export-xdpi="96"
   inkscape:export-ydpi="96"
   xmlns:inkscape="http://www.inkscape.org/namespaces/inkscape"
   xmlns:sodipodi="http://sodipodi.sourceforge.net/DTD/sodipodi-0.dtd"
   xmlns="http://www.w3.org/2000/svg"
   xmlns:svg="http://www.w3.org/2000/svg">
  <sodipodi:namedview
     id="namedview7"
     pagecolor="#ffffff"
     bordercolor="#666666"
     borderopacity="1.0"
     inkscape:pageshadow="2"
     inkscape:pageopacity="0.0"
     inkscape:pagecheckerboard="true"
     inkscape:document-units="mm"
     showgrid="false"
     units="px"
     inkscape:zoom="3.0289002"
     inkscape:cx="62.729039"
     inkscape:cy="70.487631"
     inkscape:window-width="1920"
     inkscape:window-height="1013"
     inkscape:window-x="-9"
     inkscape:window-y="-9"
     inkscape:window-maximized="1"
     inkscape:current-layer="layer1"
     inkscape:snap-object-midpoints="false"
     inkscape:snap-center="false" />
  <defs
     id="defs2">
    <clipPath
       clipPathUnits="userSpaceOnUse"
       id="clipPath168419-0">
      <path
         style="fill:#d4d591;fill-opacity:1;stroke:#000000;stroke-width:0.264583px;stroke-linecap:butt;stroke-linejoin:miter;stroke-opacity:1"
         d="m 1976.6629,1120.9601 c -14.9756,1.5925 -25.8038,9.2969 -36.1081,17.7735 -10.8363,13.4703 -17.8314,26.9407 -24.1344,40.4111 -5.0825,17.6623 -6.7297,33.8216 -6.174,49.0172 2.96,13.8998 7.3576,26.531 16.2768,35.1727 10.0404,8.8438 23.2314,13.9465 38.9144,16.0897 14.6068,1.5407 26.9047,-0.7669 39.4757,-2.6193 16.4002,-3.4206 25.6399,-12.8083 33.676,-23.199 4.188,-8.0615 7.6011,-17.2853 8.9802,-29.56 0.1671,-11.8575 -2.4879,-24.9245 -4.6772,-37.7919 -3.678,-11.8565 -9.5794,-24.1299 -18.896,-37.0436 -6.3738,-10.6207 -16.705,-17.504 -27.502,-23.9473 -6.0539,-1.7474 -10.1493,-4.5965 -19.8314,-4.3031 z"
         id="path168421-4"
         sodipodi:nodetypes="ccccccccccccc" />
    </clipPath>
    <linearGradient
       x1="-989.37677"
       y1="-3204.3379"
       x2="1175.8552"
       y2="2649.3293"
       gradientUnits="userSpaceOnUse"
       id="color-1"
       gradientTransform="matrix(0.17670732,0,0,0.17670732,-22.688903,-12.005473)">
      <stop
         offset="0"
         stop-color="#2a221e"
         id="stop2" />
      <stop
         offset="1"
         stop-color="#2a221e"
         stop-opacity="0"
         id="stop4" />
    </linearGradient>
    <linearGradient
       x1="-3323.7942"
       y1="-330.77435"
       x2="2849.8162"
       y2="585.84308"
       gradientUnits="userSpaceOnUse"
       id="color-2"
       gradientTransform="matrix(0.17670732,0,0,0.17670732,-22.688903,-12.005473)">
      <stop
         offset="0"
         stop-color="#2a221e"
         id="stop7" />
      <stop
         offset="1"
         stop-color="#2a221e"
         stop-opacity="0"
         id="stop9" />
    </linearGradient>
  </defs>
  <g
     inkscape:label="Calque 1"
     inkscape:groupmode="layer"
     id="layer1">
    <path
       style="fill:#fde1b1;fill-opacity:1;stroke:#eec58b;stroke-width:0.729549;stroke-linecap:butt;stroke-linejoin:miter;stroke-miterlimit:4;stroke-dasharray:none;stroke-opacity:1"
       d="m 22.861995,2.1020338 c 4.452806,-2.65555073 6.687232,0.9512675 9.602916,2.6350205 1.649691,3.5688374 2.790378,6.9770517 0.797753,9.3967727 -1.716476,1.624734 -3.659115,2.629339 -6.781501,0.396647 C 25.49593,13.225191 25.375882,12.13379 25.721991,11.15757 26.378392,9.8349762 27.472747,8.580074 23.874065,6.59926 23.148763,5.1918232 21.446321,4.0151771 22.861962,2.102044 Z"
       id="path21780"
       sodipodi:nodetypes="ccccccc" />
    <path
       style="fill:#843e2e;fill-opacity:1;stroke:#000000;stroke-width:0;stroke-linecap:butt;stroke-linejoin:miter;stroke-miterlimit:4;stroke-dasharray:none;stroke-opacity:1"
       d="m 25.166552,7.1239465 c 2.260545,1.6990322 1.329326,2.4582383 1.050583,3.7199445 l 0.663433,0.418481 C 27.275331,10.148748 28.52869,8.8225138 26.863501,7.3387102 26.275455,7.0133265 25.451821,6.5631187 25.164166,7.1242917 Z"
       id="path22670"
       sodipodi:nodetypes="cccccc" />
    <path
       style="fill:#ffffff;fill-opacity:0.5;stroke:#000000;stroke-width:0;stroke-linecap:butt;stroke-linejoin:miter;stroke-miterlimit:4;stroke-dasharray:none;stroke-opacity:1"
       d="m 26.737578,2.9013782 c 0.473735,-0.1425132 1.183843,0.4263379 1.582463,0.6713249 0.142719,0.088328 0.373526,0.1801048 0.486711,0.3080731 0.02732,0.028339 0.04132,0.069993 0.0635,0.094712 0.0239,0.027315 0.06896,0.030045 0.08775,0.060263 0.03415,0.053434 0.05258,0.1223347 0.08058,0.183963 0.08775,0.1838947 0.199053,0.4369906 0.353346,0.5785547 0.05532,0.052068 0.130427,0.089625 0.193249,0.1324752 0.01708,0.011267 0.116429,0.2700377 -0.05155,0.3008689 C 29.30555,5.2741219 28.891121,4.8121552 28.771689,4.6835108 28.719793,4.6266282 28.562391,4.50006 28.51425,4.4555374 28.452105,4.4429043 28.464406,4.3798083 28.432986,4.3483964 28.355141,4.2738281 28.240762,4.216775 28.151307,4.1553516 28.009271,4.0580779 27.864505,3.9328069 27.711305,3.8537998 27.434404,3.7107743 27.13094,3.6372643 26.858547,3.4759586 26.633544,3.3430396 26.423393,3.1776846 26.207745,3.0297255 26.126144,2.9739698 26.034299,2.8877244 25.94416,2.8490402 c -0.02049,-0.0082 -0.04712,-0.00888 -0.0659,-0.019803 -0.145108,-0.078563 -0.26973,-0.228349 -0.422418,-0.2896017 -0.07204,-0.027998 -0.21237,-0.058009 -0.28885,-0.068764 -0.264609,-0.00337 0.0833,0.015365 -0.129062,-0.037352 -0.153985,-0.03848 -0.07887,-0.00104 -0.183006,0.00375 -0.163887,0.00683 0.05975,-0.00956 -0.08161,-0.030387 -0.03414,-0.0058 -0.05872,0.020827 -0.09048,0.015706 -0.0239,-0.00375 -0.04268,-0.015365 -0.0659,-0.019461 -0.0239,-0.00444 -0.03585,0.016048 -0.0478,-0.00717 -0.01707,-0.028339 -0.0068,-0.028339 0.0068,-0.046742 0.0239,-0.03527 0.03483,-0.086587 0.07238,-0.105502 0.131451,-0.062209 0.344673,-0.053434 0.474554,-0.088328 0.03073,-0.0082 0.05121,-0.038343 0.08433,-0.045615 0.30797,-0.08686 0.732096,0.2950646 0.975945,0.462277 0.04815,0.033119 0.258122,0.2089899 0.316508,0.2169794 0.113695,0.015023 0.13384,0.040596 0.234904,0.1099407 z"
       id="path26374" />
    <path
       style="fill:#fde1b1;fill-opacity:1;stroke:#eec58b;stroke-width:0.729549;stroke-linecap:butt;stroke-linejoin:miter;stroke-miterlimit:4;stroke-dasharray:none;stroke-opacity:1"
       d="m 8.1463218,22.55378 c -5.1449544,0.639719 -4.6925584,4.858381 -5.9590623,7.978025 0.8904519,3.829517 2.0838895,7.219625 5.1425985,7.905035 2.3524931,0.2277 4.502519,-0.172867 5.594926,-3.852649 -0.0239,-1.635185 -0.60003,-2.570156 -1.472727,-3.127921 C 10.12167,30.815821 8.4872746,30.497802 10.110267,26.724191 9.8180011,25.168055 10.438723,23.19382 8.1464241,22.553736 Z"
       id="path21780-3"
       sodipodi:nodetypes="ccccccc" />
    <path
       style="fill:#843e2e;fill-opacity:1;stroke:#000000;stroke-width:0;stroke-linecap:butt;stroke-linejoin:miter;stroke-miterlimit:4;stroke-dasharray:none;stroke-opacity:1"
       d="m 9.4125866,27.932181 c -0.740154,2.729276 0.4610339,2.756355 1.4561354,3.580681 l -0.266317,0.737741 C 9.6068267,31.614336 7.8031154,31.337701 8.2056966,29.143957 8.4699641,28.525984 8.8432164,27.664793 9.4149424,27.930921 Z"
       id="path22670-5"
       sodipodi:nodetypes="cccccc" />
    <path
       style="fill:#ffffff;fill-opacity:0.5;stroke:#000000;stroke-width:0;stroke-linecap:butt;stroke-linejoin:miter;stroke-miterlimit:4;stroke-dasharray:none;stroke-opacity:1"
       d="m 5.5791025,25.565177 c -0.4613414,0.178568 -0.6722774,1.063616 -0.8363349,1.501794 -0.058726,0.157434 -0.1840313,0.371597 -0.1949571,0.542077 -0.00341,0.03954 0.010238,0.08089 0.00683,0.113764 -0.00243,0.03657 -0.036192,0.06607 -0.030728,0.101473 0.00683,0.06323 0.034826,0.128377 0.049167,0.194751 0.043703,0.199021 0.1113064,0.467142 0.076822,0.673521 -0.010238,0.07498 -0.048142,0.150878 -0.071017,0.223261 -0.00683,0.01912 0.074091,0.284515 0.2256858,0.205679 0.205883,-0.106528 0.2492447,-0.725654 0.2646091,-0.900528 0.00683,-0.07672 0.05258,-0.273384 0.063164,-0.338017 0.041313,-0.04828 -0.00683,-0.09061 -0.00154,-0.134558 0.017071,-0.106699 0.071017,-0.221998 0.1037953,-0.325418 0.052239,-0.163988 0.089455,-0.351742 0.1618383,-0.508223 0.1304266,-0.282909 0.3250423,-0.52736 0.4408215,-0.821971 0.095943,-0.243099 0.1601312,-0.502668 0.239343,-0.751888 0.030728,-0.09416 0.049508,-0.218619 0.096966,-0.304523 0.010238,-0.01878 0.030728,-0.03586 0.039606,-0.05606 0.066238,-0.151083 0.072725,-0.345904 0.1556926,-0.488055 0.039606,-0.06635 0.1321337,-0.176247 0.1857384,-0.231763 0.2069071,-0.165219 -0.056336,0.0633 0.07887,-0.108814 0.097991,-0.124999 0.061458,-0.04934 0.1468154,-0.109463 0.1334995,-0.09526 -0.053263,0.02936 0.045752,-0.07416 0.0239,-0.02526 0.059409,-0.01946 0.080919,-0.04309 0.017071,-0.01844 0.0239,-0.03834 0.040289,-0.05589 0.013657,-0.01741 0.037899,-0.0095 0.034143,-0.03503 -0.00341,-0.03312 -0.013657,-0.02629 -0.034143,-0.03312 -0.039606,-0.01332 -0.080578,-0.04695 -0.1218908,-0.03883 -0.1420353,0.03175 -0.3048978,0.169521 -0.4287007,0.221965 -0.027315,0.01195 -0.064189,0.0012 -0.094577,0.01605 -0.2963621,0.120593 -0.3964696,0.682536 -0.4861635,0.964276 -0.017071,0.05561 -0.075115,0.323403 -0.116428,0.365675 -0.080578,0.08173 -0.080578,0.114277 -0.1177936,0.231013 z"
       id="path26374-4" />
    <path
       style="fill:#fde1b1;fill-opacity:1;stroke:#eec58b;stroke-width:0.729549;stroke-linecap:butt;stroke-linejoin:miter;stroke-miterlimit:4;stroke-dasharray:none;stroke-opacity:1"
       d="m 34.936598,23.061088 c 3.379278,3.931915 0.208614,6.751329 -0.950579,9.912402 -3.233385,2.23682 -6.395718,3.944641 -9.121087,2.396109 -1.894839,-1.412688 -3.217475,-3.154454 -1.552829,-6.613234 1.117163,-1.194326 2.171877,-1.49961 3.19296,-1.3259 1.415505,0.420066 2.839374,1.283203 4.174233,-2.601669 1.262338,-0.955741 2.129879,-2.834624 4.257267,-1.767742 z"
       id="path21780-0"
       sodipodi:nodetypes="ccccccc" />
    <path
       style="fill:#843e2e;fill-opacity:1;stroke:#000000;stroke-width:0;stroke-linecap:butt;stroke-linejoin:miter;stroke-miterlimit:4;stroke-dasharray:none;stroke-opacity:1"
       d="m 30.383821,26.192075 c -1.286546,2.518244 -2.194069,1.730887 -3.484883,1.672461 l -0.298752,0.72533 c 1.164791,0.198098 2.686173,1.205671 3.86271,-0.689145 0.219882,-0.635105 0.522219,-1.5237 -0.0799,-1.710944 z"
       id="path22670-0"
       sodipodi:nodetypes="cccccc" />
    <path
       style="fill:#ffffff;fill-opacity:0.5;stroke:#000000;stroke-width:0;stroke-linecap:butt;stroke-linejoin:miter;stroke-miterlimit:4;stroke-dasharray:none;stroke-opacity:1"
       d="m 34.81317,27.01632 c 0.221589,0.442306 -0.21715,1.239387 -0.390256,1.67409 -0.06248,0.155761 -0.113354,0.398863 -0.220222,0.532301 -0.0239,0.03175 -0.0618,0.05269 -0.08228,0.07881 -0.0239,0.02834 -0.01708,0.0731 -0.04438,0.09676 -0.04678,0.04278 -0.111649,0.07276 -0.167302,0.110897 -0.166277,0.117964 -0.396401,0.270994 -0.509449,0.447257 -0.04166,0.06341 -0.0659,0.143846 -0.0973,0.213088 -0.0068,0.01878 -0.246172,0.160985 -0.30524,7.61e-4 -0.08092,-0.217424 0.303191,-0.704878 0.409444,-0.844588 0.04712,-0.06087 0.144766,-0.237636 0.180617,-0.292708 0.0018,-0.06341 0.0659,-0.0621 0.0915,-0.09844 0.06009,-0.08945 0.09662,-0.211926 0.142036,-0.310599 0.07136,-0.156615 0.170033,-0.320706 0.221589,-0.485167 0.09355,-0.297318 0.113696,-0.608884 0.226027,-0.904887 0.09253,-0.244465 0.219199,-0.47983 0.328115,-0.717641 0.04097,-0.08993 0.110282,-0.19523 0.132817,-0.29066 0.0034,-0.02151 6.83e-4,-0.04793 0.0068,-0.06832 0.05258,-0.156444 0.178569,-0.304864 0.213052,-0.465797 0.01366,-0.07576 0.02049,-0.219165 0.01707,-0.296362 -0.042,-0.261264 -8.53e-4,0.0847 0.01366,-0.133568 0.01026,-0.158288 -0.01366,-0.07788 -0.03517,-0.179662 -0.03483,-0.160301 0.02049,0.05723 0.01707,-0.08559 -1.03e-4,-0.03463 -0.03073,-0.05429 -0.03073,-0.08645 -3.77e-4,-0.02424 0.0068,-0.04469 0.0068,-0.06825 2.73e-4,-0.02424 -0.02049,-0.03243 -0.0012,-0.04832 0.0239,-0.02151 0.02732,-0.01161 0.04712,-0.0013 0.03892,0.01741 0.09116,0.01946 0.116427,0.05323 0.08365,0.118852 0.111648,0.330436 0.168325,0.452402 0.01366,0.02903 0.04644,0.04387 0.05941,0.07525 0.13828,0.288542 -0.165252,0.771827 -0.288167,1.040722 -0.0239,0.05309 -0.161496,0.290113 -0.159448,0.349007 0.0034,0.114584 -0.01708,0.138826 -0.06795,0.250269 z"
       id="path26374-7" />
  </g>
</svg>
