<?xml version="1.0" encoding="UTF-8" standalone="no"?>
<!-- Created with Inkscape (http://www.inkscape.org/) -->

<svg
   width="150"
   height="150"
   viewBox="0 0 39.687499 39.687501"
   version="1.1"
   id="svg5"
   inkscape:version="1.1.1 (3bf5ae0d25, 2021-09-20)"
   sodipodi:docname="zzz - Copie (7).svg"
   inkscape:export-filename="C:\Users\Clément\Desktop\freepic\res\img/icon.png"
   inkscape:export-xdpi="96"
   inkscape:export-ydpi="96"
   xmlns:inkscape="http://www.inkscape.org/namespaces/inkscape"
   xmlns:sodipodi="http://sodipodi.sourceforge.net/DTD/sodipodi-0.dtd"
   xmlns:xlink="http://www.w3.org/1999/xlink"
   xmlns="http://www.w3.org/2000/svg"
   xmlns:svg="http://www.w3.org/2000/svg">
  <sodipodi:namedview
     id="namedview7"
     pagecolor="#ffffff"
     bordercolor="#666666"
     borderopacity="1.0"
     inkscape:pageshadow="2"
     inkscape:pageopacity="0.0"
     inkscape:pagecheckerboard="true"
     inkscape:document-units="mm"
     showgrid="false"
     units="px"
     inkscape:zoom="3.0289002"
     inkscape:cx="62.729039"
     inkscape:cy="70.487631"
     inkscape:window-width="1920"
     inkscape:window-height="1013"
     inkscape:window-x="-9"
     inkscape:window-y="-9"
     inkscape:window-maximized="1"
     inkscape:current-layer="layer1"
     inkscape:snap-object-midpoints="false"
     inkscape:snap-center="false" />
  <defs
     id="defs2">
    <clipPath
       clipPathUnits="userSpaceOnUse"
       id="clipPath168419-0">
      <path
         style="fill:#d4d591;fill-opacity:1;stroke:#000000;stroke-width:0.264583px;stroke-linecap:butt;stroke-linejoin:miter;stroke-opacity:1"
         d="m 1976.6629,1120.9601 c -14.9756,1.5925 -25.8038,9.2969 -36.1081,17.7735 -10.8363,13.4703 -17.8314,26.9407 -24.1344,40.4111 -5.0825,17.6623 -6.7297,33.8216 -6.174,49.0172 2.96,13.8998 7.3576,26.531 16.2768,35.1727 10.0404,8.8438 23.2314,13.9465 38.9144,16.0897 14.6068,1.5407 26.9047,-0.7669 39.4757,-2.6193 16.4002,-3.4206 25.6399,-12.8083 33.676,-23.199 4.188,-8.0615 7.6011,-17.2853 8.9802,-29.56 0.1671,-11.8575 -2.4879,-24.9245 -4.6772,-37.7919 -3.678,-11.8565 -9.5794,-24.1299 -18.896,-37.0436 -6.3738,-10.6207 -16.705,-17.504 -27.502,-23.9473 -6.0539,-1.7474 -10.1493,-4.5965 -19.8314,-4.3031 z"
         id="path168421-4"
         sodipodi:nodetypes="ccccccccccccc" />
    </clipPath>
    <linearGradient
       x1="-989.37677"
       y1="-3204.3379"
       x2="1175.8552"
       y2="2649.3293"
       gradientUnits="userSpaceOnUse"
       id="color-1"
       gradientTransform="matrix(0.17670732,0,0,0.17670732,-22.688903,-12.005473)">
      <stop
         offset="0"
         stop-color="#2a221e"
         id="stop2" />
      <stop
         offset="1"
         stop-color="#2a221e"
         stop-opacity="0"
         id="stop4" />
    </linearGradient>
    <linearGradient
       x1="-3323.7942"
       y1="-330.77435"
       x2="2849.8162"
       y2="585.84308"
       gradientUnits="userSpaceOnUse"
       id="color-2"
       gradientTransform="matrix(0.17670732,0,0,0.17670732,-22.688903,-12.005473)">
      <stop
         offset="0"
         stop-color="#2a221e"
         id="stop7" />
      <stop
         offset="1"
         stop-color="#2a221e"
         stop-opacity="0"
         id="stop9" />
    </linearGradient>
    <linearGradient
       inkscape:collect="always"
       xlink:href="#linearGradient18933"
       id="linearGradient18935"
       x1="374.61047"
       y1="9.4130259"
       x2="379.18738"
       y2="14.803911"
       gradientUnits="userSpaceOnUse"
       gradientTransform="matrix(2.5403706,0,0,2.5403706,-934.97617,-10.332622)" />
    <linearGradient
       inkscape:collect="always"
       id="linearGradient18933">
      <stop
         style="stop-color:#b6156b;stop-opacity:1;"
         offset="0"
         id="stop18929" />
      <stop
         style="stop-color:#830046;stop-opacity:1"
         offset="1"
         id="stop18931" />
    </linearGradient>
  </defs>
  <g
     inkscape:label="Calque 1"
     inkscape:groupmode="layer"
     id="layer1">
    <path
       style="fill:url(#linearGradient18935);fill-opacity:1;stroke:#830046;stroke-width:0.838261px;stroke-linecap:butt;stroke-linejoin:miter;stroke-opacity:1"
       d="M 26.224453,9.054349 C 12.970477,1.4098557 6.0825669,20.370417 9.0349601,34.542235 23.322207,30.667306 41.066645,19.605311 26.224453,9.054349 Z"
       id="path3858"
       sodipodi:nodetypes="ccc" />
    <path
       style="fill:none;stroke:#970855;stroke-width:0.254037;stroke-linecap:butt;stroke-linejoin:miter;stroke-miterlimit:4;stroke-dasharray:none;stroke-opacity:1"
       d="m 8.7079891,34.994798 c -0.1653782,0.377232 -1.7008543,0.135782 -1.8063813,0.29406 -0.041662,0.06275 -0.069352,0.136087 -0.084086,0.210037 -0.037089,0.1856 0.06986,0.868267 0,1.00821 -0.1483576,0.296519 -1.0249633,0.48907 -1.3022701,0.588121 -0.1862092,0.06651 -0.3571254,0.147037 -0.5461289,0.210038"
       id="path6606" />
    <path
       style="fill:none;stroke:#830046;stroke-width:0.254037;stroke-linecap:butt;stroke-linejoin:miter;stroke-miterlimit:4;stroke-dasharray:none;stroke-opacity:1"
       d="m 9.0440547,35.036805 c 0,0.07001 0,0.140025 0,0.210038 0,0.280058 0.025403,0.561201 0,0.840174 -0.022863,0.265458 -0.2913043,0.836754 -0.1260024,1.134235 0.1016148,0.183109 0.5711769,0.598026 0.7141489,0.798166 0.1201596,0.168249 0.191544,0.366604 0.294048,0.546114"
       id="path6608" />
    <path
       style="fill:none;stroke:#830046;stroke-width:0.254037;stroke-linecap:butt;stroke-linejoin:miter;stroke-miterlimit:4;stroke-dasharray:none;stroke-opacity:1"
       d="m 9.1700824,34.826762 c -0.6826229,1.019209 0.6449239,0.08226 0.7141491,0.33607 0.036835,0.135097 0,0.280059 0,0.420086 0,0.168045 0.017782,0.336904 0,0.504106 -0.041662,0.420089 -0.084086,0.210038 -0.1260024,0.504104 -0.02896,0.20267 -0.03963,0.598623 0,0.798166 0.057158,0.284921 0.2329517,0.54219 0.4200749,0.756157 0.03912,0.04471 0.09958,0.07288 0.126003,0.126028 0.02617,0.05266 0.07062,0.614673 0.04166,0.672139 -0.05386,0.107737 -0.143277,0.19383 -0.210089,0.29406"
       id="path6610" />
    <path
       style="fill:#03bf00;fill-opacity:1;stroke:#027700;stroke-width:0.381055;stroke-linecap:butt;stroke-linejoin:miter;stroke-miterlimit:4;stroke-dasharray:none;stroke-opacity:1"
       d="M 23.907,6.1884147 C 23.84781,6.0101823 23.816309,5.8199772 23.728667,5.6537302 23.616128,5.439831 23.444145,5.2625842 23.312808,5.0596366 c -0.48671,-0.7521987 -0.92312,-1.6176623 -1.069369,-2.49519 -0.03556,-0.2136452 -0.111522,-0.6820438 -0.05919,-0.8911418 0.0254,-0.096051 0.125748,-0.153667 0.178334,-0.2376262 0.09526,-0.1522698 0.165633,-0.3439255 0.29702,-0.47527285 0.107966,-0.10809277 0.470172,-0.0594192 0.594117,-0.0594192 0.908843,0 2.091944,0.20254365 2.851667,0.77232105 0.336473,0.2523602 0.566147,0.5593336 0.712879,0.9505482 0.240828,0.6422743 -0.175031,0.9454039 0.772349,1.3664144 0.781443,0.3473271 1.775389,0.297048 2.614016,0.297048 0.13464,0 0.639081,-0.06422 0.831717,0 0.11076,0.036937 0.09984,0.099786 0.178334,0.1782324 0.08155,0.081647 0.209327,0.1030883 0.29702,0.1782325 0.438366,0.3757766 0.764474,0.9349478 1.00995,1.4258235 0.03556,0.070851 0,0.1584176 0,0.2376263 0,0.5685706 -0.61952,0.4397763 -1.00995,0.4752729 -0.343,0.031171 -0.658159,0.059419 -1.009975,0.059419 -0.460416,0 -1.786871,-0.1279585 -2.198157,0.1188131 -0.04775,0.028808 -0.07926,0.079208 -0.118889,0.1188132 -0.07926,0.019815 -0.161822,0.029087 -0.237525,0.059419 -0.05182,0.020831 -0.06579,0.1011067 -0.118889,0.1188131 -0.0564,0.018799 -0.128797,-0.032948 -0.178081,0 -0.485743,0.3238185 -0.48709,0.4752754 -1.188206,0.4752754 -0.134387,0 -0.288739,0.03178 -0.41586,0 -0.05919,-0.019815 -0.118889,-0.039605 -0.178334,-0.05942 0,-0.019815 0.01525,-0.045396 0,-0.05942 -0.02819,-0.02802 -0.08333,0.017782 -0.118889,0 C 25.693011,7.586325 25.558113,7.4710942 25.51137,7.4359863 25.384351,7.3406712 25.055246,7.078579 24.976672,6.9607109 c -0.01016,-0.016513 0.01525,-0.045422 0,-0.05942 -0.0315,-0.031323 -0.09425,-0.022609 -0.118889,-0.059419 -0.05716,-0.085483 0.01525,-0.1712718 -0.118889,-0.2376263 -0.03556,-0.017782 -0.08129,0.012448 -0.118889,0 -0.121939,-0.040645 -0.172238,-0.1470112 -0.297021,-0.1782324 -0.03836,-0.00966 -0.08129,0.012448 -0.118889,0 -0.04496,-0.014988 -0.288891,-0.2321899 -0.29702,-0.2376262 z"
       id="path11132" />
    <path
       style="fill:#03bf00;fill-opacity:1;stroke:#027700;stroke-width:0.381055;stroke-linecap:butt;stroke-linejoin:miter;stroke-miterlimit:4;stroke-dasharray:none;stroke-opacity:1"
       d="M 26.639855,9.040062 C 26.56593,8.6912005 26.353072,8.3786079 26.283365,8.0301021 26.164475,7.4355334 26.08801,7.2301546 25.570486,6.8419174 25.520187,6.8043454 25.44423,6.8172758 25.392152,6.7824981 25.222455,6.6692992 25.123965,6.4950654 24.916899,6.4260409 24.090415,6.1505581 22.923598,6.1884147 22.065206,6.1884147 c -0.473118,0 -1.014802,-0.058809 -1.485227,0 -0.08713,0.010923 -1.144665,0.5075076 -1.188131,0.5346845 -0.0376,0.023371 -0.0282,0.087516 -0.05919,0.1188131 -0.100853,0.1009798 -0.255486,0.1366719 -0.35644,0.2376263 -0.317241,0.3171907 -0.429144,0.7104121 -0.65351,1.0693665 -0.05233,0.083959 -0.13718,0.1474939 -0.178334,0.2376262 -0.240573,0.5294233 -0.422514,2.5808357 -0.29702,3.2081047 0.04369,0.219437 0.09298,0.301228 0.118889,0.534682 0.04827,0.432963 4.83e-4,0.813731 0.118635,1.247597 -0.01271,0.234882 0.176303,0.389801 0.23778,0.594093 0.03506,0.115384 0.0254,0.241081 0.05919,0.356457 0.0818,0.27274 0.197641,0.280607 0.356439,0.534682 0.03302,0.0531 0.02744,0.124529 0.05919,0.178233 0.07418,0.123538 0.249464,0.21682 0.35644,0.297045 0.683181,0.512372 1.012642,0.415863 1.841743,0.415863 0.240573,0 0.64162,0.07128 0.831691,-0.118812 0.0724,-0.07235 0.02769,-0.132735 0.11889,-0.178233 0.38291,-0.191467 0.65036,-0.531577 0.95053,-0.83173 0.192814,-0.192915 0.459019,-0.340186 0.653536,-0.534684 0.226601,-0.226601 0.477691,-0.568098 0.65346,-0.831731 0.04903,-0.0737 0.06123,-0.170382 0.118889,-0.237626 0.134131,-0.100572 0.251497,-0.17117 0.356414,-0.297048 0.203483,-0.244206 0.40308,-0.549472 0.594117,-0.77232 0.32128,-0.37483 0.723751,-0.664307 1.069368,-1.009958 0.08967,-0.08967 0.148104,-0.207396 0.237779,-0.297049 0.05436,-0.05454 0.296537,-0.197183 0.35644,-0.297045 0.175793,-0.293024 0.05919,-0.9059341 0.05919,-1.2475962"
       id="path9385" />
    <path
       style="fill:#03bf00;fill-opacity:1;stroke:#027700;stroke-width:0.381055;stroke-linecap:butt;stroke-linejoin:miter;stroke-miterlimit:4;stroke-dasharray:none;stroke-opacity:1"
       d="m 26.877456,9.4559257 c 0.353823,0 0.973267,-0.016513 1.306995,0.059419 0.462145,0.1050444 1.078311,0.3653409 1.425859,0.7129113 0.221266,0.221216 0.48328,0.714508 0.594117,1.009961 0.25048,0.667855 -0.157757,-0.07789 0.17808,0.594091 0.121429,0.243063 0.255079,0.459469 0.356439,0.712914 0.131845,0.329199 0.473652,2.078498 0.712929,2.198145 0.165632,0.08276 0.414106,0.05942 0.594117,0.05942 0.09654,0 0.274233,0.0411 0.356414,0 0.402217,-0.201096 0.140229,-0.947297 0,-1.247595 C 32.07038,12.843617 31.81873,12.073021 31.689552,11.297636 31.619942,10.880819 31.603178,10.181211 31.392457,9.8124023 31.109027,9.316312 30.613858,8.8774477 30.144906,8.5648094 29.794512,8.3312224 29.898744,8.4132509 29.49137,8.2677639 29.005752,8.0943328 29.072564,8.0888202 28.600259,7.9707159 c -0.368126,-0.092038 -0.920503,0 -1.307046,0 -0.07215,0 -0.82773,-0.020069 -0.831692,0 -0.06046,0.3037673 0.04293,0.6804382 0.178334,0.9505507 0.04497,0.09026 0.146834,0.1431753 0.17808,0.2376263 0.03226,0.095797 0.02769,0.2012482 0.05919,0.2970455 z"
       id="path11130" />
    <path
       style="fill:none;stroke:#027700;stroke-width:0.254037;stroke-linecap:butt;stroke-linejoin:miter;stroke-miterlimit:4;stroke-dasharray:none;stroke-opacity:1"
       d="M 25.007362,6.6809138 C 24.620743,6.8309989 24.3978,7.077735 24.083175,7.3530527 c -0.346887,0.3035056 -0.181891,0.086525 -0.672131,0.5461136 -0.239302,0.224391 -0.410677,0.5122835 -0.630139,0.7561566 -0.198657,0.2207835 -0.436816,0.4045971 -0.630139,0.6301312 -0.291889,0.340524 -0.54999,0.7199609 -0.798158,1.0922279 -0.25414,0.381179 -0.547934,0.744001 -0.71415,1.176244 -0.07494,0.195228 -0.05106,0.430522 -0.126002,0.630132 -0.06122,0.163067 -0.167919,0.32675 -0.167919,0.504103"
       id="path15444" />
    <path
       style="fill:none;stroke:#027700;stroke-width:0.254037;stroke-linecap:butt;stroke-linejoin:miter;stroke-miterlimit:4;stroke-dasharray:none;stroke-opacity:1"
       d="m 25.217426,6.5128785 c 0.09806,-0.1540227 0.227617,-0.292074 0.294047,-0.462096 C 25.995135,4.8147144 24.735619,3.9110258 24.25122,2.9421362"
       id="path16494" />
    <path
       style="fill:none;stroke:#027700;stroke-width:0.254037;stroke-linecap:butt;stroke-linejoin:miter;stroke-miterlimit:4;stroke-dasharray:none;stroke-opacity:1"
       d="m 25.448472,6.3448431 c 0.166902,-0.3911459 0.46034,-0.881501 0.882169,-1.0502171 0.444768,-0.1779022 1.422735,-0.08401 1.974427,-0.08401"
       id="path16496" />
    <path
       style="fill:#830046;fill-opacity:1;stroke:#830046;stroke-width:0;stroke-miterlimit:4;stroke-dasharray:none;stroke-opacity:1"
       id="path23380"
       d="m 11.601573,22.22359 c 0.151914,-0.07042 0.576486,-0.09509 0.455844,-0.211258 -0.293261,-0.282468 -0.930107,-0.09488 -1.137527,-0.445275 -0.129814,-0.219133 0.613397,-0.03397 0.715698,-0.267174 0.07825,-0.178385 -0.578849,-0.2921 -0.420634,-0.405662 1.167249,-0.837585 1.375611,0.455454 1.101377,-0.558645 -2.017105,-1.23997 -0.430898,-0.0254 0.989855,-0.640754 0.242606,-0.105147 -0.405569,-0.340929 -0.591474,-0.529117 -0.16233,-0.164209 -0.681556,-0.523623 -0.450687,-0.525814 0.551641,-0.0054 1.073611,0.280114 1.572692,0.515178 0.112539,0.05307 -0.24667,0.03422 -0.370029,0.05132 0.510487,-0.899309 0.226346,-0.0049 0.79798,-0.18062 0.236255,-0.07268 0.410067,-0.470508 0.638522,-0.376367 0.20196,0.0832 -0.01525,0.441413 0.03506,0.653994 0.03226,0.139186 0.137181,0.250836 0.205771,0.376261 0.201197,-0.213264 0.318714,-0.709276 0.603516,-0.639794 0.257491,0.06282 -0.167665,0.619235 0.03099,0.79459 0.144292,0.127196 0.20831,-0.328242 0.349249,-0.459137 0.04293,-0.04011 0.150136,0.02601 0.174524,-0.02764 0.369751,-0.813341 0.149628,-1.384733 0.376736,-0.420978 0.08053,-0.120185 0.114318,-0.429531 0.241336,-0.360588 0.17681,0.0958 0.05436,0.41167 0.163853,0.580259 0.05436,0.08421 0.204754,0.170688 0.281779,0.106289 0.224061,-0.187377 0.218217,-0.594899 0.472915,-0.73753 0.121684,-0.06816 0.175793,0.216846 0.263665,0.325261 0.109236,-0.07761 0.218726,-0.155216 0.328089,-0.232825 0.07774,0.0061 0.158773,-0.0049 0.23346,0.01804 0.138451,0.04217 0.372164,0.301669 0.550879,0.107712 0.05842,-0.06369 -0.189765,-0.192154 -0.113554,-0.233613 0.434403,-0.236788 0.850185,0.203179 0.373764,-0.205287 0.08688,-0.0392 0.287291,-0.02606 0.260668,-0.117569 -0.04369,-0.149323 -0.275859,-0.157553 -0.375518,-0.276961 -0.04243,-0.05121 -0.08815,-0.193094 -0.02033,-0.198936 0.31361,-0.02761 0.622213,0.115078 0.936965,0.11833 0.03836,3.91e-4 0.06325,-0.08155 0.03556,-0.108347 -0.100853,-0.100141 -0.24413,-0.146071 -0.366042,-0.219106 0.04649,-0.10032 0.0343,-0.26438 0.13845,-0.300936 0.09196,-0.03231 0.146579,0.138502 0.239557,0.168325 0.509598,0.163701 0.30614,-0.290371 0.602423,0.485538 0.09374,0.24563 -0.04243,0.834015 0.209835,0.760341 0.48643,-0.142007 0.684502,-0.747526 1.026767,-1.121292 1.147053,-1.288412 0.5789,-1.384229 1.378684,-0.756575 0.111268,0.08731 0.205262,0.218472 0.343255,0.249389 0.09679,0.02159 0.266917,-0.209429 0.276189,-0.110685 0.12956,1.375097 -0.506855,2.681356 0.264554,0.752351 0.160044,0.0043 0.656737,0.06753 -0.06986,-0.377615 -0.07774,-0.04758 0.03023,0.181077 0.06249,0.266068 0.02617,0.06707 0.04039,0.173761 0.111522,0.184583 0.310865,0.04732 0.89106,-0.516071 0.987772,-0.590575 2.173896,-1.434855 -0.867739,0.273799 0.73747,0.945216 0.910342,0.380794 1.274325,-3.305112 0.684655,0.292381 0,0 0.479012,-1.135302 0.479012,-1.135302 v 0 c -0.07342,0.05975 -0.741432,0.749245 -1.029511,0.509786 -1.070968,-0.890345 0.532665,-0.728393 -0.83507,-0.714781 -0.23346,0.234578 -0.436614,0.504134 -0.700685,0.703754 -0.54082,0.408761 -0.29636,-0.401193 -0.54181,0.592806 -0.0127,0.04718 0.05029,-0.0868 0.08993,-0.114698 0.185701,-0.130169 0.643323,-0.137282 0.580271,-0.355111 -0.079,-0.272889 -0.520978,-0.226703 -0.781494,-0.340039 0.190782,-2.507688 0.01525,0.552806 -0.48018,1.196941 -0.330757,0.430855 0.606132,-1.347755 0.138196,-1.623667 -0.422973,-0.249414 -0.396425,1.413488 -0.842591,1.208338 -1.240971,-0.570657 1.753339,-3.798893 -1.07831,-0.194745 -0.109491,-0.211639 -0.218727,-0.423287 -0.328268,-0.634931 -0.190273,0.04595 -0.441872,0.285188 -0.570643,0.137866 -0.195609,-0.223705 0.186971,-1.008049 -0.08459,-0.887321 -2.575987,1.145563 -0.207041,1.94933 -0.917404,0.722848 -0.05386,-0.09277 -0.210851,-0.03932 -0.316251,-0.05899 -0.06325,0.02515 -0.122192,0.07951 -0.190274,0.0756 -1.915794,-0.109566 -0.129558,-0.391377 0.324508,0.39457 0.143784,0.249033 -0.618353,-0.151177 -0.862761,3.41e-4 -0.412608,0.255759 2.380657,0.626468 1.317613,0.620371 -0.557356,-0.04199 -1.118169,-0.05114 -1.672021,-0.125977 -0.269863,-0.03648 -0.955509,-0.423332 -0.790359,-0.206787 0.200181,0.262581 0.59503,0.302458 0.917454,0.373516 0.06173,0.01372 0.140482,-0.205058 0.123717,-0.14409 -0.08459,0.303961 -0.654552,1.457127 -0.718799,1.592163 -0.06529,-0.172873 -0.184431,-0.334255 -0.194846,-0.518635 -0.03506,-0.619492 0.574607,-2.206668 0.05995,-1.860517 -0.687551,0.462158 -0.529922,1.569838 -0.794958,2.354756 -0.04776,-0.272614 0.09247,-0.963176 -0.143023,-0.817838 -0.581593,0.358921 -0.485287,2.85752 -0.427012,-0.104943 -0.03836,-0.167335 0.02693,-0.597848 -0.115586,-0.501977 -0.213392,0.143607 -0.08028,0.528318 -0.231936,0.735949 -0.05919,0.08046 -0.0076,-0.313105 -0.100091,-0.28167 -0.162583,0.05403 -0.135147,0.379107 -0.302583,0.41555 -0.116095,0.02515 -0.113809,-0.208335 -0.170713,-0.312516 -0.125748,0.04369 -0.251242,0.08737 -0.376941,0.131058 0.154201,-1.74351 0.206279,-0.330568 -0.834663,0.107153 -0.165124,0.06948 -0.01525,-0.368222 -0.09425,-0.529368 -0.105172,-0.216236 -0.416722,-0.213238 -0.590483,-0.135503 -0.126003,0.05642 -0.215678,0.172669 -0.323567,0.259006 0.212374,0.385453 -2.55e-4,-0.102021 -0.385527,0.123462 -0.08535,0.04997 0.04369,0.202747 0.01271,0.296654 -0.0409,0.122955 -0.251751,0.196651 -0.218219,0.321791 0.236509,0.880871 1.46958,0.32295 -0.718035,0.708281 -0.21771,0.08947 -0.473449,0.116196 -0.65285,0.268423 -0.648354,0.550141 0.538508,0.154455 -0.239048,0.660558 -0.220759,0.143784 -0.931529,0.09514 -0.74057,0.276816 0.798312,0.759617 3.048775,0.321037 0.224061,0.642311 0,0 0.7913,0.054 0.7913,0.054 z" />
  </g>
</svg>
