<?xml version="1.0" encoding="UTF-8" standalone="no"?>
<!-- Created with Inkscape (http://www.inkscape.org/) -->

<svg
   width="150"
   height="150"
   viewBox="0 0 39.687499 39.687501"
   version="1.1"
   id="svg5"
   inkscape:version="1.1.1 (3bf5ae0d25, 2021-09-20)"
   sodipodi:docname="zzz - Copie (4).svg"
   inkscape:export-filename="C:\Users\Clément\Desktop\freepic\res\img/icon.png"
   inkscape:export-xdpi="96"
   inkscape:export-ydpi="96"
   xmlns:inkscape="http://www.inkscape.org/namespaces/inkscape"
   xmlns:sodipodi="http://sodipodi.sourceforge.net/DTD/sodipodi-0.dtd"
   xmlns="http://www.w3.org/2000/svg"
   xmlns:svg="http://www.w3.org/2000/svg">
  <sodipodi:namedview
     id="namedview7"
     pagecolor="#ffffff"
     bordercolor="#666666"
     borderopacity="1.0"
     inkscape:pageshadow="2"
     inkscape:pageopacity="0.0"
     inkscape:pagecheckerboard="true"
     inkscape:document-units="mm"
     showgrid="false"
     units="px"
     inkscape:zoom="1.5144501"
     inkscape:cx="57.446594"
     inkscape:cy="6.9332096"
     inkscape:window-width="1920"
     inkscape:window-height="1013"
     inkscape:window-x="-9"
     inkscape:window-y="-9"
     inkscape:window-maximized="1"
     inkscape:current-layer="layer1"
     inkscape:snap-object-midpoints="false"
     inkscape:snap-center="false" />
  <defs
     id="defs2">
    <clipPath
       clipPathUnits="userSpaceOnUse"
       id="clipPath168419-0">
      <path
         style="fill:#d4d591;fill-opacity:1;stroke:#000000;stroke-width:0.264583px;stroke-linecap:butt;stroke-linejoin:miter;stroke-opacity:1"
         d="m 1976.6629,1120.9601 c -14.9756,1.5925 -25.8038,9.2969 -36.1081,17.7735 -10.8363,13.4703 -17.8314,26.9407 -24.1344,40.4111 -5.0825,17.6623 -6.7297,33.8216 -6.174,49.0172 2.96,13.8998 7.3576,26.531 16.2768,35.1727 10.0404,8.8438 23.2314,13.9465 38.9144,16.0897 14.6068,1.5407 26.9047,-0.7669 39.4757,-2.6193 16.4002,-3.4206 25.6399,-12.8083 33.676,-23.199 4.188,-8.0615 7.6011,-17.2853 8.9802,-29.56 0.1671,-11.8575 -2.4879,-24.9245 -4.6772,-37.7919 -3.678,-11.8565 -9.5794,-24.1299 -18.896,-37.0436 -6.3738,-10.6207 -16.705,-17.504 -27.502,-23.9473 -6.0539,-1.7474 -10.1493,-4.5965 -19.8314,-4.3031 z"
         id="path168421-4"
         sodipodi:nodetypes="ccccccccccccc" />
    </clipPath>
    <linearGradient
       x1="-989.37677"
       y1="-3204.3379"
       x2="1175.8552"
       y2="2649.3293"
       gradientUnits="userSpaceOnUse"
       id="color-1"
       gradientTransform="matrix(0.17670732,0,0,0.17670732,-22.688903,-12.005473)">
      <stop
         offset="0"
         stop-color="#2a221e"
         id="stop2" />
      <stop
         offset="1"
         stop-color="#2a221e"
         stop-opacity="0"
         id="stop4" />
    </linearGradient>
    <linearGradient
       x1="-3323.7942"
       y1="-330.77435"
       x2="2849.8162"
       y2="585.84308"
       gradientUnits="userSpaceOnUse"
       id="color-2"
       gradientTransform="matrix(0.17670732,0,0,0.17670732,-22.688903,-12.005473)">
      <stop
         offset="0"
         stop-color="#2a221e"
         id="stop7" />
      <stop
         offset="1"
         stop-color="#2a221e"
         stop-opacity="0"
         id="stop9" />
    </linearGradient>
  </defs>
  <g
     inkscape:label="Calque 1"
     inkscape:groupmode="layer"
     id="layer1">
    <g
       id="g882"
       transform="matrix(1.0236604,0,0,1.0236604,-2.2017556,-4.4971863)">
      <path
         d="m 23.173156,11.043739 c 0.75575,-0.327492 1.083233,0.428258 1.083233,0.428258 l 0.06787,0.876588 c 0,0.183032 0,0.366063 0,0.549104 -0.300707,0.625085 0.900746,1.265862 0.736699,1.828053 -0.04406,0.150893 -0.387833,-0.04472 -0.462143,0.0938 -0.170965,0.318679 0.727326,-0.0168 1.084115,0.04225 0.580123,0.09608 1.199863,0.413234 1.557427,0.885351 0.948097,1.251852 0.653065,2.774767 0.653065,4.288845 0,0 0,0.823652 -0.823652,0.823652 -0.823651,0 -0.823651,-0.823652 -0.823651,-0.823652 0,-0.657562 0.36169,-2.783102 0,-3.294607 -0.184836,-0.261402 -1.290695,-0.02282 -1.647304,-0.274547 -1.151596,-0.812796 -1.794036,-2.220615 -1.921851,-3.569155 0,-0.183032 0,-0.366063 0,-0.549104 l 0.06787,-0.221611 c 0,0 -0.327492,-0.75575 0.428258,-1.083234 z"
         data-paper-data="{&quot;origPos&quot;:null}"
         fill="#f59f6d"
         stroke="none"
         stroke-width="0.411826"
         id="path10885-0"
         style="mix-blend-mode:normal;fill-rule:nonzero;stroke-linecap:butt;stroke-linejoin:miter;stroke-miterlimit:10;stroke-dasharray:none;stroke-dashoffset:0" />
      <path
         d="m 30.954687,31.484763 c 0,5.928826 -5.254848,10.735097 -11.737036,10.735097 -6.482188,0 -11.7370355,-4.806263 -11.7370355,-10.735097 0,-5.928826 5.2548475,-10.735096 11.7370355,-10.735096 6.482188,0 11.737036,4.806262 11.737036,10.735096 z"
         data-paper-data="{&quot;origPos&quot;:null}"
         fill="#7b7b7b"
         stroke="#292929"
         stroke-width="1.23548"
         id="path10887-8"
         style="mix-blend-mode:normal;fill-rule:nonzero;stroke-linecap:butt;stroke-linejoin:miter;stroke-miterlimit:10;stroke-dasharray:none;stroke-dashoffset:0" />
      <path
         d="m 28.814651,24.561765 c -0.788136,1.459824 -2.422912,0.398755 -4.531551,-0.739672 -2.108638,-1.138426 -3.892635,-1.923103 -3.104499,-3.382927 0.788136,-1.459823 3.136441,-1.720377 5.245079,-0.581951 2.108639,1.138427 3.179106,3.244727 2.390971,4.70455 z"
         data-paper-data="{&quot;origRot&quot;:0,&quot;origPos&quot;:null}"
         fill="#7b7b7b"
         stroke="#292929"
         stroke-width="1.23548"
         id="path10889-1"
         style="mix-blend-mode:normal;fill-rule:nonzero;stroke-linecap:butt;stroke-linejoin:miter;stroke-miterlimit:10;stroke-dasharray:none;stroke-dashoffset:0" />
      <path
         d="m 27.697326,17.120674 c 0.12863,0.160793 -0.03212,0.289423 -0.03212,0.289423 l -0.02158,0.289629 c -0.248669,0.15142 -0.462349,0.228151 -0.743527,0.298442 0,0 -0.199768,0.04991 -0.249706,-0.149822 -0.04991,-0.199769 0.149822,-0.249707 0.149822,-0.249707 0.248924,-0.06227 0.414033,-0.119619 0.62922,-0.250662 l -0.02158,-0.259467 c 0,0 0.160793,-0.128629 0.289423,0.03212 z"
         data-paper-data="{&quot;origPos&quot;:null}"
         fill="#000000"
         stroke="none"
         stroke-width="0.411826"
         id="path10891-1"
         style="mix-blend-mode:normal;fill-rule:nonzero;stroke-linecap:butt;stroke-linejoin:miter;stroke-miterlimit:10;stroke-dasharray:none;stroke-dashoffset:0" />
      <path
         d="m 25.614682,15.12154 c 0.205913,0 0.205913,0.205913 0.205913,0.205913 0,0.274547 0,0.686373 0,0.960929 0,0 0,0.205913 -0.205913,0.205913 -0.205913,0 -0.205913,-0.205913 -0.205913,-0.205913 0,-0.274548 0,-0.549104 0,-0.823651 v -0.137278 c 0,0 0,-0.205913 0.205913,-0.205913 z"
         data-paper-data="{&quot;origPos&quot;:null}"
         fill="#000000"
         stroke="none"
         stroke-width="0.411826"
         id="path10893-1"
         style="mix-blend-mode:normal;fill-rule:nonzero;stroke-linecap:butt;stroke-linejoin:miter;stroke-miterlimit:10;stroke-dasharray:none;stroke-dashoffset:0" />
      <path
         d="m 24.980297,14.010862 c 0.08113,0.189267 -0.108154,0.27038 -0.108154,0.27038 l 0.103064,0.04011 c -0.254624,0.509239 -0.658823,0.388376 -1.145098,0.388376 0,0 -0.205913,0 -0.205913,-0.205913 0,-0.205912 0.205913,-0.205912 0.205913,-0.205912 0.51563,0 0.659967,0.07281 0.776752,-0.160728 l 0.103064,-0.234452 c 0,0 0.189267,-0.08113 0.27038,0.108153 z"
         data-paper-data="{&quot;origPos&quot;:null}"
         fill="#000000"
         stroke="none"
         stroke-width="0.411826"
         id="path10895-9"
         style="mix-blend-mode:normal;fill-rule:nonzero;stroke-linecap:butt;stroke-linejoin:miter;stroke-miterlimit:10;stroke-dasharray:none;stroke-dashoffset:0" />
      <path
         d="m 23.898743,12.444672 c 0,0.205913 -0.205912,0.205913 -0.205912,0.205913 -0.183032,0 -0.64062,0 -0.823652,0 0,0 -0.205913,0 -0.205913,-0.205913 0,-0.205913 0.205913,-0.205913 0.205913,-0.205913 0.183032,0 0.366064,0 0.549104,0 h 0.274548 c 0,0 0.205912,0 0.205912,0.205913 z"
         data-paper-data="{&quot;origPos&quot;:null}"
         fill="#000000"
         stroke="none"
         stroke-width="0.411826"
         id="path10897-3"
         style="mix-blend-mode:normal;fill-rule:nonzero;stroke-linecap:butt;stroke-linejoin:miter;stroke-miterlimit:10;stroke-dasharray:none;stroke-dashoffset:0" />
      <path
         d="m 26.438333,8.8755176 c 0,1.5163014 -1.413584,2.7455024 -3.157328,2.7455024 -1.743745,0 -3.157329,-1.229201 -3.157329,-2.7455024 0,-0.6206792 1.640072,-0.5705929 2.008821,-1.0698493 0.707632,-0.9580716 0.918363,-2.7738528 2.109437,-2.7738528 0,0 0.963162,0.7805087 1.304936,1.7526483 0.29313,0.8337661 0.891471,0.5747606 0.891471,2.091062 z"
         data-paper-data="{&quot;origPos&quot;:null}"
         fill="#ff8600"
         stroke="none"
         stroke-width="0"
         id="path10899-1"
         style="mix-blend-mode:normal;fill-rule:nonzero;stroke-linecap:butt;stroke-linejoin:miter;stroke-miterlimit:10;stroke-dasharray:none;stroke-dashoffset:0" />
      <path
         d="m 25.340134,9.9916232 c 0,0.8240798 -0.768253,1.4921188 -1.715938,1.4921188 -0.947686,0 -1.715938,-0.668047 -1.715938,-1.4921188 0,-0.3373265 0.891339,-0.3101048 1.09175,-0.5814404 0.384579,-0.5206961 0.499116,-1.5075296 1.146432,-1.5075296 0,0 0.523456,0.4241889 0.709205,0.9525284 0.159311,0.453132 0.484497,0.3123699 0.484497,1.1364499 z"
         data-paper-data="{&quot;origPos&quot;:null}"
         fill="#ff0000"
         stroke="none"
         stroke-width="0"
         id="path10901-3"
         style="mix-blend-mode:normal;fill-rule:nonzero;stroke-linecap:butt;stroke-linejoin:miter;stroke-miterlimit:10;stroke-dasharray:none;stroke-dashoffset:0" />
    </g>
  </g>
</svg>
