<?xml version="1.0" encoding="UTF-8" standalone="no"?>
<!-- Created with Inkscape (http://www.inkscape.org/) -->

<svg
   width="150"
   height="150"
   viewBox="0 0 39.687499 39.687501"
   version="1.1"
   id="svg5"
   inkscape:version="1.1.1 (3bf5ae0d25, 2021-09-20)"
   sodipodi:docname="zzz - Copie (2).svg"
   inkscape:export-filename="C:\Users\Clément\Desktop\freepic\res\img/icon.png"
   inkscape:export-xdpi="96"
   inkscape:export-ydpi="96"
   xmlns:inkscape="http://www.inkscape.org/namespaces/inkscape"
   xmlns:sodipodi="http://sodipodi.sourceforge.net/DTD/sodipodi-0.dtd"
   xmlns="http://www.w3.org/2000/svg"
   xmlns:svg="http://www.w3.org/2000/svg">
  <sodipodi:namedview
     id="namedview7"
     pagecolor="#ffffff"
     bordercolor="#666666"
     borderopacity="1.0"
     inkscape:pageshadow="2"
     inkscape:pageopacity="0.0"
     inkscape:pagecheckerboard="true"
     inkscape:document-units="mm"
     showgrid="false"
     units="px"
     inkscape:zoom="3.0289002"
     inkscape:cx="107.29967"
     inkscape:cy="57.941823"
     inkscape:window-width="1920"
     inkscape:window-height="1013"
     inkscape:window-x="-9"
     inkscape:window-y="-9"
     inkscape:window-maximized="1"
     inkscape:current-layer="layer1"
     inkscape:snap-object-midpoints="false"
     inkscape:snap-center="false" />
  <defs
     id="defs2">
    <clipPath
       clipPathUnits="userSpaceOnUse"
       id="clipPath168419-0">
      <path
         style="fill:#d4d591;fill-opacity:1;stroke:#000000;stroke-width:0.264583px;stroke-linecap:butt;stroke-linejoin:miter;stroke-opacity:1"
         d="m 1976.6629,1120.9601 c -14.9756,1.5925 -25.8038,9.2969 -36.1081,17.7735 -10.8363,13.4703 -17.8314,26.9407 -24.1344,40.4111 -5.0825,17.6623 -6.7297,33.8216 -6.174,49.0172 2.96,13.8998 7.3576,26.531 16.2768,35.1727 10.0404,8.8438 23.2314,13.9465 38.9144,16.0897 14.6068,1.5407 26.9047,-0.7669 39.4757,-2.6193 16.4002,-3.4206 25.6399,-12.8083 33.676,-23.199 4.188,-8.0615 7.6011,-17.2853 8.9802,-29.56 0.1671,-11.8575 -2.4879,-24.9245 -4.6772,-37.7919 -3.678,-11.8565 -9.5794,-24.1299 -18.896,-37.0436 -6.3738,-10.6207 -16.705,-17.504 -27.502,-23.9473 -6.0539,-1.7474 -10.1493,-4.5965 -19.8314,-4.3031 z"
         id="path168421-4"
         sodipodi:nodetypes="ccccccccccccc" />
    </clipPath>
    <linearGradient
       x1="-989.37677"
       y1="-3204.3379"
       x2="1175.8552"
       y2="2649.3293"
       gradientUnits="userSpaceOnUse"
       id="color-1"
       gradientTransform="matrix(0.17670732,0,0,0.17670732,-22.688903,-12.005473)">
      <stop
         offset="0"
         stop-color="#2a221e"
         id="stop2" />
      <stop
         offset="1"
         stop-color="#2a221e"
         stop-opacity="0"
         id="stop4" />
    </linearGradient>
    <linearGradient
       x1="-3323.7942"
       y1="-330.77435"
       x2="2849.8162"
       y2="585.84308"
       gradientUnits="userSpaceOnUse"
       id="color-2"
       gradientTransform="matrix(0.17670732,0,0,0.17670732,-22.688903,-12.005473)">
      <stop
         offset="0"
         stop-color="#2a221e"
         id="stop7" />
      <stop
         offset="1"
         stop-color="#2a221e"
         stop-opacity="0"
         id="stop9" />
    </linearGradient>
  </defs>
  <g
     inkscape:label="Calque 1"
     inkscape:groupmode="layer"
     id="layer1">
    <g
       id="g68242-0-7-2"
       transform="matrix(1.2545881,0,0,1.2545881,-564.96117,-387.98727)"
       inkscape:export-filename="C:\Users\Clément\Desktop\Mêmes\Memes\Sprites\Meme1/work+money.png"
       inkscape:export-xdpi="96"
       inkscape:export-ydpi="96">
      <path
         style="fill:#5d8720;fill-opacity:1;stroke:#000000;stroke-width:0.264583px;stroke-linecap:butt;stroke-linejoin:miter;stroke-opacity:1"
         d="m 451.13831,321.08756 9.32492,-5.32852 20.78199,12.10474 -9.17252,5.25026 z"
         id="path6041-6-4-4" />
      <path
         style="fill:#73a627;fill-opacity:1;stroke:#000000;stroke-width:0.264583px;stroke-linecap:butt;stroke-linejoin:miter;stroke-opacity:1"
         d="m 454.91669,320.12736 3.76783,-2.22364 c 1.08595,0.18058 2.14391,0.45447 3.39722,0.0772 l 15.36478,8.84825 c -0.6748,1.12215 -0.19578,1.51559 0.20074,1.96112 l -3.81418,2.25454 c -1.04679,-0.3436 -2.1605,-0.3972 -3.38178,0.0153 l -15.50373,-8.98721 c 0.22551,-0.50535 1.22919,-0.53825 -0.0309,-1.94556 z"
         id="path6043-4-1-4"
         sodipodi:nodetypes="ccccccccc" />
      <text
         xml:space="preserve"
         style="font-style:normal;font-weight:normal;font-size:3.74224px;line-height:1.25;font-family:sans-serif;fill:#5d8720;fill-opacity:1;stroke:none;stroke-width:0.0561333"
         x="536.35016"
         y="-161.83392"
         id="text6442-8-4-6"
         transform="rotate(51.748072)"><tspan
           sodipodi:role="line"
           id="tspan6440-7-9-6"
           style="fill:#5d8720;fill-opacity:1;stroke-width:0.0561333"
           x="536.35016"
           y="-161.83392">$</tspan></text>
      <path
         style="fill:#c6b198;fill-opacity:1;stroke:#000000;stroke-width:0.264583px;stroke-linecap:butt;stroke-linejoin:miter;stroke-opacity:1"
         d="m 459.8081,326.02302 9.15021,-5.35038 3.8217,2.27118 -9.17207,5.24119 z"
         id="path6601-8-0-2" />
      <path
         style="fill:#5d8720;fill-opacity:1;stroke:#000000;stroke-width:0.264583px;stroke-linecap:butt;stroke-linejoin:miter;stroke-opacity:1"
         d="m 451.12738,321.24044 0.0437,2.65334 20.88828,12.06564 0.0873,-2.88266 z"
         id="path6603-1-3-8" />
      <path
         style="fill:#466912;fill-opacity:1;stroke:#000000;stroke-width:0.264583px;stroke-linecap:butt;stroke-linejoin:miter;stroke-opacity:1"
         d="m 472.12485,335.91574 9.15021,-5.28487 0.022,-2.77344 -9.17207,5.24118 z"
         id="path6605-8-1-2" />
      <path
         style="fill:#ac9a84;fill-opacity:1;stroke:#000000;stroke-width:0.264583px;stroke-linecap:butt;stroke-linejoin:miter;stroke-opacity:1"
         d="m 459.72073,326.13221 -0.0109,2.67518 3.79987,2.20567 0.0437,-2.80622 z"
         id="path6720-0-1-9" />
      <ellipse
         style="fill:#5d8720;fill-opacity:1;stroke:none;stroke-width:0;stroke-miterlimit:4;stroke-dasharray:none"
         id="path22610-2-2-9"
         cx="364.9053"
         cy="-514.76654"
         rx="1.8630964"
         ry="1.9530419"
         transform="matrix(-0.11316714,0.99357597,-0.99769473,0.06786179,0,0)" />
      <text
         xml:space="preserve"
         style="font-style:normal;font-weight:normal;font-size:3.74224px;line-height:1.25;font-family:sans-serif;fill:#466912;fill-opacity:1;stroke:none;stroke-width:0.0561333"
         x="570.92822"
         y="-54.478451"
         id="text6442-5-7-3-2"
         transform="rotate(40.305582)"><tspan
           sodipodi:role="line"
           id="tspan6440-3-44-0-9"
           style="fill:#466912;fill-opacity:1;stroke-width:0.0561333"
           x="570.92822"
           y="-54.478451">$</tspan></text>
      <ellipse
         style="fill:#5d8720;fill-opacity:1;stroke:none;stroke-width:0;stroke-miterlimit:4;stroke-dasharray:none"
         id="path22610-1-8-9-5"
         cx="357.87448"
         cy="-502.41516"
         rx="1.8630964"
         ry="1.9530419"
         transform="matrix(-0.11316714,0.99357597,-0.99769473,0.06786179,0,0)" />
      <text
         xml:space="preserve"
         style="font-style:normal;font-weight:normal;font-size:3.74224px;line-height:1.25;font-family:sans-serif;fill:#466912;fill-opacity:1;stroke:none;stroke-width:0.0561333"
         x="558.16089"
         y="-51.709988"
         id="text6442-5-9-8-4-8"
         transform="rotate(40.305582)"><tspan
           sodipodi:role="line"
           id="tspan6440-3-4-61-5-8"
           style="fill:#466912;fill-opacity:1;stroke-width:0.0561333"
           x="558.16089"
           y="-51.709988">$</tspan></text>
    </g>
  </g>
</svg>
