<?xml version="1.0" encoding="UTF-8" standalone="no"?>
<!-- Created with Inkscape (http://www.inkscape.org/) -->

<svg
   width="150"
   height="150"
   viewBox="0 0 39.687499 39.687501"
   version="1.1"
   id="svg5"
   inkscape:version="1.1.1 (3bf5ae0d25, 2021-09-20)"
   sodipodi:docname="bulb.svg"
   inkscape:export-filename="C:\Users\Clément\Desktop\freepic\res\img/icon.png"
   inkscape:export-xdpi="96"
   inkscape:export-ydpi="96"
   xmlns:inkscape="http://www.inkscape.org/namespaces/inkscape"
   xmlns:sodipodi="http://sodipodi.sourceforge.net/DTD/sodipodi-0.dtd"
   xmlns="http://www.w3.org/2000/svg"
   xmlns:svg="http://www.w3.org/2000/svg">
  <sodipodi:namedview
     id="namedview7"
     pagecolor="#ffffff"
     bordercolor="#666666"
     borderopacity="1.0"
     inkscape:pageshadow="2"
     inkscape:pageopacity="0.0"
     inkscape:pagecheckerboard="true"
     inkscape:document-units="mm"
     showgrid="false"
     units="px"
     inkscape:zoom="3.0289001"
     inkscape:cx="80.557295"
     inkscape:cy="83.033442"
     inkscape:window-width="1920"
     inkscape:window-height="1013"
     inkscape:window-x="-9"
     inkscape:window-y="-9"
     inkscape:window-maximized="1"
     inkscape:current-layer="layer1" />
  <defs
     id="defs2">
    <clipPath
       clipPathUnits="userSpaceOnUse"
       id="clipPath168419-0">
      <path
         style="fill:#d4d591;fill-opacity:1;stroke:#000000;stroke-width:0.264583px;stroke-linecap:butt;stroke-linejoin:miter;stroke-opacity:1"
         d="m 1976.6629,1120.9601 c -14.9756,1.5925 -25.8038,9.2969 -36.1081,17.7735 -10.8363,13.4703 -17.8314,26.9407 -24.1344,40.4111 -5.0825,17.6623 -6.7297,33.8216 -6.174,49.0172 2.96,13.8998 7.3576,26.531 16.2768,35.1727 10.0404,8.8438 23.2314,13.9465 38.9144,16.0897 14.6068,1.5407 26.9047,-0.7669 39.4757,-2.6193 16.4002,-3.4206 25.6399,-12.8083 33.676,-23.199 4.188,-8.0615 7.6011,-17.2853 8.9802,-29.56 0.1671,-11.8575 -2.4879,-24.9245 -4.6772,-37.7919 -3.678,-11.8565 -9.5794,-24.1299 -18.896,-37.0436 -6.3738,-10.6207 -16.705,-17.504 -27.502,-23.9473 -6.0539,-1.7474 -10.1493,-4.5965 -19.8314,-4.3031 z"
         id="path168421-4"
         sodipodi:nodetypes="ccccccccccccc" />
    </clipPath>
  </defs>
  <g
     inkscape:label="Calque 1"
     inkscape:groupmode="layer"
     id="layer1">
    <g
       id="g7590-2-7-2-8"
       transform="matrix(1.6966866,-0.10588859,0.10588859,1.6966866,-397.87117,-207.7219)"
       inkscape:export-filename="C:\Users\Clément\Desktop\cadate\res\img\Responses/default.png"
       inkscape:export-xdpi="96"
       inkscape:export-ydpi="96">
      <path
         style="fill:none;stroke:#000000;stroke-width:0.112702px;stroke-linecap:butt;stroke-linejoin:miter;stroke-opacity:1"
         d="m 235.15371,154.68619 c 1.76878,-1.56956 -1.02628,-4.60325 -0.8372,-5.26505 0.2761,-0.96634 2.19748,0.43899 1.57208,0.59535 -0.61824,0.15456 -0.51741,-1.18812 0.63255,-0.95813 0.26803,0.0536 0.52349,1.12952 0.17674,1.01394 -0.79825,-0.26608 0.17139,-1.16668 0.74418,-0.90231 0.83785,0.38669 0.51901,1.25388 0.25115,0.98603 -0.83946,-0.83946 1.60509,-1.37764 1.09766,-0.36279 -0.47022,0.94045 -1.23862,2.05151 -1.34881,3.15345 -0.0383,0.38318 0.24593,1.63834 0.12093,1.88835 -0.0422,0.0844 -2.15646,-0.0739 -2.40928,-0.14884 z"
         id="path3176-2-3-2-4-3"
         inkscape:export-filename="C:\Users\Clément\Desktop\cadate\res\img/icon.png"
         inkscape:export-xdpi="96"
         inkscape:export-ydpi="96" />
      <path
         style="fill:#ffe235;fill-opacity:0.8;stroke:#000000;stroke-width:0.112702px;stroke-linecap:butt;stroke-linejoin:miter;stroke-opacity:1"
         d="m 233.24676,154.79782 c -0.1176,-0.22778 -0.20119,-0.48277 -0.19535,-0.80929 0.16459,-0.69147 0.16407,-1.38293 -0.0186,-2.07439 -0.84082,-0.63366 -1.60222,-1.45504 -2.17128,-2.73102 -0.4325,-1.12156 -0.68863,-2.29679 -0.55252,-3.5914 0.32707,-1.05549 0.64041,-2.12319 1.18397,-2.98626 0.48188,-0.67817 1.03037,-1.26474 1.7102,-1.67072 0.87263,-0.54898 1.74527,-0.83451 2.6179,-1.01296 l 1.48655,-0.0394 c 0.96999,0.24468 1.90795,0.52139 2.65737,0.98665 0.97629,0.64979 1.55476,1.38333 2.06538,2.13115 0.74498,1.27365 0.89999,2.69954 0.88141,4.17024 -0.15018,1.11956 -0.45492,2.13911 -1.02611,2.98625 -0.49097,0.70446 -1.11336,1.32678 -1.80228,1.90752 -0.1976,0.49733 -0.32059,1.08577 -0.24218,1.63338 0.0628,0.43864 0.0509,0.83033 -0.13932,1.11608 z"
         id="path1802-5-8-7-3-5"
         sodipodi:nodetypes="ccccccccccccccscc"
         inkscape:export-filename="C:\Users\Clément\Desktop\cadate\res\img/icon.png"
         inkscape:export-xdpi="96"
         inkscape:export-ydpi="96" />
      <rect
         style="fill:#cecece;fill-opacity:1;stroke:#000000;stroke-width:0.112879;stroke-miterlimit:4;stroke-dasharray:none;stroke-opacity:1"
         id="rect956-2-2-4-7-1"
         width="6.8407593"
         height="1.1313564"
         x="233.03215"
         y="154.68204"
         ry="0.56567818"
         inkscape:export-filename="C:\Users\Clément\Desktop\cadate\res\img/icon.png"
         inkscape:export-xdpi="96"
         inkscape:export-ydpi="96" />
      <rect
         style="fill:#cecece;fill-opacity:1;stroke:#000000;stroke-width:0.112879;stroke-miterlimit:4;stroke-dasharray:none;stroke-opacity:1"
         id="rect956-0-8-9-7-8-5"
         width="6.8407593"
         height="1.1313564"
         x="233.07162"
         y="155.86601"
         ry="0.56567818"
         inkscape:export-filename="C:\Users\Clément\Desktop\cadate\res\img/icon.png"
         inkscape:export-xdpi="96"
         inkscape:export-ydpi="96" />
      <rect
         style="fill:#cecece;fill-opacity:1;stroke:#000000;stroke-width:0.112879;stroke-miterlimit:4;stroke-dasharray:none;stroke-opacity:1"
         id="rect956-5-3-3-9-5-7"
         width="6.8407593"
         height="1.1313564"
         x="233.13741"
         y="157.00876"
         ry="0.56567818"
         inkscape:export-filename="C:\Users\Clément\Desktop\cadate\res\img/icon.png"
         inkscape:export-xdpi="96"
         inkscape:export-ydpi="96" />
      <path
         style="fill:#5b5b5b;fill-opacity:1;stroke:#000000;stroke-width:0.112702px;stroke-linecap:butt;stroke-linejoin:miter;stroke-opacity:1"
         d="m 234.2514,159.21492 c 0.0537,0.39028 0.28132,0.74708 0.97673,1.01394 0.63565,0.10684 1.2713,0.12875 1.90695,0.0372 0.84697,-0.17751 1.22988,-0.57776 1.46045,-1.05115 -1.4591,0.0774 -2.90977,0.0958 -4.34413,-2e-5 z"
         id="path1362-6-6-0-1-3"
         sodipodi:nodetypes="ccccc"
         inkscape:export-filename="C:\Users\Clément\Desktop\cadate\res\img/icon.png"
         inkscape:export-xdpi="96"
         inkscape:export-ydpi="96" />
      <rect
         style="fill:#cecece;fill-opacity:1;stroke:#000000;stroke-width:0.112879;stroke-miterlimit:4;stroke-dasharray:none;stroke-opacity:1"
         id="rect956-9-1-4-4-1-5"
         width="6.8407593"
         height="1.1313564"
         x="233.16371"
         y="158.19275"
         ry="0.56567818"
         inkscape:export-filename="C:\Users\Clément\Desktop\cadate\res\img/icon.png"
         inkscape:export-xdpi="96"
         inkscape:export-ydpi="96" />
      <path
         style="fill:#fff7ca;fill-opacity:0.8;stroke:none;stroke-width:0.112879;stroke-linecap:butt;stroke-linejoin:miter;stroke-miterlimit:4;stroke-dasharray:none;stroke-opacity:1"
         d="m 235.54064,141.48471 c 0.62802,0.79958 1.76001,0.91475 2.52509,1.54073 0.86397,0.70689 1.44458,1.34374 2.09711,2.18271 0.58915,0.75748 2.00409,0.69104 1.5978,-0.52785 -0.64684,-1.94052 -4.82763,-4.58796 -6.22,-3.19559 z"
         id="path4668-9-2-6-6-2"
         sodipodi:nodetypes="csssc"
         inkscape:export-filename="C:\Users\Clément\Desktop\cadate\res\img/icon.png"
         inkscape:export-xdpi="96"
         inkscape:export-ydpi="96" />
      <path
         id="rect5418-0-5-6-2-9-8"
         style="fill:#ffe134;fill-opacity:0.8;stroke-width:0.15681"
         d="m 237.01004,139.0337 0.5571,-1.5177 h -1.1142 z"
         sodipodi:nodetypes="cccc"
         inkscape:export-filename="C:\Users\Clément\Desktop\cadate\res\img/icon.png"
         inkscape:export-xdpi="96"
         inkscape:export-ydpi="96" />
      <path
         id="rect5418-1-2-0-87-0-1"
         style="fill:#ffe134;fill-opacity:0.8;stroke-width:0.15681"
         d="m 229.94822,149.92833 -1.6057,-0.18839 0.25943,1.08357 z"
         sodipodi:nodetypes="cccc"
         inkscape:export-filename="C:\Users\Clément\Desktop\cadate\res\img/icon.png"
         inkscape:export-xdpi="96"
         inkscape:export-ydpi="96" />
      <path
         id="rect5418-1-7-6-1-4-6-5"
         style="fill:#ffe134;fill-opacity:0.8;stroke-width:0.15681"
         d="m 229.62635,144.85121 -1.3974,-0.81305 -0.19414,1.09715 z"
         sodipodi:nodetypes="cccc"
         inkscape:export-filename="C:\Users\Clément\Desktop\cadate\res\img/icon.png"
         inkscape:export-xdpi="96"
         inkscape:export-ydpi="96" />
      <path
         id="rect5418-1-7-1-9-7-5-4-0"
         style="fill:#ffe134;fill-opacity:0.8;stroke-width:0.15681"
         d="m 232.62005,140.14186 -0.41832,-1.56165 -0.91099,0.64151 z"
         sodipodi:nodetypes="cccc"
         inkscape:export-filename="C:\Users\Clément\Desktop\cadate\res\img/icon.png"
         inkscape:export-xdpi="96"
         inkscape:export-ydpi="96" />
      <path
         id="path6603-3-7-5-2-3"
         style="fill:#ffe134;fill-opacity:0.8;stroke-width:0.15681"
         d="m 243.49026,149.92833 1.60571,-0.18839 -0.25944,1.08357 z"
         sodipodi:nodetypes="cccc"
         inkscape:export-filename="C:\Users\Clément\Desktop\cadate\res\img/icon.png"
         inkscape:export-xdpi="96"
         inkscape:export-ydpi="96" />
      <path
         id="path6605-0-1-9-4-6"
         style="fill:#ffe134;fill-opacity:0.8;stroke-width:0.15681"
         d="m 243.81214,144.85121 1.3974,-0.81305 0.19414,1.09715 z"
         sodipodi:nodetypes="cccc"
         inkscape:export-filename="C:\Users\Clément\Desktop\cadate\res\img/icon.png"
         inkscape:export-xdpi="96"
         inkscape:export-ydpi="96" />
      <path
         id="path6607-7-0-1-7-4"
         style="fill:#ffe134;fill-opacity:0.8;stroke-width:0.15681"
         d="m 242.07589,140.11333 0.41832,-1.56165 0.91098,0.64151 z"
         sodipodi:nodetypes="cccc"
         inkscape:export-filename="C:\Users\Clément\Desktop\cadate\res\img/icon.png"
         inkscape:export-xdpi="96"
         inkscape:export-ydpi="96" />
    </g>
  </g>
</svg>
