<?xml version="1.0" encoding="UTF-8" standalone="no"?>
<!-- Created with Inkscape (http://www.inkscape.org/) -->

<svg
   width="150"
   height="150"
   viewBox="0 0 39.687499 39.687501"
   version="1.1"
   id="svg5"
   inkscape:version="1.1.1 (3bf5ae0d25, 2021-09-20)"
   sodipodi:docname="zzz - Copie (4).svg"
   inkscape:export-filename="C:\Users\Clément\Desktop\freepic\res\img/icon.png"
   inkscape:export-xdpi="96"
   inkscape:export-ydpi="96"
   xmlns:inkscape="http://www.inkscape.org/namespaces/inkscape"
   xmlns:sodipodi="http://sodipodi.sourceforge.net/DTD/sodipodi-0.dtd"
   xmlns="http://www.w3.org/2000/svg"
   xmlns:svg="http://www.w3.org/2000/svg">
  <sodipodi:namedview
     id="namedview7"
     pagecolor="#ffffff"
     bordercolor="#666666"
     borderopacity="1.0"
     inkscape:pageshadow="2"
     inkscape:pageopacity="0.0"
     inkscape:pagecheckerboard="true"
     inkscape:document-units="mm"
     showgrid="false"
     units="px"
     inkscape:zoom="2.1417559"
     inkscape:cx="38.286343"
     inkscape:cy="82.409019"
     inkscape:window-width="1920"
     inkscape:window-height="1013"
     inkscape:window-x="-9"
     inkscape:window-y="-9"
     inkscape:window-maximized="1"
     inkscape:current-layer="layer1"
     inkscape:snap-object-midpoints="false"
     inkscape:snap-center="false" />
  <defs
     id="defs2">
    <clipPath
       clipPathUnits="userSpaceOnUse"
       id="clipPath168419-0">
      <path
         style="fill:#d4d591;fill-opacity:1;stroke:#000000;stroke-width:0.264583px;stroke-linecap:butt;stroke-linejoin:miter;stroke-opacity:1"
         d="m 1976.6629,1120.9601 c -14.9756,1.5925 -25.8038,9.2969 -36.1081,17.7735 -10.8363,13.4703 -17.8314,26.9407 -24.1344,40.4111 -5.0825,17.6623 -6.7297,33.8216 -6.174,49.0172 2.96,13.8998 7.3576,26.531 16.2768,35.1727 10.0404,8.8438 23.2314,13.9465 38.9144,16.0897 14.6068,1.5407 26.9047,-0.7669 39.4757,-2.6193 16.4002,-3.4206 25.6399,-12.8083 33.676,-23.199 4.188,-8.0615 7.6011,-17.2853 8.9802,-29.56 0.1671,-11.8575 -2.4879,-24.9245 -4.6772,-37.7919 -3.678,-11.8565 -9.5794,-24.1299 -18.896,-37.0436 -6.3738,-10.6207 -16.705,-17.504 -27.502,-23.9473 -6.0539,-1.7474 -10.1493,-4.5965 -19.8314,-4.3031 z"
         id="path168421-4"
         sodipodi:nodetypes="ccccccccccccc" />
    </clipPath>
    <linearGradient
       x1="-989.37677"
       y1="-3204.3379"
       x2="1175.8552"
       y2="2649.3293"
       gradientUnits="userSpaceOnUse"
       id="color-1"
       gradientTransform="matrix(0.17670732,0,0,0.17670732,-22.688903,-12.005473)">
      <stop
         offset="0"
         stop-color="#2a221e"
         id="stop2" />
      <stop
         offset="1"
         stop-color="#2a221e"
         stop-opacity="0"
         id="stop4" />
    </linearGradient>
    <linearGradient
       x1="-3323.7942"
       y1="-330.77435"
       x2="2849.8162"
       y2="585.84308"
       gradientUnits="userSpaceOnUse"
       id="color-2"
       gradientTransform="matrix(0.17670732,0,0,0.17670732,-22.688903,-12.005473)">
      <stop
         offset="0"
         stop-color="#2a221e"
         id="stop7" />
      <stop
         offset="1"
         stop-color="#2a221e"
         stop-opacity="0"
         id="stop9" />
    </linearGradient>
  </defs>
  <g
     inkscape:label="Calque 1"
     inkscape:groupmode="layer"
     id="layer1">
    <g
       id="g15362-1-3"
       transform="matrix(0.34014594,-0.23464258,0.23464258,0.34014594,176.10366,-442.12099)"
       inkscape:export-filename="C:\Users\Clément\Desktop\allCollectibles.png"
       inkscape:export-xdpi="96"
       inkscape:export-ydpi="96">
      <path
         style="fill:#4b2409;fill-opacity:1;stroke:#000000;stroke-width:1;stroke-linecap:butt;stroke-linejoin:miter;stroke-miterlimit:4;stroke-dasharray:none;stroke-opacity:1"
         d="m -983.39009,716.88856 -8.33438,2.11666 c -0.54946,-0.94809 0.96279,-1.89618 1.52136,-2.84427 -1.20724,-0.62966 -2.87868,-0.67908 -3.175,-2.44739 0.51033,-1.02454 1.39511,-1.78162 2.77812,-2.18282 -0.97014,-0.81294 -1.94027,-1.00891 -2.91041,-2.71198 l 2.64583,-1.71979 c -1.67359,-0.30028 -3.15198,-0.84458 -3.83646,-2.38125 0.64798,-1.47746 2.45768,-1.98683 3.77031,-2.91041 -1.20233,-0.30342 -2.34289,-0.75098 -3.175,-1.91823 0.29951,-0.85569 1.73536,-1.06204 2.84427,-1.45521 -1.97451,-0.60329 -2.3082,-1.61679 -2.84427,-2.57969 0.0808,-1.1813 1.27242,-1.95864 2.71198,-2.64583 l 8.99584,3.175 z"
         id="path4769-2-7"
         sodipodi:nodetypes="ccccccccccccccc" />
      <path
         style="fill:#4b2409;fill-opacity:1;stroke:#000000;stroke-width:1;stroke-linecap:butt;stroke-linejoin:miter;stroke-miterlimit:4;stroke-dasharray:none;stroke-opacity:1"
         d="m -911.19129,696.66978 9.93839,-3.14036 c 0.47729,1.18681 0.0913,2.20097 0,3.27406 0.69809,0.94237 1.40633,1.88272 1.49673,2.94663 -0.25723,1.54092 -0.87365,2.4832 -1.49673,3.41437 0.75426,0.92084 1.64435,1.86431 1.68381,2.66602 -0.20477,1.90239 -0.96905,2.49926 -1.91767,2.666 0.83924,0.73082 2.0353,1.02552 1.82412,3.04019 -0.31882,0.97755 -0.39198,2.11886 -1.77734,2.38538 0.9924,0.93672 2.15976,1.89531 2.19829,2.7128 -0.42083,1.35664 -1.33837,1.71984 -2.24507,2.10473 l -10.19633,-2.24506 z"
         id="path4771-8-9"
         sodipodi:nodetypes="ccccccccccccc" />
      <rect
         style="fill:#4b2409;fill-opacity:1;stroke:#000000;stroke-width:1.5;stroke-miterlimit:4;stroke-dasharray:none;stroke-opacity:1"
         id="rect4795-0-6"
         width="77.624565"
         height="20.094799"
         x="-985.76154"
         y="696.67188"
         ry="4.4863076" />
      <path
         style="fill:#ffffff;fill-opacity:1;stroke:#be180b;stroke-width:1;stroke-linecap:butt;stroke-linejoin:miter;stroke-miterlimit:4;stroke-dasharray:none;stroke-opacity:1"
         d="m -975.29323,699.43738 -4.49011,13.65747 62.58115,-0.18708 4.39658,-13.47039 z"
         id="path5027-5-8" />
      <path
         style="fill:#083c7e;fill-opacity:1;stroke:#000000;stroke-width:0;stroke-linecap:butt;stroke-linejoin:miter;stroke-miterlimit:4;stroke-dasharray:none;stroke-opacity:1"
         d="m -972.01917,708.93214 1.21607,0.23386 c 0.46476,-0.29513 0.46801,-0.76607 0.28062,-1.30963 -0.85405,-0.84099 -2.1271,-1.50243 -2.43213,-2.66602 -0.21098,-0.80482 0.0774,-1.87863 0.56126,-2.43213 1.28038,-1.34007 2.85787,-1.13516 4.44336,-0.88868 0.3871,0.43324 0.18709,2.43211 0.28062,3.64823 -0.52846,0.0783 -1.38812,-0.28916 -1.1693,0.79513 0.29985,0.71717 0.95759,1.43434 0.8419,2.15151 0.13376,1.32389 -0.72781,1.5376 -1.35638,2.0112 -0.59551,0.16997 -1.53765,0.16662 -2.43216,0.18709 0.22871,-0.45891 -0.0906,-1.12857 -0.23386,-1.73056 z"
         id="path5029-7-1"
         sodipodi:nodetypes="cccacccccccc" />
      <path
         style="fill:#083c7e;fill-opacity:1;stroke:#000000;stroke-width:0;stroke-linecap:butt;stroke-linejoin:miter;stroke-miterlimit:4;stroke-dasharray:none;stroke-opacity:1"
         d="m -925.87298,708.92887 1.21607,0.23386 c 0.46476,-0.29513 0.46801,-0.76607 0.28062,-1.30963 -0.85405,-0.84099 -2.1271,-1.50243 -2.43213,-2.66602 -0.21098,-0.80482 0.0774,-1.87863 0.56126,-2.43213 1.28038,-1.34007 2.85787,-1.13516 4.44336,-0.88868 0.3871,0.43324 0.18709,2.43211 0.28062,3.64823 -0.52846,0.0783 -1.38812,-0.28916 -1.1693,0.79513 0.29985,0.71717 0.95759,1.43434 0.8419,2.15151 0.13376,1.32389 -0.72781,1.5376 -1.35638,2.0112 -0.59551,0.16997 -1.53765,0.16662 -2.43216,0.18709 0.22871,-0.45891 -0.0906,-1.12857 -0.23386,-1.73056 z"
         id="path5029-0-7-5"
         sodipodi:nodetypes="cccacccccccc" />
      <path
         style="fill:#083c7e;fill-opacity:1;stroke:#000000;stroke-width:0;stroke-linecap:butt;stroke-linejoin:miter;stroke-miterlimit:4;stroke-dasharray:none;stroke-opacity:1"
         d="m -967.06133,702.15018 0.32742,8.2319 1.82409,0.14031 v -3.36759 l 4.34983,3.36759 0.14031,-8.65285 -2.01121,-0.0468 0.0468,2.10476 -1.77734,-1.91767 z"
         id="path5031-9-4" />
      <path
         style="fill:#083c7e;fill-opacity:1;stroke:#000000;stroke-width:0;stroke-linecap:butt;stroke-linejoin:miter;stroke-miterlimit:4;stroke-dasharray:none;stroke-opacity:1"
         d="m -960.13904,701.96307 0.37418,8.37223 3.27403,0.0935 0.23386,-8.60607 z"
         id="path5033-2-3" />
      <path
         style="fill:#083c7e;fill-opacity:1;stroke:#000000;stroke-width:0;stroke-linecap:butt;stroke-linejoin:miter;stroke-miterlimit:4;stroke-dasharray:none;stroke-opacity:1"
         d="m -950.03627,701.68245 c 0,0 -2.08083,-0.31119 -2.99341,0.0935 -1.10874,0.49168 -2.09176,1.42562 -2.52569,2.61924 -0.371,1.27844 -0.37014,2.55688 0.14031,3.83532 0.84785,1.56519 2.08595,2.13702 3.41437,2.47894 0.70652,-0.0651 1.66414,0.0267 2.05798,-0.23387 0.35089,-0.54568 0.25992,-1.09135 0.28062,-1.63703 -0.83965,0.12279 -1.74562,0.43504 -2.29182,-0.28061 -0.53689,-0.78922 -0.6936,-1.65991 0,-2.7128 0.77363,-0.34255 1.51531,-0.42945 2.24506,-0.42096 -0.11715,-1.24324 0.0945,-2.41123 -0.32742,-3.74173 z"
         id="path5035-8-6"
         sodipodi:nodetypes="caccccccccc" />
      <path
         style="fill:#083c7e;fill-opacity:1;stroke:#000000;stroke-width:0;stroke-linecap:butt;stroke-linejoin:miter;stroke-miterlimit:4;stroke-dasharray:none;stroke-opacity:1"
         d="m -949.28789,701.91631 0.51448,8.37222 h 3.08697 l 0.18709,-2.01121 1.35639,2.38538 c 1.10349,0.0474 1.71687,-0.55875 2.57246,-0.84191 -0.83172,-0.78836 -1.63461,-1.61275 -2.29182,-2.61924 1.12511,-1.48459 1.87392,-3.22004 2.75955,-4.86428 l -3.1805,-0.56129 -1.12255,3.64823 v -3.32081 z"
         id="path5037-6-1"
         sodipodi:nodetypes="cccccccccccc" />
      <path
         style="fill:#083c7e;fill-opacity:1;stroke:#000000;stroke-width:0;stroke-linecap:butt;stroke-linejoin:miter;stroke-miterlimit:4;stroke-dasharray:none;stroke-opacity:1"
         d="m -940.84552,701.84615 0.28062,8.55929 h 5.2151 l 0.32739,-1.80072 c -0.11263,-0.003 -0.15725,-0.0444 -0.39756,0.0233 -0.11758,0.0324 -0.21617,0.0861 -0.21045,0.25725 l -1.77736,-0.11691 v -0.74838 h 1.56688 l 0.14031,0.30403 c 0.0714,0.0521 0.14692,0.0719 0.23387,0 l 0.1637,-1.91767 -2.01121,0.0233 -0.0233,-1.07574 1.40316,-0.0468 c 0.12437,0.13762 0.24434,0.28054 0.44434,0.3274 l 0.37418,-0.0233 0.11692,-3.76515 z"
         id="path5039-2-6"
         sodipodi:nodetypes="ccccccccccccccccccc" />
      <path
         id="path5041-4-4"
         style="fill:#083c7e;fill-opacity:1;stroke:#000000;stroke-width:0;stroke-linecap:butt;stroke-linejoin:miter;stroke-miterlimit:4;stroke-dasharray:none;stroke-opacity:1"
         d="m -929.9241,701.84604 -4.58369,0.047 0.30385,8.39536 3.11038,0.0935 v -1.89394 l 1.8242,2.43189 c 0.67892,-0.34015 1.5181,-0.54287 1.9177,-1.12241 l -1.56681,-1.94096 c 0.58288,-0.44736 1.18922,-0.86961 1.47328,-1.63711 0.0788,-0.77081 0.35041,-1.41991 0.0465,-2.43242 -0.40335,-0.96372 -1.33024,-1.54908 -2.52542,-1.94096 z m -0.53332,3.20961 c 0.0532,0 0.10835,0.003 0.1659,0.009 0.48643,0.43548 0.75001,0.85463 0.51263,1.20716 -0.228,0.74676 -0.75211,0.50626 -1.15756,0.66146 0.0138,-0.576 0.0124,-1.14297 -0.0827,-1.65364 0.1419,-0.15013 0.33121,-0.2218 0.56171,-0.22429 z" />
    </g>
  </g>
</svg>
