<?xml version="1.0" encoding="UTF-8" standalone="no"?>
<!-- Created with Inkscape (http://www.inkscape.org/) -->

<svg
   width="150"
   height="150"
   viewBox="0 0 39.687499 39.687501"
   version="1.1"
   id="svg5"
   inkscape:version="1.1.1 (3bf5ae0d25, 2021-09-20)"
   sodipodi:docname="zzz - Copie (6).svg"
   inkscape:export-filename="C:\Users\Clément\Desktop\freepic\res\img/icon.png"
   inkscape:export-xdpi="96"
   inkscape:export-ydpi="96"
   xmlns:inkscape="http://www.inkscape.org/namespaces/inkscape"
   xmlns:sodipodi="http://sodipodi.sourceforge.net/DTD/sodipodi-0.dtd"
   xmlns="http://www.w3.org/2000/svg"
   xmlns:svg="http://www.w3.org/2000/svg">
  <sodipodi:namedview
     id="namedview7"
     pagecolor="#ffffff"
     bordercolor="#666666"
     borderopacity="1.0"
     inkscape:pageshadow="2"
     inkscape:pageopacity="0.0"
     inkscape:pagecheckerboard="true"
     inkscape:document-units="mm"
     showgrid="false"
     units="px"
     inkscape:zoom="3.0289002"
     inkscape:cx="62.729039"
     inkscape:cy="70.487631"
     inkscape:window-width="1920"
     inkscape:window-height="1013"
     inkscape:window-x="-9"
     inkscape:window-y="-9"
     inkscape:window-maximized="1"
     inkscape:current-layer="layer1"
     inkscape:snap-object-midpoints="false"
     inkscape:snap-center="false" />
  <defs
     id="defs2">
    <clipPath
       clipPathUnits="userSpaceOnUse"
       id="clipPath168419-0">
      <path
         style="fill:#d4d591;fill-opacity:1;stroke:#000000;stroke-width:0.264583px;stroke-linecap:butt;stroke-linejoin:miter;stroke-opacity:1"
         d="m 1976.6629,1120.9601 c -14.9756,1.5925 -25.8038,9.2969 -36.1081,17.7735 -10.8363,13.4703 -17.8314,26.9407 -24.1344,40.4111 -5.0825,17.6623 -6.7297,33.8216 -6.174,49.0172 2.96,13.8998 7.3576,26.531 16.2768,35.1727 10.0404,8.8438 23.2314,13.9465 38.9144,16.0897 14.6068,1.5407 26.9047,-0.7669 39.4757,-2.6193 16.4002,-3.4206 25.6399,-12.8083 33.676,-23.199 4.188,-8.0615 7.6011,-17.2853 8.9802,-29.56 0.1671,-11.8575 -2.4879,-24.9245 -4.6772,-37.7919 -3.678,-11.8565 -9.5794,-24.1299 -18.896,-37.0436 -6.3738,-10.6207 -16.705,-17.504 -27.502,-23.9473 -6.0539,-1.7474 -10.1493,-4.5965 -19.8314,-4.3031 z"
         id="path168421-4"
         sodipodi:nodetypes="ccccccccccccc" />
    </clipPath>
    <linearGradient
       x1="-989.37677"
       y1="-3204.3379"
       x2="1175.8552"
       y2="2649.3293"
       gradientUnits="userSpaceOnUse"
       id="color-1"
       gradientTransform="matrix(0.17670732,0,0,0.17670732,-22.688903,-12.005473)">
      <stop
         offset="0"
         stop-color="#2a221e"
         id="stop2" />
      <stop
         offset="1"
         stop-color="#2a221e"
         stop-opacity="0"
         id="stop4" />
    </linearGradient>
    <linearGradient
       x1="-3323.7942"
       y1="-330.77435"
       x2="2849.8162"
       y2="585.84308"
       gradientUnits="userSpaceOnUse"
       id="color-2"
       gradientTransform="matrix(0.17670732,0,0,0.17670732,-22.688903,-12.005473)">
      <stop
         offset="0"
         stop-color="#2a221e"
         id="stop7" />
      <stop
         offset="1"
         stop-color="#2a221e"
         stop-opacity="0"
         id="stop9" />
    </linearGradient>
  </defs>
  <g
     inkscape:label="Calque 1"
     inkscape:groupmode="layer"
     id="layer1">
    <g
       id="g55139"
       transform="matrix(1.1476687,0,0,1.1476687,296.62302,-281.56783)">
      <path
         style="fill:#c5c3c3;fill-opacity:1;stroke:#000000;stroke-width:0.265;stroke-linecap:butt;stroke-linejoin:miter;stroke-miterlimit:4;stroke-dasharray:none;stroke-opacity:1"
         d="m -229.47618,257.33078 -2.59875,19.17397 -1.39764,1.13559 2.62059,-20.17853 z"
         id="path28326" />
      <path
         style="fill:#b3b3b3;fill-opacity:1;stroke:#000000;stroke-width:0.265;stroke-linecap:butt;stroke-linejoin:miter;stroke-miterlimit:4;stroke-dasharray:none;stroke-opacity:1"
         d="m -230.85198,257.43998 -4.36765,0.80801 -1.87809,20.87735 3.64699,-1.52867 z"
         id="path28427" />
      <path
         style="fill:#c5c3c3;fill-opacity:1;stroke:#000000;stroke-width:0.265;stroke-linecap:butt;stroke-linejoin:miter;stroke-miterlimit:4;stroke-dasharray:none;stroke-opacity:1"
         d="m -235.24147,258.22615 -7.75257,0.24022 0.61147,21.09574 5.39404,-0.43677 z"
         id="path28462" />
      <path
         style="fill:#b3b3b3;fill-opacity:1;stroke:#000000;stroke-width:0.265;stroke-linecap:butt;stroke-linejoin:miter;stroke-miterlimit:4;stroke-dasharray:none;stroke-opacity:1"
         d="m -242.90669,258.37902 -6.35493,-0.32757 1.87809,20.72448 5.11015,0.78618 z"
         id="path28497" />
      <path
         style="fill:#c5c3c3;fill-opacity:1;stroke:#000000;stroke-width:0.265;stroke-linecap:butt;stroke-linejoin:miter;stroke-miterlimit:4;stroke-dasharray:none;stroke-opacity:1"
         d="m -249.13059,258.00777 -2.31485,-0.50228 1.79073,20.26588 2.27118,0.98272 z"
         id="path28598" />
      <path
         style="fill:#b3b3b3;fill-opacity:1;stroke:#000000;stroke-width:0.265;stroke-linecap:butt;stroke-linejoin:miter;stroke-miterlimit:4;stroke-dasharray:none;stroke-opacity:1"
         d="m -251.44544,257.50549 -1.26662,-0.24022 2.24934,20.0475 0.80801,0.43676 z"
         id="path28633" />
      <path
         style="fill:#c5c3c3;fill-opacity:1;stroke:#000000;stroke-width:0.265;stroke-linecap:butt;stroke-linejoin:miter;stroke-miterlimit:4;stroke-dasharray:none;stroke-opacity:1"
         d="m -254.66887,251.26313 0.27795,5.31204 c 4.47547,1.91085 9.02902,1.55732 13.55805,1.9148 4.10278,0.13773 8.18536,-0.22921 12.23003,-1.54419 l 0.61768,-4.47817 c -4.57082,1.82349 -9.14164,1.1119 -13.71246,0.9574 -4.37632,-0.49282 -8.76424,-0.93536 -12.97125,-2.16188 z"
         id="path28668"
         sodipodi:nodetypes="ccccccc" />
      <path
         style="fill:#b3b3b3;fill-opacity:1;stroke:#000000;stroke-width:0.265;stroke-linecap:butt;stroke-linejoin:miter;stroke-miterlimit:4;stroke-dasharray:none;stroke-opacity:1"
         d="m -254.66887,251.29402 c 3.45316,-2.06493 6.12668,-1.72601 9.14164,-2.43983 3.06501,-0.30699 5.95814,-0.18427 8.86369,-0.0926 3.68846,0.70052 6.40859,2.01556 8.58573,3.67519 -4.28267,1.86688 -8.49676,1.19654 -12.72418,1.01917 -4.78643,-0.34312 -9.48884,-0.8795 -13.86688,-2.16193 z"
         id="path29059"
         sodipodi:nodetypes="cccccc" />
      <path
         style="fill:#c5c3c3;fill-opacity:1;stroke:#000000;stroke-width:0.265;stroke-linecap:butt;stroke-linejoin:miter;stroke-miterlimit:4;stroke-dasharray:none;stroke-opacity:1"
         d="m -245.94416,250.59913 c -0.29584,-1.21367 -0.0897,-2.45125 0.4787,-3.70607 0.61429,-0.50607 1.44082,-0.58765 2.2082,-0.78754 l 4.4164,0.0618 c 0.95358,0.20913 1.74179,0.50731 2.16187,1.00372 0.34335,0.36031 0.60754,0.72063 0.66401,1.08094 0.25924,0.78754 0.15991,1.57508 0.32428,2.36262 -0.57633,0.2731 -1.23114,0.41538 -2.05378,0.27796 0.0777,-0.91959 0.14078,-1.83846 -0.58679,-2.71779 -0.7021,-0.39874 -1.46381,-0.75113 -2.53249,-0.86475 -0.68287,0.0457 -1.30165,-0.15184 -2.5016,0.15442 l -0.89563,0.24707 c -0.0721,0.89564 -0.30221,1.79127 -0.15442,2.68691 -0.35537,0.27253 -0.80487,0.41953 -1.52875,0.20071 z"
         id="path29490"
         sodipodi:nodetypes="cccccccccccccc" />
    </g>
  </g>
</svg>
