<?xml version="1.0" encoding="UTF-8" standalone="no"?>
<!-- Created with Inkscape (http://www.inkscape.org/) -->

<svg
   width="150"
   height="150"
   viewBox="0 0 39.687499 39.687501"
   version="1.1"
   id="svg5"
   inkscape:version="1.1.1 (3bf5ae0d25, 2021-09-20)"
   sodipodi:docname="zzz - Copie (7).svg"
   inkscape:export-filename="C:\Users\Clément\Desktop\freepic\res\img/icon.png"
   inkscape:export-xdpi="96"
   inkscape:export-ydpi="96"
   xmlns:inkscape="http://www.inkscape.org/namespaces/inkscape"
   xmlns:sodipodi="http://sodipodi.sourceforge.net/DTD/sodipodi-0.dtd"
   xmlns="http://www.w3.org/2000/svg"
   xmlns:svg="http://www.w3.org/2000/svg">
  <sodipodi:namedview
     id="namedview7"
     pagecolor="#ffffff"
     bordercolor="#666666"
     borderopacity="1.0"
     inkscape:pageshadow="2"
     inkscape:pageopacity="0.0"
     inkscape:pagecheckerboard="true"
     inkscape:document-units="mm"
     showgrid="false"
     units="px"
     inkscape:zoom="2.1417559"
     inkscape:cx="112.5245"
     inkscape:cy="62.332034"
     inkscape:window-width="1920"
     inkscape:window-height="1013"
     inkscape:window-x="-9"
     inkscape:window-y="-9"
     inkscape:window-maximized="1"
     inkscape:current-layer="layer1"
     inkscape:snap-object-midpoints="false"
     inkscape:snap-center="false" />
  <defs
     id="defs2">
    <clipPath
       clipPathUnits="userSpaceOnUse"
       id="clipPath168419-0">
      <path
         style="fill:#d4d591;fill-opacity:1;stroke:#000000;stroke-width:0.264583px;stroke-linecap:butt;stroke-linejoin:miter;stroke-opacity:1"
         d="m 1976.6629,1120.9601 c -14.9756,1.5925 -25.8038,9.2969 -36.1081,17.7735 -10.8363,13.4703 -17.8314,26.9407 -24.1344,40.4111 -5.0825,17.6623 -6.7297,33.8216 -6.174,49.0172 2.96,13.8998 7.3576,26.531 16.2768,35.1727 10.0404,8.8438 23.2314,13.9465 38.9144,16.0897 14.6068,1.5407 26.9047,-0.7669 39.4757,-2.6193 16.4002,-3.4206 25.6399,-12.8083 33.676,-23.199 4.188,-8.0615 7.6011,-17.2853 8.9802,-29.56 0.1671,-11.8575 -2.4879,-24.9245 -4.6772,-37.7919 -3.678,-11.8565 -9.5794,-24.1299 -18.896,-37.0436 -6.3738,-10.6207 -16.705,-17.504 -27.502,-23.9473 -6.0539,-1.7474 -10.1493,-4.5965 -19.8314,-4.3031 z"
         id="path168421-4"
         sodipodi:nodetypes="ccccccccccccc" />
    </clipPath>
    <linearGradient
       x1="-989.37677"
       y1="-3204.3379"
       x2="1175.8552"
       y2="2649.3293"
       gradientUnits="userSpaceOnUse"
       id="color-1"
       gradientTransform="matrix(0.17670732,0,0,0.17670732,-22.688903,-12.005473)">
      <stop
         offset="0"
         stop-color="#2a221e"
         id="stop2" />
      <stop
         offset="1"
         stop-color="#2a221e"
         stop-opacity="0"
         id="stop4" />
    </linearGradient>
    <linearGradient
       x1="-3323.7942"
       y1="-330.77435"
       x2="2849.8162"
       y2="585.84308"
       gradientUnits="userSpaceOnUse"
       id="color-2"
       gradientTransform="matrix(0.17670732,0,0,0.17670732,-22.688903,-12.005473)">
      <stop
         offset="0"
         stop-color="#2a221e"
         id="stop7" />
      <stop
         offset="1"
         stop-color="#2a221e"
         stop-opacity="0"
         id="stop9" />
    </linearGradient>
  </defs>
  <g
     inkscape:label="Calque 1"
     inkscape:groupmode="layer"
     id="layer1">
    <path
       d="m 37.18856,19.861762 c 0,9.645592 -7.819299,17.464902 -17.464901,17.464902 -9.645602,0 -17.4649017,-7.819297 -17.4649017,-17.464902 0,-9.645591 7.8192997,-17.4649014 17.4649017,-17.4649014 9.645602,0 17.464901,7.8192964 17.464901,17.4649014 z"
       data-paper-data="{&quot;origPos&quot;:null}"
       fill="#ffdb66"
       stroke="#ffc400"
       stroke-width="4.16732"
       id="path8934-59"
       style="mix-blend-mode:normal;fill-rule:nonzero;stroke-width:2.69079;stroke-linecap:butt;stroke-linejoin:miter;stroke-miterlimit:10;stroke-dasharray:none;stroke-dashoffset:0" />
    <text
       font-size="11.1661px"
       xml:space="preserve"
       data-paper-data="{&quot;origPos&quot;:null}"
       fill="#ffc400"
       fill-rule="nonzero"
       stroke="none"
       stroke-width="0.279152"
       stroke-linecap="butt"
       stroke-linejoin="miter"
       stroke-miterlimit="10"
       stroke-dasharray="none"
       stroke-dashoffset="0"
       font-family="'Sans Serif'"
       font-weight="normal"
       text-anchor="start"
       style="mix-blend-mode:normal"
       id="text8938-9"
       x="16.259462"
       y="30.818878"><tspan
         x="16.259462"
         dy="0"
         id="tspan8936-54"
         style="stroke-width:0.279152">$</tspan></text>
    <path
       d="m 31.283029,15.079642 c 0,2.374742 -2.024688,4.299847 -4.522265,4.299847 -2.497578,0 -4.522265,-1.925105 -4.522265,-4.299847 0,-2.374741 2.024687,-4.299859 4.522265,-4.299859 2.497577,0 4.522265,1.925118 4.522265,4.299859 z"
       data-paper-data="{&quot;origPos&quot;:null}"
       fill="#ffffff"
       stroke="#000000"
       stroke-width="0.639906"
       id="path8940-9"
       style="mix-blend-mode:normal;fill-rule:nonzero;stroke-linecap:butt;stroke-linejoin:miter;stroke-miterlimit:10;stroke-dasharray:none;stroke-dashoffset:0" />
    <path
       d="m 28.762428,15.376174 c 0,1.228325 -0.995745,2.224056 -2.224057,2.224056 -1.228324,0 -2.224057,-0.995743 -2.224057,-2.224056 0,-1.228324 0.995745,-2.224056 2.224057,-2.224056 1.228312,0 2.224057,0.995745 2.224057,2.224056 z"
       data-paper-data="{&quot;origPos&quot;:null}"
       fill="#000000"
       stroke="#000000"
       stroke-width="1.27981"
       id="path8942-2"
       style="mix-blend-mode:normal;fill-rule:nonzero;stroke-linecap:butt;stroke-linejoin:miter;stroke-miterlimit:10;stroke-dasharray:none;stroke-dashoffset:0" />
    <path
       d="m 26.589486,13.967601 c 0,0.696051 -0.642081,1.260294 -1.434131,1.260294 -0.792049,0 -1.434143,-0.564256 -1.434143,-1.260294 0,-0.69605 0.642081,-1.260306 1.434143,-1.260306 0.79205,0 1.434131,0.564256 1.434131,1.260306 z"
       data-paper-data="{&quot;origPos&quot;:null}"
       fill="#ffffff"
       stroke="none"
       stroke-width="0"
       id="path8944-7"
       style="mix-blend-mode:normal;fill-rule:nonzero;stroke-linecap:butt;stroke-linejoin:miter;stroke-miterlimit:10;stroke-dasharray:none;stroke-dashoffset:0" />
    <path
       d="m 18.049855,14.746021 c 0,2.374741 -2.024687,4.299846 -4.522252,4.299846 -2.497578,0 -4.522265,-1.925105 -4.522265,-4.299846 0,-2.374742 2.024687,-4.299859 4.522265,-4.299859 2.497577,0 4.522252,1.925117 4.522252,4.299859 z"
       data-paper-data="{&quot;origPos&quot;:null}"
       fill="#ffffff"
       stroke="#000000"
       stroke-width="0.639906"
       id="path8946-4"
       style="mix-blend-mode:normal;fill-rule:nonzero;stroke-linecap:butt;stroke-linejoin:miter;stroke-miterlimit:10;stroke-dasharray:none;stroke-dashoffset:0" />
    <path
       d="m 15.529254,15.042566 c 0,1.228325 -0.995745,2.224057 -2.224056,2.224057 -1.228326,0 -2.224058,-0.995745 -2.224058,-2.224057 0,-1.228324 0.995745,-2.224056 2.224058,-2.224056 1.228324,0 2.224056,0.995745 2.224056,2.224056 z"
       data-paper-data="{&quot;origPos&quot;:null}"
       fill="#000000"
       stroke="#000000"
       stroke-width="1.27981"
       id="path8948-7"
       style="mix-blend-mode:normal;fill-rule:nonzero;stroke-linecap:butt;stroke-linejoin:miter;stroke-miterlimit:10;stroke-dasharray:none;stroke-dashoffset:0" />
    <path
       d="m 13.356313,13.633993 c 0,0.696051 -0.642081,1.260294 -1.434131,1.260294 -0.79205,0 -1.434144,-0.564256 -1.434144,-1.260294 0,-0.696051 0.642081,-1.260307 1.434144,-1.260307 0.79205,0 1.434131,0.564256 1.434131,1.260307 z"
       data-paper-data="{&quot;origPos&quot;:null}"
       fill="#ffffff"
       stroke="none"
       stroke-width="0"
       id="path8950-7"
       style="mix-blend-mode:normal;fill-rule:nonzero;stroke-linecap:butt;stroke-linejoin:miter;stroke-miterlimit:10;stroke-dasharray:none;stroke-dashoffset:0" />
    <path
       d="m 21.437337,16.34997 c -0.02112,0.444312 -0.465468,0.423145 -0.465468,0.423145 l 0.108912,0.175948 c -1.314391,0.657196 -1.679893,0.640699 -2.737516,-0.416937 0,0 -0.314526,-0.314526 0,-0.629053 0.314526,-0.314526 0.629053,0 0.629053,0 0.173734,0.173734 0.623127,0.876773 0.819744,0.93727 0.086,0.0265 0.155242,-0.12491 0.163638,-0.214445 0.02009,-0.213896 0.561875,-0.389857 0.727213,-0.472533 l 0.331292,-0.268862 c 0,0 0.444312,0.02112 0.423145,0.465467 z"
       fill="#000000"
       stroke="none"
       stroke-width="0.639906"
       id="path8952-4"
       style="mix-blend-mode:normal;fill-rule:nonzero;stroke-linecap:butt;stroke-linejoin:miter;stroke-miterlimit:10;stroke-dasharray:none;stroke-dashoffset:0" />
  </g>
</svg>
