<?xml version="1.0" encoding="UTF-8" standalone="no"?>
<!-- Created with Inkscape (http://www.inkscape.org/) -->

<svg
   width="150"
   height="150"
   viewBox="0 0 39.687499 39.687501"
   version="1.1"
   id="svg5"
   inkscape:version="1.1.1 (3bf5ae0d25, 2021-09-20)"
   sodipodi:docname="zzz - Copie (8).svg"
   inkscape:export-filename="C:\Users\Clément\Desktop\freepic\res\img/icon.png"
   inkscape:export-xdpi="96"
   inkscape:export-ydpi="96"
   xmlns:inkscape="http://www.inkscape.org/namespaces/inkscape"
   xmlns:sodipodi="http://sodipodi.sourceforge.net/DTD/sodipodi-0.dtd"
   xmlns="http://www.w3.org/2000/svg"
   xmlns:svg="http://www.w3.org/2000/svg">
  <sodipodi:namedview
     id="namedview7"
     pagecolor="#ffffff"
     bordercolor="#666666"
     borderopacity="1.0"
     inkscape:pageshadow="2"
     inkscape:pageopacity="0.0"
     inkscape:pagecheckerboard="true"
     inkscape:document-units="mm"
     showgrid="false"
     units="px"
     inkscape:zoom="3.0289002"
     inkscape:cx="62.729039"
     inkscape:cy="70.487631"
     inkscape:window-width="1920"
     inkscape:window-height="1013"
     inkscape:window-x="-9"
     inkscape:window-y="-9"
     inkscape:window-maximized="1"
     inkscape:current-layer="layer1"
     inkscape:snap-object-midpoints="false"
     inkscape:snap-center="false" />
  <defs
     id="defs2">
    <clipPath
       clipPathUnits="userSpaceOnUse"
       id="clipPath168419-0">
      <path
         style="fill:#d4d591;fill-opacity:1;stroke:#000000;stroke-width:0.264583px;stroke-linecap:butt;stroke-linejoin:miter;stroke-opacity:1"
         d="m 1976.6629,1120.9601 c -14.9756,1.5925 -25.8038,9.2969 -36.1081,17.7735 -10.8363,13.4703 -17.8314,26.9407 -24.1344,40.4111 -5.0825,17.6623 -6.7297,33.8216 -6.174,49.0172 2.96,13.8998 7.3576,26.531 16.2768,35.1727 10.0404,8.8438 23.2314,13.9465 38.9144,16.0897 14.6068,1.5407 26.9047,-0.7669 39.4757,-2.6193 16.4002,-3.4206 25.6399,-12.8083 33.676,-23.199 4.188,-8.0615 7.6011,-17.2853 8.9802,-29.56 0.1671,-11.8575 -2.4879,-24.9245 -4.6772,-37.7919 -3.678,-11.8565 -9.5794,-24.1299 -18.896,-37.0436 -6.3738,-10.6207 -16.705,-17.504 -27.502,-23.9473 -6.0539,-1.7474 -10.1493,-4.5965 -19.8314,-4.3031 z"
         id="path168421-4"
         sodipodi:nodetypes="ccccccccccccc" />
    </clipPath>
    <linearGradient
       x1="-989.37677"
       y1="-3204.3379"
       x2="1175.8552"
       y2="2649.3293"
       gradientUnits="userSpaceOnUse"
       id="color-1"
       gradientTransform="matrix(0.17670732,0,0,0.17670732,-22.688903,-12.005473)">
      <stop
         offset="0"
         stop-color="#2a221e"
         id="stop2" />
      <stop
         offset="1"
         stop-color="#2a221e"
         stop-opacity="0"
         id="stop4" />
    </linearGradient>
    <linearGradient
       x1="-3323.7942"
       y1="-330.77435"
       x2="2849.8162"
       y2="585.84308"
       gradientUnits="userSpaceOnUse"
       id="color-2"
       gradientTransform="matrix(0.17670732,0,0,0.17670732,-22.688903,-12.005473)">
      <stop
         offset="0"
         stop-color="#2a221e"
         id="stop7" />
      <stop
         offset="1"
         stop-color="#2a221e"
         stop-opacity="0"
         id="stop9" />
    </linearGradient>
  </defs>
  <g
     inkscape:label="Calque 1"
     inkscape:groupmode="layer"
     id="layer1">
    <g
       data-paper-data="{&quot;origPos&quot;:null}"
       id="g7129-9-3"
       inkscape:export-filename="C:\Users\Clément\Desktop\Cloud Chaos\Sprites\items/life.png"
       inkscape:export-xdpi="96"
       inkscape:export-ydpi="96"
       style="mix-blend-mode:normal"
       transform="matrix(0.2910092,0,0,0.2910092,-10.047481,-32.949791)">
      <path
         d="m 166.67001,161.98655 c 0,15.2096 -6.28494,23.14879 -18.78501,31.81368 -15.29862,10.60479 -48.45936,51.59873 -48.45936,51.59873 0,0 -25.104595,-36.35787 -40.989374,-51.68626 -8.45512,-8.15897 -20.375702,-19.97635 -20.375702,-31.72615 0,-24.96163 28.790196,-45.19703 64.304716,-45.19703 35.51452,0 64.30473,20.2354 64.30473,45.19703 z"
         data-paper-data="{&quot;origPos&quot;:null}"
         fill="#ff0000"
         stroke="#000000"
         stroke-width="1.62113"
         id="path7113-7-6"
         inkscape:export-filename="C:\Users\Clément\Desktop\Cloud Chaos\Sprites\items\life.png"
         inkscape:export-xdpi="96"
         inkscape:export-ydpi="96" />
      <path
         d="m 94.869202,157.68732 c 0,7.20438 -6.662877,13.04468 -14.88195,13.04468 -8.219072,0 -14.881949,-5.8403 -14.881949,-13.04468 0,-7.20436 6.662877,-13.04467 14.881949,-13.04467 8.219073,0 14.88195,5.84031 14.88195,13.04467 z"
         data-paper-data="{&quot;origPos&quot;:null}"
         fill="#ffffff"
         stroke="#000000"
         stroke-width="1.08075"
         id="path7115-8-3"
         inkscape:export-filename="C:\Users\Clément\Desktop\Cloud Chaos\Sprites\items\life.png"
         inkscape:export-xdpi="96"
         inkscape:export-ydpi="96" />
      <path
         d="m 85.315358,157.13614 c 0,3.65292 -2.879025,6.6142 -6.430472,6.6142 -3.551447,0 -6.430472,-2.96128 -6.430472,-6.6142 0,-3.65292 2.879025,-6.6142 6.430472,-6.6142 3.551447,0 6.430472,2.96128 6.430472,6.6142 z"
         data-paper-data="{&quot;origPos&quot;:null}"
         fill="#000000"
         stroke="#000000"
         stroke-width="1.08075"
         id="path7117-8-4"
         inkscape:export-filename="C:\Users\Clément\Desktop\Cloud Chaos\Sprites\items\life.png"
         inkscape:export-xdpi="96"
         inkscape:export-ydpi="96" />
      <path
         d="m 86.78518,154.64445 c 0,2.05259 -1.617734,3.71655 -3.613309,3.71655 -1.995576,0 -3.61332,-1.66396 -3.61332,-3.71655 0,-2.0526 1.617734,-3.71656 3.61332,-3.71656 1.995575,0 3.613309,1.66396 3.613309,3.71656 z"
         data-paper-data="{&quot;origPos&quot;:null}"
         fill="#ffffff"
         stroke="#000000"
         stroke-width="0"
         id="path7119-2-2"
         inkscape:export-filename="C:\Users\Clément\Desktop\Cloud Chaos\Sprites\items\life.png"
         inkscape:export-xdpi="96"
         inkscape:export-ydpi="96" />
      <path
         d="m 136.51416,159.15715 c 0,7.20437 -6.66288,13.04467 -14.88195,13.04467 -8.21907,0 -14.88195,-5.8403 -14.88195,-13.04467 0,-7.20437 6.66288,-13.04468 14.88195,-13.04468 8.21907,0 14.88195,5.84031 14.88195,13.04468 z"
         data-paper-data="{&quot;origPos&quot;:null}"
         fill="#ffffff"
         stroke="#000000"
         stroke-width="1.08075"
         id="path7121-8-1"
         inkscape:export-filename="C:\Users\Clément\Desktop\Cloud Chaos\Sprites\items\life.png"
         inkscape:export-xdpi="96"
         inkscape:export-ydpi="96" />
      <path
         d="m 126.96032,158.60596 c 0,3.65292 -2.87903,6.6142 -6.43048,6.6142 -3.55144,0 -6.43047,-2.96128 -6.43047,-6.6142 0,-3.65292 2.87903,-6.6142 6.43047,-6.6142 3.55145,0 6.43048,2.96128 6.43048,6.6142 z"
         data-paper-data="{&quot;origPos&quot;:null}"
         fill="#000000"
         stroke="#000000"
         stroke-width="1.08075"
         id="path7123-5-6"
         inkscape:export-filename="C:\Users\Clément\Desktop\Cloud Chaos\Sprites\items\life.png"
         inkscape:export-xdpi="96"
         inkscape:export-ydpi="96" />
      <path
         d="m 128.43014,156.11427 c 0,2.05259 -1.61774,3.71655 -3.61332,3.71655 -1.99558,0 -3.61332,-1.66396 -3.61332,-3.71655 0,-2.0526 1.61773,-3.71656 3.61332,-3.71656 1.99557,0 3.61332,1.66396 3.61332,3.71656 z"
         data-paper-data="{&quot;origPos&quot;:null}"
         fill="#ffffff"
         stroke="#000000"
         stroke-width="0"
         id="path7125-2-5"
         inkscape:export-filename="C:\Users\Clément\Desktop\Cloud Chaos\Sprites\items\life.png"
         inkscape:export-xdpi="96"
         inkscape:export-ydpi="96" />
      <path
         d="m 110.47976,189.02837 c -0.10732,0.91235 -1.01968,0.80502 -1.01968,0.80502 l 0.0696,0.31255 c -3.08078,1.1846 -6.09127,3.88294 -9.658197,2.84656 -1.109468,-0.32237 -2.707164,-1.55281 -3.348709,-2.41791 -0.152527,-0.20566 -0.506106,-0.39759 -0.717079,-0.59106 -1.946055,1.65417 -4.825999,2.43369 -7.366943,1.5097 -1.976068,-0.71857 -3.352589,-3.40916 -4.575622,-4.93796 0,0 -0.573868,-0.71734 0.14347,-1.29121 0.717338,-0.57387 1.291206,0.14347 1.291206,0.14347 1.16825,1.46031 2.379589,3.8704 4.243312,4.61588 0.289944,0.11598 0.606356,-0.18373 0.918639,-0.18373 2.107023,0 2.996308,-0.0697 4.494803,-1.56821 0.479432,-0.47943 1.396385,-0.23039 2.034061,0 0.697344,0.25194 1.019289,1.47229 1.555158,1.93567 0.344684,0.29806 1.875621,1.12729 2.346851,1.25665 2.38027,0.65343 5.85596,-2.21613 7.97967,-3.03273 l 0.80449,-0.42236 c 0,0 0.91234,0.10731 0.80502,1.01967 z"
         data-paper-data="{&quot;origPos&quot;:null}"
         fill="#000000"
         stroke="none"
         stroke-width="0.540376"
         id="path7127-9-2"
         inkscape:export-filename="C:\Users\Clément\Desktop\Cloud Chaos\Sprites\items\life.png"
         inkscape:export-xdpi="96"
         inkscape:export-ydpi="96" />
    </g>
  </g>
</svg>
