<?xml version="1.0" encoding="UTF-8" standalone="no"?>
<!-- Created with Inkscape (http://www.inkscape.org/) -->

<svg
   width="150"
   height="150"
   viewBox="0 0 39.687499 39.687501"
   version="1.1"
   id="svg5"
   inkscape:version="1.1.1 (3bf5ae0d25, 2021-09-20)"
   sodipodi:docname="zzz - Copie (3).svg"
   inkscape:export-filename="C:\Users\Clément\Desktop\freepic\res\img/icon.png"
   inkscape:export-xdpi="96"
   inkscape:export-ydpi="96"
   xmlns:inkscape="http://www.inkscape.org/namespaces/inkscape"
   xmlns:sodipodi="http://sodipodi.sourceforge.net/DTD/sodipodi-0.dtd"
   xmlns="http://www.w3.org/2000/svg"
   xmlns:svg="http://www.w3.org/2000/svg">
  <sodipodi:namedview
     id="namedview7"
     pagecolor="#ffffff"
     bordercolor="#666666"
     borderopacity="1.0"
     inkscape:pageshadow="2"
     inkscape:pageopacity="0.0"
     inkscape:pagecheckerboard="true"
     inkscape:document-units="mm"
     showgrid="false"
     units="px"
     inkscape:zoom="3.0289002"
     inkscape:cx="71.313013"
     inkscape:cy="81.712828"
     inkscape:window-width="1920"
     inkscape:window-height="1013"
     inkscape:window-x="-9"
     inkscape:window-y="-9"
     inkscape:window-maximized="1"
     inkscape:current-layer="layer1"
     inkscape:snap-object-midpoints="false"
     inkscape:snap-center="false" />
  <defs
     id="defs2">
    <clipPath
       clipPathUnits="userSpaceOnUse"
       id="clipPath168419-0">
      <path
         style="fill:#d4d591;fill-opacity:1;stroke:#000000;stroke-width:0.264583px;stroke-linecap:butt;stroke-linejoin:miter;stroke-opacity:1"
         d="m 1976.6629,1120.9601 c -14.9756,1.5925 -25.8038,9.2969 -36.1081,17.7735 -10.8363,13.4703 -17.8314,26.9407 -24.1344,40.4111 -5.0825,17.6623 -6.7297,33.8216 -6.174,49.0172 2.96,13.8998 7.3576,26.531 16.2768,35.1727 10.0404,8.8438 23.2314,13.9465 38.9144,16.0897 14.6068,1.5407 26.9047,-0.7669 39.4757,-2.6193 16.4002,-3.4206 25.6399,-12.8083 33.676,-23.199 4.188,-8.0615 7.6011,-17.2853 8.9802,-29.56 0.1671,-11.8575 -2.4879,-24.9245 -4.6772,-37.7919 -3.678,-11.8565 -9.5794,-24.1299 -18.896,-37.0436 -6.3738,-10.6207 -16.705,-17.504 -27.502,-23.9473 -6.0539,-1.7474 -10.1493,-4.5965 -19.8314,-4.3031 z"
         id="path168421-4"
         sodipodi:nodetypes="ccccccccccccc" />
    </clipPath>
    <linearGradient
       x1="-989.37677"
       y1="-3204.3379"
       x2="1175.8552"
       y2="2649.3293"
       gradientUnits="userSpaceOnUse"
       id="color-1"
       gradientTransform="matrix(0.17670732,0,0,0.17670732,-22.688903,-12.005473)">
      <stop
         offset="0"
         stop-color="#2a221e"
         id="stop2" />
      <stop
         offset="1"
         stop-color="#2a221e"
         stop-opacity="0"
         id="stop4" />
    </linearGradient>
    <linearGradient
       x1="-3323.7942"
       y1="-330.77435"
       x2="2849.8162"
       y2="585.84308"
       gradientUnits="userSpaceOnUse"
       id="color-2"
       gradientTransform="matrix(0.17670732,0,0,0.17670732,-22.688903,-12.005473)">
      <stop
         offset="0"
         stop-color="#2a221e"
         id="stop7" />
      <stop
         offset="1"
         stop-color="#2a221e"
         stop-opacity="0"
         id="stop9" />
    </linearGradient>
    <inkscape:path-effect
       effect="skeletal"
       id="path-effect1320"
       is_visible="true"
       lpeversion="1"
       pattern="m 337.00674,-65.68631 c 0,-2.75566 2.23648,-4.99214 4.99214,-4.99214 2.75566,0 4.99214,2.23648 4.99214,4.99214 0,2.75566 -2.23648,4.99214 -4.99214,4.99214 -2.75566,0 -4.99214,-2.23648 -4.99214,-4.99214 z"
       copytype="single_stretched"
       prop_scale="0.0799401"
       scale_y_rel="false"
       spacing="0"
       normal_offset="0"
       tang_offset="0"
       prop_units="false"
       vertical_pattern="false"
       hide_knot="false"
       fuse_tolerance="0" />
    <inkscape:path-effect
       effect="skeletal"
       id="path-effect1324"
       is_visible="true"
       lpeversion="1"
       pattern="m 337.00674,-65.68631 c 0,-2.75566 2.23648,-4.99214 4.99214,-4.99214 2.75566,0 4.99214,2.23648 4.99214,4.99214 0,2.75566 -2.23648,4.99214 -4.99214,4.99214 -2.75566,0 -4.99214,-2.23648 -4.99214,-4.99214 z"
       copytype="single_stretched"
       prop_scale="0.0799401"
       scale_y_rel="false"
       spacing="0"
       normal_offset="0"
       tang_offset="0"
       prop_units="false"
       vertical_pattern="false"
       hide_knot="false"
       fuse_tolerance="0" />
    <inkscape:path-effect
       effect="skeletal"
       id="path-effect1328"
       is_visible="true"
       lpeversion="1"
       pattern="m 337.00674,-65.68631 c 0,-2.75566 2.23648,-4.99214 4.99214,-4.99214 2.75566,0 4.99214,2.23648 4.99214,4.99214 0,2.75566 -2.23648,4.99214 -4.99214,4.99214 -2.75566,0 -4.99214,-2.23648 -4.99214,-4.99214 z"
       copytype="single_stretched"
       prop_scale="0.0799401"
       scale_y_rel="false"
       spacing="0"
       normal_offset="0"
       tang_offset="0"
       prop_units="false"
       vertical_pattern="false"
       hide_knot="false"
       fuse_tolerance="0" />
    <inkscape:path-effect
       effect="skeletal"
       id="path-effect1332"
       is_visible="true"
       lpeversion="1"
       pattern="m 337.00674,-65.68631 c 0,-2.75566 2.23648,-4.99214 4.99214,-4.99214 2.75566,0 4.99214,2.23648 4.99214,4.99214 0,2.75566 -2.23648,4.99214 -4.99214,4.99214 -2.75566,0 -4.99214,-2.23648 -4.99214,-4.99214 z"
       copytype="single_stretched"
       prop_scale="0.0799401"
       scale_y_rel="false"
       spacing="0"
       normal_offset="0"
       tang_offset="0"
       prop_units="false"
       vertical_pattern="false"
       hide_knot="false"
       fuse_tolerance="0" />
    <inkscape:path-effect
       effect="skeletal"
       id="path-effect1336"
       is_visible="true"
       lpeversion="1"
       pattern="m 337.00674,-65.68631 c 0,-2.75566 2.23648,-4.99214 4.99214,-4.99214 2.75566,0 4.99214,2.23648 4.99214,4.99214 0,2.75566 -2.23648,4.99214 -4.99214,4.99214 -2.75566,0 -4.99214,-2.23648 -4.99214,-4.99214 z"
       copytype="single_stretched"
       prop_scale="0.0799401"
       scale_y_rel="false"
       spacing="0"
       normal_offset="0"
       tang_offset="0"
       prop_units="false"
       vertical_pattern="false"
       hide_knot="false"
       fuse_tolerance="0" />
    <inkscape:path-effect
       effect="skeletal"
       id="path-effect1340"
       is_visible="true"
       lpeversion="1"
       pattern="m 337.00674,-65.68631 c 0,-2.75566 2.23648,-4.99214 4.99214,-4.99214 2.75566,0 4.99214,2.23648 4.99214,4.99214 0,2.75566 -2.23648,4.99214 -4.99214,4.99214 -2.75566,0 -4.99214,-2.23648 -4.99214,-4.99214 z"
       copytype="single_stretched"
       prop_scale="0.0799401"
       scale_y_rel="false"
       spacing="0"
       normal_offset="0"
       tang_offset="0"
       prop_units="false"
       vertical_pattern="false"
       hide_knot="false"
       fuse_tolerance="0" />
    <inkscape:path-effect
       effect="skeletal"
       id="path-effect1344"
       is_visible="true"
       lpeversion="1"
       pattern="m 337.00674,-65.68631 c 0,-2.75566 2.23648,-4.99214 4.99214,-4.99214 2.75566,0 4.99214,2.23648 4.99214,4.99214 0,2.75566 -2.23648,4.99214 -4.99214,4.99214 -2.75566,0 -4.99214,-2.23648 -4.99214,-4.99214 z"
       copytype="single_stretched"
       prop_scale="0.0799401"
       scale_y_rel="false"
       spacing="0"
       normal_offset="0"
       tang_offset="0"
       prop_units="false"
       vertical_pattern="false"
       hide_knot="false"
       fuse_tolerance="0" />
    <inkscape:path-effect
       effect="skeletal"
       id="path-effect1348"
       is_visible="true"
       lpeversion="1"
       pattern="m 337.00674,-65.68631 c 0,-2.75566 2.23648,-4.99214 4.99214,-4.99214 2.75566,0 4.99214,2.23648 4.99214,4.99214 0,2.75566 -2.23648,4.99214 -4.99214,4.99214 -2.75566,0 -4.99214,-2.23648 -4.99214,-4.99214 z"
       copytype="single_stretched"
       prop_scale="0.0799401"
       scale_y_rel="false"
       spacing="0"
       normal_offset="0"
       tang_offset="0"
       prop_units="false"
       vertical_pattern="false"
       hide_knot="false"
       fuse_tolerance="0" />
    <inkscape:path-effect
       effect="skeletal"
       id="path-effect1352"
       is_visible="true"
       lpeversion="1"
       pattern="m 337.00674,-65.68631 c 0,-2.75566 2.23648,-4.99214 4.99214,-4.99214 2.75566,0 4.99214,2.23648 4.99214,4.99214 0,2.75566 -2.23648,4.99214 -4.99214,4.99214 -2.75566,0 -4.99214,-2.23648 -4.99214,-4.99214 z"
       copytype="single_stretched"
       prop_scale="0.0799401"
       scale_y_rel="false"
       spacing="0"
       normal_offset="0"
       tang_offset="0"
       prop_units="false"
       vertical_pattern="false"
       hide_knot="false"
       fuse_tolerance="0" />
    <inkscape:path-effect
       effect="skeletal"
       id="path-effect1356"
       is_visible="true"
       lpeversion="1"
       pattern="m 337.00674,-65.68631 c 0,-2.75566 2.23648,-4.99214 4.99214,-4.99214 2.75566,0 4.99214,2.23648 4.99214,4.99214 0,2.75566 -2.23648,4.99214 -4.99214,4.99214 -2.75566,0 -4.99214,-2.23648 -4.99214,-4.99214 z"
       copytype="single_stretched"
       prop_scale="0.0799401"
       scale_y_rel="false"
       spacing="0"
       normal_offset="0"
       tang_offset="0"
       prop_units="false"
       vertical_pattern="false"
       hide_knot="false"
       fuse_tolerance="0" />
  </defs>
  <g
     inkscape:label="Calque 1"
     inkscape:groupmode="layer"
     id="layer1">
    <g
       id="g1315"
       transform="matrix(0.1558285,0,0,0.1558285,-80.585431,-33.858756)">
      <path
         style="fill:#000000;fill-opacity:1;stroke:#000000;stroke-width:0.264583px;stroke-linecap:butt;stroke-linejoin:miter;stroke-opacity:1"
         d="m 572.77465,227.79432 c 0.23337,-0.9677 0.17676,-1.9354 0,-2.90309 -0.42361,-0.9677 -0.78715,-1.9354 -1.60597,-2.90309 -2.53672,-0.13806 -5.06725,-0.30499 -7.84451,0.67944 l -5.92596,4.13441 c -0.71685,0.77162 -3.20338,1.54324 -6.46412,2.31486 -1.9675,0.90406 -3.73688,2.13834 -5.45956,3.45044 -1.48024,1.50925 -2.25784,3.08238 -2.83897,4.67338 0.81673,2.11948 1.58226,4.24919 2.7953,6.28941 0.6204,1.35992 0.47361,2.20839 0.65514,3.27574 0.78618,0.57419 1.57235,0.43987 2.35853,0.56779 1.97273,-6.17811 6.44921,-9.85248 9.99998,-14.45256 4.72217,-2.36344 9.4916,-4.1598 14.33014,-5.12673 z"
         id="path1189"
         sodipodi:nodetypes="ccccccccccccc"
         inkscape:export-filename="C:\Users\Clément\Desktop/lounaDessin.png"
         inkscape:export-xdpi="96"
         inkscape:export-ydpi="96" />
      <path
         style="fill:#000000;fill-opacity:1;stroke:#000000;stroke-width:0.264583px;stroke-linecap:butt;stroke-linejoin:miter;stroke-opacity:1"
         d="m 548.03662,256.02223 c -0.22319,-2.68061 -0.3817,-5.41942 -0.0309,-8.61662 1.45661,-2.63574 2.41597,-5.19498 4.85012,-7.98112 1.72541,-2.07305 3.33952,-4.00698 5.3722,-6.46412 4.21694,-1.81269 7.78347,-3.73029 14.41324,-5.15382 3.61794,-0.45051 7.0117,-0.22845 10.38681,0.0495 2.28232,0.79022 4.10352,2.13379 5.99148,3.39723 l 1.97658,4.8179 c 1.50903,4.23334 3.29609,8.46669 3.70174,12.70004 l 0.61147,4.71706 c 0.64467,2.51984 2.35686,1.53209 3.75618,1.57235 l 4.22242,-4.31959 1.23534,1.60597 2.00747,-0.18531 0.74121,-0.92651 c -2.09737,7.81208 -2.45133,14.87699 -2.11357,21.64544 -4.8724,5.00699 -9.49646,10.23126 -16.1603,13.67074 -8.30581,2.9862 -16.61161,3.55599 -24.91742,5.28485 l 0.69882,-4.54235 z"
         id="path1191"
         sodipodi:nodetypes="cccccccccccccccccccc"
         inkscape:export-filename="C:\Users\Clément\Desktop/lounaDessin.png"
         inkscape:export-xdpi="96"
         inkscape:export-ydpi="96" />
      <path
         style="fill:#000000;fill-opacity:1;stroke:#000000;stroke-width:0.264583px;stroke-linecap:butt;stroke-linejoin:miter;stroke-opacity:1"
         d="m 690.13357,390.86146 5.12672,2.65602 c 5.57551,4.33084 11.7472,6.67446 17.78916,9.45048 5.46362,1.81 11.18741,3.41188 17.23324,4.75612 5.64146,1.12191 11.28293,1.70424 16.92439,0.74122 l 6.73269,-1.23536 8.52398,-1.42066 c -0.38635,1.44065 -0.48784,2.96676 -1.9766,4.07668 -1.71905,2.28142 -4.69442,3.55778 -7.53568,4.94143 -3.21355,1.68345 -6.8272,2.16658 -10.50052,2.47071 -6.21796,-0.48201 -12.43593,-1.54526 -18.65389,-2.59425 -7.35293,-1.95343 -14.35344,-4.25928 -21.12462,-6.79446 -4.27515,-1.89216 -8.43488,-4.07289 -12.47709,-6.5474 z"
         id="path1193"
         sodipodi:nodetypes="cccccccccccccc"
         inkscape:export-filename="C:\Users\Clément\Desktop/lounaDessin.png"
         inkscape:export-xdpi="96"
         inkscape:export-ydpi="96" />
      <path
         style="fill:#000000;fill-opacity:1;stroke:#000000;stroke-width:0.264583px;stroke-linecap:butt;stroke-linejoin:miter;stroke-opacity:1"
         d="m 563.94184,292.03289 c 7.28132,-1.34519 15.58851,-3.16078 25.07775,-5.43557 6.09447,-3.4507 11.24197,-8.41656 16.18318,-13.71247 -0.99879,-7.01063 0.61004,-14.25832 2.1001,-21.49521 0.52893,-2.18994 2.47974,-4.17188 4.32377,-4.50906 l -2.7178,14.76252 3.33547,19.64218 c -0.43271,5.00331 0.18928,9.65505 1.85304,13.95954 2.28814,8.83445 7.94288,12.77203 12.60065,18.15975 2.33327,3.04721 3.8292,6.09443 5.00319,9.14164 7.59705,4.4958 11.6289,9.62075 16.61554,14.57721 l 18.18529,17.60695 17.55796,17.29588 -10.395,46.55912 c -5.69776,0.53774 -11.13134,0.63516 -16.33501,0.34941 l -49.26705,-18.60617 c -4.83029,-1.777 -9.80159,-3.20148 -14.19486,-6.07103 l -9.48878,13.32753 -4.19249,-15.8589 c -1.12451,-3.51507 -3.0352,-7.18738 -4.69436,-10.80938 -1.27788,-4.0355 -3.09743,-8.071 -5.1885,-12.1065 l -3.76784,-3.27369 c -1.6744,-1.92499 -3.09237,-4.02094 -3.89671,-6.52597 l -0.78617,-4.14927 c -0.17716,-3.55494 0.17098,-6.94572 1.31029,-10.08926 l 1.17927,-10.74441 1.51388,-8.88727 -2.51844,-1.42038 1.31029,-2.27118 -1.92176,-0.52411 2.44588,-2.70795 -1.04823,-0.87353 0.87353,-1.485 -0.34942,-1.485 0.87353,-1.57235 -0.52411,-1.13558 0.0873,-3.31942 -0.43677,-1.74706 1.65971,-0.96088 -1.22294,-4.19294 c -1.16472,-3.06616 -1.24419,-6.23098 -1.14338,-9.41219 z"
         id="path1195"
         sodipodi:nodetypes="ccccccccccccccccccccccccccccccccccccccccc"
         inkscape:export-filename="C:\Users\Clément\Desktop/lounaDessin.png"
         inkscape:export-xdpi="96"
         inkscape:export-ydpi="96" />
      <path
         style="fill:#000000;fill-opacity:1;stroke:#000000;stroke-width:0.264583px;stroke-linecap:butt;stroke-linejoin:miter;stroke-opacity:1"
         d="m 683.53587,441.07875 c 2.04947,-2.33943 4.27738,-4.4335 7.25027,-5.50323 1.37024,-0.78605 2.49925,-1.88227 3.05736,-3.7125 -0.26315,-1.71011 -1.09791,-3.13443 -2.05279,-4.49868 l -4.14928,-5.15382 c -1.18069,-3.12177 -1.4364,-6.16647 -1.22293,-9.17206 l 4.70337,-10.19404 c 0.67488,-2.58762 1.44064,-5.18432 0.98827,-7.65921 l -1.29712,-9.88286 c -0.99054,-3.68405 -2.06263,-7.36301 -4.87966,-10.93291 -0.77381,-0.78125 -1.01443,-1.91796 -2.40895,-2.28541 -3.58032,0.77907 -6.72446,0.90386 -10.74761,2.34718 -2.56035,0.2173 -4.67866,0.81349 -6.42385,1.7295 -1.34003,1.04074 -2.63124,2.09542 -2.84133,3.459 l -2.10011,6.918 8.97771,17.63443 12.84089,26.64264 z"
         id="path1197"
         sodipodi:nodetypes="cccccccccccccccccc"
         inkscape:export-filename="C:\Users\Clément\Desktop/lounaDessin.png"
         inkscape:export-xdpi="96"
         inkscape:export-ydpi="96" />
      <path
         style="fill:#000000;fill-opacity:1;stroke:#000000;stroke-width:0.264583px;stroke-linecap:butt;stroke-linejoin:miter;stroke-opacity:1"
         d="m 638.89849,429.37346 -0.34941,6.11471 1.79075,-2.18383 c 1.60367,-0.97132 2.32483,-1.64847 3.27573,-2.4022 3.2918,-0.0819 5.14228,-0.50286 6.46411,-1.04824 l 2.44589,-2.09647 c 4.18428,-1.12103 6.6476,-2.24206 9.12839,-3.36309 0.26325,-0.52053 0.57047,-0.90913 0.61145,-2.09647 -0.80344,-2.16926 -2.57962,-4.33853 -4.41131,-6.50779 -1.41391,-1.84537 -2.59141,-3.78531 -4.54234,-5.41588 -1.56668,-1.50631 -2.93038,-3.08027 -5.15385,-4.36765 l -2.79527,-0.43676 c 1.89958,6.54263 6.07659,11.37718 9.21573,16.99014 -5.63799,0.69428 -11.39361,0.93764 -15.67987,6.81353 z"
         id="path1199"
         sodipodi:nodetypes="cccccccccccccc"
         inkscape:export-filename="C:\Users\Clément\Desktop/lounaDessin.png"
         inkscape:export-xdpi="96"
         inkscape:export-ydpi="96" />
      <path
         style="fill:#000000;fill-opacity:1;stroke:#000000;stroke-width:0.264583px;stroke-linecap:butt;stroke-linejoin:miter;stroke-opacity:1"
         d="m 582.59574,420.26296 c -1.93948,1.19413 -3.55677,1.85127 -5.0032,2.22364 -1.48243,0.86015 -2.96485,1.85982 -4.44728,3.21193 -0.39627,2.56326 0.11762,3.82628 0.86474,4.75612 2.18626,-0.73255 5.07108,-2.3965 4.44729,0.61768 l 0.12354,2.77956 c 2.74294,1.97424 4.7394,0.96257 7.04153,1.17359 l 1.97657,-4.69436 c 1.85114,0.59574 3.19969,-0.98645 4.57083,-2.47072 1.5959,-1.99524 2.27439,-3.44003 2.22364,-4.44728 l -0.30884,-3.95314 c 0.34726,-1.49113 0.84724,-2.88045 0.24707,-5.0032 0.3725,-0.81382 0.41203,-1.89402 1.5442,-2.10011 0.72892,-0.16457 1.38914,-0.50086 1.79126,-1.48243 l -2.40894,-15.68903 c -5.06004,-3.41155 -9.33467,-7.13727 -13.58893,-10.87114 -0.38016,2.12989 -0.98943,4.06886 -0.43238,6.97976 l 3.33547,17.17147 v 8.95634 c -0.19605,1.75703 -1.15307,2.18233 -1.97657,2.84132 z"
         id="path1201"
         sodipodi:nodetypes="cccccccccccccccccccc"
         inkscape:export-filename="C:\Users\Clément\Desktop/lounaDessin.png"
         inkscape:export-xdpi="96"
         inkscape:export-ydpi="96" />
      <path
         style="fill:#000000;fill-opacity:1;stroke:#000000;stroke-width:0.264583px;stroke-linecap:butt;stroke-linejoin:miter;stroke-opacity:1"
         d="m 575.3689,426.25444 c -0.23248,0.61843 -0.3158,1.21821 -1.17359,1.9148 l -5.06497,1.17359 c -0.61595,-0.15238 -1.39369,-0.25421 -0.74121,-0.80298 1.87313,-0.92518 3.94299,-1.83724 4.63259,-2.84132 1.26215,0.0981 1.99028,0.29324 2.34718,0.55591 z"
         id="path1203"
         sodipodi:nodetypes="cccccc"
         inkscape:export-filename="C:\Users\Clément\Desktop/lounaDessin.png"
         inkscape:export-xdpi="96"
         inkscape:export-ydpi="96" />
      <path
         style="fill:#000000;fill-opacity:1;stroke:#000000;stroke-width:0.264583px;stroke-linecap:butt;stroke-linejoin:miter;stroke-opacity:1"
         d="m 576.5285,429.1114 c -0.45398,0.97669 -0.93347,1.82585 -1.31029,3.18838 l 0.24334,1.1815 c 1.57425,-0.42501 2.12948,-1.64259 3.02662,-2.59425 l -0.33972,-1.5442 c -0.44324,-0.0469 -0.007,0.18112 -1.61995,-0.23143 z"
         id="path1205"
         sodipodi:nodetypes="cccccc"
         inkscape:export-filename="C:\Users\Clément\Desktop/lounaDessin.png"
         inkscape:export-xdpi="96"
         inkscape:export-ydpi="96" />
      <path
         style="fill:#000000;fill-opacity:1;stroke:#000000;stroke-width:0.264583px;stroke-linecap:butt;stroke-linejoin:miter;stroke-opacity:1"
         d="m 590.53291,423.0734 c -0.0317,1.20434 -0.32245,2.3655 0.0926,3.6443 0.1827,0.35132 0.27229,0.7492 0.92652,0.86475 0.52031,-0.41179 0.5821,-0.82357 0.61768,-1.23536 -0.44112,-0.81774 -0.19399,-2.09432 -0.18531,-3.21193 z"
         id="path1207"
         sodipodi:nodetypes="cccccc"
         inkscape:export-filename="C:\Users\Clément\Desktop/lounaDessin.png"
         inkscape:export-xdpi="96"
         inkscape:export-ydpi="96" />
      <path
         style="fill:#000000;fill-opacity:1;stroke:#000000;stroke-width:0.264583px;stroke-linecap:butt;stroke-linejoin:miter;stroke-opacity:1"
         d="m 595.6588,412.16493 c 0.4621,0.54362 0.98889,0.50496 1.50683,0.54596 0.49966,-0.59691 0.34211,-1.19383 0.48044,-1.79074 -0.66242,0.33222 -1.32485,0.48191 -1.98727,1.24478 z"
         id="path1209"
         sodipodi:nodetypes="cccc"
         inkscape:export-filename="C:\Users\Clément\Desktop/lounaDessin.png"
         inkscape:export-xdpi="96"
         inkscape:export-ydpi="96" />
      <path
         style="fill:#000000;fill-opacity:1;stroke:#000000;stroke-width:0.264583px;stroke-linecap:butt;stroke-linejoin:miter;stroke-opacity:1"
         d="m 608.41232,403.82273 -2.97,16.85911 c -0.73202,1.68814 -1.37598,3.39097 -1.13559,5.24118 0.65043,1.13559 1.03189,2.27117 0.69882,3.40676 l -2.09645,8.82265 c -0.66455,3.27776 -1.22406,6.69557 -2.35854,9.34677 -1.62936,1.07797 -3.15982,2.20539 -3.49412,3.93088 -0.77171,1.89265 -1.75362,3.78529 -1.74706,5.67794 0.34785,2.66223 0.79796,4.50632 1.3103,5.85265 2.47177,2.25714 6.32584,2.21046 9.69617,2.97 4.68518,0.51194 6.57383,-0.77388 9.0847,-1.65971 l 1.485,-10.30765 c 0.76044,-2.68008 0.73844,-6.03083 0.34941,-9.69617 v -5.7653 c 0.14974,-1.37274 0.77647,-1.55298 1.22296,-2.18382 l -0.0874,-8.56059 c 1.71061,-2.30029 1.21047,-4.60059 1.74707,-6.90088 -4.00139,3.07124 -8.80325,5.28485 -10.65707,10.65706 -1.76235,-3.19289 -3.14004,-6.74297 -2.62056,-12.05471 z"
         id="path1211"
         sodipodi:nodetypes="cccccccccccccccccccc"
         inkscape:export-filename="C:\Users\Clément\Desktop/lounaDessin.png"
         inkscape:export-xdpi="96"
         inkscape:export-ydpi="96" />
      <path
         style="fill:#000000;fill-opacity:1;stroke:#000000;stroke-width:0.264583px;stroke-linecap:butt;stroke-linejoin:miter;stroke-opacity:1"
         d="m 596.74058,455.59417 c -1.17448,2.58023 -2.09382,5.2455 -2.28541,8.15336 -0.14438,0.762 0.44562,0.9365 1.11182,1.05005 l 3.33546,-9.20341 c -0.72062,0.18391 -1.44125,0.5923 -2.16187,0 z"
         id="path1213"
         sodipodi:nodetypes="ccccc"
         inkscape:export-filename="C:\Users\Clément\Desktop/lounaDessin.png"
         inkscape:export-xdpi="96"
         inkscape:export-ydpi="96" />
      <path
         style="fill:#000000;fill-opacity:1;stroke:#000000;stroke-width:0.264583px;stroke-linecap:butt;stroke-linejoin:miter;stroke-opacity:1"
         d="m 598.19212,461.64742 c -0.77977,1.8492 -1.74715,3.60459 -2.06922,5.68264 0.36574,0.47731 0.85815,0.32126 1.29712,0.43238 0.29593,-1.96628 1.18298,-3.93255 2.03834,-5.89883 -0.39722,-0.082 -0.50401,-0.28019 -1.26624,-0.21619 z"
         id="path1215"
         sodipodi:nodetypes="ccccc"
         inkscape:export-filename="C:\Users\Clément\Desktop/lounaDessin.png"
         inkscape:export-xdpi="96"
         inkscape:export-ydpi="96" />
      <path
         style="fill:#000000;fill-opacity:1;stroke:#000000;stroke-width:0.264583px;stroke-linecap:butt;stroke-linejoin:miter;stroke-opacity:1"
         d="m 599.67455,463.34604 c -0.4012,1.40023 -0.90509,2.74341 -2.03834,3.73695 0.048,1.15238 1.016,1.10874 1.85304,1.23536 0.63157,-0.7342 1.2193,-1.37447 2.40895,-3.30458 -0.45297,-0.84416 -1.19418,-1.40007 -2.22365,-1.66773 z"
         id="path1217"
         sodipodi:nodetypes="ccccc"
         inkscape:export-filename="C:\Users\Clément\Desktop/lounaDessin.png"
         inkscape:export-xdpi="96"
         inkscape:export-ydpi="96" />
      <path
         style="fill:#000000;fill-opacity:1;stroke:#000000;stroke-width:0.264583px;stroke-linecap:butt;stroke-linejoin:miter;stroke-opacity:1"
         d="m 608.26027,462.75924 c -0.64465,1.60597 -0.68517,3.21193 -0.86474,4.8179 0.0645,0.97143 0.17189,1.95509 0.80298,3.08839 0.80838,-0.19718 1.19881,-0.62655 1.26625,-1.23536 0.25606,-1.75506 0.42623,-3.54693 1.23536,-5.06496 0.0359,-0.37841 0.21274,-0.68632 -0.21619,-1.29713 z"
         id="path1219"
         sodipodi:nodetypes="ccccccc"
         inkscape:export-filename="C:\Users\Clément\Desktop/lounaDessin.png"
         inkscape:export-xdpi="96"
         inkscape:export-ydpi="96" />
      <path
         style="fill:#000000;fill-opacity:1;stroke:#000000;stroke-width:0.264583px;stroke-linecap:butt;stroke-linejoin:miter;stroke-opacity:1"
         d="m 626.05763,399.10567 -0.96089,6.90088 c 2.65952,2.47168 5.55341,4.74804 8.91,6.63882 l 7.51234,3.66883 c 0.47638,1.26518 0.29565,1.70897 0.34941,2.44588 -2.1414,2.61271 -5.92199,3.71232 -9.52145,4.97912 -2.10894,0.99 -3.0895,1.98 -4.45501,2.97 -2.72227,1.27357 -5.74281,2.11329 -7.25029,5.15382 0.0251,3.01548 1.04529,4.37256 2.09648,5.67794 2.53323,1.00649 5.06647,0.77333 7.5997,0.78618 2.69818,-0.57217 5.39904,-1.17112 8.21116,-2.88265 0.21039,-2.06735 0.74961,-4.13471 0.43677,-6.20206 l 3.40678,-1.74706 c 3.23418,1.28658 4.7594,-1.7769 6.81352,-3.49411 2.54202,0.63597 3.82038,0.261 5.24119,0 1.37082,-0.64609 2.72006,-1.33174 3.40675,-3.23206 -0.23364,-1.8053 -1.08487,-3.61059 -3.40675,-5.41589 l -5.7653,-4.19294 c -0.56794,-1.65535 -1.01611,-3.29873 -2.70796,-5.06647 l -14.50057,-8.12382 c -2.11515,-0.12499 -4.21193,-0.22013 -5.41588,1.13559 z"
         id="path1221"
         sodipodi:nodetypes="ccccccccccccccccccccc"
         inkscape:export-filename="C:\Users\Clément\Desktop/lounaDessin.png"
         inkscape:export-xdpi="96"
         inkscape:export-ydpi="96" />
      <path
         style="fill:#000000;fill-opacity:1;stroke:#000000;stroke-width:0.264583px;stroke-linecap:butt;stroke-linejoin:miter;stroke-opacity:1"
         d="m 625.03025,435.02548 c 0.10976,1.16891 0.75089,1.87288 1.51331,2.47071 1.49261,0.4554 2.65789,0.50164 3.8296,0.55591 1.32508,-0.53994 1.76549,-1.5854 1.9457,-2.77955 l -1.85304,-1.01917 c -1.64706,-0.15409 -3.27171,-0.21855 -4.75612,0.27795 z"
         id="path1223"
         sodipodi:nodetypes="ccccccc"
         inkscape:export-filename="C:\Users\Clément\Desktop/lounaDessin.png"
         inkscape:export-xdpi="96"
         inkscape:export-ydpi="96" />
      <path
         style="fill:#000000;fill-opacity:1;stroke:#000000;stroke-width:0.264583px;stroke-linecap:butt;stroke-linejoin:miter;stroke-opacity:1"
         d="m 630.65114,432.70918 c 0.57047,0.90288 1.16078,1.79159 2.13098,2.40895 0.60739,0.37724 1.21477,0.36082 1.82216,0.33972 l 1.66772,-1.20447 c 0.22775,-0.66807 0.61271,-1.20138 0.46326,-2.19276 -0.80847,-0.5799 -1.70072,-0.74094 -2.62512,-0.74121 -0.89462,0.0747 -1.72698,-0.006 -2.84133,0.61767 z"
         id="path1225"
         sodipodi:nodetypes="cccccccc"
         inkscape:export-filename="C:\Users\Clément\Desktop/lounaDessin.png"
         inkscape:export-xdpi="96"
         inkscape:export-ydpi="96" />
      <path
         style="fill:#000000;fill-opacity:1;stroke:#000000;stroke-width:0.264583px;stroke-linecap:butt;stroke-linejoin:miter;stroke-opacity:1"
         d="m 639.00768,429.48265 0.72067,0.91721 c -0.002,0.91092 -0.28495,1.63473 -0.6333,2.31485 0.20551,0.85169 0.36687,1.70339 0,2.55508 -0.82159,0.75377 -2.20962,1.30523 -3.84352,1.76889 -0.56005,-0.20808 -0.39913,-0.73658 -0.48046,-1.15742 0.68101,-0.88235 1.72751,-1.24256 2.03097,-2.66427 l 0.76432,-0.69882 -0.0437,-2.53324 c 0.46627,-0.48357 0.96052,-0.65927 1.48502,-0.50228 z"
         id="path1227"
         sodipodi:nodetypes="cccccccccc"
         inkscape:export-filename="C:\Users\Clément\Desktop/lounaDessin.png"
         inkscape:export-xdpi="96"
         inkscape:export-ydpi="96" />
      <path
         style="fill:#000000;fill-opacity:1;stroke:#000000;stroke-width:0.264583px;stroke-linecap:butt;stroke-linejoin:miter;stroke-opacity:1"
         d="m 628.98394,429.35162 c -1.15164,1.24767 -1.59235,2.85082 -1.46317,4.7389 0.1277,0.54687 0.44112,0.68106 1.09191,0.0655 1.30888,-0.75471 2.19701,-1.67773 2.92634,-2.66426 -0.47213,-0.9601 -0.94597,-1.91908 -2.55508,-2.14014 z"
         id="path1229"
         sodipodi:nodetypes="ccccc"
         inkscape:export-filename="C:\Users\Clément\Desktop/lounaDessin.png"
         inkscape:export-xdpi="96"
         inkscape:export-ydpi="96" />
      <path
         style="fill:#000000;fill-opacity:1;stroke:#000000;stroke-width:0.264583px;stroke-linecap:butt;stroke-linejoin:miter;stroke-opacity:1"
         d="m 620.64174,431.95037 c -0.76582,0.71375 -1.50021,1.46179 -1.63788,2.86081 -0.21352,0.56328 0.20046,0.67835 0.34941,0.98272 0.37008,0.4358 0.62614,0.0735 0.93906,0.10919 0.14371,-0.9691 0.19811,-1.98286 0.78618,-2.72978 l 0.50226,-1.15742 z"
         id="path1231"
         sodipodi:nodetypes="ccccccc"
         inkscape:export-filename="C:\Users\Clément\Desktop/lounaDessin.png"
         inkscape:export-xdpi="96"
         inkscape:export-ydpi="96" />
      <path
         style="fill:#000000;fill-opacity:1;stroke:#000000;stroke-width:0.264583px;stroke-linecap:butt;stroke-linejoin:miter;stroke-opacity:1"
         d="m 623.02211,432.34346 c -0.65767,0.10611 -1.25503,0.63442 -1.85626,1.13559 -0.17945,0.73965 -0.47442,1.49855 -0.32758,2.18382 0.008,0.70609 0.50351,0.27618 0.82986,0.24022 l 1.04823,-1.17926 c 1.3956,-0.009 1.30072,-0.63169 1.81258,-1.00456 -0.30462,-0.70019 -0.6844,-1.3085 -1.50683,-1.37581 z"
         id="path1233"
         sodipodi:nodetypes="ccccccc"
         inkscape:export-filename="C:\Users\Clément\Desktop/lounaDessin.png"
         inkscape:export-xdpi="96"
         inkscape:export-ydpi="96" />
      <path
         style="fill:#000000;fill-opacity:1;stroke:#000000;stroke-width:0.264583px;stroke-linecap:butt;stroke-linejoin:miter;stroke-opacity:1"
         d="m 674.80057,434.96405 -4.14928,4.6297 -5.76529,4.19295 -0.96089,3.23206 -0.82984,2.88264 c 1.28985,2.12592 2.79017,3.19949 4.32398,4.10559 l 3.10102,1.00456 c 3.3434,-0.32677 6.3167,-0.97077 9.08471,-1.79074 0.25446,-1.70135 0.61497,-3.10577 0.48043,-5.89632 1.52199,-2.72299 3.19103,-5.11509 4.41132,-8.51691 -0.72725,-1.30445 -1.15954,-2.77745 -1.3103,-4.41132 0.85003,-1.70958 1.78587,-3.26661 1.92178,-6.24574 -0.60551,-1.81642 -0.94092,-3.74087 -1.1356,-5.72162 -2.34891,-3.5345 -5.64733,-6.43599 -8.47322,-9.6525 -2.9312,-3.85391 -5.01055,-8.80304 -7.42501,-13.32132 -0.47267,-4.59121 -0.48882,-8.47689 -1.78321,-14.33803 -1.95915,-0.76928 -3.42805,0.0723 -4.81788,1.17359 l 0.86474,8.52396 2.16189,7.72098 c 1.35135,3.32613 2.99473,6.53545 4.75612,9.69756 2.32658,3.0884 4.21741,6.5254 6.97976,9.26518 1.11397,3.22385 0.73444,6.34101 0.24707,9.45048 z"
         id="path1235"
         sodipodi:nodetypes="ccccccccccccccccccccccc"
         inkscape:export-filename="C:\Users\Clément\Desktop/lounaDessin.png"
         inkscape:export-xdpi="96"
         inkscape:export-ydpi="96" />
      <path
         style="fill:#000000;fill-opacity:1;stroke:#000000;stroke-width:0.264583px;stroke-linecap:butt;stroke-linejoin:miter;stroke-opacity:1"
         d="m 665.33378,446.63783 -2.65602,3.82961 c -0.36002,1.31762 -0.3503,2.51199 0.0309,3.58254 l 0.74123,-0.0309 c -0.0224,-1.09034 0.43469,-2.42039 1.23537,-3.92226 l 1.94567,-3.02662 z"
         id="path1237"
         sodipodi:nodetypes="ccccccc"
         inkscape:export-filename="C:\Users\Clément\Desktop/lounaDessin.png"
         inkscape:export-xdpi="96"
         inkscape:export-ydpi="96" />
      <path
         style="fill:#000000;fill-opacity:1;stroke:#000000;stroke-width:0.264583px;stroke-linecap:butt;stroke-linejoin:miter;stroke-opacity:1"
         d="m 665.39556,449.13943 c -0.84119,1.51832 -1.8023,3.00067 -1.85304,4.75613 0.63377,0.33903 1.29165,0.46102 2.00745,0.0618 0.38769,-0.97799 0.65749,-1.95598 1.51331,-2.93397 -0.78588,-0.43087 -1.45362,-0.96299 -1.66772,-1.88396 z"
         id="path1239"
         sodipodi:nodetypes="ccccc"
         inkscape:export-filename="C:\Users\Clément\Desktop/lounaDessin.png"
         inkscape:export-xdpi="96"
         inkscape:export-ydpi="96" />
      <path
         style="fill:#000000;fill-opacity:1;stroke:#000000;stroke-width:0.264583px;stroke-linecap:butt;stroke-linejoin:miter;stroke-opacity:1"
         d="m 673.45625,447.81142 c -0.23224,1.43343 -0.39932,2.60618 -0.86474,4.97232 0.0424,0.47614 0.20755,0.8705 0.7412,1.01917 0.85232,-0.34778 0.84062,-1.17557 0.9883,-1.91481 l 0.77208,-2.31629 c 0.1626,-0.77991 -0.17615,-1.45955 -0.40148,-2.16188 -0.45176,-0.14596 -0.86595,-0.029 -1.23536,0.40149 z"
         id="path1241"
         sodipodi:nodetypes="ccccccc"
         inkscape:export-filename="C:\Users\Clément\Desktop/lounaDessin.png"
         inkscape:export-xdpi="96"
         inkscape:export-ydpi="96" />
      <path
         style="fill:#000000;fill-opacity:1;stroke:#000000;stroke-width:0.264583px;stroke-linecap:butt;stroke-linejoin:miter;stroke-opacity:1"
         d="m 573.23791,237.18303 1.48243,-0.74121 0.30883,0.61768 1.51332,0.3706 0.24707,0.52503 1.01917,0.61768 -0.37061,1.35889 0.52503,0.89564 -0.5868,0.80298 0.0927,1.20447 -2.00746,-0.12354 -1.60596,0.80299 -0.43238,-0.64857 -0.7721,0.0926 -0.33972,-0.77209 -0.86475,-0.89564 0.71033,-1.45154 -0.33972,-0.46326 1.54419,-1.48243 z"
         id="path1243"
         inkscape:export-filename="C:\Users\Clément\Desktop/lounaDessin.png"
         inkscape:export-xdpi="96"
         inkscape:export-ydpi="96" />
      <path
         style="fill:#000000;fill-opacity:1;stroke:#000000;stroke-width:0.264583px;stroke-linecap:butt;stroke-linejoin:miter;stroke-opacity:1"
         d="m 556.03556,241.4759 1.23535,-0.37061 0.12354,-0.71033 0.89563,-0.61768 0.18531,-0.74121 0.27795,-0.18531 0.27796,-0.74121 0.27795,-0.0618 -0.0309,-1.48243 -1.17359,-0.0927 -0.83387,0.52503 -1.1427,-0.0618 -0.46326,0.71033 -0.89563,0.43237 0.40149,1.20447 -0.43238,0.46326 0.80299,0.49415 -0.0927,0.83386 z"
         id="path1245"
         inkscape:export-filename="C:\Users\Clément\Desktop/lounaDessin.png"
         inkscape:export-xdpi="96"
         inkscape:export-ydpi="96" />
      <path
         style="fill:#000000;fill-opacity:1;stroke:#000000;stroke-width:0.264583px;stroke-linecap:butt;stroke-linejoin:miter;stroke-opacity:1"
         d="m 577.56166,250.15428 c 4.65609,2.98731 7.79964,1.80001 10.40788,-0.86475 -3.00019,-2.84184 -6.15336,-5.91633 -10.40788,0.86475 z"
         id="path1247"
         sodipodi:nodetypes="ccc"
         inkscape:export-filename="C:\Users\Clément\Desktop/lounaDessin.png"
         inkscape:export-xdpi="96"
         inkscape:export-ydpi="96" />
      <path
         style="fill:#000000;fill-opacity:1;stroke:#000000;stroke-width:0.264583px;stroke-linecap:butt;stroke-linejoin:miter;stroke-opacity:1"
         d="m 552.35358,251.45736 c 0.16145,-0.0788 1.0174,-0.86068 0.82985,-1.04824 0.27978,-0.96398 0.26535,-2.04565 0.26206,-3.12286 -0.31766,-0.32677 -0.62239,-0.66388 -1.22294,-0.76434 l -1.50684,0.43676 -0.54596,1.2011 -0.37125,1.72523 v 1.11375 c 0.16683,0.42659 0.59252,0.52961 0.98272,0.67698 z"
         id="path1249"
         sodipodi:nodetypes="cccccccccc"
         inkscape:export-filename="C:\Users\Clément\Desktop/lounaDessin.png"
         inkscape:export-xdpi="96"
         inkscape:export-ydpi="96" />
      <path
         style="fill:#000000;fill-opacity:1;stroke:#000000;stroke-width:0.264583px;stroke-linecap:butt;stroke-linejoin:miter;stroke-opacity:1"
         d="m 595.30938,260.60758 -0.96088,1.22294 -0.13103,2.66427 -0.78617,1.04823 v 2.09647 l -0.48044,2.0528 0.52411,1.26661 -0.56779,1.57236 -0.91721,1.52867 -1.04823,1.57236 2.2275,-0.17471 1.35397,-0.9172 0.9172,0.13102 1.26662,-1.92176 0.52412,-0.30574 0.34941,-2.05279 1.09191,-0.43677 0.26206,-2.48956 c 0,0 1.39765,-0.82985 1.13559,-1.04823 -0.26206,-0.21838 -0.91721,-1.61603 -0.91721,-1.61603 l 0.0437,-1.04823 -1.26662,-1.17927 v -0.43676 l -1.485,-1.17927 z"
         id="path1251"
         inkscape:export-filename="C:\Users\Clément\Desktop/lounaDessin.png"
         inkscape:export-xdpi="96"
         inkscape:export-ydpi="96" />
      <path
         style="fill:#000000;fill-opacity:1;stroke:#000000;stroke-width:0.264583px;stroke-linecap:butt;stroke-linejoin:miter;stroke-opacity:1"
         d="m 574.87476,309.76026 -0.55592,2.22365 -1.11182,2.16187 1.48243,1.42066 -1.97657,1.85304 -0.74122,2.77955 -1.66773,1.48243 4.38552,0.37061 0.55591,2.03834 c 0,0 -0.61768,2.34717 -0.0618,2.77955 0.55591,0.43237 2.53248,1.17359 2.53248,1.17359 l 0.55591,4.69436 c 0,0 -0.92652,1.17359 0.55591,1.17359 1.48243,0 1.05005,2.47071 1.05005,2.47071 h 1.9148 l 0.49415,-1.42066 h 1.29712 l -1.05005,-2.22364 2.16187,-1.05006 -2.03833,-1.17359 1.05005,-1.85303 -1.23536,-0.74122 0.61768,-3.52076 -2.59425,-1.97658 0.86475,-3.02662 -1.35889,-2.84132 -0.43238,-2.96486 -2.65602,-1.60596 -0.12353,-2.03834 z"
         id="path1253"
         inkscape:export-filename="C:\Users\Clément\Desktop/lounaDessin.png"
         inkscape:export-xdpi="96"
         inkscape:export-ydpi="96" />
      <path
         style="fill:#000000;fill-opacity:1;stroke:#000000;stroke-width:0.264583px;stroke-linecap:butt;stroke-linejoin:miter;stroke-opacity:1"
         d="m 574.62768,368.37796 -0.92651,-2.10011 -1.48243,-3.02662 -1.3589,-3.15016 -0.43237,-2.22365 2.40895,2.16188 2.34718,-0.55591 -0.55592,-3.459 3.0884,-0.30884 1.97657,-1.97657 2.40894,-1.23536 0.92652,1.29712 1.42066,0.67945 -1.66773,3.02663 1.48243,0.92651 -0.18531,1.79127 3.82961,-1.17359 0.24707,0.80299 3.21193,-1.11183 2.16188,1.48243 -1.97658,2.03834 -0.74121,1.60597 -4.26198,0.43237 -4.81789,0.98829 -2.10011,0.55591 2.03834,2.59425 0.43237,1.66773 2.53249,2.90309 v 0.43237 l 2.28541,1.7295 -0.30884,2.47072 3.15016,0.67944 c 0,0 0,2.53249 0.61768,2.65602 0.61768,0.12354 3.89137,0 3.89137,0 l 0.12354,0.98829 2.03834,0.43237 2.16187,2.16188 -3.39723,1.7295 0.12354,2.59425 -0.30884,2.22364 -0.18531,1.7295 -2.1001,-0.92652 -2.53249,-2.1001 -2.84132,-1.23536 -0.86475,-2.28541 -3.02662,-1.11182 -0.37061,-1.3589 -2.03834,-0.86475 0.37061,-1.85303 -2.22365,-1.66773 -2.16187,-4.69436 1.23536,-1.7295 -1.91481,-1.29713 0.92652,-2.22364 z"
         id="path1255"
         inkscape:export-filename="C:\Users\Clément\Desktop/lounaDessin.png"
         inkscape:export-xdpi="96"
         inkscape:export-ydpi="96" />
      <path
         style="fill:#000000;fill-opacity:1;stroke:#000000;stroke-width:0.264583px;stroke-linecap:butt;stroke-linejoin:miter;stroke-opacity:1"
         d="m 606.99405,376.22248 1.97657,0.43237 1.05005,-3.27369 -0.92651,-1.3589 c 0,0 2.40892,-5.49734 2.16185,-5.49734 -0.24706,0 -2.96484,1.48243 -3.15015,-0.30884 -0.18529,-1.79126 -1.42066,-4.07667 -1.42066,-4.07667 l -5.25027,-1.42066 -2.16187,0.74121 -3.82961,0.24707 0.24707,2.84132 1.29713,2.90309 -1.05006,1.5442 h 3.0884 l 0.3706,4.32375 2.03834,0.92651 0.1853,1.5442 3.89139,0.18531 z"
         id="path1257"
         inkscape:export-filename="C:\Users\Clément\Desktop/lounaDessin.png"
         inkscape:export-xdpi="96"
         inkscape:export-ydpi="96" />
      <path
         style="fill:#000000;fill-opacity:1;stroke:#000000;stroke-width:0.264583px;stroke-linecap:butt;stroke-linejoin:miter;stroke-opacity:1"
         d="m 562.02791,355.90964 0.65515,3.62515 1.87809,3.66882 2.62059,2.92632 1.70338,-1.13559 -0.30574,-1.74706 0.87353,-0.96088 -0.56779,-1.17926 0.56779,-2.44588 c 0,0 -1.22294,-0.13103 -1.22294,-0.43677 0,-0.30573 0.30574,-2.53323 0.30574,-2.53323 l -1.79074,-0.13103 h -2.57691 l -1.26662,-0.39309 z"
         id="path1259"
         inkscape:export-filename="C:\Users\Clément\Desktop/lounaDessin.png"
         inkscape:export-xdpi="96"
         inkscape:export-ydpi="96" />
      <path
         style="fill:#000000;fill-opacity:1;stroke:#000000;stroke-width:0.264583px;stroke-linecap:butt;stroke-linejoin:miter;stroke-opacity:1"
         d="m 608.32205,403.80183 -1.54419,15.62726 c -0.063,3.06236 -0.12384,6.12343 1.01915,8.4622 l 1.57509,3.58253 c 0.62193,-1.2563 1.25422,-2.51703 2.43983,-4.01491 1.62256,-1.7192 3.49091,-3.43841 6.17678,-5.15761 l 2.19276,-1.23536 c 0.65303,-4.44496 1.1252,-8.81757 3.36634,-13.89777 1.6792,-2.89736 2.00397,-6.47193 2.77956,-9.82109 l 3.70607,-18.96273 c 5.42012,-9.41275 6.69664,-21.58789 8.02984,-33.72525 1.09412,-3.04721 0.21883,-6.09443 -0.74123,-9.14164 -0.77222,-3.36275 -2.93102,-4.87672 -5.06495,-6.42386 -4.05206,7.53331 -7.80495,15.10937 -8.64751,23.10118 l -7.04154,17.41854 -6.918,21.37167 z"
         id="path1261"
         sodipodi:nodetypes="ccccccccccccccccc"
         inkscape:export-filename="C:\Users\Clément\Desktop/lounaDessin.png"
         inkscape:export-xdpi="96"
         inkscape:export-ydpi="96" />
      <path
         style="fill:#000000;fill-opacity:1;stroke:#000000;stroke-width:0.264583px;stroke-linecap:butt;stroke-linejoin:miter;stroke-opacity:1"
         d="m 543.6838,286.94449 c 1.64662,-1.8328 4.42954,-2.426 7.33764,-2.88264 l 8.7353,3.23205 c 4.09427,0.38986 6.59507,0.16684 8.56058,-0.26206 l 10.56971,-4.19294 c 1.71087,0.0338 2.29492,0.81889 2.53324,1.83442 -1.485,2.20697 -2.97,3.36517 -4.455,4.80441 l -13.01559,2.27117 -8.38588,0.96089 c -2.56235,-0.15784 -5.12471,-0.0712 -7.68706,-1.22295 -1.59024,-1.22522 -3.06577,-2.62251 -4.19294,-4.54235 z"
         id="path1263"
         sodipodi:nodetypes="ccccccccccc"
         inkscape:export-filename="C:\Users\Clément\Desktop/lounaDessin.png"
         inkscape:export-xdpi="96"
         inkscape:export-ydpi="96" />
      <path
         style="fill:#000000;fill-opacity:1;stroke:#000000;stroke-width:0.264583px;stroke-linecap:butt;stroke-linejoin:miter;stroke-opacity:1"
         d="m 537.21968,276.20008 c 0.38469,3.09191 0.82373,6.12171 2.00912,8.29853 1.38679,1.42736 3.04474,2.25817 4.71706,3.05735 -0.2695,-2.16428 3.62127,-2.72847 6.98823,-3.49411 l 8.86931,3.40022 4.94143,-0.0618 c 2.16418,-1.05401 4.79623,-0.82136 6.11501,-4.20022 1.67078,-2.43977 1.94816,-8.01469 2.78602,-12.32853 0.18671,-3.69448 0.19127,-7.66217 -0.0874,-12.05471 -1.00948,-2.59753 -1.75159,-5.44837 -4.89176,-6.02735 -4.58004,3.53385 -9.52608,6.77491 -13.01559,11.18118 l -1.485,6.20205 c -0.71619,1.80418 -1.94189,3.40454 -3.23206,4.97912 l -2.88265,3.23206 c -2.27429,0.38787 -4.5078,0.6534 -6.55147,0.34941 -1.42675,-0.71506 -2.8535,-1.17006 -4.28025,-2.53323 z"
         id="path1265"
         sodipodi:nodetypes="cccccccccccccccc"
         inkscape:export-filename="C:\Users\Clément\Desktop/lounaDessin.png"
         inkscape:export-xdpi="96"
         inkscape:export-ydpi="96" />
      <path
         style="fill:#000000;fill-opacity:1;stroke:#000000;stroke-width:0.264583px;stroke-linecap:butt;stroke-linejoin:miter;stroke-opacity:1"
         d="m 537.07283,276.09678 -0.64857,-2.00745 c -0.34394,-1.23099 -0.12553,-1.67469 -0.0926,-2.37807 l -1.11182,-1.66773 c -0.1832,-1.01097 -0.62286,-1.76549 -0.27795,-3.30458 l 1.66773,-2.62513 c 1.10968,-0.84802 2.11786,-1.39157 3.15016,-2.00746 l 3.42812,-0.33972 2.96485,0.24707 2.56337,1.11182 2.56336,0.74122 c 0.92099,0.22485 1.80587,0.53999 2.56337,1.17359 l 1.23536,1.05005 c -0.37852,2.21835 -0.75199,4.45811 -1.45155,5.31203 l -2.6869,3.67519 -2.8722,3.18105 c -2.1239,0.44887 -4.26151,0.83601 -6.5474,0.55591 l -2.71778,-1.45155 z"
         id="path1267"
         sodipodi:nodetypes="ccccccccccccccccccc"
         inkscape:export-filename="C:\Users\Clément\Desktop/lounaDessin.png"
         inkscape:export-xdpi="96"
         inkscape:export-ydpi="96" />
      <path
         style="fill:#000000;fill-opacity:1;stroke:#000000;stroke-width:0.264583px;stroke-linecap:butt;stroke-linejoin:miter;stroke-opacity:1"
         d="m 536.5478,271.71126 1.42066,1.42066 c 0.31913,0.0417 0.63827,-0.0622 0.9574,-0.30884 0.29,-0.37915 0.21075,-1.12756 0.18531,-1.82215 -0.25194,-0.60982 -0.31695,-1.12617 -0.86475,-1.88391 l -1.05006,-1.3589 c -0.43009,-0.18419 -0.81377,-0.1363 -1.20447,-0.12353 -0.24934,0.3136 -0.67359,0.59806 -0.46326,0.98828 0.0919,0.76732 0.23796,1.50757 0.49414,2.19276 z"
         id="path1269"
         sodipodi:nodetypes="cccccccccc"
         inkscape:export-filename="C:\Users\Clément\Desktop/lounaDessin.png"
         inkscape:export-xdpi="96"
         inkscape:export-ydpi="96" />
      <path
         style="fill:#000000;fill-opacity:1;stroke:#000000;stroke-width:0.264583px;stroke-linecap:butt;stroke-linejoin:miter;stroke-opacity:1"
         d="m 542.75547,270.25972 c 0.43801,1.26329 1.05699,1.4408 1.60596,2.03834 0.5868,0.41082 1.17359,0.66984 1.76039,0.71033 l 1.42066,-0.0926 c 0.83537,0.0187 1.24521,-0.26651 1.82215,-0.43238 l 1.76038,-0.86475 c -0.83649,-0.004 -1.61428,0.14939 -2.56336,-0.15442 l -0.83387,-0.33972 c -0.24562,-0.24996 -0.53673,-0.40896 -0.58679,-1.05005 -0.24907,-0.24409 -0.34485,-0.71809 -0.43238,-1.20448 l -0.64856,-0.98828 c -0.68328,-0.0452 -1.34822,-0.21883 -2.06922,0 -0.25315,0.40814 -0.67217,0.71676 -0.74122,1.23536 z"
         id="path1271"
         sodipodi:nodetypes="cccccccccccccc"
         inkscape:export-filename="C:\Users\Clément\Desktop/lounaDessin.png"
         inkscape:export-xdpi="96"
         inkscape:export-ydpi="96" />
      <path
         style="fill:#000000;fill-opacity:1;stroke:#000000;stroke-width:0.264583px;stroke-linecap:butt;stroke-linejoin:miter;stroke-opacity:1"
         d="m 539.08028,262.47697 2.84132,-2.47072 c 1.03072,-0.53427 1.8106,-1.27758 2.34718,-2.22364 0.99501,-0.91979 2.29933,-1.53028 3.95314,-1.79126 l 6.59938,-3.98803 c 0.5455,-3.37599 2.4677,-6.47663 4.11735,-9.63179 1.67164,-2.16223 3.91048,-3.37912 6.05325,-4.75612 2.47203,-2.06519 4.35289,-1.32232 6.17678,-0.30884 l -1.42066,3.52077 -0.67944,5.43557 c 0.23461,2.90536 -0.2845,4.45404 -0.43238,6.67093 -4.65565,3.39524 -9.51237,6.64304 -12.98505,10.9058 l -0.52412,2.31485 c -5.24916,-2.12361 -10.55235,-3.76103 -16.04675,-3.67752 z"
         id="path1273"
         sodipodi:nodetypes="cccccccccccccc"
         inkscape:export-filename="C:\Users\Clément\Desktop/lounaDessin.png"
         inkscape:export-xdpi="96"
         inkscape:export-ydpi="96" />
      <path
         style="fill:#000000;fill-opacity:1;stroke:#000000;stroke-width:0.264583px;stroke-linecap:butt;stroke-linejoin:miter;stroke-opacity:1"
         d="m 570.93791,291.05008 2.27118,1.65971 1.92177,0.56779 1.79073,2.83897 1.00456,2.83897 1.61603,1.52868 c 0,0 1.39765,0.65514 1.96544,0.7425 0.56779,0.0873 2.05279,-1.57236 2.05279,-1.57236 l 0.91721,0.26206 0.26206,-3.10103 -0.56779,-1.39764 0.69882,-1.79074 -1.26662,-1.96544 0.52412,-2.44588 -2.88265,-0.52412 -10.70073,2.05279 z"
         id="path1275"
         inkscape:export-filename="C:\Users\Clément\Desktop/lounaDessin.png"
         inkscape:export-xdpi="96"
         inkscape:export-ydpi="96" />
      <path
         style="fill:#000000;fill-opacity:1;stroke:#000000;stroke-width:0.264583px;stroke-linecap:butt;stroke-linejoin:miter;stroke-opacity:1"
         d="m 586.35571,223.98486 -3.5378,3.86537 c 2.45106,0.76672 4.19063,2.11557 6.02736,3.38492 1.63614,3.80895 3.70406,7.97772 4.37454,10.98196 0.76084,2.30504 1.20776,4.29615 1.32801,5.9606 0.35165,2.22635 0.48004,4.78757 1.1427,6.54739 0.52487,0.78256 2.07375,0.47285 3.42812,0.37061 l 4.29287,-4.29286 -7.84452,-22.51439 z"
         id="path1277"
         sodipodi:nodetypes="cccccccccc"
         inkscape:export-filename="C:\Users\Clément\Desktop/lounaDessin.png"
         inkscape:export-xdpi="96"
         inkscape:export-ydpi="96" />
      <path
         style="fill:#000000;fill-opacity:1;stroke:#000000;stroke-width:0.264583px;stroke-linecap:butt;stroke-linejoin:miter;stroke-opacity:1"
         d="m 586.39938,224.05037 c 0.86174,2.75463 4.55654,3.62055 7.77442,4.80442 0.48581,4.31072 1.40692,8.55926 2.70794,12.75353 1.33243,1.83978 1.78793,4.16674 3.99728,5.51934 l 3.02663,4.32375 c 0.67859,1.48809 1.68838,0.76825 2.59424,0.74121 l 2.59427,-3.459 c 2.86761,-1.73843 5.66356,-3.51986 7.72096,-5.74441 2.16017,-2.22119 4.33735,-4.43752 5.37382,-6.97977 l 0.67945,-3.52077 c 0.96112,-0.20159 1.27649,-0.79064 1.42065,-1.48242 0,0 -8.93506,-3.07189 -9.14164,-3.52077 -0.41263,-0.89661 -10.8474,-0.87888 -10.99468,0.74121 -4.14917,-3.07696 -8.90451,-5.59106 -14.20661,-7.59745 -1.77805,0.66374 -3.00372,1.76937 -3.54673,3.42113 z"
         id="path1279"
         sodipodi:nodetypes="cccccccccccsccc"
         inkscape:export-filename="C:\Users\Clément\Desktop/lounaDessin.png"
         inkscape:export-xdpi="96"
         inkscape:export-ydpi="96" />
      <path
         style="fill:#000000;fill-opacity:1;stroke:#000000;stroke-width:0.264583px;stroke-linecap:butt;stroke-linejoin:miter;stroke-opacity:1"
         d="m 573.73321,270.34743 1.17926,-1.39764 1.22294,1.87808 2.09647,1.57236 2.40221,0.34941 0.21838,0.78618 4.54236,1.26661 1.26661,1.13559 0.7425,1.35397 -1.31029,2.53324 0.0437,2.88264 -1.74706,1.26662 0.30573,1.79074 -0.9172,0.96088 -1.09192,1.485 -2.62058,0.69882 -1.17927,0.48044 -1.22294,-0.43676 1.61603,-2.18383 1.65971,-1.44132 0.0437,-2.00911 h -2.27118 l -2.00911,0.82985 -4.01824,1.17926 -3.40676,1.485 -1.79074,0.21838 -2.00911,0.5678 2.09647,-1.83441 2.48955,-1.485 -0.0873,-2.31486 1.96544,-1.22294 0.34941,-2.70794 v -2.79529 l 0.65515,-0.69882 0.0437,-2.40221 1.13559,-1.485 z"
         id="path1281"
         inkscape:export-filename="C:\Users\Clément\Desktop/lounaDessin.png"
         inkscape:export-xdpi="96"
         inkscape:export-ydpi="96" />
      <circle
         style="fill:#000000;fill-opacity:1;stroke:#000000;stroke-width:0.2;stroke-opacity:1"
         id="circle1283"
         cx="582.30231"
         cy="249.29446"
         r="1.3434508"
         inkscape:export-filename="C:\Users\Clément\Desktop/lounaDessin.png"
         inkscape:export-xdpi="96"
         inkscape:export-ydpi="96" />
      <ellipse
         style="fill:#000000;fill-opacity:1;stroke:#000000;stroke-width:0.139878;stroke-opacity:1"
         id="ellipse1285"
         cx="551.50189"
         cy="249.25168"
         rx="0.82679874"
         ry="1.0677767"
         inkscape:export-filename="C:\Users\Clément\Desktop/lounaDessin.png"
         inkscape:export-xdpi="96"
         inkscape:export-ydpi="96" />
      <circle
         style="fill:#000000;fill-opacity:1;stroke:#000000;stroke-width:0;stroke-miterlimit:4;stroke-dasharray:none;stroke-opacity:1"
         id="circle1287"
         cx="582.76562"
         cy="248.42972"
         r="0.66995847"
         inkscape:export-filename="C:\Users\Clément\Desktop/lounaDessin.png"
         inkscape:export-xdpi="96"
         inkscape:export-ydpi="96" />
      <circle
         style="fill:#000000;fill-opacity:1;stroke:#000000;stroke-width:0;stroke-miterlimit:4;stroke-dasharray:none;stroke-opacity:1"
         id="circle1289"
         cx="551.13062"
         cy="248.2908"
         r="0.45157629"
         inkscape:export-filename="C:\Users\Clément\Desktop/lounaDessin.png"
         inkscape:export-xdpi="96"
         inkscape:export-ydpi="96" />
      <path
         style="fill:#000000;fill-opacity:1;stroke:#000000;stroke-width:0.264583px;stroke-linecap:butt;stroke-linejoin:miter;stroke-opacity:1"
         d="m 541.11862,271.70077 c -0.28675,2.5171 -0.10407,4.92586 0.67945,7.19597"
         id="path1291"
         sodipodi:nodetypes="cc"
         inkscape:export-filename="C:\Users\Clément\Desktop/lounaDessin.png"
         inkscape:export-xdpi="96"
         inkscape:export-ydpi="96" />
      <path
         style="fill:#000000;fill-opacity:1;stroke:#000000;stroke-width:0.264583px;stroke-linecap:butt;stroke-linejoin:miter;stroke-opacity:1"
         d="m 599.95251,447.80095 1.11182,1.97657 c 1.79127,1.65014 3.58254,1.76281 5.37381,1.97657 2.22364,1.18744 4.44727,1.67435 6.67091,1.54419 1.40008,-0.17293 2.80015,0.26447 4.20023,-1.11184"
         id="path1293"
         sodipodi:nodetypes="ccccc"
         inkscape:export-filename="C:\Users\Clément\Desktop/lounaDessin.png"
         inkscape:export-xdpi="96"
         inkscape:export-ydpi="96" />
      <path
         style="fill:#000000;fill-opacity:1;stroke:none;stroke-width:0.264583px;stroke-linecap:butt;stroke-linejoin:miter;stroke-opacity:1"
         d="m 566.78316,263.36211 c 0.0993,-0.0535 0.45207,0.43947 1.08506,1.14898 0.63677,0.71375 1.60993,1.63589 2.63315,2.74885 -5e-5,-5e-5 0.0263,0.0282 0.0263,0.0282 1.10008,1.18145 1.82113,2.22623 2.24563,3.23978 0.39553,0.94439 0.4074,1.58099 0.31024,1.60528 -0.10685,0.0267 -0.31737,-0.54239 -0.80951,-1.35244 -0.56624,-0.93202 -1.22725,-1.73755 -2.33366,-2.95154 -2.3e-4,-2.4e-4 -0.0252,-0.0276 -0.0254,-0.0278 -1.12066,-1.20875 -1.85227,-1.97211 -2.49193,-2.95025 -0.55034,-0.84155 -0.73302,-1.43871 -0.63985,-1.48897 z"
         id="path1295"
         inkscape:path-effect="#path-effect1320"
         inkscape:original-d="m 566.78316,263.36211 c 1.6355,3.03186 5.3977,5.16053 6.30033,8.77104"
         inkscape:export-filename="C:\Users\Clément\Desktop/lounaDessin.png"
         inkscape:export-xdpi="96"
         inkscape:export-ydpi="96" />
      <path
         style="fill:#000000;fill-opacity:1;stroke:none;stroke-width:0.264583px;stroke-linecap:butt;stroke-linejoin:miter;stroke-opacity:1"
         d="m 562.45942,269.16831 c 0.20898,-0.0697 0.82642,1.22866 1.32995,2.90509 0.50354,1.67642 0.73394,3.0844 0.52308,3.14815 -0.21086,0.0638 -0.78581,-1.24807 -1.28747,-2.91858 -0.50166,-1.67052 -0.77454,-3.065 -0.56556,-3.13466 z"
         id="path1297"
         inkscape:path-effect="#path-effect1324"
         inkscape:original-d="m 562.45942,269.16831 c 0.83204,2.4961 0.1717,0.49191 1.85303,6.05324"
         inkscape:export-filename="C:\Users\Clément\Desktop/lounaDessin.png"
         inkscape:export-xdpi="96"
         inkscape:export-ydpi="96" />
      <path
         style="fill:#000000;fill-opacity:1;stroke:none;stroke-width:0.264583px;stroke-linecap:butt;stroke-linejoin:miter;stroke-opacity:1"
         d="m 558.62981,274.35679 c 0.22028,-0.002 0.52399,1.29332 1.11975,2.95079 0,-10e-6 0.003,0.008 0.003,0.008 0.61423,1.64967 0.57961,3.21769 0.35969,3.21769 -0.21992,0 -0.51497,-1.29001 -1.10924,-2.94345 0,0 -0.003,-0.008 -0.003,-0.008 -0.61564,-1.65372 -0.59038,-3.22321 -0.3701,-3.22505 z"
         id="path1299"
         inkscape:path-effect="#path-effect1328"
         inkscape:original-d="m 558.62981,274.35679 c 0.018,2.16003 1.48243,4.03767 1.48243,6.1768"
         inkscape:export-filename="C:\Users\Clément\Desktop/lounaDessin.png"
         inkscape:export-xdpi="96"
         inkscape:export-ydpi="96" />
      <path
         style="fill:#000000;fill-opacity:1;stroke:none;stroke-width:0.264583px;stroke-linecap:butt;stroke-linejoin:miter;stroke-opacity:1"
         d="m 538.12288,280.16296 c 0.0797,0.20538 -1.41301,0.91497 -2.50906,2.42697 -1.09605,1.51201 -1.22379,3.13214 -1.44408,3.13214 -0.20044,0 -0.51543,-1.75945 0.80529,-3.59356 1.32291,-1.83714 3.08271,-2.13348 3.14785,-1.96555 z"
         id="path1301"
         inkscape:path-effect="#path-effect1332"
         inkscape:original-d="m 538.12288,280.16296 c -2.54381,0.98671 -3.95314,2.8688 -3.95314,5.55911"
         inkscape:export-filename="C:\Users\Clément\Desktop/lounaDessin.png"
         inkscape:export-xdpi="96"
         inkscape:export-ydpi="96" />
      <path
         style="fill:#000000;fill-opacity:1;stroke:none;stroke-width:0.264583px;stroke-linecap:butt;stroke-linejoin:miter;stroke-opacity:1"
         d="m 539.85238,282.26309 c 0.14673,0.16431 -0.3659,0.84772 -0.80137,1.86073 -0.43547,1.013 -0.84066,1.90865 -1.05166,1.84535 -0.211,-0.0633 -0.18002,-1.05317 0.31971,-2.16718 0.5194,-1.15783 1.36549,-1.72683 1.53332,-1.5389 z"
         id="path1303"
         inkscape:path-effect="#path-effect1336"
         inkscape:original-d="m 539.85238,282.26309 c -1.08261,0.96682 -1.45978,2.39522 -1.85303,3.70607"
         inkscape:export-filename="C:\Users\Clément\Desktop/lounaDessin.png"
         inkscape:export-xdpi="96"
         inkscape:export-ydpi="96" />
      <path
         style="fill:#000000;fill-opacity:1;stroke:none;stroke-width:0.264583px;stroke-linecap:butt;stroke-linejoin:miter;stroke-opacity:1"
         d="m 555.29435,280.28652 c 0.21534,0 0.39769,0.88003 0.47164,1.95168 0.0745,1.07953 -0.005,1.97954 -0.22457,2.00146 -0.21919,0.0219 -0.49474,-0.8453 -0.57034,-1.94676 -0.0761,-1.10851 0.0981,-2.00638 0.32327,-2.00638 z"
         id="path1305"
         inkscape:path-effect="#path-effect1340"
         inkscape:original-d="m 555.29435,280.28652 c 0,2.31011 -0.0492,0.99073 0.24707,3.95314"
         inkscape:export-filename="C:\Users\Clément\Desktop/lounaDessin.png"
         inkscape:export-xdpi="96"
         inkscape:export-ydpi="96" />
      <path
         style="fill:#000000;fill-opacity:1;stroke:none;stroke-width:0.264583px;stroke-linecap:butt;stroke-linejoin:miter;stroke-opacity:1"
         d="m 564.18891,279.54529 c 0.20735,-0.0744 1.17442,1.27343 1.61144,3.34898 0.0272,0.12899 0.05,0.25774 0.0684,0.38635 0,0 0,0 0,0 0.12021,0.96247 -0.11677,1.88858 -0.27391,2.41216 -0.17088,0.56937 -0.32147,0.9066 -0.41764,0.89406 -0.10677,-0.0139 -0.1471,-0.38495 -0.11601,-0.98667 0.0262,-0.50751 0.14752,-1.48705 0.022,-2.20383 0,0 0,0 0,0 -0.0171,-0.11218 -0.0375,-0.22525 -0.0611,-0.33987 -0.37975,-1.84368 -1.04049,-3.4368 -0.83314,-3.51118 z"
         id="path1307"
         inkscape:path-effect="#path-effect1344"
         inkscape:original-d="m 564.18891,279.54529 c 1.62005,4.51644 1.48264,3.25155 0.98829,7.04154"
         inkscape:export-filename="C:\Users\Clément\Desktop/lounaDessin.png"
         inkscape:export-xdpi="96"
         inkscape:export-ydpi="96" />
      <path
         style="fill:#000000;fill-opacity:1;stroke:none;stroke-width:0.264583px;stroke-linecap:butt;stroke-linejoin:miter;stroke-opacity:1"
         d="m 568.66674,276.63683 c 0.0701,-0.0728 0.43522,0.0884 0.79271,0.61787 0.37572,0.55644 0.61765,1.3374 0.67135,2.31008 5.2e-4,0.009 10e-4,0.0189 0.002,0.0284 0.0587,0.72883 0.0201,1.49735 0.0788,2.22618 0.0422,0.53276 0.1272,0.8826 0.028,0.93221 -0.095,0.0475 -0.36657,-0.22806 -0.5717,-0.81319 -0.23392,-0.66727 -0.27348,-1.3368 -0.3312,-2.2888 1e-4,10e-4 -0.003,-0.0278 -0.002,-0.0267 -0.0879,-0.95753 -0.1652,-1.5359 -0.36671,-2.11482 -0.17124,-0.49196 -0.38,-0.78837 -0.3003,-0.87124 z"
         id="path1309"
         inkscape:path-effect="#path-effect1348"
         inkscape:original-d="m 568.66674,276.63683 c 1.63235,1.57001 0.69023,4.35047 1.57235,6.11471"
         inkscape:export-filename="C:\Users\Clément\Desktop/lounaDessin.png"
         inkscape:export-xdpi="96"
         inkscape:export-ydpi="96" />
      <path
         style="fill:#000000;fill-opacity:1;stroke:none;stroke-width:0.264583px;stroke-linecap:butt;stroke-linejoin:miter;stroke-opacity:1"
         d="m 549.6238,280.30565 c 0.2152,0.0471 0.0989,1.31091 -0.10466,2.83178 -0.20183,1.50814 -0.38437,2.75881 -0.59417,2.75881 -0.22838,0 -0.4075,-1.28172 -0.19691,-2.86437 0.20981,-1.57684 0.69012,-2.77119 0.89574,-2.72622 z"
         id="path1311"
         inkscape:path-effect="#path-effect1352"
         inkscape:original-d="m 549.6238,280.30565 c -0.40895,1.86976 -0.69883,3.64734 -0.69883,5.59059"
         inkscape:export-filename="C:\Users\Clément\Desktop/lounaDessin.png"
         inkscape:export-xdpi="96"
         inkscape:export-ydpi="96" />
      <path
         style="fill:#000000;fill-opacity:1;stroke:none;stroke-width:0.264583px;stroke-linecap:butt;stroke-linejoin:miter;stroke-opacity:1"
         d="m 542.28615,281.87802 c 0.18907,0.0402 0.21917,0.93906 0.20732,2.00333 -0.0121,1.09046 -0.16174,2.01489 -0.38203,2.01489 -0.22029,0 -0.43364,-0.88909 -0.41669,-2.02532 0.0173,-1.15838 0.35451,-2.04322 0.5914,-1.9929 z"
         id="path1313"
         inkscape:path-effect="#path-effect1356"
         inkscape:original-d="m 542.28615,281.87802 c -0.28076,1.32186 -0.17471,2.67732 -0.17471,4.01822"
         inkscape:export-filename="C:\Users\Clément\Desktop/lounaDessin.png"
         inkscape:export-xdpi="96"
         inkscape:export-ydpi="96" />
    </g>
  </g>
</svg>
