<?xml version="1.0" encoding="UTF-8" standalone="no"?>
<!-- Created with Inkscape (http://www.inkscape.org/) -->

<svg
   width="150"
   height="150"
   viewBox="0 0 39.687499 39.687501"
   version="1.1"
   id="svg5"
   inkscape:version="1.1.1 (3bf5ae0d25, 2021-09-20)"
   sodipodi:docname="zzz - Copie.svg"
   inkscape:export-filename="C:\Users\Clément\Desktop\freepic\res\img/icon.png"
   inkscape:export-xdpi="96"
   inkscape:export-ydpi="96"
   xmlns:inkscape="http://www.inkscape.org/namespaces/inkscape"
   xmlns:sodipodi="http://sodipodi.sourceforge.net/DTD/sodipodi-0.dtd"
   xmlns="http://www.w3.org/2000/svg"
   xmlns:svg="http://www.w3.org/2000/svg">
  <sodipodi:namedview
     id="namedview7"
     pagecolor="#ffffff"
     bordercolor="#666666"
     borderopacity="1.0"
     inkscape:pageshadow="2"
     inkscape:pageopacity="0.0"
     inkscape:pagecheckerboard="true"
     inkscape:document-units="mm"
     showgrid="false"
     units="px"
     inkscape:zoom="6.0578004"
     inkscape:cx="68.836867"
     inkscape:cy="61.160813"
     inkscape:window-width="1920"
     inkscape:window-height="1013"
     inkscape:window-x="-9"
     inkscape:window-y="-9"
     inkscape:window-maximized="1"
     inkscape:current-layer="layer1"
     inkscape:snap-object-midpoints="false"
     inkscape:snap-center="false" />
  <defs
     id="defs2">
    <clipPath
       clipPathUnits="userSpaceOnUse"
       id="clipPath168419-0">
      <path
         style="fill:#d4d591;fill-opacity:1;stroke:#000000;stroke-width:0.264583px;stroke-linecap:butt;stroke-linejoin:miter;stroke-opacity:1"
         d="m 1976.6629,1120.9601 c -14.9756,1.5925 -25.8038,9.2969 -36.1081,17.7735 -10.8363,13.4703 -17.8314,26.9407 -24.1344,40.4111 -5.0825,17.6623 -6.7297,33.8216 -6.174,49.0172 2.96,13.8998 7.3576,26.531 16.2768,35.1727 10.0404,8.8438 23.2314,13.9465 38.9144,16.0897 14.6068,1.5407 26.9047,-0.7669 39.4757,-2.6193 16.4002,-3.4206 25.6399,-12.8083 33.676,-23.199 4.188,-8.0615 7.6011,-17.2853 8.9802,-29.56 0.1671,-11.8575 -2.4879,-24.9245 -4.6772,-37.7919 -3.678,-11.8565 -9.5794,-24.1299 -18.896,-37.0436 -6.3738,-10.6207 -16.705,-17.504 -27.502,-23.9473 -6.0539,-1.7474 -10.1493,-4.5965 -19.8314,-4.3031 z"
         id="path168421-4"
         sodipodi:nodetypes="ccccccccccccc" />
    </clipPath>
    <linearGradient
       x1="-989.37677"
       y1="-3204.3379"
       x2="1175.8552"
       y2="2649.3293"
       gradientUnits="userSpaceOnUse"
       id="color-1"
       gradientTransform="matrix(0.17670732,0,0,0.17670732,-22.688903,-12.005473)">
      <stop
         offset="0"
         stop-color="#2a221e"
         id="stop2" />
      <stop
         offset="1"
         stop-color="#2a221e"
         stop-opacity="0"
         id="stop4" />
    </linearGradient>
    <linearGradient
       x1="-3323.7942"
       y1="-330.77435"
       x2="2849.8162"
       y2="585.84308"
       gradientUnits="userSpaceOnUse"
       id="color-2"
       gradientTransform="matrix(0.17670732,0,0,0.17670732,-22.688903,-12.005473)">
      <stop
         offset="0"
         stop-color="#2a221e"
         id="stop7" />
      <stop
         offset="1"
         stop-color="#2a221e"
         stop-opacity="0"
         id="stop9" />
    </linearGradient>
    <inkscape:path-effect
       effect="skeletal"
       id="path-effect22557"
       is_visible="true"
       lpeversion="1"
       pattern="m -72.639,-38.615969 c 0,-2.75566 2.236478,-4.992138 4.992138,-4.992138 2.755661,0 4.992139,2.236478 4.992139,4.992138 0,2.755661 -2.236478,4.992138 -4.992139,4.992138 -2.75566,0 -4.992138,-2.236477 -4.992138,-4.992138 z"
       copytype="single_stretched"
       prop_scale="-0.16923208"
       scale_y_rel="false"
       spacing="0"
       normal_offset="0"
       tang_offset="0"
       prop_units="false"
       vertical_pattern="false"
       hide_knot="false"
       fuse_tolerance="0" />
  </defs>
  <g
     inkscape:label="Calque 1"
     inkscape:groupmode="layer"
     id="layer1">
    <g
       id="g27944"
       transform="matrix(0.35120308,0,0,0.35120308,-27.346918,-53.85207)">
      <path
         style="fill:#25719e;fill-opacity:1;stroke:none;stroke-width:0.264583px;stroke-linecap:butt;stroke-linejoin:miter;stroke-opacity:1"
         d="m 154.48141,238.671 c -0.1328,0.0881 0.1436,0.46401 0.74735,0.98457 0.40701,0.36157 0.83607,0.69529 1.47039,1.18364 0.40642,0.31305 0.962,0.73094 1.42558,1.13204 0.28694,0.29139 0.60481,0.46798 0.56864,0.5872 0.30838,0.86285 1.01497,1.47131 1.80328,1.79792 0.89571,0.41867 1.84626,0.65452 2.86006,0.83409 0.98239,0.17841 1.95286,0.29136 3.00075,0.40541 0.73794,0.0826 1.50027,0.13661 2.16095,0.29047 1.52895,0.33807 3.00523,1.17561 4.29163,2.36101 0.26074,0.24461 0.51783,0.50335 0.77594,0.77324 1.83415,1.9179 3.31559,3.86753 5.76177,5.01509 0.40794,0.17882 0.78784,0.27988 1.09596,0.37092 0.55984,0.1715 1.06653,0.32275 1.58955,0.48981 0.54786,0.17565 1.05083,0.34203 1.53032,0.53961 0.37481,0.18826 0.65173,0.24172 0.71168,0.35746 0.12784,-0.0199 0.0562,0.49923 0.37889,1.14578 0,0 0,0 0,0 0.58695,0.85584 1.42322,1.06552 1.71284,1.23257 0.28694,0.14929 0.49385,0.62991 0.85119,1.06801 0.16811,0.0941 0.11162,0.54405 0.15336,0.97639 -0.0544,0.40702 -0.0305,0.98205 0.37602,1.45913 0.36165,0.24545 0.68962,0.20976 0.8859,0.0832 0.29767,-0.14977 0.51215,-0.35333 0.66212,-0.51357 0,0 0,0 0,0 0.61206,-0.63361 0.7778,-1.08662 0.70235,-1.14052 -0.0761,-0.0543 -0.40276,0.26021 -1.06507,0.71403 0,0 0,0 0,0 -0.16984,0.11194 -0.37416,0.24716 -0.5618,0.29551 -0.11345,-0.008 -0.16744,0.0206 -0.0759,0.0138 -0.12987,-0.0618 0.0295,-0.38138 0.004,-0.88507 0.0631,-0.36131 0.14401,-0.96818 -0.21606,-1.62083 -0.19053,-0.32369 -0.44448,-0.92174 -1.00185,-1.40271 -0.59758,-0.50622 -1.29269,-0.61502 -1.25202,-0.86755 0,0 0,0 0,0 -0.0768,-0.15249 -0.007,-0.70089 -0.48585,-1.44844 -0.41402,-0.45399 -0.86733,-0.66812 -1.19937,-0.79 -0.53245,-0.24659 -1.07034,-0.45095 -1.6236,-0.64978 -0.53119,-0.19139 -1.05007,-0.36553 -1.59526,-0.55033 -0.35082,-0.12149 -0.67196,-0.21055 -0.90774,-0.32879 -1.99914,-0.90395 -3.23892,-2.72714 -5.20704,-4.74637 -0.27736,-0.28457 -0.56125,-0.56255 -0.85589,-0.8306 -1.47913,-1.36737 -3.23863,-2.31617 -5.09709,-2.70395 -0.83073,-0.16566 -1.64845,-0.20653 -2.35499,-0.2591 -1.05351,-0.0825 -1.98232,-0.15358 -2.91785,-0.28142 -0.97788,-0.13856 -1.81126,-0.28674 -2.56651,-0.59344 -0.61451,-0.28995 -1.11974,-0.55994 -1.23657,-0.97371 -0.28665,-0.62092 -0.73855,-0.90173 -1.01151,-1.04982 -0.55664,-0.39565 -1.14261,-0.74274 -1.59894,-1.00869 -0.51977,-0.3036 -1.3442,-0.7624 -1.62985,-0.92124 -0.69805,-0.41218 -0.9814,-0.59708 -1.05998,-0.54494 z"
         id="path22555"
         inkscape:path-effect="#path-effect22557"
         inkscape:original-d="m 154.48141,238.671 c 0.46978,0.70797 4.48828,2.90253 4.75612,3.70607 0.80996,2.42988 7.32844,2.26307 9.45048,2.71778 1.86088,0.39875 3.30327,1.24841 4.69436,2.53248 2.06503,1.90619 3.66523,4.46646 6.30032,5.68265 0.67277,0.31051 4.53633,1.32984 5.12674,2.03835 0.30216,0.36258 0.23899,0.91035 0.43237,1.29711 0.24238,0.48477 1.08511,0.75206 1.48243,1.05006 0.30513,0.22883 0.70859,0.93025 0.92652,1.23536 0.42573,0.596 -0.0567,2.04338 0.3706,2.47071 0.47237,0.47236 1.78308,-1.02624 1.97658,-1.29712" />
      <path
         style="fill:#8c8c8c;fill-opacity:1;stroke:#000000;stroke-width:0.264583px;stroke-linecap:butt;stroke-linejoin:miter;stroke-opacity:1"
         d="m 151.34261,206.8744 -23.23588,13.23397 c -1.55209,4.07158 0.25833,5.26101 3.58147,5.15382 l 23.67264,-13.75808 c 0.49612,-3.22143 -0.44604,-5.12788 -4.01823,-4.62971 z"
         id="path16340"
         sodipodi:nodetypes="ccccc" />
      <path
         style="fill:#7593a5;fill-opacity:1;stroke:#000000;stroke-width:0.264583px;stroke-linecap:butt;stroke-linejoin:miter;stroke-opacity:1"
         d="m 153.9632,212.20293 5.63426,9.30309 c 0.47729,2.95886 0.76247,5.86008 0.0874,8.47323 -0.68307,1.89885 -1.45687,3.741 -3.05735,5.06647 l -6.37676,3.5378 c -3.28955,1.09042 -5.60511,0.23285 -7.9928,-0.48045 -1.9859,-1.08011 -3.99593,-2.11195 -5.41588,-4.32397 l -4.93544,-8.73529 z"
         id="path16508"
         sodipodi:nodetypes="ccccccccc" />
      <path
         style="fill:#8c8c8c;fill-opacity:1;stroke:#000000;stroke-width:0.264583px;stroke-linecap:butt;stroke-linejoin:miter;stroke-opacity:1"
         d="m 156.90406,234.88614 1.9148,2.81044 -6.94888,4.13845 -1.97657,-3.11928 z"
         id="path16823" />
      <path
         style="fill:#d7d7d7;fill-opacity:1;stroke:#000000;stroke-width:0.264583px;stroke-linecap:butt;stroke-linejoin:miter;stroke-opacity:1"
         d="m 149.11511,208.18469 -6.94456,-11.66162 c -2.79105,-0.52658 -2.55222,1.01992 -3.31941,1.87809 l 6.42044,12.01103 z"
         id="path16825"
         sodipodi:nodetypes="ccccc" />
      <path
         style="fill:#d7d7d7;fill-opacity:1;stroke:#000000;stroke-width:0.264583px;stroke-linecap:butt;stroke-linejoin:miter;stroke-opacity:1"
         d="m 134.5384,216.46835 -6.94456,-11.66162 c -2.79105,-0.52658 -2.55222,1.01992 -3.31941,1.87809 l 6.42044,12.01103 z"
         id="path16825-5"
         sodipodi:nodetypes="ccccc" />
      <g
         id="g17021"
         transform="matrix(-0.35277807,0,0,0.35277807,219.23518,77.897594)"
         style="fill:#25719e;fill-opacity:1">
        <g
           id="g17224"
           transform="matrix(1.0390364,0.38150406,-0.38150406,1.0390364,53.495893,151.38428)"
           style="fill:#25719e;fill-opacity:1">
          <path
             style="fill:#25719e;fill-opacity:1;stroke:#000000;stroke-width:0.19847;stroke-linecap:butt;stroke-linejoin:miter;stroke-miterlimit:4;stroke-dasharray:none;stroke-opacity:1"
             d="m 209.30339,167.98387 9.88401,0.13091 -5.4984,12.17503 5.43295,-1.30914 -14.85877,22.05906 3.46923,-16.69158 -3.79652,0.78549 z"
             id="path887-6" />
          <path
             style="mix-blend-mode:overlay;fill:#25719e;fill-opacity:1;stroke:#000000;stroke-width:0;stroke-linecap:butt;stroke-linejoin:miter;stroke-miterlimit:4;stroke-dasharray:none;stroke-opacity:1"
             d="m 204.51894,200.0995 13.4684,-20.91902 1.13461,-0.19981 -14.85877,22.05906 z"
             id="path2277-1" />
          <path
             style="mix-blend-mode:overlay;fill:#25719e;fill-opacity:1;stroke:#000000;stroke-width:0;stroke-linecap:butt;stroke-linejoin:miter;stroke-miterlimit:4;stroke-dasharray:none;stroke-opacity:1"
             d="m 219.1874,168.11478 -0.60306,0.009 -5.56406,12.70424 4.6805,-0.88356 0.28656,-0.76417 -4.29834,1.10933 z"
             id="path2458-2" />
        </g>
      </g>
      <path
         style="fill:#25719e;fill-opacity:1;stroke:#8cc3e3;stroke-width:0.499999;stroke-miterlimit:4;stroke-dasharray:none;stroke-opacity:1"
         id="path23668"
         d="m 126.52089,203.08959 c 1.15119,-5.27281 -0.27096,-0.82713 3.01016,-5.96805 1.24819,-1.95569 1.55735,-3.13713 1.99613,-5.28133 0.12758,-0.62348 0.53084,-1.29597 0.29356,-1.88648 -0.28668,-0.71346 -1.12314,-1.05043 -1.68471,-1.57565 -2.70863,0.70815 -4.04458,-2.44766 -6.32286,-2.73228 -1.45733,-0.18206 -2.84677,0.95831 -4.31408,0.89528 -0.93441,-0.0401 -1.61965,-1.02939 -2.54107,-1.18975 -2.39245,0.42808 -1.42186,0.55228 -2.93017,0.17651 0.0561,0.28523 0.0937,0.97722 0.82901,0.43592 1.04169,-0.76684 3.2525,-3.92077 3.66436,-4.91443 0.49379,-1.19131 0.38667,-2.58122 0.90808,-3.76071 0.56721,-1.2831 1.53977,-2.34551 2.30966,-3.51826 1.46652,-3.80632 0.86662,-2.03741 1.86641,-5.28362 0,0 -0.66461,-0.001 -0.66461,-0.001 v 0 c -1.01047,3.19707 -0.37953,1.45523 -1.99567,5.18712 -0.78476,7.4589 0.67497,0.30351 -3.18639,7.19403 -0.52962,0.94508 -0.31559,2.1999 -0.8674,3.13219 -0.57836,0.97712 -1.86019,1.92505 -3.07644,1.98202 -0.0934,0.004 0.11807,-0.14507 0.1771,-0.2176 1.833,0.4655 -0.48273,-0.0179 2.84316,-0.0963 0.99542,-0.0235 1.98628,0.17594 2.98198,0.17448 1.33147,-0.002 2.69178,-0.47983 3.99014,-0.18472 1.17216,0.26642 2.03679,1.28859 3.12384,1.80168 0.96451,0.45525 2.00495,0.72821 3.00743,1.09231 0.56368,0.48226 1.31559,0.80697 1.69105,1.44677 0.32134,0.54757 0.31224,1.25305 0.26486,1.88617 -0.0608,0.81316 -0.17727,1.66876 -0.58381,2.37562 -0.60206,1.04682 -1.65108,1.77074 -2.36221,2.74675 -2.23656,3.06958 -1.80262,2.65475 -2.51759,6.06462 0,0 0.0901,0.0189 0.0901,0.0189 z" />
      <path
         style="fill:#25719e;fill-opacity:1;stroke:#8cc3e3;stroke-width:0.499999;stroke-miterlimit:4;stroke-dasharray:none;stroke-opacity:1"
         id="path23670"
         d="m 138.62493,196.49615 c -2.33629,-1.07585 -0.13734,-0.23516 -3.45745,-0.76712 -0.94382,-0.15121 -1.94496,-0.18805 -2.80137,-0.61256 -0.9669,-0.47928 -1.59499,-1.4785 -2.52422,-2.02726 -0.9806,-0.5791 -2.3963,-0.46951 -3.14972,-1.3235 -0.64887,-0.73547 -0.37695,-1.92501 -0.56542,-2.88752 -0.35677,-0.46867 -0.81525,-0.87508 -1.07031,-1.40601 -0.66087,-1.37571 0.0852,-1.11552 1.07351,-1.37732 0.18356,-0.0486 0.36581,-0.22146 0.54616,-0.162 0.25395,0.0837 0.61726,0.27175 0.59485,0.53822 -0.0264,0.31434 -0.46279,0.42879 -0.69419,0.64318 -1.52545,0.73436 -0.77852,0.48719 -3.2079,0.77674 -1.00447,0.11972 -2.02285,0.46726 -3.0201,0.29759 -0.95338,-0.1622 -1.67768,-1.01873 -2.61513,-1.25633 -6.01813,-1.52535 -0.11234,1.37426 -4.6906,-1.15471 -0.34225,-0.45277 -0.61377,-0.96896 -1.02674,-1.35831 -0.30436,-0.28696 -0.80576,-0.31975 -1.08422,-0.6319 -0.28636,-0.32099 -0.42149,-1.54984 -0.44408,-1.9316 -0.0232,-0.39109 0.14007,-0.81136 -0.005,-1.17531 -0.18789,-0.47159 -0.62704,-0.7985 -0.94056,-1.19776 -0.60206,-0.41119 -1.28867,-0.72002 -1.80617,-1.23358 -0.59308,-0.58858 -0.88483,-1.43596 -1.4774,-2.02504 -2.96944,-2.95195 -1.17329,-0.33436 -4.41896,-2.61482 -2.981285,-2.09469 0.42236,-1.14863 -2.819413,-1.73958 -0.222835,-0.16119 -0.420309,-0.36508 -0.668504,-0.48355 -0.191151,-0.0912 -0.613601,-0.0728 -0.662528,0.23446 -0.02915,0.18307 0.332743,0.46435 0.427826,0.55197 0,0 0.152715,-0.1702 0.152715,-0.1702 v 0 c -0.135546,-0.0241 -0.310854,0.0264 -0.406641,-0.0725 -0.06412,-0.0662 0.07862,-0.17248 0.08015,-0.26464 5.29e-4,-0.0332 -0.09929,-0.0436 -0.07467,-0.0659 0.769366,-0.69651 0.562927,-0.46243 1.097645,0.34549 0.440984,0.17591 0.870686,0.38327 1.32295,0.52773 0.67777,0.21649 1.47772,0.14666 2.06156,0.55333 0.66925,0.46616 0.9032,1.37834 1.50383,1.93009 0.64773,0.59501 1.46026,0.98083 2.1936,1.46643 2.80594,1.85805 1.58608,0.74091 3.55955,3.02229 0.33035,0.69719 0.7997,1.61272 1.04117,2.37127 0.0969,0.30457 0.23093,0.61485 0.21637,0.93413 -0.0205,0.45047 -0.5522,0.92877 -0.31891,1.31466 0.52546,0.86918 2.86172,-0.24877 2.34384,1.94698 2.97122,1.57982 0.88736,0.81283 4.72696,1.17777 0.99,0.0941 1.9647,0.34428 2.95828,0.38629 0.9725,0.0411 1.94445,-0.0945 2.91685,-0.13792 2.71716,-0.12132 1.41401,0.0277 3.50371,-0.29008 0.51166,-1.16079 0.4869,-0.49311 -0.52505,-0.78595 -0.33353,-0.0965 -1.02067,-1.33122 -1.44881,0.0198 -0.1062,0.33512 0.67365,0.39048 0.75992,0.73128 0.1678,0.66291 -0.0372,1.36712 -0.0557,2.05068 0.49308,0.71255 0.87706,1.51455 1.47924,2.13764 1.59723,1.65269 3.34141,2.49319 5.38308,3.46352 0.82641,0.39276 1.64212,0.83627 2.52487,1.07704 1.15964,0.3163 2.42531,0.0507 3.57804,0.4483 0,0 -0.0669,0.20602 -0.0669,0.20602 z" />
      <path
         style="fill:#25719e;fill-opacity:1;stroke:#8cc3e3;stroke-width:0.499999;stroke-miterlimit:4;stroke-dasharray:none;stroke-opacity:1"
         id="path23674"
         d="m 125.50064,203.72362 c -1.24389,-0.59999 0.0512,0.1331 -1.25263,-1.11683 -0.30226,-0.28975 -0.71467,-0.45306 -1.00173,-0.75787 -0.27838,-0.2956 -0.39376,-0.71973 -0.67002,-1.01731 -0.23388,-0.25192 -0.57259,-0.38305 -0.83556,-0.60443 -0.17439,-0.14681 -0.31412,-0.33042 -0.47117,-0.49563 -0.95745,-0.28973 -0.22554,0.0894 0.0787,-0.77443 0.0395,-0.11222 -0.23376,0.0629 -0.35254,0.0559 -0.053,-0.003 0.0931,-0.0529 0.14397,-0.0682 0.224,-0.0675 0.11131,0.0906 0.19824,-0.22751 0.3973,-0.39809 5.3e-4,0.10212 -0.37991,-0.40607 -0.18682,-0.24951 -0.0338,-0.72226 -0.29903,-0.88598 -0.46742,-0.28853 -1.09795,-0.12975 -1.62054,-0.29892 -0.57215,-0.1852 -1.09209,-0.50394 -1.63813,-0.75591 -0.66744,-0.21237 -1.33488,-0.42473 -2.00232,-0.6371 -4.80308,-2.1681 1.2811,0.0648 -4.46166,-0.11188 -0.6405,-0.0197 -1.07654,-1.03728 -1.70136,-0.89503 -0.86238,0.19633 -1.24734,1.28123 -2.0043,1.73868 -4.67775,2.82684 1.40892,-2.15441 -2.69293,1.40395 -2.57141,2.92761 0.26431,-0.8643 -0.41706,1.83841 -0.0626,0.24828 -0.52195,0.12732 -0.70396,0.30742 -0.0722,0.0714 0.1987,0.32238 0.10362,0.2866 -0.5121,-0.19273 -0.56543,-0.53219 -0.7451,-0.95622 -0.26549,-0.13643 -0.63198,-0.16021 -0.79646,-0.40929 -0.20116,-0.30463 -0.0393,-0.74509 -0.18644,-1.07918 -0.16051,-0.36446 -0.46627,-0.64597 -0.71151,-0.95975 -0.33113,-0.42368 -0.63162,-0.87725 -1.01719,-1.25208 -1.395213,-1.35637 -2.364898,-1.78266 -4.082835,-2.81389 -2.752272,-1.02471 -3.671294,-1.18549 -6.145273,-2.84191 -0.892765,-0.59774 -1.591294,-1.46638 -2.513243,-2.01804 -1.454763,-0.87047 -3.04964,-0.8622 -4.299071,-2.07481 -0.277241,-0.26908 -0.311156,-0.70728 -0.466733,-1.06091 -0.05562,-0.13191 -0.250381,-0.27948 -0.166849,-0.39573 0.09209,-0.12817 0.318275,0.004 0.472525,-0.0297 0.252658,-0.0547 0.493207,-0.15506 0.739812,-0.23259 0,0 -0.09836,0.2236 -0.09836,0.2236 v 0 c -0.208467,-0.0646 -0.407318,-0.18518 -0.625403,-0.19393 -0.258106,-0.0103 -0.202351,0.84678 -0.382141,0.67417 0.286338,0.22588 0.591783,0.42944 0.85901,0.67763 0.467275,0.434 0.809199,1.01228 1.340408,1.36515 0.772584,0.5132 1.679147,0.7885 2.513026,1.19457 0.982115,0.47827 1.956287,0.97267 2.934756,1.45834 4.081663,2.02598 2.144559,0.887 5.762341,3.33843 7.9228,4.79451 -1.880441,-1.65986 3.460758,3.30158 0.445318,0.41366 1.188262,0.34949 1.682072,0.70385 3.44276,2.47057 -1.817327,-0.53709 0.74979,2.13698 0.27334,0.28473 0.78283,0.10149 1.17425,0.15224 -0.0482,0.2603 -0.12991,0.51658 -0.14453,0.7809 -0.002,0.034 0.0662,0.0216 0.10024,0.0201 0.3117,-0.0134 0.4567,-0.0484 0.59207,-0.435 0.0902,-0.25763 -0.0334,-0.57675 0.10479,-0.81217 0.21482,-0.36606 0.60019,-0.60031 0.90028,-0.90046 0.38233,-0.33643 0.73275,-0.71302 1.14699,-1.00928 1.12736,-0.80627 2.08225,-1.25853 3.44182,-1.56937 0.67105,-0.15342 1.36114,-0.33459 2.04684,-0.27403 0.66901,0.0591 1.24531,0.58472 1.91577,0.62403 0.86926,0.051 1.72489,-0.24 2.58734,-0.36001 2.61975,0.80513 1.43971,0.30092 3.66777,1.48676 0.43277,0.23033 0.87384,0.44586 1.29724,0.69298 0.27233,0.15895 0.62827,0.25181 0.78764,0.52388 0.24726,0.4221 -7.9e-4,0.54505 -0.20592,0.6711 0.0236,0.0862 0.0361,0.17621 0.0707,0.25866 0.0282,0.0675 0.18724,0.1715 0.11565,0.1864 -0.20069,0.0418 -0.4055,-0.10603 -0.60927,-0.0837 -0.0752,0.008 0.14517,0.0664 0.18603,0.13013 0.12448,0.19402 -0.0395,0.51057 0.22505,0.65392 0.6074,0.26796 1.02936,0.36027 1.41724,1.00205 0.22372,0.37016 0.0869,0.964 0.43316,1.22313 0.42339,0.31681 1.04209,0.18043 1.56313,0.27064 0.11679,0.36183 0.13811,0.77004 0.35036,1.08549 0.12237,0.18188 0.38917,0.20192 0.58375,0.30287 0,0 -0.0459,0.0445 -0.0459,0.0445 z" />
      <path
         style="fill:#25719e;fill-opacity:1;stroke:#8cc3e3;stroke-width:0.499999;stroke-miterlimit:4;stroke-dasharray:none;stroke-opacity:1"
         id="path23676"
         d="m 139.65193,195.4698 c -0.2281,-0.14269 -0.50257,-0.22966 -0.6843,-0.42807 -0.12652,-0.13814 -0.87349,-1.60902 -0.96447,-1.73901 -0.17512,-0.2502 -0.46192,-0.41428 -0.6167,-0.67754 -0.2803,-0.47675 -0.18779,-0.80097 -0.14981,-1.29627 -0.0796,-0.0956 -0.21467,-0.16469 -0.23875,-0.2867 -0.0542,-0.27444 0.29494,-0.6171 0.3841,-0.80572 0.34605,-0.73213 0.0896,-0.75112 0.73823,-1.44475 0.27001,-0.28874 0.61753,-0.49372 0.92629,-0.74059 0.42497,-0.70126 1.53819,-0.54123 2.03049,-1.14171 0.13464,-0.16424 -0.0352,-0.42622 -0.01,-0.63706 0.0133,-0.10976 0.0587,-0.21845 0.12404,-0.30764 0.095,-0.12967 0.38835,-0.17979 0.34679,-0.33507 -0.0606,-0.22638 -0.36848,-0.28964 -0.55272,-0.43447 -0.23767,-0.31549 -0.36841,-0.75341 -0.713,-0.94648 -2.79086,-1.56362 -1.19154,0.73431 -3.49073,-1.78688 -4.48056,-4.91319 2.11278,1.54966 -2.02039,-3.61904 -0.41948,-0.52458 -1.07564,-0.80475 -1.61346,-1.20712 -0.21744,-0.54785 -0.49537,-1.0754 -0.65232,-1.64355 -0.50082,-1.81296 -0.7097,-3.76326 -0.39405,-5.63463 0.20397,-1.20929 0.69594,-2.35209 1.06576,-3.52136 1.27085,-4.01802 0.83253,-2.77141 2.46402,-6.40873 0.57281,-0.64966 1.20463,-1.25173 1.71843,-1.949 0.40667,-0.5519 0.67604,-2.05847 1.78854,-1.98213 0.3489,0.0239 0.41133,0.56928 0.65805,0.81713 0.20509,0.20604 0.62329,0.25215 0.68839,0.53549 0.0767,0.33378 -0.22855,0.64571 -0.34283,0.96856 0.098,0.1835 0.35164,0.35067 0.29388,0.5505 -0.0557,0.19271 -0.33289,0.28009 -0.53347,0.27849 -0.0947,-8e-4 0.0921,-0.21032 0.0308,-0.2825 -0.071,-0.0835 -0.27933,0.0392 -0.323,-0.0614 -0.0819,-0.18849 0.0192,-0.41057 0.0288,-0.61586 0,0 0.0744,-0.0255 0.0744,-0.0255 v 0 c 0.058,0.15672 0.12826,0.30943 0.17404,0.47014 0.0904,0.31746 -0.1066,0.68507 0.60928,0.6716 0.35325,-0.007 -1.21604,-0.7349 -0.45249,-0.95851 0.0944,-0.30213 0.30636,-0.59071 0.28317,-0.9064 -0.0654,-0.89001 -0.56764,-0.923 -1.26398,-0.84683 -0.26336,0.0288 -0.5272,0.10579 -0.76024,0.2318 -1.97683,1.06898 -1.51587,0.98558 -2.76428,3.09029 -0.081,1.00749 0.0691,2.06107 -0.24292,3.02245 -0.39743,1.22473 -1.3297,2.21425 -1.84002,3.3964 -1.50674,3.49035 -1.09871,3.15768 -1.14999,6.68534 -0.0127,0.87301 -0.23185,1.75983 -0.0726,2.61828 0.10725,0.57821 0.56366,1.03228 0.84549,1.54842 0.40244,0.52106 0.86114,1.00316 1.20731,1.56319 0.368,0.59535 0.33492,1.50785 0.92431,1.88532 0.73458,0.47044 1.82713,-0.0548 2.59118,0.36611 0.58718,0.32345 0.6491,1.19128 1.11357,1.67468 4.34117,4.51812 -0.66112,-1.72534 2.18521,1.94052 -0.0734,0.2084 -0.18397,0.40726 -0.22026,0.62523 -0.0582,0.34981 0.6444,-0.0762 0.27271,0.56593 -0.12466,0.21537 -0.43323,0.24557 -0.64197,0.38106 -1.02516,0.66539 -0.68366,0.38215 -1.39035,1.39296 -0.31421,0.24435 -0.62875,0.48827 -0.94262,0.73306 -0.29058,0.22661 -0.64612,0.38899 -0.87071,0.68112 -0.009,0.0112 -0.27158,1.03698 -0.3034,1.16501 -0.0338,0.13611 -0.16439,0.28539 -0.0983,0.4091 0.0753,0.14094 0.28664,0.14126 0.42996,0.21188 -0.50017,1.4602 -0.23268,0.004 0.25612,1.21936 0.12399,0.30838 -0.0722,0.71379 0.11132,0.99087 0.20694,0.31238 0.72419,0.30469 0.94667,0.60619 1.8542,2.51275 -1.19841,-0.16676 0.8369,1.48515 0,0 0.1656,-0.11118 0.1656,-0.11118 z" />
    </g>
  </g>
</svg>
