<?xml version="1.0" encoding="UTF-8" standalone="no"?>
<!-- Created with Inkscape (http://www.inkscape.org/) -->

<svg
   width="150"
   height="150"
   viewBox="0 0 39.687499 39.687501"
   version="1.1"
   id="svg5"
   inkscape:version="1.1.1 (3bf5ae0d25, 2021-09-20)"
   sodipodi:docname="zzzz.svg"
   inkscape:export-filename="C:\Users\Clément\Desktop\freepic\res\img/icon.png"
   inkscape:export-xdpi="96"
   inkscape:export-ydpi="96"
   xmlns:inkscape="http://www.inkscape.org/namespaces/inkscape"
   xmlns:sodipodi="http://sodipodi.sourceforge.net/DTD/sodipodi-0.dtd"
   xmlns="http://www.w3.org/2000/svg"
   xmlns:svg="http://www.w3.org/2000/svg">
  <sodipodi:namedview
     id="namedview7"
     pagecolor="#ffffff"
     bordercolor="#666666"
     borderopacity="1.0"
     inkscape:pageshadow="2"
     inkscape:pageopacity="0.0"
     inkscape:pagecheckerboard="true"
     inkscape:document-units="mm"
     showgrid="false"
     units="px"
     inkscape:zoom="3.0289002"
     inkscape:cx="49.192773"
     inkscape:cy="64.214727"
     inkscape:window-width="1920"
     inkscape:window-height="1013"
     inkscape:window-x="-9"
     inkscape:window-y="-9"
     inkscape:window-maximized="1"
     inkscape:current-layer="layer1"
     inkscape:snap-object-midpoints="false"
     inkscape:snap-center="false" />
  <defs
     id="defs2">
    <clipPath
       clipPathUnits="userSpaceOnUse"
       id="clipPath168419-0">
      <path
         style="fill:#d4d591;fill-opacity:1;stroke:#000000;stroke-width:0.264583px;stroke-linecap:butt;stroke-linejoin:miter;stroke-opacity:1"
         d="m 1976.6629,1120.9601 c -14.9756,1.5925 -25.8038,9.2969 -36.1081,17.7735 -10.8363,13.4703 -17.8314,26.9407 -24.1344,40.4111 -5.0825,17.6623 -6.7297,33.8216 -6.174,49.0172 2.96,13.8998 7.3576,26.531 16.2768,35.1727 10.0404,8.8438 23.2314,13.9465 38.9144,16.0897 14.6068,1.5407 26.9047,-0.7669 39.4757,-2.6193 16.4002,-3.4206 25.6399,-12.8083 33.676,-23.199 4.188,-8.0615 7.6011,-17.2853 8.9802,-29.56 0.1671,-11.8575 -2.4879,-24.9245 -4.6772,-37.7919 -3.678,-11.8565 -9.5794,-24.1299 -18.896,-37.0436 -6.3738,-10.6207 -16.705,-17.504 -27.502,-23.9473 -6.0539,-1.7474 -10.1493,-4.5965 -19.8314,-4.3031 z"
         id="path168421-4"
         sodipodi:nodetypes="ccccccccccccc" />
    </clipPath>
    <linearGradient
       x1="-989.37677"
       y1="-3204.3379"
       x2="1175.8552"
       y2="2649.3293"
       gradientUnits="userSpaceOnUse"
       id="color-1"
       gradientTransform="matrix(0.17670732,0,0,0.17670732,-22.688903,-12.005473)">
      <stop
         offset="0"
         stop-color="#2a221e"
         id="stop2" />
      <stop
         offset="1"
         stop-color="#2a221e"
         stop-opacity="0"
         id="stop4" />
    </linearGradient>
    <linearGradient
       x1="-3323.7942"
       y1="-330.77435"
       x2="2849.8162"
       y2="585.84308"
       gradientUnits="userSpaceOnUse"
       id="color-2"
       gradientTransform="matrix(0.17670732,0,0,0.17670732,-22.688903,-12.005473)">
      <stop
         offset="0"
         stop-color="#2a221e"
         id="stop7" />
      <stop
         offset="1"
         stop-color="#2a221e"
         stop-opacity="0"
         id="stop9" />
    </linearGradient>
    <inkscape:path-effect
       effect="skeletal"
       id="path-effect5875"
       is_visible="true"
       lpeversion="1"
       pattern="m -59.479515,-50.845401 c 0,-0.246125 0.199754,-0.445879 0.445879,-0.445879 0.246125,0 0.445879,0.199754 0.445879,0.445879 0,0.246125 -0.199754,0.445879 -0.445879,0.445879 -0.246125,0 -0.445879,-0.199754 -0.445879,-0.445879 z"
       copytype="single_stretched"
       prop_scale="1"
       scale_y_rel="false"
       spacing="0"
       normal_offset="0"
       tang_offset="0"
       prop_units="false"
       vertical_pattern="false"
       hide_knot="false"
       fuse_tolerance="0" />
    <inkscape:path-effect
       effect="skeletal"
       id="path-effect5879"
       is_visible="true"
       lpeversion="1"
       pattern="m -59.479515,-50.845401 c 0,-0.246125 0.199754,-0.445879 0.445879,-0.445879 0.246125,0 0.445879,0.199754 0.445879,0.445879 0,0.246125 -0.199754,0.445879 -0.445879,0.445879 -0.246125,0 -0.445879,-0.199754 -0.445879,-0.445879 z"
       copytype="single_stretched"
       prop_scale="1"
       scale_y_rel="false"
       spacing="0"
       normal_offset="0"
       tang_offset="0"
       prop_units="false"
       vertical_pattern="false"
       hide_knot="false"
       fuse_tolerance="0" />
    <inkscape:path-effect
       effect="skeletal"
       id="path-effect7048"
       is_visible="true"
       lpeversion="1"
       pattern="m -59.352776,-51.183372 c 0,-0.246125 0.199754,-0.445878 0.445879,-0.445878 0.246125,0 0.445879,0.199753 0.445879,0.445878 0,0.246125 -0.199754,0.445879 -0.445879,0.445879 -0.246125,0 -0.445879,-0.199754 -0.445879,-0.445879 z"
       copytype="single_stretched"
       prop_scale="1"
       scale_y_rel="false"
       spacing="0"
       normal_offset="0"
       tang_offset="0"
       prop_units="false"
       vertical_pattern="false"
       hide_knot="false"
       fuse_tolerance="0" />
  </defs>
  <g
     inkscape:label="Calque 1"
     inkscape:groupmode="layer"
     id="layer1">
    <path
       style="fill:#81cd38;fill-opacity:1;stroke:#000000;stroke-width:0.178632;stroke-linecap:butt;stroke-linejoin:miter;stroke-miterlimit:4;stroke-dasharray:none;stroke-opacity:1"
       d="m 13.491615,28.24674 c -0.285021,-0.938901 -1.032277,-1.569645 -1.626484,-2.302422 -0.562787,-0.366152 -1.007203,-0.400866 -1.288512,0.02112 -0.312946,1.189006 0.159446,1.906808 0.359094,2.788257 l 2.365792,5.111804 c 0.347826,0.508163 0.653276,1.028433 0.612571,1.647605 -0.687726,-0.08298 -1.071212,-0.432175 -1.309635,-0.908296 -0.456007,0.818424 -1.218506,1.330355 -2.0067,1.816592 C 10.18209,36.118247 9.623082,35.971478 9.7950621,35.027273 9.393191,35.832323 8.7594301,36.134947 8.0207136,36.210168 7.6378687,35.693763 7.3278343,35.137647 7.5560104,34.287961 c -0.1837145,-0.383412 -0.087191,-0.906945 0.06337,-1.457496 0.3668663,-0.594644 0.457031,-1.576679 0.5491964,-2.555901 0.16837,-0.892643 0.010432,-2.018357 -0.2112328,-3.189597 L 7.2180379,24.550189 c -0.1508819,-0.679561 -0.073954,-1.404684 0.3379725,-2.196808 1.217746,-0.494477 2.4823856,-0.946322 4.3091206,-0.887171 0.542161,2.260177 2.331554,5.964516 1.626484,6.78053 z"
       id="path1729-3"
       sodipodi:nodetypes="cccccccccccccccccc" />
    <path
       style="fill:#81cd38;fill-opacity:1;stroke:#000000;stroke-width:0.178632;stroke-linecap:butt;stroke-linejoin:miter;stroke-miterlimit:4;stroke-dasharray:none;stroke-opacity:1"
       d="M 7.9573438,15.192633 C 7.864446,16.545952 7.3754666,17.635214 7.0701749,18.846937 7.0382801,19.610353 6.4830102,19.804891 6.0140198,20.093205 5.4937976,19.571021 5.1137839,18.938676 5.1479652,17.98089 4.3348841,18.908546 3.322878,19.398554 2.2118559,19.670742 2.2877747,18.925975 2.0111446,18.237168 3.2680111,17.304948 2.3749473,17.605533 1.5032837,17.734917 0.66985639,17.558426 1.1031739,16.389653 1.9300901,15.531619 3.1201481,14.960278 4.1010543,14.525692 4.6540645,13.710755 5.2958282,12.974703 Z"
       id="path3171-8"
       sodipodi:nodetypes="cccccccccc" />
    <path
       style="fill:#81cd38;fill-opacity:1;stroke:#000000;stroke-width:0.178632;stroke-linecap:butt;stroke-linejoin:miter;stroke-miterlimit:4;stroke-dasharray:none;stroke-opacity:1"
       d="M 18.349938,6.59551 C 18.328706,5.9055415 17.784015,5.4773033 16.300993,5.5182289 15.625591,4.9782857 15.099534,4.3433056 12.625565,4.9479048 9.8394594,6.0514002 8.3695738,7.1110217 7.2602844,8.158623 6.2759217,9.4050958 5.4958697,10.607785 5.2958282,11.686189 c -0.104107,1.68937 0.1035889,3.122613 1.5631139,3.527568 0.735108,0.125628 1.5535838,0.06369 2.5136615,-0.316847 0.9787044,-0.510933 1.9574094,-1.330717 2.9361134,-2.112316 1.319865,-2.57701 3.20285,-4.7368937 6.041221,-6.189084 z"
       id="path2585-7"
       sodipodi:nodetypes="ccccccccc" />
    <path
       style="fill:#6eb729;fill-opacity:1;stroke:#000000;stroke-width:0.178632;stroke-linecap:butt;stroke-linejoin:miter;stroke-miterlimit:4;stroke-dasharray:none;stroke-opacity:1"
       d="m 19.161981,5.3398904 c -3.284378,1.1871337 -6.024314,2.8684915 -7.456473,6.0200986 -1.03424,3.24248 -2.1388533,6.466714 -0.211234,10.477083 l 1.520868,5.70325 c -0.772548,3.394005 0.186528,3.881354 0.929419,4.731585 1.709467,1.051775 2.977247,2.292844 4.309122,3.506444 1.113708,0.926261 2.195566,0.833287 3.252968,-0.04225 1.224149,-1.353765 2.71927,-2.673659 4.393613,-3.971151 1.646637,-1.075609 0.547821,-3.281699 0.46471,-5.069558 0.98414,-3.119008 2.191994,-6.140142 2.323547,-9.632158 C 28.762241,13.741969 27.431867,10.69602 24.632877,7.938033 23.265752,6.6220289 21.595483,5.701771 19.161981,5.3398904 Z"
       id="path949"
       sodipodi:nodetypes="cccccccccccc" />
    <path
       style="fill:#81cd38;fill-opacity:1;stroke:#000000;stroke-width:0.178632;stroke-linecap:butt;stroke-linejoin:miter;stroke-miterlimit:4;stroke-dasharray:none;stroke-opacity:1"
       d="m 26.533959,27.624815 c 0.285021,-0.938901 1.032277,-1.569646 1.626483,-2.302423 0.562787,-0.366152 1.007203,-0.400865 1.288512,0.02112 0.312946,1.189005 -0.159446,1.906808 -0.359094,2.788257 l -2.365792,5.111803 c -0.347826,0.508163 -0.653276,1.028434 -0.612571,1.647606 0.687726,-0.08298 1.071212,-0.432176 1.309636,-0.908297 0.456006,0.818424 1.218506,1.330355 2.006699,1.816592 0.415652,-0.303154 0.974659,-0.449923 0.802679,-1.394127 0.401871,0.805049 1.035632,1.107673 1.774349,1.182895 0.382845,-0.516405 0.692879,-1.072522 0.464703,-1.922207 0.183715,-0.383413 0.08719,-0.906946 -0.06337,-1.457497 -0.366866,-0.594643 -0.457031,-1.576678 -0.549196,-2.555901 -0.16837,-0.892643 -0.01043,-2.018357 0.211233,-3.189597 l 0.739306,-2.534777 c 0.150881,-0.679562 0.07395,-1.404684 -0.337973,-2.196808 -1.217746,-0.494478 -2.482386,-0.946322 -4.309121,-0.887172 -0.542161,2.260177 -2.331554,5.964516 -1.626483,6.780531 z"
       id="path1729"
       sodipodi:nodetypes="cccccccccccccccccc" />
    <path
       style="fill:#81cd38;fill-opacity:1;stroke:#000000;stroke-width:0.178632;stroke-linecap:butt;stroke-linejoin:miter;stroke-miterlimit:4;stroke-dasharray:none;stroke-opacity:1"
       d="m 32.06823,14.570707 c 0.0929,1.353319 0.581877,2.442581 0.887169,3.654305 0.03189,0.763415 0.587164,0.957953 1.056155,1.246268 0.520222,-0.522185 0.900236,-1.15453 0.866054,-2.112316 0.813081,0.927656 1.825087,1.417664 2.936109,1.689852 -0.07592,-0.744767 0.200712,-1.433574 -1.056155,-2.365793 0.893064,0.300584 1.764728,0.429968 2.598155,0.253477 -0.433318,-1.168773 -1.260234,-2.026807 -2.450292,-2.598148 -0.980906,-0.434586 -1.533916,-1.249523 -2.17568,-1.985574 z"
       id="path3171"
       sodipodi:nodetypes="cccccccccc" />
    <path
       style="fill:#81cd38;fill-opacity:1;stroke:#000000;stroke-width:0.178632;stroke-linecap:butt;stroke-linejoin:miter;stroke-miterlimit:4;stroke-dasharray:none;stroke-opacity:1"
       d="m 21.675635,5.9735843 c 0.02123,-0.6899685 0.565924,-1.1182066 2.048945,-1.0772811 0.675402,-0.5399432 1.201459,-1.1749233 3.675429,-0.5703241 2.786105,1.1034954 4.255991,2.1631169 5.36528,3.2107182 0.984363,1.2464728 1.764415,2.4491619 1.964456,3.5275657 0.104107,1.68937 -0.103589,3.122613 -1.563114,3.527568 -0.735108,0.125628 -1.553584,0.06369 -2.513661,-0.316847 C 29.674265,13.764051 28.695561,12.944267 27.716856,12.162668 26.396991,9.5856583 24.514007,7.4257746 21.675635,5.9735843 Z"
       id="path2585"
       sodipodi:nodetypes="ccccccccc" />
    <rect
       style="fill:#ffffff;fill-opacity:1;stroke:#000000;stroke-width:0.0893162;stroke-miterlimit:4;stroke-dasharray:none"
       id="rect5062"
       width="1.7320985"
       height="1.4363743"
       x="16.796183"
       y="29.589268"
       ry="0.69427079" />
    <ellipse
       style="fill:#d2350e;fill-opacity:1;stroke:#000000;stroke-width:0;stroke-miterlimit:4;stroke-dasharray:none"
       id="path5392"
       cx="17.609426"
       cy="30.318014"
       rx="0.28516254"
       ry="0.2640394" />
    <rect
       style="fill:#ffffff;fill-opacity:1;stroke:#000000;stroke-width:0.0893162;stroke-miterlimit:4;stroke-dasharray:none"
       id="rect5062-7"
       width="1.7320985"
       height="1.4363743"
       x="21.274296"
       y="29.694883"
       ry="0.69427079" />
    <ellipse
       style="fill:#d2350e;fill-opacity:1;stroke:#000000;stroke-width:0;stroke-miterlimit:4;stroke-dasharray:none"
       id="path5392-0"
       cx="22.08754"
       cy="30.42363"
       rx="0.28516254"
       ry="0.2640394" />
    <path
       style="fill:#549417;fill-opacity:1;stroke:none;stroke-width:0.0236315px;stroke-linecap:butt;stroke-linejoin:miter;stroke-opacity:1"
       d="m 17.619988,8.4872387 c 0.134434,0.1244893 -0.827796,1.5953453 -2.478954,3.6055193 -0.23527,0.289519 -0.491668,0.471702 -0.565356,0.656113 -0.137293,0.250646 -0.196072,0.568372 -0.282946,0.94632 -0.05078,0.203705 -0.05836,0.425815 -0.04706,0.670676 0.02757,0.597157 0.143127,1.175671 0.042,1.871285 0,0 0,0 0,1e-6 -0.21548,1.364985 0.024,2.481026 0.418855,3.299637 0,0 0,1e-6 0,1e-6 0.60539,1.179724 0.610052,1.615258 0.547669,1.708832 -0.06238,0.09357 -0.558802,-0.664619 -1.057689,-1.417393 0,0 0,0 0,0 -0.564014,-0.860045 -0.966566,-2.152637 -0.764045,-3.713249 0,-1e-6 0,-1e-6 0,-1e-6 0.066,-0.473741 -0.05918,-1.047889 -0.07587,-1.718332 -0.0072,-0.290438 0.0084,-0.588031 0.07081,-0.893755 0.08065,-0.375873 0.1799,-0.774264 0.392998,-1.165992 0.23404,-0.381509 0.543426,-0.614067 0.70203,-0.780263 1.700072,-1.8566295 2.963124,-3.1938886 3.097558,-3.0693993 z"
       id="path5873"
       inkscape:path-effect="#path-effect5875"
       inkscape:original-d="m 17.619988,8.4872387 c -0.97724,1.0553084 -1.837995,2.2410043 -2.788256,3.3374593 -0.200857,0.23176 -0.48385,0.443475 -0.633693,0.718188 -0.16275,0.298374 -0.263934,0.722991 -0.337972,1.056156 -0.197671,0.889518 0.118361,1.748498 0,2.577024 -0.187407,1.311866 -0.07005,2.348825 0.59145,3.506444 0.297825,0.521197 0.295919,1.225274 0.802679,1.563113" />
    <path
       style="fill:#549417;fill-opacity:1;stroke:none;stroke-width:0.0236315px;stroke-linecap:butt;stroke-linejoin:miter;stroke-opacity:1"
       d="m 21.802374,8.8674569 c 0.192304,-0.1536116 2.660752,2.1525951 3.966476,5.8692441 0.585962,1.667899 0.728107,3.175518 0.601749,4.456937 0,0 0,1e-6 0,1e-6 -0.06221,0.571604 -0.286429,1.124898 -0.406339,1.438171 -0.371874,0.95532 -0.693368,0.867291 -0.782183,0.867291 -0.08882,0 0.327908,-0.596159 0.316221,-0.991547 0.05189,-0.323039 0.193046,-0.936044 0.185107,-1.350086 0,0 0,0 0,0 0.0042,-1.21042 -0.187328,-2.553592 -0.750306,-4.124283 C 23.686267,11.554562 21.61007,9.0210685 21.802374,8.8674569 Z"
       id="path5877"
       inkscape:path-effect="#path-effect5879"
       inkscape:original-d="m 21.802374,8.8674569 c 2.177099,2.7254821 4.420733,6.5821221 4.224628,10.3080961 -0.02377,0.451567 -0.179793,0.959397 -0.295723,1.394129 -0.105037,0.393891 -0.549202,0.515856 -0.549202,0.929418" />
    <path
       style="fill:#549417;fill-opacity:1;stroke:none;stroke-width:0.0236315px;stroke-linecap:butt;stroke-linejoin:miter;stroke-opacity:1"
       d="m 14.662749,25.470253 c 0.0022,-0.246116 2.245645,-0.552722 5.105495,-0.822899 0.352693,-0.03332 0.695393,-0.05968 1.031318,-0.07781 0.39019,-0.02839 0.801924,-0.06801 1.262802,0.04164 1.947576,0.557293 2.669444,1.491688 2.612758,1.661749 -0.0287,0.08611 -0.355202,0.07234 -0.876736,-0.124978 -0.513656,-0.194341 -1.168796,-0.629077 -1.918032,-0.748049 -0.27425,-0.05992 -0.577327,0.01063 -1.0185,0.04164 -0.333609,0.02983 -0.654514,0.06048 -1.009447,0.0942 -2.820329,0.267914 -5.191851,0.180628 -5.189658,-0.06549 z"
       id="path7046"
       inkscape:path-effect="#path-effect7048"
       inkscape:original-d="m 14.662749,25.470253 c 2.05793,0.01834 4.110573,-0.317752 6.167959,-0.464707 0.361691,-0.02584 0.780844,-0.08303 1.140651,0 0.979569,0.226053 1.799446,0.96595 2.703762,1.267388" />
  </g>
</svg>
