<?xml version="1.0" encoding="UTF-8" standalone="no"?>
<!-- Created with Inkscape (http://www.inkscape.org/) -->

<svg
   width="150"
   height="150"
   viewBox="0 0 39.687499 39.687501"
   version="1.1"
   id="svg5"
   inkscape:version="1.1.1 (3bf5ae0d25, 2021-09-20)"
   sodipodi:docname="shark - Copie.svg"
   inkscape:export-filename="C:\Users\Clément\Desktop\freepic\res\img/icon.png"
   inkscape:export-xdpi="96"
   inkscape:export-ydpi="96"
   xmlns:inkscape="http://www.inkscape.org/namespaces/inkscape"
   xmlns:sodipodi="http://sodipodi.sourceforge.net/DTD/sodipodi-0.dtd"
   xmlns="http://www.w3.org/2000/svg"
   xmlns:svg="http://www.w3.org/2000/svg">
  <sodipodi:namedview
     id="namedview7"
     pagecolor="#ffffff"
     bordercolor="#666666"
     borderopacity="1.0"
     inkscape:pageshadow="2"
     inkscape:pageopacity="0.0"
     inkscape:pagecheckerboard="true"
     inkscape:document-units="mm"
     showgrid="false"
     units="px"
     inkscape:zoom="2.1417558"
     inkscape:cx="19.143172"
     inkscape:cy="89.412621"
     inkscape:window-width="1920"
     inkscape:window-height="1013"
     inkscape:window-x="-9"
     inkscape:window-y="-9"
     inkscape:window-maximized="1"
     inkscape:current-layer="layer1" />
  <defs
     id="defs2">
    <clipPath
       clipPathUnits="userSpaceOnUse"
       id="clipPath168419-0">
      <path
         style="fill:#d4d591;fill-opacity:1;stroke:#000000;stroke-width:0.264583px;stroke-linecap:butt;stroke-linejoin:miter;stroke-opacity:1"
         d="m 1976.6629,1120.9601 c -14.9756,1.5925 -25.8038,9.2969 -36.1081,17.7735 -10.8363,13.4703 -17.8314,26.9407 -24.1344,40.4111 -5.0825,17.6623 -6.7297,33.8216 -6.174,49.0172 2.96,13.8998 7.3576,26.531 16.2768,35.1727 10.0404,8.8438 23.2314,13.9465 38.9144,16.0897 14.6068,1.5407 26.9047,-0.7669 39.4757,-2.6193 16.4002,-3.4206 25.6399,-12.8083 33.676,-23.199 4.188,-8.0615 7.6011,-17.2853 8.9802,-29.56 0.1671,-11.8575 -2.4879,-24.9245 -4.6772,-37.7919 -3.678,-11.8565 -9.5794,-24.1299 -18.896,-37.0436 -6.3738,-10.6207 -16.705,-17.504 -27.502,-23.9473 -6.0539,-1.7474 -10.1493,-4.5965 -19.8314,-4.3031 z"
         id="path168421-4"
         sodipodi:nodetypes="ccccccccccccc" />
    </clipPath>
    <linearGradient
       x1="-989.37677"
       y1="-3204.3379"
       x2="1175.8552"
       y2="2649.3293"
       gradientUnits="userSpaceOnUse"
       id="color-1"
       gradientTransform="matrix(0.17670732,0,0,0.17670732,-22.688903,-12.005473)">
      <stop
         offset="0"
         stop-color="#2a221e"
         id="stop2" />
      <stop
         offset="1"
         stop-color="#2a221e"
         stop-opacity="0"
         id="stop4" />
    </linearGradient>
    <linearGradient
       x1="-3323.7942"
       y1="-330.77435"
       x2="2849.8162"
       y2="585.84308"
       gradientUnits="userSpaceOnUse"
       id="color-2"
       gradientTransform="matrix(0.17670732,0,0,0.17670732,-22.688903,-12.005473)">
      <stop
         offset="0"
         stop-color="#2a221e"
         id="stop7" />
      <stop
         offset="1"
         stop-color="#2a221e"
         stop-opacity="0"
         id="stop9" />
    </linearGradient>
  </defs>
  <g
     inkscape:label="Calque 1"
     inkscape:groupmode="layer"
     id="layer1">
    <g
       id="g1144">
      <path
         d="m 24.118281,6.9113011 3.423664,-4.0474 4.913712,2.5363333 2.776347,3.9686309 -3.423665,4.0474017 z"
         data-paper-data="{&quot;origPos&quot;:null,&quot;index&quot;:null,&quot;origRot&quot;:0}"
         id="path14"
         style="mix-blend-mode:normal;fill:#afafaf;fill-rule:nonzero;stroke:#131313;stroke-width:0.530122;stroke-linecap:butt;stroke-linejoin:miter;stroke-miterlimit:10;stroke-dasharray:none;stroke-dashoffset:0" />
      <path
         d="M 15.431807,32.776328 12.008142,36.823731 7.6340824,34.743887 4.3180829,30.318768 7.7417484,26.271366 Z"
         data-paper-data="{&quot;origPos&quot;:null,&quot;origRot&quot;:0}"
         id="path16"
         style="mix-blend-mode:normal;fill:#afafaf;fill-rule:nonzero;stroke:#131313;stroke-width:0.530122;stroke-linecap:butt;stroke-linejoin:miter;stroke-miterlimit:10;stroke-dasharray:none;stroke-dashoffset:0" />
      <path
         d="m 33.134199,17.047078 5.223219,0.906045 0.297605,5.521684 -2.019091,4.402431 -5.223219,-0.906046 z"
         data-paper-data="{&quot;origPos&quot;:null,&quot;index&quot;:null,&quot;origRot&quot;:0}"
         id="path20"
         style="mix-blend-mode:normal;fill:#afafaf;fill-rule:nonzero;stroke:#131313;stroke-width:0.530122;stroke-linecap:butt;stroke-linejoin:miter;stroke-miterlimit:10;stroke-dasharray:none;stroke-dashoffset:0" />
      <path
         d="M 6.4283146,22.63727 1.2050953,21.731225 0.78668592,16.905972 2.9265833,11.80711 8.1498027,12.713156 Z"
         data-paper-data="{&quot;origPos&quot;:null,&quot;origRot&quot;:0}"
         id="path22"
         style="mix-blend-mode:normal;fill:#afafaf;fill-rule:nonzero;stroke:#131313;stroke-width:0.530122;stroke-linecap:butt;stroke-linejoin:miter;stroke-miterlimit:10;stroke-dasharray:none;stroke-dashoffset:0" />
      <path
         d="m 28.884426,29.946027 1.839103,4.971984 -4.625726,3.029885 -4.821044,0.464412 -1.839103,-4.971984 z"
         data-paper-data="{&quot;origPos&quot;:null,&quot;index&quot;:null}"
         fill="#afafaf"
         stroke="#131313"
         stroke-width="0.530122"
         stroke-linecap="butt"
         id="path26"
         style="mix-blend-mode:normal;fill-rule:nonzero;stroke-linejoin:miter;stroke-miterlimit:10;stroke-dasharray:none;stroke-dashoffset:0" />
      <path
         d="M 10.640611,9.6576652 8.8015081,4.6856812 12.764304,1.9010106 18.24828,1.1913857 l 1.839103,4.971984 z"
         data-paper-data="{&quot;origPos&quot;:null}"
         fill="#afafaf"
         stroke="#131313"
         stroke-width="0.530122"
         stroke-linecap="butt"
         id="path28"
         style="mix-blend-mode:normal;fill-rule:nonzero;stroke-linejoin:miter;stroke-miterlimit:10;stroke-dasharray:none;stroke-dashoffset:0" />
      <path
         d="M 6.1877541,24.870162 C 3.4114842,17.364563 7.2453616,9.0294582 14.750963,6.2531883 c 7.505599,-2.77627 15.840703,1.0576075 18.616974,8.5632087 2.776269,7.505599 -1.057608,15.840704 -8.563209,18.616973 -7.5056,2.776271 -15.8407039,-1.057607 -18.6169739,-8.563208 z"
         data-paper-data="{&quot;origPos&quot;:null}"
         fill="#afafaf"
         stroke="#131313"
         stroke-width="0.530122"
         stroke-linecap="butt"
         id="path30"
         style="mix-blend-mode:normal;fill-rule:nonzero;stroke-linejoin:miter;stroke-miterlimit:10;stroke-dasharray:none;stroke-dashoffset:0" />
      <path
         d="m 12.593672,2.3329716 c 0.387742,-0.2410518 0.911096,-0.5071959 1.32857,-0.5168459 0.531043,-0.012274 1.606221,-0.070921 2.140391,-0.5059007 0.788495,1.0958275 0.354724,-0.55845527 1.388865,0.3091795 C 16.640303,3.007801 13.960493,2.3235337 13.094641,3.5011484 12.432351,4.4019069 11.007766,5.1932836 10.49755,5.9380714 10.042342,6.6025616 10.50465,7.286396 9.8956481,7.0881251 9.8920609,6.7782988 8.9033834,5.265154 9.0828279,4.7030127 9.1599342,4.4614661 10.750646,3.4915939 10.875351,3.2581034 11.356032,3.1068419 11.997118,2.7038343 12.593674,2.3329681 Z"
         fill="url(#color-1)"
         stroke="none"
         stroke-width="0"
         stroke-linecap="butt"
         id="path50"
         style="mix-blend-mode:normal;fill:url(#color-1);fill-rule:nonzero;stroke-linejoin:miter;stroke-miterlimit:10;stroke-dasharray:none;stroke-dashoffset:0" />
      <path
         d="m 1.8729818,14.04616 c 0.2028954,-0.170005 0.825324,-1.926025 1.0458812,-2.051104 0.5132942,-0.29109 2.1972602,0.365685 2.5012162,0.305544 0.3191317,0.555236 -0.445078,0.243311 -1.0018881,0.825309 -0.6241002,0.652327 -1.105967,2.209092 -1.8514704,3.04229 -0.9746399,1.089288 -1.3820139,1.678324 -1.4790863,1.156086 -0.076313,-0.410554 0.07665,-0.977419 0.2329126,-1.406407 0.2404139,-0.660016 0.5031388,-1.370214 0.5524348,-1.871718 z"
         data-paper-data="{&quot;index&quot;:null}"
         fill="url(#color-2)"
         stroke="none"
         stroke-width="0"
         stroke-linecap="butt"
         id="path52"
         style="mix-blend-mode:normal;fill:url(#color-2);fill-rule:nonzero;stroke-linejoin:miter;stroke-miterlimit:10;stroke-dasharray:none;stroke-dashoffset:0" />
    </g>
  </g>
</svg>
