<?xml version="1.0" encoding="UTF-8" standalone="no"?>
<!-- Created with Inkscape (http://www.inkscape.org/) -->

<svg
   width="150"
   height="150"
   viewBox="0 0 39.687499 39.687501"
   version="1.1"
   id="svg5"
   inkscape:version="1.1.1 (3bf5ae0d25, 2021-09-20)"
   sodipodi:docname="zzz - Copie (5).svg"
   inkscape:export-filename="C:\Users\Clément\Desktop\freepic\res\img/icon.png"
   inkscape:export-xdpi="96"
   inkscape:export-ydpi="96"
   xmlns:inkscape="http://www.inkscape.org/namespaces/inkscape"
   xmlns:sodipodi="http://sodipodi.sourceforge.net/DTD/sodipodi-0.dtd"
   xmlns="http://www.w3.org/2000/svg"
   xmlns:svg="http://www.w3.org/2000/svg">
  <sodipodi:namedview
     id="namedview7"
     pagecolor="#ffffff"
     bordercolor="#666666"
     borderopacity="1.0"
     inkscape:pageshadow="2"
     inkscape:pageopacity="0.0"
     inkscape:pagecheckerboard="true"
     inkscape:document-units="mm"
     showgrid="false"
     units="px"
     inkscape:zoom="1.5144501"
     inkscape:cx="1.3206114"
     inkscape:cy="43.250022"
     inkscape:window-width="1920"
     inkscape:window-height="1013"
     inkscape:window-x="-9"
     inkscape:window-y="-9"
     inkscape:window-maximized="1"
     inkscape:current-layer="layer1"
     inkscape:snap-object-midpoints="false"
     inkscape:snap-center="false" />
  <defs
     id="defs2">
    <clipPath
       clipPathUnits="userSpaceOnUse"
       id="clipPath168419-0">
      <path
         style="fill:#d4d591;fill-opacity:1;stroke:#000000;stroke-width:0.264583px;stroke-linecap:butt;stroke-linejoin:miter;stroke-opacity:1"
         d="m 1976.6629,1120.9601 c -14.9756,1.5925 -25.8038,9.2969 -36.1081,17.7735 -10.8363,13.4703 -17.8314,26.9407 -24.1344,40.4111 -5.0825,17.6623 -6.7297,33.8216 -6.174,49.0172 2.96,13.8998 7.3576,26.531 16.2768,35.1727 10.0404,8.8438 23.2314,13.9465 38.9144,16.0897 14.6068,1.5407 26.9047,-0.7669 39.4757,-2.6193 16.4002,-3.4206 25.6399,-12.8083 33.676,-23.199 4.188,-8.0615 7.6011,-17.2853 8.9802,-29.56 0.1671,-11.8575 -2.4879,-24.9245 -4.6772,-37.7919 -3.678,-11.8565 -9.5794,-24.1299 -18.896,-37.0436 -6.3738,-10.6207 -16.705,-17.504 -27.502,-23.9473 -6.0539,-1.7474 -10.1493,-4.5965 -19.8314,-4.3031 z"
         id="path168421-4"
         sodipodi:nodetypes="ccccccccccccc" />
    </clipPath>
    <linearGradient
       x1="-989.37677"
       y1="-3204.3379"
       x2="1175.8552"
       y2="2649.3293"
       gradientUnits="userSpaceOnUse"
       id="color-1"
       gradientTransform="matrix(0.17670732,0,0,0.17670732,-22.688903,-12.005473)">
      <stop
         offset="0"
         stop-color="#2a221e"
         id="stop2" />
      <stop
         offset="1"
         stop-color="#2a221e"
         stop-opacity="0"
         id="stop4" />
    </linearGradient>
    <linearGradient
       x1="-3323.7942"
       y1="-330.77435"
       x2="2849.8162"
       y2="585.84308"
       gradientUnits="userSpaceOnUse"
       id="color-2"
       gradientTransform="matrix(0.17670732,0,0,0.17670732,-22.688903,-12.005473)">
      <stop
         offset="0"
         stop-color="#2a221e"
         id="stop7" />
      <stop
         offset="1"
         stop-color="#2a221e"
         stop-opacity="0"
         id="stop9" />
    </linearGradient>
  </defs>
  <g
     inkscape:label="Calque 1"
     inkscape:groupmode="layer"
     id="layer1">
    <g
       data-paper-data="{&quot;isPaintingLayer&quot;:true}"
       fill="none"
       fill-rule="nonzero"
       stroke="#000000"
       stroke-width="none"
       stroke-linecap="none"
       stroke-linejoin="miter"
       stroke-miterlimit="10"
       stroke-dasharray="none"
       stroke-dashoffset="0"
       font-family="none"
       font-weight="none"
       font-size="none"
       text-anchor="none"
       style="mix-blend-mode:normal"
       id="g3843"
       transform="matrix(0.12689827,0,0,0.12689827,-9.4209326,-2.1081207)"
       inkscape:export-filename="C:\Users\Clément\Desktop\Cloud Chaos\Sprites\items\pistol.png"
       inkscape:export-xdpi="96"
       inkscape:export-ydpi="96">
      <path
         d="m 215.66667,182.30001 c 0,3.86439 3.5036,10.84636 2.20272,11.52602 -0.43363,0.22655 0.9532,0.30731 0.46395,0.30731 -2.57733,0 -12,-6.77072 -12,-11.83333 0,-0.81124 -11.64158,-5.26837 -11.54672,-6.07404 0.28461,-2.41701 12.67098,-3.09263 16.21338,-3.09263 2.57733,0 4.66666,4.10406 4.66666,9.16667 z"
         data-paper-data="{&quot;origPos&quot;:null}"
         fill="#bbbbbb"
         stroke-width="2"
         stroke-linecap="butt"
         id="path3801" />
      <path
         d="m 242.33334,183.30001 c 0,9.84908 -12.38679,17.83333 -27.66667,17.83333 -15.27988,0 -27.66666,-7.98425 -27.66666,-17.83333 0,-9.84908 12.38679,-17.83334 27.66666,-17.83334 15.27988,0 27.66667,7.98425 27.66667,17.83334 z"
         data-paper-data="{&quot;origPos&quot;:null}"
         fill="none"
         stroke-width="3"
         stroke-linecap="butt"
         id="path3803" />
      <path
         d="m 156,125.30001 c 0,6.90356 -9.84974,12.5 -22,12.5 -7.38046,0 -5.04983,-7.62669 -10.84949,-12.19124 C 120.48098,123.50774 112,128.69718 112,125.30001 c 0,-6.90356 9.84973,-12.5 22,-12.5 12.15026,0 22,5.59644 22,12.5 z"
         data-paper-data="{&quot;origPos&quot;:null}"
         fill="#9d9d9d"
         stroke-width="2"
         stroke-linecap="butt"
         id="path3805" />
      <path
         d="m 173,108.30001 c 0,8.56042 -5.14873,15.5 -11.5,15.5 -6.35127,0 -11.5,-6.93958 -11.5,-15.5 0,-8.56042 -2.85127,-16.5 3.5,-16.5 0,0 8.87967,6.50767 11.1274,9.53401 2.71457,3.6549 8.3726,-1.59443 8.3726,6.96599 z"
         data-paper-data="{&quot;origPos&quot;:null}"
         fill="#bbbbbb"
         stroke-width="2"
         stroke-linecap="butt"
         id="path3807" />
      <path
         d="m 360,114.80001 c 0,9.94113 -7.61116,18 -17,18 -9.38884,0 -17,-8.05887 -17,-18 0,-5.25639 10.12795,-6.40916 13.62097,-10.33706 3.63844,-4.09142 8.90382,-8.66294 14.37903,-8.66294 9.38884,0 6,9.05888 6,19 z"
         data-paper-data="{&quot;origPos&quot;:null}"
         fill="#bbbbbb"
         stroke-width="2"
         stroke-linecap="butt"
         id="path3809" />
      <path
         d="m 259,142.80001 v -30 h 124 v 30 z"
         data-paper-data="{&quot;origPos&quot;:null}"
         fill="#bbbbbb"
         stroke-width="2"
         stroke-linecap="butt"
         id="path3811" />
      <path
         d="m 207,172.80001 v -30 h 124 v 30 z"
         data-paper-data="{&quot;origPos&quot;:null}"
         fill="#bbbbbb"
         stroke-width="2"
         stroke-linecap="butt"
         id="path3813" />
      <path
         d="m 97,177.80001 c 0,0 5.9777,-11.54182 16.2374,-22.88034 4.19184,-4.63261 22.7626,-6.87205 22.7626,-13.11966 0,-11.70789 10,-36 10,-36 l 117,2 -1,69 c 0,0 -13.81528,0.0837 -22.65776,0.13732 -10.53986,0.0639 -16.46722,0.0998 -27.00708,0.16368 0,0 -14.63562,0.0887 -24.00316,0.14548 C 160.22938,177.41681 97,177.80002 97,177.80002 Z"
         data-paper-data="{&quot;origPos&quot;:null}"
         fill="#bbbbbb"
         stroke-width="2"
         stroke-linecap="butt"
         id="path3815" />
      <path
         d="m 147,228.80001 c 0,31.48023 6.73352,36 -19.5,36 -26.23352,0 -49.5,-3.51977 -49.5,-35 0,-7.69649 8.60787,-38.07789 10.83563,-45.44492 4.68514,-15.49338 9.50701,-25.59839 24.57146,-31.51934 6.70264,-2.63441 9.89115,13.96426 17.09291,13.96426 0,0 8.52007,9.72257 17.60448,11.45084 6.16775,1.17339 16.42264,-8.35586 20.39609,-3.49482 12.93959,15.83005 -21.50056,22.56375 -21.50056,54.04398 z"
         data-paper-data="{&quot;origPos&quot;:null}"
         fill="#915d24"
         stroke-width="2"
         stroke-linecap="butt"
         id="path3817" />
      <path
         d="m 186,160.80001 c 0,0 -15.33334,-11.86141 -15.33334,-19.66667 0,-5.85394 15.33334,-15.33333 15.33334,-15.33333 h 50 v 35 z"
         data-paper-data="{&quot;origPos&quot;:null}"
         fill="#9d9d9d"
         stroke-width="2"
         stroke-linecap="butt"
         id="path3819" />
      <path
         d="m 186,126.13334 1,33.33333"
         fill="none"
         stroke-width="2"
         stroke-linecap="round"
         id="path3821" />
      <path
         d="m 208.33334,141.46667 c 0,0 -2.33334,-3.04869 -2.33334,-5 0,-1.30087 2.33334,-3.33334 2.33334,-3.33334 H 235 v 8.33334 z"
         data-paper-data="{&quot;origPos&quot;:null}"
         fill="#6d6d6d"
         stroke-width="2"
         stroke-linecap="butt"
         id="path3823" />
      <path
         d="m 208.66667,154.46667 c 0,0 -2.33334,-3.04869 -2.33334,-5 0,-1.30087 2.33334,-3.33334 2.33334,-3.33334 h 26.66666 v 8.33334 z"
         data-paper-data="{&quot;origPos&quot;:null}"
         fill="#6d6d6d"
         stroke-width="2"
         stroke-linecap="butt"
         id="path3825" />
      <path
         d="m 190.66667,140.80001 v -6.66667 c 0,0 2.17878,-2 4,-2 1.17079,0 3.66667,2 3.66667,2 v 6.66667 z"
         data-paper-data="{&quot;origPos&quot;:null}"
         fill="#6d6d6d"
         stroke-width="1"
         stroke-linecap="butt"
         id="path3827" />
      <path
         d="m 191,155.13334 v -6.66667 c 0,0 2.17878,-2 4,-2 1.17079,0 3.66667,2 3.66667,2 v 6.66667 z"
         data-paper-data="{&quot;origPos&quot;:null}"
         fill="#6d6d6d"
         stroke-width="1"
         stroke-linecap="butt"
         id="path3829" />
      <path
         d="m 106.66667,186.76667 18.5,26"
         data-paper-data="{&quot;origPos&quot;:null}"
         fill="none"
         stroke-width="1"
         stroke-linecap="round"
         id="path3831" />
      <path
         d="m 100.16667,191.76667 18.5,26"
         data-paper-data="{&quot;origPos&quot;:null}"
         fill="none"
         stroke-width="1"
         stroke-linecap="round"
         id="path3833" />
      <path
         d="m 95.16667,204.76667 18.5,26"
         data-paper-data="{&quot;origPos&quot;:null}"
         fill="none"
         stroke-width="1"
         stroke-linecap="round"
         id="path3835" />
      <path
         d="m 91.16667,220.76667 18.5,26"
         data-paper-data="{&quot;origPos&quot;:null}"
         fill="none"
         stroke-width="1"
         stroke-linecap="round"
         id="path3837" />
      <path
         d="M 119.93274,191.22507 97.90059,214.30828"
         data-paper-data="{&quot;origPos&quot;:null,&quot;origRot&quot;:0}"
         fill="none"
         stroke-width="1"
         stroke-linecap="round"
         id="path3839" />
      <path
         d="M 114.93274,219.72507 92.90059,242.80828"
         data-paper-data="{&quot;origPos&quot;:null,&quot;origRot&quot;:0}"
         fill="none"
         stroke-width="1"
         stroke-linecap="round"
         id="path3841" />
    </g>
  </g>
</svg>
