<?xml version="1.0" encoding="UTF-8" standalone="no"?>
<!-- Created with Inkscape (http://www.inkscape.org/) -->

<svg
   width="150"
   height="150"
   viewBox="0 0 39.687499 39.687501"
   version="1.1"
   id="svg5"
   inkscape:version="1.1.1 (3bf5ae0d25, 2021-09-20)"
   sodipodi:docname="zzz - Copie (7).svg"
   inkscape:export-filename="C:\Users\Clément\Desktop\freepic\res\img/icon.png"
   inkscape:export-xdpi="96"
   inkscape:export-ydpi="96"
   xmlns:inkscape="http://www.inkscape.org/namespaces/inkscape"
   xmlns:sodipodi="http://sodipodi.sourceforge.net/DTD/sodipodi-0.dtd"
   xmlns="http://www.w3.org/2000/svg"
   xmlns:svg="http://www.w3.org/2000/svg">
  <sodipodi:namedview
     id="namedview7"
     pagecolor="#ffffff"
     bordercolor="#666666"
     borderopacity="1.0"
     inkscape:pageshadow="2"
     inkscape:pageopacity="0.0"
     inkscape:pagecheckerboard="true"
     inkscape:document-units="mm"
     showgrid="false"
     units="px"
     inkscape:zoom="2.1417559"
     inkscape:cx="130.73385"
     inkscape:cy="66.534194"
     inkscape:window-width="1920"
     inkscape:window-height="1013"
     inkscape:window-x="-9"
     inkscape:window-y="-9"
     inkscape:window-maximized="1"
     inkscape:current-layer="layer1"
     inkscape:snap-object-midpoints="false"
     inkscape:snap-center="false" />
  <defs
     id="defs2">
    <clipPath
       clipPathUnits="userSpaceOnUse"
       id="clipPath168419-0">
      <path
         style="fill:#d4d591;fill-opacity:1;stroke:#000000;stroke-width:0.264583px;stroke-linecap:butt;stroke-linejoin:miter;stroke-opacity:1"
         d="m 1976.6629,1120.9601 c -14.9756,1.5925 -25.8038,9.2969 -36.1081,17.7735 -10.8363,13.4703 -17.8314,26.9407 -24.1344,40.4111 -5.0825,17.6623 -6.7297,33.8216 -6.174,49.0172 2.96,13.8998 7.3576,26.531 16.2768,35.1727 10.0404,8.8438 23.2314,13.9465 38.9144,16.0897 14.6068,1.5407 26.9047,-0.7669 39.4757,-2.6193 16.4002,-3.4206 25.6399,-12.8083 33.676,-23.199 4.188,-8.0615 7.6011,-17.2853 8.9802,-29.56 0.1671,-11.8575 -2.4879,-24.9245 -4.6772,-37.7919 -3.678,-11.8565 -9.5794,-24.1299 -18.896,-37.0436 -6.3738,-10.6207 -16.705,-17.504 -27.502,-23.9473 -6.0539,-1.7474 -10.1493,-4.5965 -19.8314,-4.3031 z"
         id="path168421-4"
         sodipodi:nodetypes="ccccccccccccc" />
    </clipPath>
    <linearGradient
       x1="-989.37677"
       y1="-3204.3379"
       x2="1175.8552"
       y2="2649.3293"
       gradientUnits="userSpaceOnUse"
       id="color-1"
       gradientTransform="matrix(0.17670732,0,0,0.17670732,-22.688903,-12.005473)">
      <stop
         offset="0"
         stop-color="#2a221e"
         id="stop2" />
      <stop
         offset="1"
         stop-color="#2a221e"
         stop-opacity="0"
         id="stop4" />
    </linearGradient>
    <linearGradient
       x1="-3323.7942"
       y1="-330.77435"
       x2="2849.8162"
       y2="585.84308"
       gradientUnits="userSpaceOnUse"
       id="color-2"
       gradientTransform="matrix(0.17670732,0,0,0.17670732,-22.688903,-12.005473)">
      <stop
         offset="0"
         stop-color="#2a221e"
         id="stop7" />
      <stop
         offset="1"
         stop-color="#2a221e"
         stop-opacity="0"
         id="stop9" />
    </linearGradient>
  </defs>
  <g
     inkscape:label="Calque 1"
     inkscape:groupmode="layer"
     id="layer1">
    <g
       id="g114074-1-90"
       transform="matrix(0.18887766,0,0,0.18887766,-280.70545,-153.87996)"
       inkscape:export-filename="C:\Users\Clément\Desktop\allCollectibles.png"
       inkscape:export-xdpi="96"
       inkscape:export-ydpi="96">
      <path
         id="path147329-5-05"
         style="opacity:1;fill:#f8c47f;stroke:#3d3d3d;stroke-width:0.499999"
         inkscape:transform-center-x="1.1823443"
         inkscape:transform-center-y="0.43205387"
         d="m 1551.9257,974.13849 c -1.7276,2.33057 -12.1469,-3.01263 -10.3546,-7.59228 0.3276,-0.83698 11.0277,-5.70269 11.7524,-5.1712 0.7249,0.53143 -0.8625,12.04145 -1.3978,12.76348 z"
         sodipodi:nodetypes="ssss"
         inkscape:export-filename="C:\Users\Clément\Desktop/harpe.png"
         inkscape:export-xdpi="96"
         inkscape:export-ydpi="96" />
      <path
         style="fill:#ae5327;fill-opacity:1;stroke:#000000;stroke-width:0.264583px;stroke-linecap:butt;stroke-linejoin:miter;stroke-opacity:1"
         d="m 1528.5651,818.68694 c -0.7169,0.18119 -1.5333,0.11334 -1.9182,1.12448 0.5308,10.64287 2.9306,20.60612 5.3578,30.55938 16.9562,6.19176 33.6434,15.25346 50.9313,17.90768 10.6408,1.22055 20.8762,1.15722 30.0277,-2.3386 5.9006,-1.71719 11.0602,-4.47187 16.3703,-7.01585 3.4159,-0.0729 5.5463,1.42538 7.39,3.27406 l 2.8063,5.51913 c 0.4457,5.22805 0.3164,10.09918 -1.7773,13.75101 l 11.5059,3.27406 c 3.1384,-6.17942 3.8359,-13.57925 4.9579,-20.76686 0.8942,-3.60296 0.442,-8.10355 -1.3096,-13.47038 -1.2707,-5.18178 -6.2526,-9.01403 -11.3189,-12.81557 -4.5041,-1.65944 -8.0459,-4.01877 -14.3123,-4.39659 -1.5249,4.37579 -3.5331,8.44408 -8.8867,10.38342 -4.4991,3.27321 -11.3514,3.33743 -17.6799,4.11596 -9.3651,1.14358 -19.3124,-3.33947 -29.1858,-7.10938 -14.7106,-6.41948 -28.7399,-14.42862 -42.9585,-21.99595 z"
         id="path126495-2-0"
         sodipodi:nodetypes="cccccccccccccccccc"
         inkscape:export-filename="C:\Users\Clément\Desktop/harpe.png"
         inkscape:export-xdpi="96"
         inkscape:export-ydpi="96" />
      <path
         style="fill:#94462e;fill-opacity:1;stroke:#000000;stroke-width:0.264583px;stroke-linecap:butt;stroke-linejoin:miter;stroke-opacity:1"
         d="m 1534.9482,851.42913 4.2664,41.67187 9.6713,40.00371 c 7.2654,21.09938 16.121,41.1386 26.3795,60.24255 l 8.3254,-1.02899 3.5547,6.08036 0.2806,-5.79974 -8.5125,-10.10277 c -4.2091,-8.37912 -9.0176,-16.41573 -11.5995,-25.7247 -3.2742,-7.88872 -5.5381,-16.78782 -7.5771,-25.91178 l -6.0804,-31.2438 -3.9288,-43.31102 z"
         id="path126497-7-0"
         sodipodi:nodetypes="ccccccccccccc"
         inkscape:export-filename="C:\Users\Clément\Desktop/harpe.png"
         inkscape:export-xdpi="96"
         inkscape:export-ydpi="96" />
      <path
         style="fill:#94462e;fill-opacity:1;stroke:#000000;stroke-width:0.264583px;stroke-linecap:butt;stroke-linejoin:miter;stroke-opacity:1"
         d="m 1629.4706,858.93668 3.5057,3.10886 c 0.7766,1.62362 1.8057,3.12102 1.7529,5.15937 0,2.47401 0.3065,4.98275 -0.43,7.37526 l -1.1575,5.55625 4.8286,1.42214 1.6206,-5.85391 0.033,-7.5737 -2.712,-5.75469 -4.2995,-3.0427 z"
         id="path126503-9-96"
         sodipodi:nodetypes="ccccccccccc"
         inkscape:export-filename="C:\Users\Clément\Desktop/harpe.png"
         inkscape:export-xdpi="96"
         inkscape:export-ydpi="96" />
      <path
         style="fill:#94462e;fill-opacity:1;stroke:#000000;stroke-width:0.264583px;stroke-linecap:butt;stroke-linejoin:miter;stroke-opacity:1"
         d="m 1640.0448,882.07627 -52.9461,139.05363 22.4974,1.9644 41.5103,-137.74397 z"
         id="path126505-3-6"
         inkscape:export-filename="C:\Users\Clément\Desktop/harpe.png"
         inkscape:export-xdpi="96"
         inkscape:export-ydpi="96" />
      <path
         style="fill:#f8c47f;fill-opacity:1;stroke:#000000;stroke-width:0.264583px;stroke-linecap:butt;stroke-linejoin:miter;stroke-opacity:1"
         d="m 1640.0214,882.12304 -8.3254,-2.59585 -48.8582,107.63319 c 1.2706,2.13871 3.7476,4.27743 3.8034,6.41614 l -0.43,5.02709 -1.1906,6.21769 2.2489,15.3789 z"
         id="path126507-9-9"
         sodipodi:nodetypes="cccccccc"
         inkscape:export-filename="C:\Users\Clément\Desktop/harpe.png"
         inkscape:export-xdpi="96"
         inkscape:export-ydpi="96" />
      <path
         style="fill:none;stroke:#ae5327;stroke-width:1;stroke-linecap:butt;stroke-linejoin:miter;stroke-miterlimit:4;stroke-dasharray:none;stroke-opacity:1"
         d="m 1635.8821,880.90697 -50.5607,116.50946"
         id="path126509-2-3"
         sodipodi:nodetypes="cc"
         inkscape:export-filename="C:\Users\Clément\Desktop/harpe.png"
         inkscape:export-xdpi="96"
         inkscape:export-ydpi="96" />
      <path
         style="fill:none;stroke:#000000;stroke-width:0.5;stroke-linecap:butt;stroke-linejoin:miter;stroke-miterlimit:4;stroke-dasharray:none;stroke-opacity:1"
         d="M 1587.8979,992.58434 1536.8333,838.06767"
         id="path126511-9-4"
         inkscape:export-filename="C:\Users\Clément\Desktop/harpe.png"
         inkscape:export-xdpi="96"
         inkscape:export-ydpi="96" />
      <path
         style="fill:none;stroke:#000000;stroke-width:0.5;stroke-linecap:butt;stroke-linejoin:miter;stroke-miterlimit:4;stroke-dasharray:none;stroke-opacity:1"
         d="M 1593.0573,980.01663 1552.5761,846.93121"
         id="path126513-2-9"
         inkscape:export-filename="C:\Users\Clément\Desktop/harpe.png"
         inkscape:export-xdpi="96"
         inkscape:export-ydpi="96" />
      <path
         style="fill:none;stroke:#000000;stroke-width:0.5;stroke-linecap:butt;stroke-linejoin:miter;stroke-miterlimit:4;stroke-dasharray:none;stroke-opacity:1"
         d="m 1572.2875,854.60413 28.4427,108.87604"
         id="path126515-7-8"
         inkscape:export-filename="C:\Users\Clément\Desktop/harpe.png"
         inkscape:export-xdpi="96"
         inkscape:export-ydpi="96" />
      <path
         style="fill:none;stroke:#000000;stroke-width:0.5;stroke-linecap:butt;stroke-linejoin:miter;stroke-miterlimit:4;stroke-dasharray:none;stroke-opacity:1"
         d="m 1606.5511,949.32496 -20.5053,-90.61979"
         id="path126517-1-8"
         inkscape:export-filename="C:\Users\Clément\Desktop/harpe.png"
         inkscape:export-xdpi="96"
         inkscape:export-ydpi="96" />
      <path
         style="fill:none;stroke:#000000;stroke-width:0.5;stroke-linecap:butt;stroke-linejoin:miter;stroke-miterlimit:4;stroke-dasharray:none;stroke-opacity:1"
         d="m 1615.4146,929.7458 -14.4198,-70.77605"
         id="path126519-4-4"
         inkscape:export-filename="C:\Users\Clément\Desktop/harpe.png"
         inkscape:export-xdpi="96"
         inkscape:export-ydpi="96" />
      <path
         style="fill:none;stroke:#000000;stroke-width:0.5;stroke-linecap:butt;stroke-linejoin:miter;stroke-miterlimit:4;stroke-dasharray:none;stroke-opacity:1"
         d="m 1621.5,914.53225 -8.7312,-55.69479"
         id="path126521-4-2"
         inkscape:export-filename="C:\Users\Clément\Desktop/harpe.png"
         inkscape:export-xdpi="96"
         inkscape:export-ydpi="96" />
      <path
         style="fill:none;stroke:#000000;stroke-width:0.5;stroke-linecap:butt;stroke-linejoin:miter;stroke-miterlimit:4;stroke-dasharray:none;stroke-opacity:1"
         d="m 1630.4958,892.43955 -5.027,-38.1"
         id="path126523-6-0"
         inkscape:export-filename="C:\Users\Clément\Desktop/harpe.png"
         inkscape:export-xdpi="96"
         inkscape:export-ydpi="96" />
      <circle
         style="opacity:1;fill:#000000;fill-opacity:1;stroke:#000000;stroke-width:0;stroke-miterlimit:4;stroke-dasharray:none;stroke-opacity:1"
         id="circle126525-4-7"
         cx="1536.4889"
         cy="837.36206"
         r="0.84189898"
         inkscape:export-filename="C:\Users\Clément\Desktop/harpe.png"
         inkscape:export-xdpi="96"
         inkscape:export-ydpi="96" />
      <circle
         style="fill:#000000;fill-opacity:1;stroke:#000000;stroke-width:0;stroke-miterlimit:4;stroke-dasharray:none;stroke-opacity:1"
         id="circle126527-8-1"
         cx="1552.8591"
         cy="846.66974"
         r="0.84189898"
         inkscape:export-filename="C:\Users\Clément\Desktop/harpe.png"
         inkscape:export-xdpi="96"
         inkscape:export-ydpi="96" />
      <circle
         style="fill:#000000;fill-opacity:1;stroke:#000000;stroke-width:0;stroke-miterlimit:4;stroke-dasharray:none;stroke-opacity:1"
         id="circle126529-6-3"
         cx="1572.4098"
         cy="854.66779"
         r="0.84189898"
         inkscape:export-filename="C:\Users\Clément\Desktop/harpe.png"
         inkscape:export-xdpi="96"
         inkscape:export-ydpi="96" />
      <circle
         style="fill:#000000;fill-opacity:1;stroke:#000000;stroke-width:0;stroke-miterlimit:4;stroke-dasharray:none;stroke-opacity:1"
         id="circle126531-9-2"
         cx="1586.0205"
         cy="858.64343"
         r="0.84189898"
         inkscape:export-filename="C:\Users\Clément\Desktop/harpe.png"
         inkscape:export-xdpi="96"
         inkscape:export-ydpi="96" />
      <circle
         style="fill:#000000;fill-opacity:1;stroke:#000000;stroke-width:0;stroke-miterlimit:4;stroke-dasharray:none;stroke-opacity:1"
         id="circle126533-7-5"
         cx="1601.1747"
         cy="858.87726"
         r="0.84189898"
         inkscape:export-filename="C:\Users\Clément\Desktop/harpe.png"
         inkscape:export-xdpi="96"
         inkscape:export-ydpi="96" />
      <circle
         style="fill:#000000;fill-opacity:1;stroke:#000000;stroke-width:0;stroke-miterlimit:4;stroke-dasharray:none;stroke-opacity:1"
         id="circle126535-1-0"
         cx="1612.7742"
         cy="858.54987"
         r="0.84189898"
         inkscape:export-filename="C:\Users\Clément\Desktop/harpe.png"
         inkscape:export-xdpi="96"
         inkscape:export-ydpi="96" />
      <circle
         style="fill:#000000;fill-opacity:1;stroke:#3d3d3d;stroke-width:0;stroke-miterlimit:4;stroke-dasharray:none;stroke-opacity:1"
         id="circle126537-6-5"
         cx="1625.6366"
         cy="854.34039"
         r="0.84189898"
         inkscape:export-filename="C:\Users\Clément\Desktop/harpe.png"
         inkscape:export-xdpi="96"
         inkscape:export-ydpi="96" />
      <path
         style="fill:#a14d2b;fill-opacity:1;stroke:#000000;stroke-width:0.264583px;stroke-linecap:butt;stroke-linejoin:miter;stroke-opacity:1"
         d="m 1576.4878,997.74371 c -0.5329,0.82689 -1.0807,1.51891 -1.5545,2.87739 -0.3251,3.2063 0.045,5.0277 0.066,7.5406 0.5702,-0.1159 1.3202,0.102 1.4883,-0.7607 0,0 1.8851,-5.8539 1.5213,-6.0854 -0.3638,-0.2315 -1.5213,-3.57189 -1.5213,-3.57189 z"
         id="path126501-8-5"
         sodipodi:nodetypes="ccccscc"
         inkscape:export-filename="C:\Users\Clément\Desktop/harpe.png"
         inkscape:export-xdpi="96"
         inkscape:export-ydpi="96" />
      <path
         style="fill:#ae5327;fill-opacity:1;stroke:#000000;stroke-width:0.264583px;stroke-linecap:butt;stroke-linejoin:miter;stroke-opacity:1"
         d="m 1575.2641,993.31194 c 0.7319,2.72809 1.0568,5.49689 1.356,8.26826 l -0.43,4.0349 -0.9591,2.7781 c 0.09,0.5898 0.6032,0.9257 1.1245,1.2568 l 3.4396,0.066 2.0836,-0.5953 c 1.3138,-0.6705 2.5206,-1.4481 3.4395,-2.5135 l -0.2976,-1.7529 1.408,-7.98606 -2.8301,-4.64781 z"
         id="path126499-5-9"
         sodipodi:nodetypes="cccccccccccc"
         inkscape:export-filename="C:\Users\Clément\Desktop/harpe.png"
         inkscape:export-xdpi="96"
         inkscape:export-ydpi="96" />
    </g>
  </g>
</svg>
