<?xml version="1.0" encoding="UTF-8" standalone="no"?>
<!-- Created with Inkscape (http://www.inkscape.org/) -->

<svg
   width="150"
   height="150"
   viewBox="0 0 39.687499 39.687501"
   version="1.1"
   id="svg5"
   inkscape:version="1.1.1 (3bf5ae0d25, 2021-09-20)"
   sodipodi:docname="zzz - Copie (10).svg"
   inkscape:export-filename="C:\Users\Clément\Desktop\freepic\res\img/icon.png"
   inkscape:export-xdpi="96"
   inkscape:export-ydpi="96"
   xmlns:inkscape="http://www.inkscape.org/namespaces/inkscape"
   xmlns:sodipodi="http://sodipodi.sourceforge.net/DTD/sodipodi-0.dtd"
   xmlns:xlink="http://www.w3.org/1999/xlink"
   xmlns="http://www.w3.org/2000/svg"
   xmlns:svg="http://www.w3.org/2000/svg">
  <sodipodi:namedview
     id="namedview7"
     pagecolor="#ffffff"
     bordercolor="#666666"
     borderopacity="1.0"
     inkscape:pageshadow="2"
     inkscape:pageopacity="0.0"
     inkscape:pagecheckerboard="true"
     inkscape:document-units="mm"
     showgrid="false"
     units="px"
     inkscape:zoom="2.1417559"
     inkscape:cx="34.084183"
     inkscape:cy="37.119076"
     inkscape:window-width="1920"
     inkscape:window-height="1013"
     inkscape:window-x="-9"
     inkscape:window-y="-9"
     inkscape:window-maximized="1"
     inkscape:current-layer="layer1"
     inkscape:snap-object-midpoints="false"
     inkscape:snap-center="false" />
  <defs
     id="defs2">
    <clipPath
       clipPathUnits="userSpaceOnUse"
       id="clipPath168419-0">
      <path
         style="fill:#d4d591;fill-opacity:1;stroke:#000000;stroke-width:0.264583px;stroke-linecap:butt;stroke-linejoin:miter;stroke-opacity:1"
         d="m 1976.6629,1120.9601 c -14.9756,1.5925 -25.8038,9.2969 -36.1081,17.7735 -10.8363,13.4703 -17.8314,26.9407 -24.1344,40.4111 -5.0825,17.6623 -6.7297,33.8216 -6.174,49.0172 2.96,13.8998 7.3576,26.531 16.2768,35.1727 10.0404,8.8438 23.2314,13.9465 38.9144,16.0897 14.6068,1.5407 26.9047,-0.7669 39.4757,-2.6193 16.4002,-3.4206 25.6399,-12.8083 33.676,-23.199 4.188,-8.0615 7.6011,-17.2853 8.9802,-29.56 0.1671,-11.8575 -2.4879,-24.9245 -4.6772,-37.7919 -3.678,-11.8565 -9.5794,-24.1299 -18.896,-37.0436 -6.3738,-10.6207 -16.705,-17.504 -27.502,-23.9473 -6.0539,-1.7474 -10.1493,-4.5965 -19.8314,-4.3031 z"
         id="path168421-4"
         sodipodi:nodetypes="ccccccccccccc" />
    </clipPath>
    <linearGradient
       x1="-989.37677"
       y1="-3204.3379"
       x2="1175.8552"
       y2="2649.3293"
       gradientUnits="userSpaceOnUse"
       id="color-1"
       gradientTransform="matrix(0.17670732,0,0,0.17670732,-22.688903,-12.005473)">
      <stop
         offset="0"
         stop-color="#2a221e"
         id="stop2" />
      <stop
         offset="1"
         stop-color="#2a221e"
         stop-opacity="0"
         id="stop4" />
    </linearGradient>
    <linearGradient
       x1="-3323.7942"
       y1="-330.77435"
       x2="2849.8162"
       y2="585.84308"
       gradientUnits="userSpaceOnUse"
       id="color-2"
       gradientTransform="matrix(0.17670732,0,0,0.17670732,-22.688903,-12.005473)">
      <stop
         offset="0"
         stop-color="#2a221e"
         id="stop7" />
      <stop
         offset="1"
         stop-color="#2a221e"
         stop-opacity="0"
         id="stop9" />
    </linearGradient>
    <linearGradient
       inkscape:collect="always"
       xlink:href="#linearGradient12878"
       id="linearGradient130289"
       gradientUnits="userSpaceOnUse"
       gradientTransform="translate(197.90833,-289.45416)"
       x1="569.51685"
       y1="1215.7998"
       x2="682.8197"
       y2="1215.7998" />
    <linearGradient
       inkscape:collect="always"
       id="linearGradient12878">
      <stop
         style="stop-color:#d19b50;stop-opacity:1;"
         offset="0"
         id="stop12874" />
      <stop
         style="stop-color:#ecc58f;stop-opacity:1"
         offset="0.47477314"
         id="stop13202" />
      <stop
         style="stop-color:#d19b50;stop-opacity:1"
         offset="1"
         id="stop12876" />
    </linearGradient>
    <linearGradient
       inkscape:collect="always"
       xlink:href="#linearGradient151057"
       id="linearGradient130291"
       gradientUnits="userSpaceOnUse"
       gradientTransform="translate(197.90833,-289.45416)"
       x1="589.87805"
       y1="1210.7505"
       x2="660.84918"
       y2="1210.7505" />
    <linearGradient
       inkscape:collect="always"
       id="linearGradient151057">
      <stop
         style="stop-color:#4dddff;stop-opacity:1;"
         offset="0"
         id="stop151053" />
      <stop
         style="stop-color:#a9eafa;stop-opacity:1"
         offset="1"
         id="stop151055" />
    </linearGradient>
  </defs>
  <g
     inkscape:label="Calque 1"
     inkscape:groupmode="layer"
     id="layer1">
    <g
       id="g79233-8-7"
       transform="matrix(0.2798383,0,0,0.2798383,-211.21638,-239.05023)"
       inkscape:export-filename="C:\Users\Clément\Desktop\allCollectibles.png"
       inkscape:export-xdpi="96"
       inkscape:export-ydpi="96">
      <path
         style="fill:url(#linearGradient130289);fill-opacity:1;stroke:#000000;stroke-width:1;stroke-linecap:butt;stroke-linejoin:miter;stroke-miterlimit:4;stroke-dasharray:none;stroke-opacity:1"
         d="m 817.73307,859.64441 c -6.15048,1.1272 -17.27907,6.3102 -17.02507,6.361 -7.18318,8.6109 -13.24223,17.7835 -16.65089,28.6245 -4.11464,0.2199 -6.03414,3.1838 -8.2319,5.7998 -0.77153,-2.9426 -0.32723,-5.2774 -3.36759,-9.3544 -3.53342,1.774 -3.39845,4.7708 -4.11596,7.4835 l 4.67722,8.9803 3.1805,5.0513 -4.86431,7.8578 -3.74176,4.8643 c 0.62868,2.5653 1.41252,5.0065 4.49014,5.6126 3.1564,-0.1588 6.19005,-0.8085 8.60607,-3.9288 l 4.30303,17.2121 c 5.50022,9.3817 11.34783,18.3581 18.33469,26.0054 l 10.66406,7.4835 -6.17394,8.419 c 4.23101,3.9565 10.47998,5.3906 16.65089,6.9223 6.60445,-0.7564 12.65235,-2.2549 17.02509,-5.9869 l -6.9223,-9.9157 c 6.98807,-6.3576 15.14216,-11.5492 20.57977,-19.4572 6.21626,-8.4789 9.09058,-19.3883 12.72201,-29.7471 l 6.9223,5.2385 c 1.91386,-0.9742 4.29393,-1.016 5.05137,-4.303 l 0.18711,-10.2899 c -1.02232,-1.8998 -3.47173,-4.2754 -6.7352,-6.9223 l 7.10938,-4.4901 c 0.54052,-3.9364 2.17935,-7.1738 0.18708,-12.722 -0.69907,-3.3739 -3.49834,-5.0295 -6.92229,-6.174 -1.33383,3.1182 -1.13517,6.2363 -0.74835,9.3545 l -4.67722,-0.3742 c -4.15689,-9.5578 -9.18944,-18.1306 -15.34126,-25.4441 -4.75087,-3.8121 -9.72918,-7.5332 -15.71545,-10.8511 -6.41033,-1.794 -12.80504,-3.869 -19.45722,-1.3096 z"
         id="path42291-2-0"
         sodipodi:nodetypes="ccccccccccccccccccccccccccccccccc" />
      <path
         style="fill:url(#linearGradient130291);fill-opacity:1;stroke:#000000;stroke-width:1;stroke-linecap:butt;stroke-linejoin:miter;stroke-miterlimit:4;stroke-dasharray:none;stroke-opacity:1"
         d="m 814.73965,868.06331 c -4.82714,4.752 -9.63347,9.5109 -12.90913,14.7801 -4.63937,6.2254 -9.08722,12.5359 -12.16075,19.4572 -1.05048,5.9868 -2.01823,11.9737 -1.68381,17.9605 0.85832,5.6737 1.90831,11.3647 4.67723,17.2121 3.74486,8.2697 8.91486,16.005 14.03164,23.7603 4.45247,5.5342 7.40604,11.22 16.46381,14.0317 6.69072,0.076 10.22925,-4.4189 14.21873,-8.419 7.42744,-10.1182 13.57376,-21.0247 18.70888,-32.5535 2.05392,-6.9148 2.84765,-14.2797 2.43215,-22.0764 -1.64876,-8.3729 -5.46475,-15.2559 -9.91571,-21.7023 -3.43426,-7.9177 -8.71313,-14.8106 -13.65747,-21.8894 -6.37227,-1.882 -12.6372,-3.0303 -20.20557,-0.5613 z"
         id="path42293-8-8"
         sodipodi:nodetypes="ccccccccccccc" />
      <g
         id="g57027-2-7"
         style="fill:#808080;fill-opacity:0.4"
         transform="matrix(0.66114856,-0.15977222,0.15977222,0.66114856,34.138155,242.86363)">
        <path
           style="fill:#808080;fill-opacity:0.4;stroke:#000000;stroke-width:0.265;stroke-linecap:butt;stroke-linejoin:miter;stroke-miterlimit:4;stroke-dasharray:none;stroke-opacity:1"
           d="m 859.10205,1270.7276 c -0.35402,-0.6897 -0.64028,-1.0407 -1.15756,-2.5467 -1.30039,-1.0521 -1.9376,-2.6347 -2.84427,-4.0018 0.092,-0.4442 -0.0625,-0.9624 0.8599,-1.1575 1.3059,0.191 2.04831,0.7201 2.94349,1.1575 0.65902,1.6834 1.66736,3.1672 2.94349,4.4979 l 1.45521,0.8269 -1.45521,-1.0253 c 0.33886,-1.0584 0.65582,-2.1344 0.56224,-3.5388 l -2.8112,-10.3849 c 0.50815,-1.3711 1.33504,-1.276 2.28203,-0.6284 l 2.97656,9.2935 0.95912,0.2315 0.23151,-11.6747 c 0.83598,-0.9459 1.62168,-1.2383 2.28203,0.099 l 0.52917,11.6747 0.92604,0.2315 3.30729,-10.4179 c 1.07216,-1.0044 1.61334,-0.4822 1.98437,0.5291 l -2.61276,10.6826 0.69454,0.4299 4.86171,-6.5815 c 0.96156,-0.6216 1.13684,0.1328 1.42214,0.6946 -0.70251,3.0517 -2.66788,5.0932 -4.16719,7.5075 -0.6178,3.2394 -1.16818,6.5076 -2.38125,9.4919 -0.34394,0.9819 -1.06911,1.3681 -1.75286,1.8191 -1.22482,-0.121 -2.45558,-0.1827 -3.63802,-0.7276 -0.42842,0.3957 -0.96178,0.6166 -1.52136,0.7937 -0.87613,-0.032 -1.62574,-0.2223 -2.14974,-0.6945 -2.03578,-2.0587 -4.14908,-4.0946 -4.72942,-6.5813 z"
           id="path55242-6-47"
           sodipodi:nodetypes="cccccccccccccccccccccccccccccc" />
        <path
           style="fill:#808080;fill-opacity:0.4;stroke:#000000;stroke-width:0.264583px;stroke-linecap:butt;stroke-linejoin:miter;stroke-opacity:1"
           d="m 865.17093,1277.1106 c 0.76068,-0.2023 1.52135,-0.056 2.28203,0.1323"
           id="path56634-3-1"
           sodipodi:nodetypes="cc" />
      </g>
      <g
         id="g57027-6-7-2"
         style="fill:#808080;fill-opacity:0.4"
         transform="matrix(0.62975877,0.25699897,-0.25699897,0.62975877,616.20671,-77.821552)">
        <path
           style="fill:#808080;fill-opacity:0.4;stroke:#000000;stroke-width:0.265;stroke-linecap:butt;stroke-linejoin:miter;stroke-miterlimit:4;stroke-dasharray:none;stroke-opacity:1"
           d="m 859.10205,1270.7276 c -0.35402,-0.6897 -0.64028,-1.0407 -1.15756,-2.5467 -1.30039,-1.0521 -1.9376,-2.6347 -2.84427,-4.0018 0.092,-0.4442 -0.0625,-0.9624 0.8599,-1.1575 1.3059,0.191 2.04831,0.7201 2.94349,1.1575 0.65902,1.6834 1.66736,3.1672 2.94349,4.4979 l 1.45521,0.8269 -1.45521,-1.0253 c 0.33886,-1.0584 0.65582,-2.1344 0.56224,-3.5388 l -2.8112,-10.3849 c 0.50815,-1.3711 1.33504,-1.276 2.28203,-0.6284 l 2.97656,9.2935 0.95912,0.2315 0.23151,-11.6747 c 0.83598,-0.9459 1.62168,-1.2383 2.28203,0.099 l 0.52917,11.6747 0.92604,0.2315 3.30729,-10.4179 c 1.07216,-1.0044 1.61334,-0.4822 1.98437,0.5291 l -2.61276,10.6826 0.69454,0.4299 4.86171,-6.5815 c 0.96156,-0.6216 1.13684,0.1328 1.42214,0.6946 -0.70251,3.0517 -2.66788,5.0932 -4.16719,7.5075 -0.6178,3.2394 -1.16818,6.5076 -2.38125,9.4919 -0.34394,0.9819 -1.06911,1.3681 -1.75286,1.8191 -1.22482,-0.121 -2.45558,-0.1827 -3.63802,-0.7276 -0.42842,0.3957 -0.96178,0.6166 -1.52136,0.7937 -0.87613,-0.032 -1.62574,-0.2223 -2.14974,-0.6945 -2.03578,-2.0587 -4.14908,-4.0946 -4.72942,-6.5813 z"
           id="path55242-3-7-2"
           sodipodi:nodetypes="cccccccccccccccccccccccccccccc" />
        <path
           style="fill:#808080;fill-opacity:0.4;stroke:#000000;stroke-width:0.264583px;stroke-linecap:butt;stroke-linejoin:miter;stroke-opacity:1"
           d="m 865.17093,1277.1106 c 0.76068,-0.2023 1.52135,-0.056 2.28203,0.1323"
           id="path56634-0-3-4"
           sodipodi:nodetypes="cc" />
      </g>
      <path
         style="fill:#81bcca;fill-opacity:1;stroke:#000000;stroke-width:0.142215px;stroke-linecap:butt;stroke-linejoin:miter;stroke-opacity:1"
         d="m 809.64256,898.98781 c 6.07317,2.6559 11.96153,-6.7669 8.10625,-6.3286 -3.02386,2.395 -6.35616,4.5496 -10.59502,5.8308 z"
         id="path57562-6-5"
         sodipodi:nodetypes="cccc" />
      <path
         style="fill:#81bcca;fill-opacity:1;stroke:#000000;stroke-width:0.142215px;stroke-linecap:butt;stroke-linejoin:miter;stroke-opacity:1"
         d="m 836.51914,898.61341 c -6.07317,2.6559 -11.96153,-6.7669 -8.10625,-6.3286 3.02386,2.395 6.35616,4.5496 10.59502,5.8308 z"
         id="path57562-2-7-8"
         sodipodi:nodetypes="cccc" />
      <path
         style="fill:#81bcca;fill-opacity:1;stroke:#000000;stroke-width:0.14;stroke-linecap:butt;stroke-linejoin:miter;stroke-miterlimit:4;stroke-dasharray:none;stroke-opacity:1"
         d="m 820.76828,904.65811 c 0.67479,0.5764 1.18435,1.1075 1.96442,0.3274 0.058,-0.058 0.1238,-0.4677 0.14034,-0.4677 0.087,0 0.37589,1.1468 0.79512,1.3564 0.59494,0.2975 0.70157,-1.0748 0.70157,-1.4032 0,-2.3369 -3.60145,-1.2323 -3.60145,0.1871 z"
         id="path71429-2-74" />
      <path
         id="path73341-5-2"
         style="opacity:1;fill:#81bcca;stroke:#000000;stroke-width:0.14"
         d="m 826.70832,918.68981 c 0,4.6497 -1.88466,8.419 -4.2095,8.419 -2.32484,0 -2.82043,-2.711 -2.82043,-7.3607 0,-4.6496 0.49559,-9.4773 2.82043,-9.4773 2.32484,0 4.2095,3.7693 4.2095,8.419 z"
         sodipodi:nodetypes="sssss" />
      <path
         style="fill:none;stroke:#ffffff;stroke-width:1;stroke-linecap:butt;stroke-linejoin:miter;stroke-miterlimit:4;stroke-dasharray:none;stroke-opacity:1"
         d="m 823.51559,884.63431 -23.94479,30.824"
         id="path50554-2-3" />
      <path
         style="fill:none;stroke:#ffffff;stroke-width:1;stroke-linecap:butt;stroke-linejoin:miter;stroke-miterlimit:4;stroke-dasharray:none;stroke-opacity:1"
         d="m 830.26247,897.86361 -12.43542,19.3145"
         id="path50556-7-3" />
    </g>
  </g>
</svg>
