<?xml version="1.0" encoding="UTF-8" standalone="no"?>
<!-- Created with Inkscape (http://www.inkscape.org/) -->

<svg
   width="150"
   height="150"
   viewBox="0 0 39.687499 39.687501"
   version="1.1"
   id="svg5"
   inkscape:version="1.1.1 (3bf5ae0d25, 2021-09-20)"
   sodipodi:docname="zzz - Copie - Copie (10).svg"
   inkscape:export-filename="C:\Users\Clément\Desktop\freepic\res\img/icon.png"
   inkscape:export-xdpi="96"
   inkscape:export-ydpi="96"
   xmlns:inkscape="http://www.inkscape.org/namespaces/inkscape"
   xmlns:sodipodi="http://sodipodi.sourceforge.net/DTD/sodipodi-0.dtd"
   xmlns:xlink="http://www.w3.org/1999/xlink"
   xmlns="http://www.w3.org/2000/svg"
   xmlns:svg="http://www.w3.org/2000/svg">
  <sodipodi:namedview
     id="namedview7"
     pagecolor="#ffffff"
     bordercolor="#666666"
     borderopacity="1.0"
     inkscape:pageshadow="2"
     inkscape:pageopacity="0.0"
     inkscape:pagecheckerboard="true"
     inkscape:document-units="mm"
     showgrid="false"
     units="px"
     inkscape:zoom="3.0289002"
     inkscape:cx="62.729039"
     inkscape:cy="70.487631"
     inkscape:window-width="1920"
     inkscape:window-height="1013"
     inkscape:window-x="-9"
     inkscape:window-y="-9"
     inkscape:window-maximized="1"
     inkscape:current-layer="layer1"
     inkscape:snap-object-midpoints="false"
     inkscape:snap-center="false" />
  <defs
     id="defs2">
    <clipPath
       clipPathUnits="userSpaceOnUse"
       id="clipPath168419-0">
      <path
         style="fill:#d4d591;fill-opacity:1;stroke:#000000;stroke-width:0.264583px;stroke-linecap:butt;stroke-linejoin:miter;stroke-opacity:1"
         d="m 1976.6629,1120.9601 c -14.9756,1.5925 -25.8038,9.2969 -36.1081,17.7735 -10.8363,13.4703 -17.8314,26.9407 -24.1344,40.4111 -5.0825,17.6623 -6.7297,33.8216 -6.174,49.0172 2.96,13.8998 7.3576,26.531 16.2768,35.1727 10.0404,8.8438 23.2314,13.9465 38.9144,16.0897 14.6068,1.5407 26.9047,-0.7669 39.4757,-2.6193 16.4002,-3.4206 25.6399,-12.8083 33.676,-23.199 4.188,-8.0615 7.6011,-17.2853 8.9802,-29.56 0.1671,-11.8575 -2.4879,-24.9245 -4.6772,-37.7919 -3.678,-11.8565 -9.5794,-24.1299 -18.896,-37.0436 -6.3738,-10.6207 -16.705,-17.504 -27.502,-23.9473 -6.0539,-1.7474 -10.1493,-4.5965 -19.8314,-4.3031 z"
         id="path168421-4"
         sodipodi:nodetypes="ccccccccccccc" />
    </clipPath>
    <linearGradient
       x1="-989.37677"
       y1="-3204.3379"
       x2="1175.8552"
       y2="2649.3293"
       gradientUnits="userSpaceOnUse"
       id="color-1"
       gradientTransform="matrix(0.17670732,0,0,0.17670732,-22.688903,-12.005473)">
      <stop
         offset="0"
         stop-color="#2a221e"
         id="stop2" />
      <stop
         offset="1"
         stop-color="#2a221e"
         stop-opacity="0"
         id="stop4" />
    </linearGradient>
    <linearGradient
       x1="-3323.7942"
       y1="-330.77435"
       x2="2849.8162"
       y2="585.84308"
       gradientUnits="userSpaceOnUse"
       id="color-2"
       gradientTransform="matrix(0.17670732,0,0,0.17670732,-22.688903,-12.005473)">
      <stop
         offset="0"
         stop-color="#2a221e"
         id="stop7" />
      <stop
         offset="1"
         stop-color="#2a221e"
         stop-opacity="0"
         id="stop9" />
    </linearGradient>
    <linearGradient
       inkscape:collect="always"
       xlink:href="#linearGradient14749"
       id="linearGradient14751"
       x1="194.59866"
       y1="52.029339"
       x2="200.4959"
       y2="53.550694"
       gradientUnits="userSpaceOnUse"
       gradientTransform="matrix(2.294366,-0.3745884,0.3745884,2.294366,-448.50224,-44.136432)" />
    <linearGradient
       inkscape:collect="always"
       id="linearGradient14749">
      <stop
         style="stop-color:#bfbfbf;stop-opacity:0.90255582"
         offset="0"
         id="stop14745" />
      <stop
         style="stop-color:#828282;stop-opacity:1"
         offset="1"
         id="stop14747" />
    </linearGradient>
    <linearGradient
       inkscape:collect="always"
       xlink:href="#linearGradient14749"
       id="linearGradient15310"
       gradientUnits="userSpaceOnUse"
       gradientTransform="matrix(-1.0512942,-0.17163897,-0.17163897,1.0512942,407.23795,26.147901)"
       x1="194.59866"
       y1="52.029339"
       x2="200.4959"
       y2="53.550694" />
  </defs>
  <g
     inkscape:label="Calque 1"
     inkscape:groupmode="layer"
     id="layer1">
    <path
       style="fill:none;stroke:#864504;stroke-width:0.615087px;stroke-linecap:butt;stroke-linejoin:miter;stroke-opacity:1"
       d="M 7.875635,33.722418 32.932026,2.9697574"
       id="path9628" />
    <ellipse
       style="fill:#828282;fill-opacity:1;stroke:#393939;stroke-width:0.116237;stroke-miterlimit:4;stroke-dasharray:none;stroke-opacity:1"
       id="path10708"
       cx="32.259922"
       cy="7.8455172"
       rx="0.65899527"
       ry="0.59007102"
       transform="rotate(-9.272554)" />
    <path
       style="fill:url(#linearGradient14751);fill-opacity:1;stroke:#393939;stroke-width:0.116237;stroke-linecap:butt;stroke-linejoin:miter;stroke-miterlimit:4;stroke-dasharray:none;stroke-opacity:1"
       d="M 32.581049,2.3384792 C 27.954732,1.6191884 23.524201,0.16288538 18.345732,1.5226665 16.855597,1.9222436 15.473711,2.3687712 15.07328,3.2413051 c 3.308833,-0.3976349 6.339495,-0.408512 9.35477,-0.3980342 2.599962,0.2660915 4.794669,0.9416489 6.701536,1.9080918 0.897499,-0.7375747 1.669269,-1.4954245 1.451463,-2.4128835 z"
       id="path12127"
       sodipodi:nodetypes="cccccc" />
    <path
       style="fill:#828282;fill-opacity:1;stroke:#393939;stroke-width:0.116237;stroke-linecap:butt;stroke-linejoin:miter;stroke-miterlimit:4;stroke-dasharray:none;stroke-opacity:1"
       d="m 32.612542,2.9530619 c -1.675881,1.764812 -0.06678,0.1189419 -0.876548,0.8730031 -0.01964,0.017459 -0.02553,0.045503 -0.04496,0.062439 -0.01309,0.012659 -0.03841,0.00873 -0.05173,0.022086 -0.01528,0.01615 -0.01965,0.041007 -0.03143,0.060213 -0.02182,0.032628 -0.04954,0.059602 -0.06744,0.093647 -0.03252,0.062067 -0.05848,0.1321237 -0.09232,0.1940608 -0.02183,0.036664 -0.04103,0.073133 -0.06504,0.1070476 -0.0018,0.00327 -0.0087,0.0015 -0.01309,0.00218 -0.01528,0.020951 -0.03295,0.039742 -0.04496,0.062417 -0.0087,0.017896 -0.0066,0.039872 -0.01965,0.058052 -0.03798,0.072522 -0.09515,0.1321456 -0.134873,0.1872517 -0.0018,0.00327 0.0015,0.00873 0.0022,0.013313 -0.0022,0.00982 -0.0044,0.020951 -0.0087,0.029091 -0.0087,0.013531 -0.108033,0.1393482 -0.114577,0.1426432 -0.0087,0.00436 -0.01965,-0.00179 -0.02663,0.00436 -0.01095,0.010723 -0.01964,0.045617 -0.03143,0.060215 -0.08926,0.092842 -0.154515,0.1902414 -0.24227,0.2874486 -0.07791,0.086487 -0.171975,0.1604955 -0.202092,0.2808663 -0.0066,0.030471 -0.0087,0.1240701 0.02423,0.1475532 0.01965,0.013314 0.04125,0.019201 0.06024,0.031476 0.07464,0.047225 0.136619,0.1076754 0.216497,0.1436908 0.03841,0.017458 0.03274,-0.00346 0.06919,0.00235 0.03121,0.00503 0.04867,0.025735 0.0873,0.027086 0.09362,0.00324 0.233104,-0.0048 0.324089,-0.039239 0.02728,-0.010053 0.03645,-0.04546 0.05827,-0.064594 0.07312,-0.064315 0.206239,-0.2055181 0.255692,-0.2896378 0.0969,-0.1642485 10e-4,-0.05166 0.128108,-0.2274977 0.03187,-0.044276 0.07136,-0.082734 0.10323,-0.1269944 0.08031,-0.1117188 0.145567,-0.2344251 0.233497,-0.3411019 0.03274,-0.039829 0.07529,-0.071692 0.105196,-0.1135951 0.02313,-0.031624 0.03208,-0.071081 0.05173,-0.1048439 0.112396,-0.1945845 0.248775,-0.375158 0.346045,-0.5798166 0.01309,-0.029288 0.04932,-0.1397186 0.06765,-0.176296 0.03601,-0.071758 0.0694,-0.119924 0.09232,-0.1940826 0.01965,-0.060126 0.08184,-0.1155373 0.110211,-0.1694432 0.05653,-0.1082919 -0.0087,0.030532 0.04714,-0.048996 0.0044,-0.00567 0.01965,-0.066608 0.02924,-0.073635 0.0087,-0.0059 0.01964,0.00136 0.02663,-0.00437 0.0044,-0.00261 -0.0044,-0.010041 -0.0022,-0.013313 0.0087,-0.013313 0.02313,-0.02368 0.03579,-0.033391 0.03339,-0.024094 0.144259,-0.1127657 0.152551,-0.1626122 0.0022,-0.012876 -0.0066,-0.039567 -0.0087,-0.053643 -0.0022,-0.013313 0.0022,-0.029331 -0.0066,-0.040244 -0.02423,-0.032409 -0.01528,-0.011785 -0.06024,-0.031471 -0.0044,-0.00178 0.0022,-0.012876 -0.0022,-0.013313 -0.01528,-0.00284 -0.254951,0.027979 -0.283868,0.032692 -0.01964,0.00306 -0.06198,0.018768 -0.08053,0.013313 -0.03579,-0.011125 -0.07682,-0.023941 -0.115887,-0.036119 z"
       id="path12762" />
    <g
       id="g15320"
       transform="matrix(2.1824204,0,0,2.1824204,-400.60395,-95.841358)">
      <path
         style="fill:none;stroke:#864504;stroke-width:0.281837px;stroke-linecap:butt;stroke-linejoin:miter;stroke-opacity:1"
         d="M 198.12247,61.82336 186.64146,47.73228"
         id="path9628-7" />
      <ellipse
         style="fill:#828282;fill-opacity:1;stroke:#393939;stroke-width:0.0532607;stroke-miterlimit:4;stroke-dasharray:none;stroke-opacity:1"
         id="path10708-3"
         cx="-191.78531"
         cy="16.855295"
         rx="0.30195615"
         ry="0.2703746"
         transform="matrix(-0.98693302,-0.16113108,-0.16113108,0.98693302,0,0)" />
      <path
         style="fill:url(#linearGradient15310);fill-opacity:1;stroke:#393939;stroke-width:0.0532607;stroke-linecap:butt;stroke-linejoin:miter;stroke-miterlimit:4;stroke-dasharray:none;stroke-opacity:1"
         d="m 186.80228,47.443024 c 2.11981,-0.329584 4.14991,-0.996872 6.52272,-0.373811 0.68279,0.183089 1.31598,0.387691 1.49946,0.787492 -1.51613,-0.182199 -2.9048,-0.187183 -4.28642,-0.182382 -1.19132,0.121925 -2.19695,0.43147 -3.07069,0.874301 -0.41124,-0.337962 -0.76487,-0.685214 -0.66507,-1.1056 z"
         id="path12127-7"
         sodipodi:nodetypes="cccccc" />
      <path
         style="fill:#828282;fill-opacity:1;stroke:#393939;stroke-width:0.0532607;stroke-linecap:butt;stroke-linejoin:miter;stroke-miterlimit:4;stroke-dasharray:none;stroke-opacity:1"
         d="m 186.78785,47.72463 c 0.7679,0.808649 0.0306,0.0545 0.40164,0.400016 0.009,0.008 0.0117,0.02085 0.0206,0.02861 0.006,0.0058 0.0176,0.004 0.0237,0.01012 0.007,0.0074 0.009,0.01879 0.0144,0.02759 0.01,0.01495 0.0227,0.02731 0.0309,0.04291 0.0149,0.02844 0.0268,0.06054 0.0423,0.08892 0.01,0.0168 0.0188,0.03351 0.0298,0.04905 8.3e-4,0.0015 0.004,6.86e-4 0.006,0.001 0.007,0.0096 0.0151,0.01821 0.0206,0.0286 0.004,0.0082 0.003,0.01827 0.009,0.0266 0.0174,0.03323 0.0436,0.06055 0.0618,0.0858 8.2e-4,0.0015 -6.7e-4,0.004 -0.001,0.0061 0.001,0.0045 0.002,0.0096 0.004,0.01333 0.004,0.0062 0.0495,0.06385 0.0525,0.06536 0.004,0.002 0.009,-8.34e-4 0.0122,0.002 0.005,0.0049 0.009,0.0209 0.0144,0.02759 0.0409,0.04254 0.0708,0.08717 0.11101,0.131711 0.0357,0.03963 0.0788,0.07354 0.0926,0.128695 0.003,0.01396 0.004,0.05685 -0.0111,0.06761 -0.009,0.0061 -0.0189,0.0088 -0.0276,0.01442 -0.0342,0.02164 -0.0626,0.04934 -0.0992,0.06584 -0.0176,0.008 -0.015,-0.0016 -0.0317,0.0011 -0.0143,0.0023 -0.0223,0.01179 -0.04,0.01241 -0.0429,0.0015 -0.10681,-0.0022 -0.1485,-0.01798 -0.0125,-0.0046 -0.0167,-0.02083 -0.0267,-0.0296 -0.0335,-0.02947 -0.0945,-0.09417 -0.11716,-0.132714 -0.0444,-0.07526 -4.6e-4,-0.02367 -0.0587,-0.104241 -0.0146,-0.02029 -0.0327,-0.03791 -0.0473,-0.05819 -0.0368,-0.05119 -0.0667,-0.107415 -0.10699,-0.156295 -0.015,-0.01825 -0.0345,-0.03285 -0.0482,-0.05205 -0.0106,-0.01449 -0.0147,-0.03257 -0.0237,-0.04804 -0.0515,-0.08916 -0.11399,-0.1719 -0.15856,-0.265676 -0.006,-0.01342 -0.0226,-0.06402 -0.031,-0.08078 -0.0165,-0.03288 -0.0318,-0.05495 -0.0423,-0.08893 -0.009,-0.02755 -0.0375,-0.05294 -0.0505,-0.07764 -0.0259,-0.04962 0.004,0.01399 -0.0216,-0.02245 -0.002,-0.0026 -0.009,-0.03052 -0.0134,-0.03374 -0.004,-0.0027 -0.009,6.24e-4 -0.0122,-0.002 -0.002,-0.0012 0.002,-0.0046 0.001,-0.0061 -0.004,-0.0061 -0.0106,-0.01085 -0.0164,-0.0153 -0.0153,-0.01104 -0.0661,-0.05167 -0.0699,-0.07451 -0.001,-0.0059 0.003,-0.01813 0.004,-0.02458 0.001,-0.0061 -10e-4,-0.01344 0.003,-0.01844 0.0111,-0.01485 0.007,-0.0054 0.0276,-0.01442 0.002,-8.14e-4 -0.001,-0.0059 10e-4,-0.0061 0.007,-0.0013 0.11682,0.01282 0.13007,0.01498 0.009,0.0014 0.0284,0.0086 0.0369,0.0061 0.0164,-0.0051 0.0352,-0.01097 0.0531,-0.01655 z"
         id="path12762-6" />
    </g>
  </g>
</svg>
