<?xml version="1.0" encoding="UTF-8" standalone="no"?>
<!-- Created with Inkscape (http://www.inkscape.org/) -->

<svg
   width="150"
   height="150"
   viewBox="0 0 39.687499 39.687501"
   version="1.1"
   id="svg5"
   inkscape:version="1.1.1 (3bf5ae0d25, 2021-09-20)"
   sodipodi:docname="brain - Copie.svg"
   inkscape:export-filename="C:\Users\Clément\Desktop\freepic\res\img/icon.png"
   inkscape:export-xdpi="96"
   inkscape:export-ydpi="96"
   xmlns:inkscape="http://www.inkscape.org/namespaces/inkscape"
   xmlns:sodipodi="http://sodipodi.sourceforge.net/DTD/sodipodi-0.dtd"
   xmlns="http://www.w3.org/2000/svg"
   xmlns:svg="http://www.w3.org/2000/svg">
  <sodipodi:namedview
     id="namedview7"
     pagecolor="#ffffff"
     bordercolor="#666666"
     borderopacity="1.0"
     inkscape:pageshadow="2"
     inkscape:pageopacity="0.0"
     inkscape:pagecheckerboard="true"
     inkscape:document-units="mm"
     showgrid="false"
     units="px"
     inkscape:zoom="4.2835116"
     inkscape:cx="70.736356"
     inkscape:cy="59.180416"
     inkscape:window-width="1920"
     inkscape:window-height="1013"
     inkscape:window-x="-9"
     inkscape:window-y="-9"
     inkscape:window-maximized="1"
     inkscape:current-layer="layer1" />
  <defs
     id="defs2">
    <clipPath
       clipPathUnits="userSpaceOnUse"
       id="clipPath168419-0">
      <path
         style="fill:#d4d591;fill-opacity:1;stroke:#000000;stroke-width:0.264583px;stroke-linecap:butt;stroke-linejoin:miter;stroke-opacity:1"
         d="m 1976.6629,1120.9601 c -14.9756,1.5925 -25.8038,9.2969 -36.1081,17.7735 -10.8363,13.4703 -17.8314,26.9407 -24.1344,40.4111 -5.0825,17.6623 -6.7297,33.8216 -6.174,49.0172 2.96,13.8998 7.3576,26.531 16.2768,35.1727 10.0404,8.8438 23.2314,13.9465 38.9144,16.0897 14.6068,1.5407 26.9047,-0.7669 39.4757,-2.6193 16.4002,-3.4206 25.6399,-12.8083 33.676,-23.199 4.188,-8.0615 7.6011,-17.2853 8.9802,-29.56 0.1671,-11.8575 -2.4879,-24.9245 -4.6772,-37.7919 -3.678,-11.8565 -9.5794,-24.1299 -18.896,-37.0436 -6.3738,-10.6207 -16.705,-17.504 -27.502,-23.9473 -6.0539,-1.7474 -10.1493,-4.5965 -19.8314,-4.3031 z"
         id="path168421-4"
         sodipodi:nodetypes="ccccccccccccc" />
    </clipPath>
  </defs>
  <g
     inkscape:label="Calque 1"
     inkscape:groupmode="layer"
     id="layer1">
    <g
       id="g1003"
       transform="translate(0.1797549)">
      <path
         style="fill:#915d24;fill-opacity:1;stroke:#000000;stroke-width:0.0743672px;stroke-linecap:butt;stroke-linejoin:miter;stroke-opacity:1"
         d="M 1.1119281,23.997626 C 0.86177571,22.612036 0.74921155,21.106056 0.86887007,19.396883 0.98358491,19.297815 1.0729096,19.181826 1.3202625,19.171187 3.5148694,18.997574 5.9197998,18.823964 8.5772858,18.65035 c 0.4513926,0.547407 0.9027881,0.531619 1.3541812,0.590282 l 3.628509,-1.388904 c 0.307184,0.236959 0.525332,0.53328 0.555565,0.954874 -0.104168,0.328836 -0.208339,0.559183 -0.312508,0.798619 -0.601855,0.171285 -1.203715,0.391633 -1.805572,0.607643 -0.753532,0.179753 -1.490936,0.432064 -2.152802,1.024316 l -0.7291743,1.354183 c -0.2829001,0.175616 -0.670211,0.03799 -1.0416772,-0.05208 -0.1907026,-0.160624 -0.5329655,-0.302305 -1.0937628,-0.416668 -0.7581082,0.04031 -1.5162189,0.465634 -2.274327,0.711813 -1.3340019,0.578237 -2.4895933,0.906693 -3.5937896,1.163203 z"
         id="path873"
         sodipodi:nodetypes="ccccccccccccccc"
         inkscape:export-filename="C:\Users\Clément\Videos\Dessiner quand on est nul\img/fusil.png"
         inkscape:export-xdpi="96"
         inkscape:export-ydpi="96" />
      <path
         style="fill:#915d24;fill-opacity:1;stroke:#000000;stroke-width:0.0743672px;stroke-linecap:butt;stroke-linejoin:miter;stroke-opacity:1"
         d="m 26.59831,18.615627 c -2.876488,0.191733 -5.273113,0.326743 -8.515717,0.564242 l -0.703131,-1.119803 c 2.927527,-0.13979 6.046323,-0.142066 9.201487,-0.0088 z"
         id="path1913"
         sodipodi:nodetypes="ccccc"
         inkscape:export-filename="C:\Users\Clément\Videos\Dessiner quand on est nul\img/fusil.png"
         inkscape:export-xdpi="96"
         inkscape:export-ydpi="96" />
      <path
         style="fill:#9d9d9d;fill-opacity:1;stroke:#000000;stroke-width:0.0743672px;stroke-linecap:butt;stroke-linejoin:miter;stroke-opacity:1"
         d="m 13.803033,19.605221 c 0.13331,-0.305066 0.274249,-0.620295 0.312508,-0.798619 -0.347998,-0.322413 -0.677595,-0.670594 -1.183357,-0.772136 l -0.294628,-0.02457 c 0.009,-0.17596 -0.03464,-0.35192 0.159589,-0.527881 l 0.220976,-0.03683 c 0.0974,0.252421 0.284699,0.190256 0.441944,0.233252 0.528104,-0.196366 1.029121,-0.399504 1.681852,-0.56471 l 1.694128,-0.01232 c -0.01461,-0.07345 0.0024,-0.168159 0.08594,-0.306906 l 0.552437,-0.01232 0.135034,0.159595 h 0.159591 l 0.01232,-0.110493 h 0.171868 l 0.03683,0.184146 0.466501,-0.02457 v -0.09821 h 0.159593 l 0.02454,0.09821 0.343738,-0.01232 0.01232,-0.110493 0.196425,0.02454 0.01232,0.122771 0.184148,-0.01232 0.07365,2.08697 -2.160626,0.122757 c -0.809479,0.08352 -1.562387,0.138731 -2.492088,0.282355 -0.335813,0.05874 -0.671628,0.115319 -1.00744,0.109941 z"
         id="path2152"
         sodipodi:nodetypes="ccccccccccccccccccccccccccccc"
         inkscape:export-filename="C:\Users\Clément\Videos\Dessiner quand on est nul\img/fusil.png"
         inkscape:export-xdpi="96"
         inkscape:export-ydpi="96" />
      <path
         style="fill:#bbbbbb;fill-opacity:1;stroke:#000000;stroke-width:0.0743672px;stroke-linecap:butt;stroke-linejoin:miter;stroke-opacity:1"
         d="m 15.160331,17.107606 -0.705887,0.239389 0.06138,0.724298 c 0.06138,0.29046 0.122756,0.33947 0.184142,0.356014 l 2.897205,-0.09821 c 0.296068,-0.04088 0.535544,-0.11571 0.601541,-0.294632 l 20.170546,0.0082 c 0.07132,-0.255934 0.184852,-0.497804 0.06945,-0.815982 L 38.16093,17.05307 Z"
         id="path3061"
         sodipodi:nodetypes="cccccccccc"
         inkscape:export-filename="C:\Users\Clément\Videos\Dessiner quand on est nul\img/fusil.png"
         inkscape:export-xdpi="96"
         inkscape:export-ydpi="96" />
      <path
         id="path3376"
         style="fill:#9d9d9d;fill-opacity:1;stroke:#000000;stroke-width:0.0562147;stroke-linecap:butt;stroke-linejoin:miter;stroke-miterlimit:4;stroke-dasharray:none;stroke-opacity:1"
         d="m 32.721616,18.034495 0.02454,0.220924 -0.08598,0.01232 -0.01232,0.196375 0.09834,0.02454 -0.01232,0.417444 0.417448,0.01218 0.03675,-0.356002 -0.110391,-0.06144 0.02439,-0.09818 -0.03675,-0.196375 -0.02455,-0.159629 z m 0.13973,0.585499 0.156292,0.01728 v 0.173715 l -0.182291,0.0042 z"
         inkscape:export-filename="C:\Users\Clément\Videos\Dessiner quand on est nul\img/fusil.png"
         inkscape:export-xdpi="96"
         inkscape:export-ydpi="96" />
      <path
         style="fill:#9d9d9d;fill-opacity:1;stroke:#000000;stroke-width:0.0562147;stroke-linecap:butt;stroke-linejoin:miter;stroke-miterlimit:4;stroke-dasharray:none;stroke-opacity:1"
         d="m 36.797287,17.0585 0.01233,-0.540155 0.147313,0.0061 0.0062,0.190281 0.300766,-0.0061 -0.0061,-0.184143 0.165731,0.0061 v 0.178007 l 0.220974,-0.01232 0.0062,-0.159594 0.159594,0.0061 0.01841,0.313045 0.245524,-0.01232 0.01232,0.202558 z"
         id="path3563"
         inkscape:export-filename="C:\Users\Clément\Videos\Dessiner quand on est nul\img/fusil.png"
         inkscape:export-xdpi="96"
         inkscape:export-ydpi="96" />
      <ellipse
         style="fill:#6d6d6d;fill-opacity:1;stroke:#000000;stroke-width:0.0562147;stroke-miterlimit:4;stroke-dasharray:none;stroke-opacity:1"
         id="ellipse3839"
         cx="38.313404"
         cy="17.552626"
         rx="0.11662472"
         ry="0.4020485"
         inkscape:export-filename="C:\Users\Clément\Videos\Dessiner quand on est nul\img/fusil.png"
         inkscape:export-xdpi="96"
         inkscape:export-ydpi="96" />
      <ellipse
         style="fill:#6d6d6d;fill-opacity:1;stroke:#000000;stroke-width:0.0562147;stroke-miterlimit:4;stroke-dasharray:none;stroke-opacity:1"
         id="path3667"
         cx="38.031055"
         cy="17.564901"
         rx="0.11662472"
         ry="0.4020485"
         inkscape:export-filename="C:\Users\Clément\Videos\Dessiner quand on est nul\img/fusil.png"
         inkscape:export-xdpi="96"
         inkscape:export-ydpi="96" />
      <path
         style="fill:#9d9d9d;fill-opacity:1;stroke:#000000;stroke-width:0.0421609;stroke-linecap:butt;stroke-linejoin:miter;stroke-miterlimit:4;stroke-dasharray:none;stroke-opacity:1"
         d="m 12.092948,20.186824 0.234375,0.13889 c 0.01131,0.193867 0.0264,0.387737 0.173614,0.581605 0.1898,0.13805 0.406297,0.229384 0.642368,0.286462 0.409054,0.05226 0.820784,0.0831 1.241335,0.0434 0.229997,-0.0579 0.445787,-0.125264 0.572919,-0.251739 0.217756,-0.16416 0.30271,-0.379968 0.312505,-0.625005 -0.01011,-0.173612 -0.05939,-0.347227 -0.173611,-0.520839 -0.109217,-0.174979 -0.297863,-0.247826 -0.486118,-0.321183 l -0.364587,0.0868 0.07812,0.121525 c 0.14366,-0.0671 0.269974,0.0047 0.390629,0.121524 0.06812,0.144182 0.18814,0.245902 0.13889,0.486116 0.03476,0.211771 -0.05847,0.365362 -0.147571,0.520837 -0.08866,0.102261 -0.221097,0.187027 -0.42535,0.243059 -0.243059,0.06023 -0.486117,0.03973 -0.729175,0.0088 -0.235558,-0.04269 -0.472647,-0.07697 -0.685771,-0.243056 -0.172157,-0.08682 -0.210324,-0.297315 -0.234379,-0.520842 -0.07325,-0.120639 -0.09732,-0.232344 -0.0434,-0.329864 z"
         id="path3874"
         sodipodi:nodetypes="cccccccccccccccccccc"
         inkscape:export-filename="C:\Users\Clément\Videos\Dessiner quand on est nul\img/fusil.png"
         inkscape:export-xdpi="96"
         inkscape:export-ydpi="96" />
      <path
         style="fill:#6d6d6d;fill-opacity:1;stroke:#000000;stroke-width:0.0421609;stroke-linecap:butt;stroke-linejoin:miter;stroke-miterlimit:4;stroke-dasharray:none;stroke-opacity:1"
         d="m 13.054949,19.832943 0.227109,0.01232 0.0491,0.165729 c -0.171648,0.0711 -0.341661,0.15366 -0.49719,0.3376 l -0.04297,0.423533 c 0.05933,0.06125 0.118669,0.06139 0.178007,0.02457 v -0.319186 c 0.06032,-0.164081 0.240767,-0.283115 0.42967,-0.39898 l 0.429672,-0.19642 c 0.05867,0.178007 -0.08988,0.356014 -0.147316,0.534021 -0.0023,0.154168 0.0018,0.310844 0.07979,0.49719 0.04869,0.09084 0.123175,0.130135 0.220975,0.122756 l -0.05525,-0.184145 c -0.03703,-0.192353 -0.100037,-0.387953 -0.01232,-0.564707 0.02892,-0.129426 0.03485,-0.249647 0.220973,-0.441949 l 0.19642,-0.122757 -0.141181,-0.135034 -0.435807,0.03069 z"
         id="path4840"
         sodipodi:nodetypes="ccccccccccccccccccc"
         inkscape:export-filename="C:\Users\Clément\Videos\Dessiner quand on est nul\img/fusil.png"
         inkscape:export-xdpi="96"
         inkscape:export-ydpi="96" />
      <path
         id="path5654"
         style="fill:#9d9d9d;fill-opacity:1;stroke:#000000;stroke-width:0.0421609;stroke-linecap:butt;stroke-linejoin:miter;stroke-miterlimit:4;stroke-dasharray:none;stroke-opacity:1"
         d="m 4.8176103,22.797637 -0.1902755,0.07364 -0.018438,0.135078 -0.1411796,0.03064 0.0061,0.135077 h 0.085989 l -0.00624,0.147283 h -0.079741 v 0.184177 h 0.049095 l 0.012336,0.122727 0.460294,0.0061 v -0.122742 l 0.073642,-0.0061 0.00624,-0.239371 -0.06754,-0.02454 0.0061,-0.325356 -0.1657292,0.0061 z m 0.09819,0.521731 -0.00624,0.147282 -0.2884627,0.01232 0.012336,-0.147282 z"
         inkscape:export-filename="C:\Users\Clément\Videos\Dessiner quand on est nul\img/fusil.png"
         inkscape:export-xdpi="96"
         inkscape:export-ydpi="96" />
      <rect
         style="fill:#c8c8c8;fill-opacity:1;stroke:#000000;stroke-width:0;stroke-miterlimit:4;stroke-dasharray:none;stroke-opacity:1"
         id="rect18131"
         width="21.262529"
         height="0.24552569"
         x="15.534761"
         y="17.518862"
         ry="0.12276284"
         inkscape:export-filename="C:\Users\Clément\Videos\Dessiner quand on est nul\img/fusil.png"
         inkscape:export-xdpi="96"
         inkscape:export-ydpi="96" />
      <path
         style="fill:none;stroke:#000000;stroke-width:0.0743672px;stroke-linecap:butt;stroke-linejoin:miter;stroke-opacity:1"
         d="M 2.0147157,20.751067 3.3862586,22.05316"
         id="path19274"
         inkscape:export-filename="C:\Users\Clément\Videos\Dessiner quand on est nul\img/fusil.png"
         inkscape:export-xdpi="96"
         inkscape:export-ydpi="96" />
      <path
         style="fill:none;stroke:#000000;stroke-width:0.0743672px;stroke-linecap:butt;stroke-linejoin:miter;stroke-opacity:1"
         d="m 3.0216702,20.646899 1.076401,1.128483"
         id="path19276"
         inkscape:export-filename="C:\Users\Clément\Videos\Dessiner quand on est nul\img/fusil.png"
         inkscape:export-xdpi="96"
         inkscape:export-ydpi="96" />
      <path
         style="fill:none;stroke:#000000;stroke-width:0.0743672px;stroke-linecap:butt;stroke-linejoin:miter;stroke-opacity:1"
         d="m 3.8897366,20.542729 1.1632051,1.076402"
         id="path19278"
         inkscape:export-filename="C:\Users\Clément\Videos\Dessiner quand on est nul\img/fusil.png"
         inkscape:export-xdpi="96"
         inkscape:export-ydpi="96" />
      <path
         style="fill:none;stroke:#000000;stroke-width:0.0743672px;stroke-linecap:butt;stroke-linejoin:miter;stroke-opacity:1"
         d="M 2.2404121,22.226774 2.986949,23.060117"
         id="path19280"
         inkscape:export-filename="C:\Users\Clément\Videos\Dessiner quand on est nul\img/fusil.png"
         inkscape:export-xdpi="96"
         inkscape:export-ydpi="96" />
      <path
         style="fill:none;stroke:#000000;stroke-width:0.0743672px;stroke-linecap:butt;stroke-linejoin:miter;stroke-opacity:1"
         d="M 2.0320776,22.921228 3.1084767,22.400387"
         id="path19282"
         inkscape:export-filename="C:\Users\Clément\Videos\Dessiner quand on est nul\img/fusil.png"
         inkscape:export-xdpi="96"
         inkscape:export-ydpi="96" />
      <path
         style="fill:none;stroke:#000000;stroke-width:0.0743672px;stroke-linecap:butt;stroke-linejoin:miter;stroke-opacity:1"
         d="M 2.5702768,21.705937 5.0008588,20.94204"
         id="path19284"
         inkscape:export-filename="C:\Users\Clément\Videos\Dessiner quand on est nul\img/fusil.png"
         inkscape:export-xdpi="96"
         inkscape:export-ydpi="96" />
      <path
         style="fill:none;stroke:#000000;stroke-width:0.0743672px;stroke-linecap:butt;stroke-linejoin:miter;stroke-opacity:1"
         d="M 2.0667987,21.133014 4.5841873,20.594812"
         id="path19286"
         inkscape:export-filename="C:\Users\Clément\Videos\Dessiner quand on est nul\img/fusil.png"
         inkscape:export-xdpi="96"
         inkscape:export-ydpi="96" />
      <path
         style="fill:#805423;fill-opacity:1;stroke:none;stroke-width:0.0744844;stroke-linecap:butt;stroke-linejoin:miter;stroke-miterlimit:4;stroke-dasharray:none;stroke-opacity:1"
         d="m 7.4937904,21.864667 c 0.3670311,0.380709 0.5865493,0.2978 0.8470622,0.343736 0.1878048,0.0926 0.4113447,0.310287 0.5401575,0.196424 0.2558845,-0.239263 0.3449508,-0.645338 0.478775,-1.006657 l 1.0803139,-0.982104 c 0.678152,-0.0922 1.295913,-0.367032 1.85372,-0.662919 -0.400208,0.04093 -0.626394,0.08183 -1.203078,0.122755 -0.30672,0.183588 -0.646086,0.321474 -1.068036,0.343737 -0.2665705,0.448377 -0.7064268,0.619499 -1.2030773,0.699749 -0.2647998,0.222976 -0.4993832,0.531559 -0.896169,0.380568 -0.356013,0.290512 -0.7120233,0.208319 -1.0680363,0.270078 0.187861,0.272714 0.4205755,0.23145 0.638368,0.294629 z"
         id="path19288"
         sodipodi:nodetypes="cccccccccccc"
         inkscape:export-filename="C:\Users\Clément\Videos\Dessiner quand on est nul\img/fusil.png"
         inkscape:export-xdpi="96"
         inkscape:export-ydpi="96" />
    </g>
  </g>
</svg>
