<?xml version="1.0" encoding="UTF-8" standalone="no"?>
<!-- Created with Inkscape (http://www.inkscape.org/) -->

<svg
   width="150"
   height="150"
   viewBox="0 0 39.687499 39.687501"
   version="1.1"
   id="svg5"
   inkscape:version="1.1.1 (3bf5ae0d25, 2021-09-20)"
   sodipodi:docname="zzz - Copie (5).svg"
   inkscape:export-filename="C:\Users\Clément\Desktop\freepic\res\img/icon.png"
   inkscape:export-xdpi="96"
   inkscape:export-ydpi="96"
   xmlns:inkscape="http://www.inkscape.org/namespaces/inkscape"
   xmlns:sodipodi="http://sodipodi.sourceforge.net/DTD/sodipodi-0.dtd"
   xmlns="http://www.w3.org/2000/svg"
   xmlns:svg="http://www.w3.org/2000/svg">
  <sodipodi:namedview
     id="namedview7"
     pagecolor="#ffffff"
     bordercolor="#666666"
     borderopacity="1.0"
     inkscape:pageshadow="2"
     inkscape:pageopacity="0.0"
     inkscape:pagecheckerboard="true"
     inkscape:document-units="mm"
     showgrid="false"
     units="px"
     inkscape:zoom="3.0289002"
     inkscape:cx="60.748122"
     inkscape:cy="77.090688"
     inkscape:window-width="1920"
     inkscape:window-height="1013"
     inkscape:window-x="-9"
     inkscape:window-y="-9"
     inkscape:window-maximized="1"
     inkscape:current-layer="layer1"
     inkscape:snap-object-midpoints="false"
     inkscape:snap-center="false" />
  <defs
     id="defs2">
    <clipPath
       clipPathUnits="userSpaceOnUse"
       id="clipPath168419-0">
      <path
         style="fill:#d4d591;fill-opacity:1;stroke:#000000;stroke-width:0.264583px;stroke-linecap:butt;stroke-linejoin:miter;stroke-opacity:1"
         d="m 1976.6629,1120.9601 c -14.9756,1.5925 -25.8038,9.2969 -36.1081,17.7735 -10.8363,13.4703 -17.8314,26.9407 -24.1344,40.4111 -5.0825,17.6623 -6.7297,33.8216 -6.174,49.0172 2.96,13.8998 7.3576,26.531 16.2768,35.1727 10.0404,8.8438 23.2314,13.9465 38.9144,16.0897 14.6068,1.5407 26.9047,-0.7669 39.4757,-2.6193 16.4002,-3.4206 25.6399,-12.8083 33.676,-23.199 4.188,-8.0615 7.6011,-17.2853 8.9802,-29.56 0.1671,-11.8575 -2.4879,-24.9245 -4.6772,-37.7919 -3.678,-11.8565 -9.5794,-24.1299 -18.896,-37.0436 -6.3738,-10.6207 -16.705,-17.504 -27.502,-23.9473 -6.0539,-1.7474 -10.1493,-4.5965 -19.8314,-4.3031 z"
         id="path168421-4"
         sodipodi:nodetypes="ccccccccccccc" />
    </clipPath>
    <linearGradient
       x1="-989.37677"
       y1="-3204.3379"
       x2="1175.8552"
       y2="2649.3293"
       gradientUnits="userSpaceOnUse"
       id="color-1"
       gradientTransform="matrix(0.17670732,0,0,0.17670732,-22.688903,-12.005473)">
      <stop
         offset="0"
         stop-color="#2a221e"
         id="stop2" />
      <stop
         offset="1"
         stop-color="#2a221e"
         stop-opacity="0"
         id="stop4" />
    </linearGradient>
    <linearGradient
       x1="-3323.7942"
       y1="-330.77435"
       x2="2849.8162"
       y2="585.84308"
       gradientUnits="userSpaceOnUse"
       id="color-2"
       gradientTransform="matrix(0.17670732,0,0,0.17670732,-22.688903,-12.005473)">
      <stop
         offset="0"
         stop-color="#2a221e"
         id="stop7" />
      <stop
         offset="1"
         stop-color="#2a221e"
         stop-opacity="0"
         id="stop9" />
    </linearGradient>
  </defs>
  <g
     inkscape:label="Calque 1"
     inkscape:groupmode="layer"
     id="layer1">
    <g
       id="g42674-4-9"
       transform="matrix(1.4148641,0,0,1.4148641,301.69188,-754.97031)"
       inkscape:export-filename="C:\Users\Clément\Desktop\allCollectibles.png"
       inkscape:export-xdpi="96"
       inkscape:export-ydpi="96">
      <path
         style="fill:#bec3bd;fill-opacity:1;stroke:#000000;stroke-width:0.264583px;stroke-linecap:butt;stroke-linejoin:miter;stroke-opacity:1"
         d="m -212.50934,552.45813 c 0,0 3.78216,-0.42307 5.58927,-0.98221 2.75619,-0.85279 5.63724,-2.07885 7.88111,-3.57807 l 3.68331,-2.44383 2.72448,2.43213 -5.09816,3.12204 c -2.72314,1.66565 -6.54797,3.17707 -10.05602,3.11036 -1.6688,-0.0317 -3.33531,-0.73498 -4.72399,-1.66042 z"
         id="path29312-3-1"
         sodipodi:nodetypes="caccccac" />
      <path
         style="fill:#4a4b46;fill-opacity:1;stroke:#000000;stroke-width:0.265;stroke-linecap:butt;stroke-linejoin:miter;stroke-miterlimit:4;stroke-dasharray:none;stroke-opacity:1"
         d="m -195.16856,544.06253 c 0.20302,-0.20002 0.3708,-0.35281 0.31574,-0.78343 -0.11785,-0.11257 -0.21449,-0.23575 -0.63142,-0.19878 -0.28684,0.14619 -0.41037,0.42846 -0.57296,0.67818 -0.14986,0.28642 -0.0885,0.50243 -0.0468,0.72499 l 0.64312,0.90035 3.90547,3.41436 -0.46772,0.0702 c -0.12649,0.0918 -0.25971,0.17683 -0.12862,0.52618 0.21316,0.42049 0.58567,0.38948 0.92375,0.45603 0.275,-0.29042 0.49382,-0.62017 0.54957,-1.06407 -0.0713,-0.40146 -0.22618,-0.80292 -0.56127,-1.20438 z"
         id="path29967-6-5"
         sodipodi:nodetypes="ccccccccccccc" />
      <path
         style="fill:#645450;fill-opacity:1;stroke:#000000;stroke-width:0.264583px;stroke-linecap:butt;stroke-linejoin:miter;stroke-opacity:1"
         d="m -194.41914,544.61173 c 1.64458,-1.20342 3.24503,-2.42892 5.14284,-3.50573 l 1.4056,-0.8599 c 0.92315,0.0779 1.38987,0.56152 1.93476,0.97565 l 0.34727,1.00873 c -1.07962,0.437 -2.30283,0.6782 -2.92695,1.73633 -0.95796,1.18539 -1.98554,2.02263 -3.07578,2.54661 l -0.0992,0.5457 z"
         id="path30789-4-9"
         sodipodi:nodetypes="ccccccccc" />
      <path
         style="fill:#dde1dd;fill-opacity:1;stroke:#000000;stroke-width:0;stroke-linecap:butt;stroke-linejoin:miter;stroke-miterlimit:4;stroke-dasharray:none;stroke-opacity:1"
         d="m -209.2358,553.42564 c 0.84443,0.3047 1.68328,0.2343 2.56315,0.21495 l 1.24023,-0.38034 1.88516,-0.30593 1.80247,-0.58704 c 0.32206,-0.0236 0.5819,-0.15289 0.79375,-0.3638 0.0599,0.19686 0.027,0.36497 -0.23151,0.46302 -1.33784,0.64641 -2.70799,0.91773 -4.05143,1.10794 -0.76794,0.14213 -1.53587,0.26611 -2.30381,0.29917 l -1.05237,-0.0701 c -0.22275,-0.11277 -0.46353,-0.19397 -0.64564,-0.37787 z"
         id="path37788-8-4"
         sodipodi:nodetypes="ccccccccccc" />
    </g>
  </g>
</svg>
