<?xml version="1.0" encoding="UTF-8" standalone="no"?>
<!-- Created with Inkscape (http://www.inkscape.org/) -->

<svg
   width="150"
   height="150"
   viewBox="0 0 39.687499 39.687501"
   version="1.1"
   id="svg5"
   inkscape:version="1.1.1 (3bf5ae0d25, 2021-09-20)"
   sodipodi:docname="zzz - Copie (5).svg"
   inkscape:export-filename="C:\Users\Clément\Desktop\freepic\res\img/icon.png"
   inkscape:export-xdpi="96"
   inkscape:export-ydpi="96"
   xmlns:inkscape="http://www.inkscape.org/namespaces/inkscape"
   xmlns:sodipodi="http://sodipodi.sourceforge.net/DTD/sodipodi-0.dtd"
   xmlns="http://www.w3.org/2000/svg"
   xmlns:svg="http://www.w3.org/2000/svg">
  <sodipodi:namedview
     id="namedview7"
     pagecolor="#ffffff"
     bordercolor="#666666"
     borderopacity="1.0"
     inkscape:pageshadow="2"
     inkscape:pageopacity="0.0"
     inkscape:pagecheckerboard="true"
     inkscape:document-units="mm"
     showgrid="false"
     units="px"
     inkscape:zoom="3.0289002"
     inkscape:cx="36.977118"
     inkscape:cy="70.487631"
     inkscape:window-width="1920"
     inkscape:window-height="1013"
     inkscape:window-x="-9"
     inkscape:window-y="-9"
     inkscape:window-maximized="1"
     inkscape:current-layer="layer1"
     inkscape:snap-object-midpoints="false"
     inkscape:snap-center="false" />
  <defs
     id="defs2">
    <clipPath
       clipPathUnits="userSpaceOnUse"
       id="clipPath168419-0">
      <path
         style="fill:#d4d591;fill-opacity:1;stroke:#000000;stroke-width:0.264583px;stroke-linecap:butt;stroke-linejoin:miter;stroke-opacity:1"
         d="m 1976.6629,1120.9601 c -14.9756,1.5925 -25.8038,9.2969 -36.1081,17.7735 -10.8363,13.4703 -17.8314,26.9407 -24.1344,40.4111 -5.0825,17.6623 -6.7297,33.8216 -6.174,49.0172 2.96,13.8998 7.3576,26.531 16.2768,35.1727 10.0404,8.8438 23.2314,13.9465 38.9144,16.0897 14.6068,1.5407 26.9047,-0.7669 39.4757,-2.6193 16.4002,-3.4206 25.6399,-12.8083 33.676,-23.199 4.188,-8.0615 7.6011,-17.2853 8.9802,-29.56 0.1671,-11.8575 -2.4879,-24.9245 -4.6772,-37.7919 -3.678,-11.8565 -9.5794,-24.1299 -18.896,-37.0436 -6.3738,-10.6207 -16.705,-17.504 -27.502,-23.9473 -6.0539,-1.7474 -10.1493,-4.5965 -19.8314,-4.3031 z"
         id="path168421-4"
         sodipodi:nodetypes="ccccccccccccc" />
    </clipPath>
    <linearGradient
       x1="-989.37677"
       y1="-3204.3379"
       x2="1175.8552"
       y2="2649.3293"
       gradientUnits="userSpaceOnUse"
       id="color-1"
       gradientTransform="matrix(0.17670732,0,0,0.17670732,-22.688903,-12.005473)">
      <stop
         offset="0"
         stop-color="#2a221e"
         id="stop2" />
      <stop
         offset="1"
         stop-color="#2a221e"
         stop-opacity="0"
         id="stop4" />
    </linearGradient>
    <linearGradient
       x1="-3323.7942"
       y1="-330.77435"
       x2="2849.8162"
       y2="585.84308"
       gradientUnits="userSpaceOnUse"
       id="color-2"
       gradientTransform="matrix(0.17670732,0,0,0.17670732,-22.688903,-12.005473)">
      <stop
         offset="0"
         stop-color="#2a221e"
         id="stop7" />
      <stop
         offset="1"
         stop-color="#2a221e"
         stop-opacity="0"
         id="stop9" />
    </linearGradient>
  </defs>
  <g
     inkscape:label="Calque 1"
     inkscape:groupmode="layer"
     id="layer1">
    <g
       id="g69925"
       transform="matrix(2.1101163,1.4076458,-1.4076458,2.1101163,-746.88124,-611.40901)">
      <g
         id="g69960"
         transform="matrix(1.1484733,0,0,1.1484733,-57.699093,-5.8273981)">
        <path
           style="fill:#8aa240;fill-opacity:1;stroke:#000000;stroke-width:0.1;stroke-linecap:butt;stroke-linejoin:miter;stroke-miterlimit:4;stroke-dasharray:none;stroke-opacity:1"
           d="m 391.04691,34.489934 c -1.10265,2.471333 -2.28104,4.933576 -2.63093,7.49524 0.21499,0.535402 0.55733,0.561396 0.95882,0.350791 0.10726,-2.585144 1.0668,-4.951754 2.38538,-7.226299 -0.28736,-0.0776 -0.57778,-0.147269 -0.71327,-0.619732 z"
           id="path3530-4"
           sodipodi:nodetypes="ccccc" />
        <path
           style="fill:#e5e5cb;fill-opacity:1;stroke:#000000;stroke-width:0.1;stroke-linecap:butt;stroke-linejoin:miter;stroke-miterlimit:4;stroke-dasharray:none;stroke-opacity:1"
           d="m 388.3692,42.043639 c -0.0963,1.293636 -0.22947,2.582006 -0.11693,3.905476 0.0882,0.427222 0.43109,0.430035 0.79513,0.397563 0.35441,0.02216 0.61589,-0.104372 0.73666,-0.456028 -0.0345,-0.289197 -0.0287,-0.473817 -0.21047,-1.145918 l -0.21048,-2.397074 c -0.0943,-0.03898 -0.11726,-0.07795 -0.15201,-0.11693 0.003,-0.109183 0.0556,-0.215085 -0.1637,-0.339098 -0.11642,0.05425 -0.22656,0.152425 -0.3274,0.315711 -0.10503,-0.108157 -0.18779,-0.316474 -0.3508,-0.163702 z"
           id="path3020-8"
           sodipodi:nodetypes="cccccccccc" />
        <path
           style="fill:#748a37;fill-opacity:1;stroke:#000000;stroke-width:0.1;stroke-linecap:butt;stroke-linejoin:miter;stroke-miterlimit:4;stroke-dasharray:none;stroke-opacity:1"
           d="m 386.13583,34.852419 c 1.30614,1.974751 1.806,4.146956 2.37369,6.302549 l 0.63142,-2.069668 c -0.57516,-1.478987 -0.99182,-2.947041 -1.98781,-4.455049 -0.32384,0.165593 -0.66228,0.243646 -1.0173,0.222168 z"
           id="path4006-8"
           sodipodi:nodetypes="ccccc" />
        <path
           style="fill:#54673a;fill-opacity:1;stroke:#000000;stroke-width:0.1;stroke-linecap:butt;stroke-linejoin:miter;stroke-miterlimit:4;stroke-dasharray:none;stroke-opacity:1"
           d="m 387.93656,32.303336 c 0.37959,0.02864 0.71248,-0.05039 1.04653,-0.111084 0.22201,0.856717 0.33837,1.631265 0.42095,2.379534 l -0.78928,3.010958 -0.20463,-0.467722 c 0.1476,-1.673715 -0.0772,-3.262298 -0.47357,-4.811686 z"
           id="path4326-0"
           sodipodi:nodetypes="cccccc" />
        <path
           style="fill:#647833;fill-opacity:1;stroke:#000000;stroke-width:0.1;stroke-linecap:butt;stroke-linejoin:miter;stroke-miterlimit:4;stroke-dasharray:none;stroke-opacity:1"
           d="m 390.24626,32.481568 c -0.77604,1.551444 -1.15667,3.357072 -1.64538,5.09323 l 0.54571,1.455208 0.57877,-1.694987 c 0.20536,-1.458105 0.79888,-2.955027 1.43867,-4.456576 -0.3381,-0.156423 -0.66658,-0.305637 -0.91777,-0.396875 z"
           id="path4798-6"
           sodipodi:nodetypes="cccccc" />
        <ellipse
           style="fill:#cdccb7;fill-opacity:1;stroke:#ffffff;stroke-width:0;stroke-miterlimit:4;stroke-dasharray:none"
           id="path6381-3"
           cx="382.07889"
           cy="86.733925"
           rx="0.4794147"
           ry="0.1549328"
           transform="rotate(-6.0232911)" />
        <path
           style="fill:none;stroke:#000000;stroke-width:0.05;stroke-linecap:butt;stroke-linejoin:miter;stroke-miterlimit:4;stroke-dasharray:none;stroke-opacity:1"
           d="m 388.81354,46.264827 c 0.0332,0.0622 0.0654,0.147503 0.0468,0.222168 -0.0272,0.108806 -0.1423,0.157965 -0.1754,0.257247 -0.0214,0.06419 0.008,0.241548 0.0234,0.304019 0.0145,0.05773 -2.6e-4,0.127225 0.0117,0.187088"
           id="path13102-8" />
        <path
           style="fill:none;stroke:#000000;stroke-width:0.05;stroke-linecap:butt;stroke-linejoin:miter;stroke-miterlimit:4;stroke-dasharray:none;stroke-opacity:1"
           d="m 388.95386,46.253134 c 0.19551,-0.01109 0.14452,0.202893 0.0818,0.315712 -0.0249,0.04482 -0.0221,0.0015 -0.0351,0.04677 -0.0245,0.08561 -0.0381,0.192079 -0.0234,0.280633 0.008,0.04889 0.0556,0.08487 0.0702,0.128624 0.004,0.01109 -0.002,0.02361 0,0.03508 0.005,0.02586 0.0351,0.04574 0.0351,0.07016"
           id="path13104-12" />
        <path
           style="fill:none;stroke:#000000;stroke-width:0.05;stroke-linecap:butt;stroke-linejoin:miter;stroke-miterlimit:4;stroke-dasharray:none;stroke-opacity:1"
           d="m 389.2111,46.229748 c 0.0156,-0.0039 0.0367,-0.02424 0.0468,-0.01169 0.0195,0.02445 -0.0258,0.184455 -0.0351,0.210475 -0.006,0.0169 -0.20116,0.178685 -0.22217,0.187088 -0.0109,0.0043 -0.0246,-0.0052 -0.0351,0 -0.0148,0.0074 -0.0209,0.02657 -0.0351,0.03508 -0.007,0.004 -0.0169,-0.0043 -0.0234,0 -0.008,0.0051 -0.0504,0.05809 -0.0585,0.07016 -0.0179,0.02686 -0.007,-0.005 -0.0351,0.02339 -0.022,0.02202 -0.0365,0.05984 -0.0585,0.08185 -0.006,0.0062 -0.0172,0.0055 -0.0234,0.01169 -0.0447,0.04472 -0.10523,0.134367 -0.10523,0.198781"
           id="path13106-9" />
        <path
           style="fill:none;stroke:#000000;stroke-width:0.05;stroke-linecap:butt;stroke-linejoin:miter;stroke-miterlimit:4;stroke-dasharray:none;stroke-opacity:1"
           d="m 389.30465,46.171283 c 0.0468,0.03118 0.098,0.05653 0.14031,0.09354 0.17015,0.148876 -0.11267,0.376818 -0.15201,0.514494 -0.007,0.02623 0,0.05457 0,0.08185 0,0.01949 -0.007,0.04015 0,0.05846 0.0207,0.0569 0.0843,0.107046 0.12863,0.140317 0.0308,0.02312 0.1155,0.09354 0.15201,0.09354"
           id="path13108-1" />
        <path
           style="fill:none;stroke:#000000;stroke-width:0.05;stroke-linecap:butt;stroke-linejoin:miter;stroke-miterlimit:4;stroke-dasharray:none;stroke-opacity:1"
           d="m 388.94216,46.12451 c -0.0627,0.0099 -0.20741,0.08895 -0.23386,0.128624 -0.009,0.01337 -0.007,0.03138 -0.0117,0.04677 -0.01,0.0319 -0.027,0.06124 -0.0351,0.09354 -0.0127,0.05076 0.006,0.07635 -0.0234,0.128624 -0.0446,0.07796 -0.12229,0.116286 -0.17539,0.187089 -0.0135,0.01799 -0.0401,0.06183 -0.0468,0.08185 -0.002,0.0074 0.004,0.01642 0,0.02339 -0.0115,0.02291 -0.0342,0.04506 -0.0468,0.07016"
           id="path13110-9" />
      </g>
    </g>
  </g>
</svg>
