<?xml version="1.0" encoding="UTF-8" standalone="no"?>
<!-- Created with Inkscape (http://www.inkscape.org/) -->

<svg
   width="150"
   height="150"
   viewBox="0 0 39.687499 39.687501"
   version="1.1"
   id="svg5"
   inkscape:version="1.1.1 (3bf5ae0d25, 2021-09-20)"
   sodipodi:docname="zzz - Copie (11).svg"
   inkscape:export-filename="C:\Users\Clément\Desktop\freepic\res\img/icon.png"
   inkscape:export-xdpi="96"
   inkscape:export-ydpi="96"
   xmlns:inkscape="http://www.inkscape.org/namespaces/inkscape"
   xmlns:sodipodi="http://sodipodi.sourceforge.net/DTD/sodipodi-0.dtd"
   xmlns:xlink="http://www.w3.org/1999/xlink"
   xmlns="http://www.w3.org/2000/svg"
   xmlns:svg="http://www.w3.org/2000/svg">
  <sodipodi:namedview
     id="namedview7"
     pagecolor="#ffffff"
     bordercolor="#666666"
     borderopacity="1.0"
     inkscape:pageshadow="2"
     inkscape:pageopacity="0.0"
     inkscape:pagecheckerboard="true"
     inkscape:document-units="mm"
     showgrid="false"
     units="px"
     inkscape:zoom="3.0289002"
     inkscape:cx="73.29393"
     inkscape:cy="42.42464"
     inkscape:window-width="1920"
     inkscape:window-height="1013"
     inkscape:window-x="-9"
     inkscape:window-y="-9"
     inkscape:window-maximized="1"
     inkscape:current-layer="layer1"
     inkscape:snap-object-midpoints="false"
     inkscape:snap-center="false" />
  <defs
     id="defs2">
    <clipPath
       clipPathUnits="userSpaceOnUse"
       id="clipPath168419-0">
      <path
         style="fill:#d4d591;fill-opacity:1;stroke:#000000;stroke-width:0.264583px;stroke-linecap:butt;stroke-linejoin:miter;stroke-opacity:1"
         d="m 1976.6629,1120.9601 c -14.9756,1.5925 -25.8038,9.2969 -36.1081,17.7735 -10.8363,13.4703 -17.8314,26.9407 -24.1344,40.4111 -5.0825,17.6623 -6.7297,33.8216 -6.174,49.0172 2.96,13.8998 7.3576,26.531 16.2768,35.1727 10.0404,8.8438 23.2314,13.9465 38.9144,16.0897 14.6068,1.5407 26.9047,-0.7669 39.4757,-2.6193 16.4002,-3.4206 25.6399,-12.8083 33.676,-23.199 4.188,-8.0615 7.6011,-17.2853 8.9802,-29.56 0.1671,-11.8575 -2.4879,-24.9245 -4.6772,-37.7919 -3.678,-11.8565 -9.5794,-24.1299 -18.896,-37.0436 -6.3738,-10.6207 -16.705,-17.504 -27.502,-23.9473 -6.0539,-1.7474 -10.1493,-4.5965 -19.8314,-4.3031 z"
         id="path168421-4"
         sodipodi:nodetypes="ccccccccccccc" />
    </clipPath>
    <linearGradient
       x1="-989.37677"
       y1="-3204.3379"
       x2="1175.8552"
       y2="2649.3293"
       gradientUnits="userSpaceOnUse"
       id="color-1"
       gradientTransform="matrix(0.17670732,0,0,0.17670732,-22.688903,-12.005473)">
      <stop
         offset="0"
         stop-color="#2a221e"
         id="stop2" />
      <stop
         offset="1"
         stop-color="#2a221e"
         stop-opacity="0"
         id="stop4" />
    </linearGradient>
    <linearGradient
       x1="-3323.7942"
       y1="-330.77435"
       x2="2849.8162"
       y2="585.84308"
       gradientUnits="userSpaceOnUse"
       id="color-2"
       gradientTransform="matrix(0.17670732,0,0,0.17670732,-22.688903,-12.005473)">
      <stop
         offset="0"
         stop-color="#2a221e"
         id="stop7" />
      <stop
         offset="1"
         stop-color="#2a221e"
         stop-opacity="0"
         id="stop9" />
    </linearGradient>
    <radialGradient
       inkscape:collect="always"
       xlink:href="#linearGradient98485"
       id="radialGradient11295-4-9"
       cx="1058.5979"
       cy="1659.4667"
       fx="1058.5979"
       fy="1659.4667"
       r="27.516666"
       gradientTransform="matrix(2.0912325,0,0,2.0912324,-1157.693,-1810.7348)"
       gradientUnits="userSpaceOnUse" />
    <linearGradient
       inkscape:collect="always"
       id="linearGradient98485">
      <stop
         style="stop-color:#e1ba1b;stop-opacity:1"
         offset="0"
         id="stop98481" />
      <stop
         style="stop-color:#ffe400;stop-opacity:0"
         offset="1"
         id="stop98483" />
    </linearGradient>
  </defs>
  <g
     inkscape:label="Calque 1"
     inkscape:groupmode="layer"
     id="layer1">
    <g
       id="g79300-9-7"
       transform="matrix(0.15533161,0,0,0.15533161,-145.11921,-249.52483)"
       inkscape:export-filename="C:\Users\Clément\Desktop\allCollectibles.png"
       inkscape:export-xdpi="96"
       inkscape:export-ydpi="96">
      <path
         style="fill:#6b6c6d;fill-opacity:1;stroke:#000000;stroke-width:0.265;stroke-linecap:butt;stroke-linejoin:miter;stroke-miterlimit:4;stroke-dasharray:none;stroke-opacity:1"
         d="m 943.22793,1672.9017 c 12.79419,-9.5419 28.54203,-17.7712 44.44999,-25.9292 16.22778,-6.5041 32.45558,-10.5673 48.68328,-14.2875 18.4645,-2.5147 33.0833,1.5082 48.1542,4.7625 15.9485,4.1793 31.6472,8.9418 45.5083,17.9917 17.9268,10.444 31.2592,24.647 45.5084,38.1 4.2953,11.4612 9.5879,23.0759 9.525,33.8666 1.8086,14.8331 -0.7398,26.4976 -2.6459,38.6292 -9.2476,18.0517 -22.0884,32.1017 -34.925,47.625 -22.6637,13.4719 -50.9214,24.5926 -76.7291,26.9875 -19.2738,-6.4977 -34.7909,1.146 -50.2709,-2.6459 -22.39138,-8.4766 -40.73824,-20.9978 -57.14994,-35.4541 -6.93661,-8.9443 -18.27324,-15.4442 -19.57917,-27.5167 -3.0523,-4.0561 0.78317,-7.0247 4.23334,-10.0541 13.34913,10.207 25.9558,21.6514 41.27499,28.575 14.47038,7.1011 27.97998,7.4766 41.80418,10.0541 20.7304,0.6685 38.7111,-2.7874 54.5041,-9.525 16.2915,-8.3583 27.5768,-20.6103 37.5709,-33.8666 3.397,-13.4056 3.8135,-26.8111 -1.5875,-40.2167 -2.2239,-8.6137 -4.5474,-17.2547 -24.3417,-30.6917 l -14.2875,-11.1125 c -6.9295,1.6633 -14.2391,2.5662 -22.225,2.1167 -8.6411,0.3442 -16.9352,-0.8734 -24.8708,-3.7042 -4.7806,-2.6875 -8.0749,-7.7529 -11.1125,-13.2291 -19.9729,1.3607 -38.71243,6.0103 -57.67917,10.0541 l -15.875,6.8792 c -4.42838,-0.5681 -8.68981,-1.3142 -7.9375,-7.4083 z"
         id="path4807-2-7-1"
         sodipodi:nodetypes="ccccccccccccccccccccccccccc" />
      <path
         style="fill:#959595;fill-opacity:1;stroke:#000000;stroke-width:0.264583px;stroke-linecap:butt;stroke-linejoin:miter;stroke-opacity:1"
         d="m 1022.7352,1825.4339 c 2.5474,10.6126 9.0193,18.478 14.949,26.723 8.006,6.1937 16.2483,5.7735 24.6062,2.1166 3.9286,-7.9339 8.4893,-15.3061 9.3927,-25.9291 3.7584,-11.4265 7.6603,-22.7892 8.3344,-35.5865 4.4277,-11.8389 -0.074,-20.9601 -3.4396,-30.4271 9.6782,-9.2997 19.7834,-18.2009 24.3417,-32.2791 l 3.7041,-15.875 c 3.6839,-7.0192 8.2241,-12.4686 14.0229,-15.6105 -3.0555,-5.4223 0.058,-13.4149 -14.552,-14.0229 -2.8531,5.8952 -7.7369,11.655 -15.875,17.1979 -0.088,8.4667 -1.9403,15.6987 -5.5563,21.6959 l -12.7,13.2291 c -6.4382,0.7539 -12.8764,3.0028 -19.3146,-0.5291 -10.0598,-4.0741 -16.7463,-11.0998 -21.1666,-20.1084 2.1007,-7.1128 6.6225,-13.188 4.2333,-22.225 -2.0581,-5.6196 -1.4546,-12.2197 -12.4354,-14.552 -4.7994,-0.6338 -9.1774,-1.5836 -15.875,-0.7938 -5.2093,4.5508 -8.39868,9.5678 -7.14378,15.6104 l 12.43548,1.5875 c -1.9136,7.092 -2.4566,14.3553 -2.3813,21.6959 7.1576,14.5501 13.2791,29.2482 25.1354,43.127 -6.1892,5.4698 -11.0042,12.0847 -15.0812,19.3146 -1.8985,15.6393 1.0286,30.6649 4.3656,45.6406 z"
         id="path6722-8-3-0"
         sodipodi:nodetypes="cccccccccccccccccccccccc" />
      <path
         style="fill:#959595;fill-opacity:1;stroke:#000000;stroke-width:0.264583px;stroke-linecap:butt;stroke-linejoin:miter;stroke-opacity:1"
         d="m 1053.03,1737.2616 -1.0628,-8.9191 c -3.8175,-2.2342 -8.0353,-4.0109 -10.1963,-8.1383 -1.6592,-6.7734 1.4773,-10.2266 6.2674,-12.535 l 20.2056,-0.6548 c 8.2698,1.351 8.4875,4.6456 9.8222,7.6706 -2.9083,6.2906 -7.1808,9.6371 -8.4733,12.9608 -1.1489,2.9542 0.6065,6.0083 -0.6005,9.3028 -5.9882,1.3178 -11.3459,1.4894 -15.9623,0.313 z"
         id="path8200-1-7-0"
         sodipodi:nodetypes="ccccccscc" />
      <text
         xml:space="preserve"
         style="font-style:normal;font-weight:normal;font-size:17.6389px;line-height:1.25;font-family:sans-serif;fill:#959595;fill-opacity:1;stroke:none;stroke-width:0.264583"
         id="text11885-7-4"><textPath
           xlink:href="#path12990-5-1"
           id="textPath13265-4-6"><tspan
             id="tspan11883-8-3"
             style="fill:#959595;fill-opacity:1;stroke-width:0.264583">除了在我的公寓裡一個人寫代碼，我無事可做</tspan></textPath></text>
      <ellipse
         style="fill:#d1a807;fill-opacity:1;stroke:#000000;stroke-width:0;stroke-miterlimit:4;stroke-dasharray:none;stroke-opacity:1"
         id="path8689-8-4-1"
         cx="1058.7847"
         cy="1656.6298"
         rx="20.733425"
         ry="16.640871" />
      <ellipse
         style="fill:#edc838;fill-opacity:1;stroke:#000000;stroke-width:0;stroke-miterlimit:4;stroke-dasharray:none;stroke-opacity:1"
         id="path8689-8-7-2-0"
         cx="1053.5708"
         cy="1652.4552"
         rx="9.6900387"
         ry="7.7773299" />
      <ellipse
         style="fill:#000000;fill-opacity:1;stroke:#000000;stroke-width:0;stroke-miterlimit:4;stroke-dasharray:none;stroke-opacity:1"
         id="path10701-4-1"
         cx="1054.1331"
         cy="1710.7958"
         rx="2.1864867"
         ry="0.92604101" />
      <ellipse
         style="fill:#000000;fill-opacity:1;stroke:#000000;stroke-width:0;stroke-miterlimit:4;stroke-dasharray:none;stroke-opacity:1"
         id="path10701-2-4-7"
         cx="1064.2864"
         cy="1710.9281"
         rx="2.1864867"
         ry="0.92604101" />
      <path
         style="fill:none;stroke:#000000;stroke-width:0.264583px;stroke-linecap:butt;stroke-linejoin:miter;stroke-opacity:1"
         d="m 1032.1395,1798.3728 c 6.3392,1.5731 24.6059,4.9495 31.4855,2.1167 3.3827,-1.3929 1.9477,-1.6767 5.027,-2.1167 1.7242,-0.2463 3.3687,-0.2409 5.0271,-0.7937"
         id="path10904-8-8" />
      <path
         style="fill:none;stroke:#000000;stroke-width:0.264583px;stroke-linecap:butt;stroke-linejoin:miter;stroke-opacity:1"
         d="m 1023.6729,1789.377 c 9.1871,-4.7078 19.5469,-8.0548 29.8979,-8.9958 5.2073,-0.4734 9.5114,0.5417 14.5521,0.7937 1.9795,0.099 4.5218,-0.3849 6.35,0.5292"
         id="path10906-7-4" />
      <path
         style="fill:none;stroke:#000000;stroke-width:0.264583px;stroke-linecap:butt;stroke-linejoin:miter;stroke-opacity:1"
         d="m 1110.4562,1686.4541 c -1.4308,2.1419 -3.3424,3.9554 -4.7625,6.0854"
         id="path11257-2-7" />
      <path
         style="fill:none;stroke:#000000;stroke-width:0.264583px;stroke-linecap:butt;stroke-linejoin:miter;stroke-opacity:1"
         d="m 1115.2187,1693.0687 c -1.3148,1.5984 -2.9227,3.1934 -3.9687,4.7625"
         id="path11259-2-3" />
      <path
         style="fill:none;stroke:#000000;stroke-width:0.264583px;stroke-linecap:butt;stroke-linejoin:miter;stroke-opacity:1"
         d="m 1004.8875,1681.9562 c 0.8819,0.9701 1.7639,1.9403 2.6458,2.9104"
         id="path11261-3-3" />
      <path
         style="fill:none;stroke:#000000;stroke-width:0.264583px;stroke-linecap:butt;stroke-linejoin:miter;stroke-opacity:1"
         d="m 1002.5062,1689.0999 c 1.7619,0.6395 2.894,2.3731 4.4979,3.175"
         id="path11263-9-0" />
      <circle
         style="fill:url(#radialGradient11295-4-9);fill-opacity:1;stroke:#000000;stroke-width:0;stroke-miterlimit:4;stroke-dasharray:none;stroke-opacity:1"
         id="path11287-5-9"
         cx="1056.0812"
         cy="1659.5958"
         r="57.543747" />
      <path
         style="fill:none;stroke:#000000;stroke-width:0;stroke-linecap:butt;stroke-linejoin:miter;stroke-miterlimit:4;stroke-dasharray:none;stroke-opacity:1"
         d="m 1068.2763,1660.2248 c 122.3383,56.439 146.3689,110.1754 -20.954,158.6512"
         id="path12990-5-1"
         sodipodi:nodetypes="cc" />
    </g>
  </g>
</svg>
