<?xml version="1.0" encoding="UTF-8" standalone="no"?>
<!-- Created with Inkscape (http://www.inkscape.org/) -->

<svg
   width="150"
   height="150"
   viewBox="0 0 39.687499 39.687501"
   version="1.1"
   id="svg5"
   inkscape:version="1.1.1 (3bf5ae0d25, 2021-09-20)"
   sodipodi:docname="zzz - Copie - Copie (4).svg"
   inkscape:export-filename="C:\Users\Clément\Desktop\freepic\res\img/icon.png"
   inkscape:export-xdpi="96"
   inkscape:export-ydpi="96"
   xmlns:inkscape="http://www.inkscape.org/namespaces/inkscape"
   xmlns:sodipodi="http://sodipodi.sourceforge.net/DTD/sodipodi-0.dtd"
   xmlns="http://www.w3.org/2000/svg"
   xmlns:svg="http://www.w3.org/2000/svg">
  <sodipodi:namedview
     id="namedview7"
     pagecolor="#ffffff"
     bordercolor="#666666"
     borderopacity="1.0"
     inkscape:pageshadow="2"
     inkscape:pageopacity="0.0"
     inkscape:pagecheckerboard="true"
     inkscape:document-units="mm"
     showgrid="false"
     units="px"
     inkscape:zoom="3.0289002"
     inkscape:cx="62.729039"
     inkscape:cy="70.487631"
     inkscape:window-width="1920"
     inkscape:window-height="1013"
     inkscape:window-x="-9"
     inkscape:window-y="-9"
     inkscape:window-maximized="1"
     inkscape:current-layer="layer1"
     inkscape:snap-object-midpoints="false"
     inkscape:snap-center="false" />
  <defs
     id="defs2">
    <clipPath
       clipPathUnits="userSpaceOnUse"
       id="clipPath168419-0">
      <path
         style="fill:#d4d591;fill-opacity:1;stroke:#000000;stroke-width:0.264583px;stroke-linecap:butt;stroke-linejoin:miter;stroke-opacity:1"
         d="m 1976.6629,1120.9601 c -14.9756,1.5925 -25.8038,9.2969 -36.1081,17.7735 -10.8363,13.4703 -17.8314,26.9407 -24.1344,40.4111 -5.0825,17.6623 -6.7297,33.8216 -6.174,49.0172 2.96,13.8998 7.3576,26.531 16.2768,35.1727 10.0404,8.8438 23.2314,13.9465 38.9144,16.0897 14.6068,1.5407 26.9047,-0.7669 39.4757,-2.6193 16.4002,-3.4206 25.6399,-12.8083 33.676,-23.199 4.188,-8.0615 7.6011,-17.2853 8.9802,-29.56 0.1671,-11.8575 -2.4879,-24.9245 -4.6772,-37.7919 -3.678,-11.8565 -9.5794,-24.1299 -18.896,-37.0436 -6.3738,-10.6207 -16.705,-17.504 -27.502,-23.9473 -6.0539,-1.7474 -10.1493,-4.5965 -19.8314,-4.3031 z"
         id="path168421-4"
         sodipodi:nodetypes="ccccccccccccc" />
    </clipPath>
    <linearGradient
       x1="-989.37677"
       y1="-3204.3379"
       x2="1175.8552"
       y2="2649.3293"
       gradientUnits="userSpaceOnUse"
       id="color-1"
       gradientTransform="matrix(0.17670732,0,0,0.17670732,-22.688903,-12.005473)">
      <stop
         offset="0"
         stop-color="#2a221e"
         id="stop2" />
      <stop
         offset="1"
         stop-color="#2a221e"
         stop-opacity="0"
         id="stop4" />
    </linearGradient>
    <linearGradient
       x1="-3323.7942"
       y1="-330.77435"
       x2="2849.8162"
       y2="585.84308"
       gradientUnits="userSpaceOnUse"
       id="color-2"
       gradientTransform="matrix(0.17670732,0,0,0.17670732,-22.688903,-12.005473)">
      <stop
         offset="0"
         stop-color="#2a221e"
         id="stop7" />
      <stop
         offset="1"
         stop-color="#2a221e"
         stop-opacity="0"
         id="stop9" />
    </linearGradient>
  </defs>
  <g
     inkscape:label="Calque 1"
     inkscape:groupmode="layer"
     id="layer1">
    <path
       id="rect42300"
       style="fill:#737373;fill-opacity:1;stroke:#000000;stroke-width:0.512953;stroke-miterlimit:4;stroke-dasharray:none;stroke-opacity:1"
       d="m 19.575419,0.68347135 c -5.130526,0 -9.260709,4.13069635 -9.260709,9.26124275 v 4.4140519 c 0,5.130536 4.130183,9.261233 9.260709,9.261233 5.130536,0 9.261264,-4.130697 9.261264,-9.261233 V 9.9447141 c 0,-5.1305464 -4.130728,-9.26124275 -9.261264,-9.26124275 z M 19.370268,4.67923 h 0.21895 c 3.014375,0 5.440945,2.426591 5.440945,5.440966 v 7.131611 c 0,3.014375 -2.42657,5.440955 -5.440945,5.440955 h -0.21895 c -3.014374,0 -5.441489,-2.42658 -5.441489,-5.440955 v -7.131611 c 0,-3.014375 2.427115,-5.440966 5.441489,-5.440966 z"
       inkscape:export-filename="C:\Users\Clément\Desktop\Seed Keeper\Sprites\Icons\PopupsContent/lockedPadlock.png"
       inkscape:export-xdpi="96"
       inkscape:export-ydpi="96" />
    <rect
       style="fill:#ffdd58;fill-opacity:1;stroke:#e9b800;stroke-width:0.511347;stroke-miterlimit:4;stroke-dasharray:none;stroke-opacity:1"
       id="rect43247"
       width="27.160521"
       height="22.41011"
       x="5.8994417"
       y="16.565458"
       ry="4.577383"
       inkscape:export-filename="C:\Users\Clément\Desktop\Seed Keeper\Sprites\Icons\PopupsContent/lockedPadlock.png"
       inkscape:export-xdpi="96"
       inkscape:export-ydpi="96" />
    <path
       style="fill:#ffd058;fill-opacity:1;stroke:#e9b800;stroke-width:0.512954;stroke-linecap:butt;stroke-linejoin:miter;stroke-miterlimit:4;stroke-dasharray:none;stroke-opacity:1"
       d="m 18.391572,27.4567 c -2.541646,-2.441364 -2.297224,-4.17918 1.492912,-5.021605 4.289528,1.460186 2.190694,3.47589 0.814315,5.428768 l 1.492912,5.021605 -5.700203,0.135718 z"
       id="path48260"
       sodipodi:nodetypes="cccccc"
       inkscape:export-filename="C:\Users\Clément\Desktop\Seed Keeper\Sprites\Icons\PopupsContent/lockedPadlock.png"
       inkscape:export-xdpi="96"
       inkscape:export-ydpi="96" />
  </g>
</svg>
