<?xml version="1.0" encoding="UTF-8" standalone="no"?>
<!-- Created with Inkscape (http://www.inkscape.org/) -->

<svg
   width="150"
   height="150"
   viewBox="0 0 39.687499 39.687501"
   version="1.1"
   id="svg5"
   inkscape:version="1.1.1 (3bf5ae0d25, 2021-09-20)"
   sodipodi:docname="zzz - Copie - Copie (3).svg"
   inkscape:export-filename="C:\Users\Clément\Desktop\freepic\res\img/icon.png"
   inkscape:export-xdpi="96"
   inkscape:export-ydpi="96"
   xmlns:inkscape="http://www.inkscape.org/namespaces/inkscape"
   xmlns:sodipodi="http://sodipodi.sourceforge.net/DTD/sodipodi-0.dtd"
   xmlns:xlink="http://www.w3.org/1999/xlink"
   xmlns="http://www.w3.org/2000/svg"
   xmlns:svg="http://www.w3.org/2000/svg">
  <sodipodi:namedview
     id="namedview7"
     pagecolor="#ffffff"
     bordercolor="#666666"
     borderopacity="1.0"
     inkscape:pageshadow="2"
     inkscape:pageopacity="0.0"
     inkscape:pagecheckerboard="true"
     inkscape:document-units="mm"
     showgrid="false"
     units="px"
     inkscape:zoom="3.0289002"
     inkscape:cx="62.729039"
     inkscape:cy="70.487631"
     inkscape:window-width="1920"
     inkscape:window-height="1013"
     inkscape:window-x="-9"
     inkscape:window-y="-9"
     inkscape:window-maximized="1"
     inkscape:current-layer="layer1"
     inkscape:snap-object-midpoints="false"
     inkscape:snap-center="false" />
  <defs
     id="defs2">
    <clipPath
       clipPathUnits="userSpaceOnUse"
       id="clipPath168419-0">
      <path
         style="fill:#d4d591;fill-opacity:1;stroke:#000000;stroke-width:0.264583px;stroke-linecap:butt;stroke-linejoin:miter;stroke-opacity:1"
         d="m 1976.6629,1120.9601 c -14.9756,1.5925 -25.8038,9.2969 -36.1081,17.7735 -10.8363,13.4703 -17.8314,26.9407 -24.1344,40.4111 -5.0825,17.6623 -6.7297,33.8216 -6.174,49.0172 2.96,13.8998 7.3576,26.531 16.2768,35.1727 10.0404,8.8438 23.2314,13.9465 38.9144,16.0897 14.6068,1.5407 26.9047,-0.7669 39.4757,-2.6193 16.4002,-3.4206 25.6399,-12.8083 33.676,-23.199 4.188,-8.0615 7.6011,-17.2853 8.9802,-29.56 0.1671,-11.8575 -2.4879,-24.9245 -4.6772,-37.7919 -3.678,-11.8565 -9.5794,-24.1299 -18.896,-37.0436 -6.3738,-10.6207 -16.705,-17.504 -27.502,-23.9473 -6.0539,-1.7474 -10.1493,-4.5965 -19.8314,-4.3031 z"
         id="path168421-4"
         sodipodi:nodetypes="ccccccccccccc" />
    </clipPath>
    <linearGradient
       x1="-989.37677"
       y1="-3204.3379"
       x2="1175.8552"
       y2="2649.3293"
       gradientUnits="userSpaceOnUse"
       id="color-1"
       gradientTransform="matrix(0.17670732,0,0,0.17670732,-22.688903,-12.005473)">
      <stop
         offset="0"
         stop-color="#2a221e"
         id="stop2" />
      <stop
         offset="1"
         stop-color="#2a221e"
         stop-opacity="0"
         id="stop4" />
    </linearGradient>
    <linearGradient
       x1="-3323.7942"
       y1="-330.77435"
       x2="2849.8162"
       y2="585.84308"
       gradientUnits="userSpaceOnUse"
       id="color-2"
       gradientTransform="matrix(0.17670732,0,0,0.17670732,-22.688903,-12.005473)">
      <stop
         offset="0"
         stop-color="#2a221e"
         id="stop7" />
      <stop
         offset="1"
         stop-color="#2a221e"
         stop-opacity="0"
         id="stop9" />
    </linearGradient>
    <radialGradient
       inkscape:collect="always"
       xlink:href="#linearGradient29929"
       id="radialGradient29931"
       cx="135.05643"
       cy="62.696461"
       fx="135.05643"
       fy="62.696461"
       r="3.8526294"
       gradientUnits="userSpaceOnUse"
       gradientTransform="matrix(2.7228965,0,0,2.7228965,-352.93359,-157.38638)" />
    <linearGradient
       inkscape:collect="always"
       id="linearGradient29929">
      <stop
         style="stop-color:#58b8ff;stop-opacity:1;"
         offset="0"
         id="stop29925" />
      <stop
         style="stop-color:#58b8ff;stop-opacity:0;"
         offset="1"
         id="stop29927" />
    </linearGradient>
  </defs>
  <g
     inkscape:label="Calque 1"
     inkscape:groupmode="layer"
     id="layer1">
    <path
       id="path29494"
       style="fill:#ffdd58;fill-opacity:1;stroke:#e9b800;stroke-width:0;stroke-miterlimit:4;stroke-dasharray:none;stroke-opacity:1"
       d="M 14.381742,1.2678863 A 11.939143,11.939143 0 0 0 2.4425491,13.207096 11.939143,11.939143 0 0 0 14.381742,25.1463 11.939143,11.939143 0 0 0 26.320962,13.207096 11.939143,11.939143 0 0 0 14.381742,1.2678863 Z m 0.195504,1.8123408 A 10.185291,10.185291 0 0 1 24.763221,13.266194 10.185291,10.185291 0 0 1 14.577246,23.452157 10.185291,10.185291 0 0 1 4.3912989,13.266194 10.185291,10.185291 0 0 1 14.577246,3.0802271 Z" />
    <circle
       style="fill:none;fill-opacity:1;stroke:#e9b800;stroke-width:1.42604;stroke-miterlimit:4;stroke-dasharray:none;stroke-opacity:1"
       id="path29494-0"
       cx="14.678788"
       cy="13.015647"
       r="11.939143" />
    <circle
       style="fill:url(#radialGradient29931);fill-opacity:1;stroke:#664cff;stroke-width:0.61004;stroke-miterlimit:4;stroke-dasharray:none;stroke-opacity:1"
       id="path29494-3-2"
       cx="14.811036"
       cy="13.329606"
       r="10.18529" />
    <path
       style="fill:none;stroke:#ffffff;stroke-width:0.720432px;stroke-linecap:butt;stroke-linejoin:miter;stroke-opacity:0.8"
       d="M 6.9738028,10.595874 C 7.1284633,10.375074 7.8462733,9.3346826 7.9926562,9.194954 8.581537,8.6328529 9.4882889,8.2085249 10.157713,7.7303652 c 0.07325,-0.052307 0.117357,-0.1393851 0.191147,-0.1910384 0.140229,-0.098133 0.307334,-0.1540615 0.445738,-0.254727 0.430708,-0.3132447 0.07052,-0.2222428 0.573088,-0.509424 0.03676,-0.020966 0.08931,0.01906 0.127432,0 0.211024,-0.1055122 0.403125,-0.3041829 0.636777,-0.3820686 0.636068,-0.212032 1.25117,-0.3221405 1.910329,-0.382066 1.279843,-0.1163493 -0.494668,-0.00871 0.573088,-0.1273498 0.25323,-0.028182 0.511006,0.0281 0.764154,0 0.127432,-0.014159 0.200405,-0.1273499 0.318388,-0.1273499"
       id="path31226" />
    <path
       style="fill:#e9b800;fill-opacity:1;stroke:#000000;stroke-width:0;stroke-linecap:butt;stroke-linejoin:miter;stroke-miterlimit:4;stroke-dasharray:none;stroke-opacity:1"
       d="m 20.971152,23.847541 2.251345,2.701622 c 1.563759,-0.111148 1.883945,-0.844097 2.026216,-1.666001 L 22.817275,22.18154 Z"
       id="path31467"
       sodipodi:nodetypes="ccccc" />
    <path
       style="fill:#e93700;fill-opacity:1;stroke:#840606;stroke-width:0.27229;stroke-linecap:butt;stroke-linejoin:miter;stroke-miterlimit:4;stroke-dasharray:none;stroke-opacity:1"
       d="m 22.682193,28.260193 8.510086,10.356224 c 1.345056,1.162671 2.165873,0.228397 3.016833,-0.585352 1.19271,-0.398188 1.912671,-1.213497 1.666004,-2.881731 L 27.22992,24.838136 c -0.693413,-0.199398 -1.106068,-0.799892 -2.341419,-0.225129 l -2.296382,2.161299 c -0.123619,0.841155 -0.125253,1.407479 0.09013,1.485887 z"
       id="path32835"
       sodipodi:nodetypes="cccccccc" />
  </g>
</svg>
