<?xml version="1.0" encoding="UTF-8" standalone="no"?>
<!-- Created with Inkscape (http://www.inkscape.org/) -->

<svg
   width="150"
   height="150"
   viewBox="0 0 39.687499 39.687501"
   version="1.1"
   id="svg5"
   inkscape:version="1.1.1 (3bf5ae0d25, 2021-09-20)"
   sodipodi:docname="zzz - Copie (9).svg"
   inkscape:export-filename="C:\Users\Clément\Desktop\freepic\res\img/icon.png"
   inkscape:export-xdpi="96"
   inkscape:export-ydpi="96"
   xmlns:inkscape="http://www.inkscape.org/namespaces/inkscape"
   xmlns:sodipodi="http://sodipodi.sourceforge.net/DTD/sodipodi-0.dtd"
   xmlns="http://www.w3.org/2000/svg"
   xmlns:svg="http://www.w3.org/2000/svg">
  <sodipodi:namedview
     id="namedview7"
     pagecolor="#ffffff"
     bordercolor="#666666"
     borderopacity="1.0"
     inkscape:pageshadow="2"
     inkscape:pageopacity="0.0"
     inkscape:pagecheckerboard="true"
     inkscape:document-units="mm"
     showgrid="false"
     units="px"
     inkscape:zoom="3.0289002"
     inkscape:cx="62.729039"
     inkscape:cy="70.487631"
     inkscape:window-width="1920"
     inkscape:window-height="1013"
     inkscape:window-x="-9"
     inkscape:window-y="-9"
     inkscape:window-maximized="1"
     inkscape:current-layer="layer1"
     inkscape:snap-object-midpoints="false"
     inkscape:snap-center="false" />
  <defs
     id="defs2">
    <clipPath
       clipPathUnits="userSpaceOnUse"
       id="clipPath168419-0">
      <path
         style="fill:#d4d591;fill-opacity:1;stroke:#000000;stroke-width:0.264583px;stroke-linecap:butt;stroke-linejoin:miter;stroke-opacity:1"
         d="m 1976.6629,1120.9601 c -14.9756,1.5925 -25.8038,9.2969 -36.1081,17.7735 -10.8363,13.4703 -17.8314,26.9407 -24.1344,40.4111 -5.0825,17.6623 -6.7297,33.8216 -6.174,49.0172 2.96,13.8998 7.3576,26.531 16.2768,35.1727 10.0404,8.8438 23.2314,13.9465 38.9144,16.0897 14.6068,1.5407 26.9047,-0.7669 39.4757,-2.6193 16.4002,-3.4206 25.6399,-12.8083 33.676,-23.199 4.188,-8.0615 7.6011,-17.2853 8.9802,-29.56 0.1671,-11.8575 -2.4879,-24.9245 -4.6772,-37.7919 -3.678,-11.8565 -9.5794,-24.1299 -18.896,-37.0436 -6.3738,-10.6207 -16.705,-17.504 -27.502,-23.9473 -6.0539,-1.7474 -10.1493,-4.5965 -19.8314,-4.3031 z"
         id="path168421-4"
         sodipodi:nodetypes="ccccccccccccc" />
    </clipPath>
    <linearGradient
       x1="-989.37677"
       y1="-3204.3379"
       x2="1175.8552"
       y2="2649.3293"
       gradientUnits="userSpaceOnUse"
       id="color-1"
       gradientTransform="matrix(0.17670732,0,0,0.17670732,-22.688903,-12.005473)">
      <stop
         offset="0"
         stop-color="#2a221e"
         id="stop2" />
      <stop
         offset="1"
         stop-color="#2a221e"
         stop-opacity="0"
         id="stop4" />
    </linearGradient>
    <linearGradient
       x1="-3323.7942"
       y1="-330.77435"
       x2="2849.8162"
       y2="585.84308"
       gradientUnits="userSpaceOnUse"
       id="color-2"
       gradientTransform="matrix(0.17670732,0,0,0.17670732,-22.688903,-12.005473)">
      <stop
         offset="0"
         stop-color="#2a221e"
         id="stop7" />
      <stop
         offset="1"
         stop-color="#2a221e"
         stop-opacity="0"
         id="stop9" />
    </linearGradient>
  </defs>
  <g
     inkscape:label="Calque 1"
     inkscape:groupmode="layer"
     id="layer1">
    <g
       id="g26413"
       transform="matrix(1.4084407,0,0,1.4084407,472.05653,-438.079)">
      <path
         style="fill:#e5e5e5;fill-opacity:1;stroke:#000000;stroke-width:0.264583px;stroke-linecap:butt;stroke-linejoin:miter;stroke-opacity:1"
         d="m -330.18913,331.34508 0.82984,1.35397 c 0.65514,0.33161 1.31029,0.60914 1.96543,0.65515 1.21494,1.69429 2.55525,3.07514 3.84355,4.58603 0.70575,-0.31199 1.14513,-0.94361 1.65971,-1.485 0.11775,-0.49367 -0.21153,-0.94264 -0.91721,-1.35397 -0.64269,-1.28257 -1.85183,-2.94278 -3.10105,-4.62971 0.19592,-0.16015 0.50154,-0.32029 0.34944,-0.48044 z"
         id="path16168-3"
         sodipodi:nodetypes="ccccccccc" />
      <path
         style="fill:#d70e06;fill-opacity:1;stroke:#000000;stroke-width:0.264583px;stroke-linecap:butt;stroke-linejoin:miter;stroke-opacity:1"
         d="m -330.14547,331.34508 c -0.53867,-0.0441 -1.07735,0.0426 -1.61602,-0.30574 -1.11053,0.18001 -1.5793,-0.47919 -2.18382,-0.96088 -0.3764,-1.22103 -0.68704,-2.43455 0.34941,-3.49412 0.51829,-0.5667 1.03811,-1.13321 1.87809,-1.6597 l 3.23204,-1.92177 c -0.87141,1.6208 -0.73572,2.88776 -0.0873,3.97456 0.61068,1.3436 1.32168,2.5646 2.66424,3.01368 z"
         id="path16170-8"
         sodipodi:nodetypes="ccccccccc" />
      <path
         style="fill:#e5e5e5;fill-opacity:1;stroke:#000000;stroke-width:0.264583px;stroke-linecap:butt;stroke-linejoin:miter;stroke-opacity:1"
         d="m -327.76509,322.82817 5.39403,-5.00096 c -0.17247,1.95298 0.3519,3.81889 0.96088,5.6561 0.95571,2.3019 2.33132,4.42793 4.14927,5.89633 l -5.61262,0.10661 c -0.82861,0.33807 -1.72196,0.41716 -2.60641,0.53188 -1.54451,0.0262 -2.28595,-1.44292 -3.00406,-2.9555 -0.68901,-1.0553 -0.77942,-2.28746 -0.18738,-3.72126 0.33815,-0.47147 0.65496,-0.76521 0.90629,-0.5132 z"
         id="path16946-7"
         sodipodi:nodetypes="ccccccccc" />
      <ellipse
         style="fill:#e5e5e5;fill-opacity:1;stroke:#d70e06;stroke-width:0.935127;stroke-miterlimit:4;stroke-dasharray:none;stroke-opacity:1"
         id="path18669-94"
         cx="-419.95517"
         cy="162.36272"
         rx="6.0039272"
         ry="9.659379"
         transform="rotate(-24.448948)" />
      <path
         style="fill:#bbbbbb;fill-opacity:1;stroke:#000000;stroke-width:0.264583px;stroke-linecap:butt;stroke-linejoin:miter;stroke-opacity:1"
         d="m -320.99368,320.97192 5.24116,-1.37581 c 0.99912,0.1 1.4494,0.51296 1.87809,1.0264 0.6316,1.34748 0.31767,1.89491 0.24021,2.64242 l -5.21933,3.21022 c -1.2796,-1.65746 -1.78177,-3.55788 -2.14013,-5.50323 z"
         id="path18874-5"
         sodipodi:nodetypes="cccccc" />
      <ellipse
         style="fill:#d70e06;fill-opacity:1;stroke:#000000;stroke-width:0.182035;stroke-miterlimit:4;stroke-dasharray:none;stroke-opacity:1"
         id="path18669-9-4"
         cx="-419.77911"
         cy="162.39224"
         rx="1.1687442"
         ry="2.0279362"
         transform="rotate(-24.448948)" />
      <path
         style="fill:none;stroke:#000000;stroke-width:0.264583px;stroke-linecap:butt;stroke-linejoin:miter;stroke-opacity:1"
         d="m -321.77966,316.93088 13.18744,5.1576"
         id="path26280" />
      <path
         style="fill:none;stroke:#000000;stroke-width:0.264583px;stroke-linecap:butt;stroke-linejoin:miter;stroke-opacity:1"
         d="m -321.13108,314.9234 11.24174,3.6752"
         id="path26282" />
      <path
         style="fill:none;stroke:#000000;stroke-width:0.264583px;stroke-linecap:butt;stroke-linejoin:miter;stroke-opacity:1"
         d="m -319.55599,313.13215 7.8754,2.77955"
         id="path26284" />
      <path
         style="fill:none;stroke:#000000;stroke-width:0.264583px;stroke-linecap:butt;stroke-linejoin:miter;stroke-opacity:1"
         d="m -321.71788,319.71043 13.34185,4.81788"
         id="path26286" />
      <path
         style="fill:none;stroke:#000000;stroke-width:0.264583px;stroke-linecap:butt;stroke-linejoin:miter;stroke-opacity:1"
         d="m -320.97667,322.82971 12.26092,4.26199"
         id="path26288" />
      <path
         style="fill:none;stroke:#000000;stroke-width:0.264583px;stroke-linecap:butt;stroke-linejoin:miter;stroke-opacity:1"
         d="m -319.5869,325.76367 10.03729,3.02663"
         id="path26290" />
      <path
         style="fill:none;stroke:#000000;stroke-width:0.264583px;stroke-linecap:butt;stroke-linejoin:miter;stroke-opacity:1"
         d="m -317.67208,328.01822 6.42384,2.19273"
         id="path26292" />
      <path
         style="fill:none;stroke:#000000;stroke-width:0.264583px;stroke-linecap:butt;stroke-linejoin:miter;stroke-opacity:1"
         d="m -318.13534,312.73067 1.17359,16.36847"
         id="path26294" />
      <path
         style="fill:none;stroke:#000000;stroke-width:0.264583px;stroke-linecap:butt;stroke-linejoin:miter;stroke-opacity:1"
         d="m -315.51022,313.16303 1.11183,17.23323"
         id="path26296" />
      <path
         style="fill:none;stroke:#000000;stroke-width:0.264583px;stroke-linecap:butt;stroke-linejoin:miter;stroke-opacity:1"
         d="m -312.69977,315.07784 1.38978,15.3493"
         id="path26298" />
      <path
         style="fill:none;stroke:#000000;stroke-width:0.264583px;stroke-linecap:butt;stroke-linejoin:miter;stroke-opacity:1"
         d="m -309.92021,318.28978 0.55589,10.74758"
         id="path26300" />
      <path
         style="fill:none;stroke:#000000;stroke-width:0.264583px;stroke-linecap:butt;stroke-linejoin:miter;stroke-opacity:1"
         d="m -320.63695,314.33661 -0.0309,9.48137"
         id="path26302" />
    </g>
  </g>
</svg>
