<?xml version="1.0" encoding="UTF-8" standalone="no"?>
<!-- Created with Inkscape (http://www.inkscape.org/) -->

<svg
   width="150"
   height="150"
   viewBox="0 0 39.687499 39.687501"
   version="1.1"
   id="svg5"
   inkscape:version="1.1.1 (3bf5ae0d25, 2021-09-20)"
   sodipodi:docname="zzz - Copie (5).svg"
   inkscape:export-filename="C:\Users\Clément\Desktop\freepic\res\img/icon.png"
   inkscape:export-xdpi="96"
   inkscape:export-ydpi="96"
   xmlns:inkscape="http://www.inkscape.org/namespaces/inkscape"
   xmlns:sodipodi="http://sodipodi.sourceforge.net/DTD/sodipodi-0.dtd"
   xmlns="http://www.w3.org/2000/svg"
   xmlns:svg="http://www.w3.org/2000/svg">
  <sodipodi:namedview
     id="namedview7"
     pagecolor="#ffffff"
     bordercolor="#666666"
     borderopacity="1.0"
     inkscape:pageshadow="2"
     inkscape:pageopacity="0.0"
     inkscape:pagecheckerboard="true"
     inkscape:document-units="mm"
     showgrid="false"
     units="px"
     inkscape:zoom="3.0289002"
     inkscape:cx="62.729039"
     inkscape:cy="70.487631"
     inkscape:window-width="1920"
     inkscape:window-height="1013"
     inkscape:window-x="-9"
     inkscape:window-y="-9"
     inkscape:window-maximized="1"
     inkscape:current-layer="layer1"
     inkscape:snap-object-midpoints="false"
     inkscape:snap-center="false" />
  <defs
     id="defs2">
    <clipPath
       clipPathUnits="userSpaceOnUse"
       id="clipPath168419-0">
      <path
         style="fill:#d4d591;fill-opacity:1;stroke:#000000;stroke-width:0.264583px;stroke-linecap:butt;stroke-linejoin:miter;stroke-opacity:1"
         d="m 1976.6629,1120.9601 c -14.9756,1.5925 -25.8038,9.2969 -36.1081,17.7735 -10.8363,13.4703 -17.8314,26.9407 -24.1344,40.4111 -5.0825,17.6623 -6.7297,33.8216 -6.174,49.0172 2.96,13.8998 7.3576,26.531 16.2768,35.1727 10.0404,8.8438 23.2314,13.9465 38.9144,16.0897 14.6068,1.5407 26.9047,-0.7669 39.4757,-2.6193 16.4002,-3.4206 25.6399,-12.8083 33.676,-23.199 4.188,-8.0615 7.6011,-17.2853 8.9802,-29.56 0.1671,-11.8575 -2.4879,-24.9245 -4.6772,-37.7919 -3.678,-11.8565 -9.5794,-24.1299 -18.896,-37.0436 -6.3738,-10.6207 -16.705,-17.504 -27.502,-23.9473 -6.0539,-1.7474 -10.1493,-4.5965 -19.8314,-4.3031 z"
         id="path168421-4"
         sodipodi:nodetypes="ccccccccccccc" />
    </clipPath>
    <linearGradient
       x1="-989.37677"
       y1="-3204.3379"
       x2="1175.8552"
       y2="2649.3293"
       gradientUnits="userSpaceOnUse"
       id="color-1"
       gradientTransform="matrix(0.17670732,0,0,0.17670732,-22.688903,-12.005473)">
      <stop
         offset="0"
         stop-color="#2a221e"
         id="stop2" />
      <stop
         offset="1"
         stop-color="#2a221e"
         stop-opacity="0"
         id="stop4" />
    </linearGradient>
    <linearGradient
       x1="-3323.7942"
       y1="-330.77435"
       x2="2849.8162"
       y2="585.84308"
       gradientUnits="userSpaceOnUse"
       id="color-2"
       gradientTransform="matrix(0.17670732,0,0,0.17670732,-22.688903,-12.005473)">
      <stop
         offset="0"
         stop-color="#2a221e"
         id="stop7" />
      <stop
         offset="1"
         stop-color="#2a221e"
         stop-opacity="0"
         id="stop9" />
    </linearGradient>
  </defs>
  <g
     inkscape:label="Calque 1"
     inkscape:groupmode="layer"
     id="layer1">
    <g
       id="g51510"
       inkscape:export-filename="C:\Users\Clément\Desktop\Cloud Invasion II\Sprites\Buttons/stats.png"
       inkscape:export-xdpi="96"
       inkscape:export-ydpi="96"
       transform="matrix(1.2021354,0,0,1.2021354,308.01045,-29.476401)">
      <rect
         style="fill:#c86000;fill-opacity:1;stroke:#843f00;stroke-width:0.737632;stroke-miterlimit:4;stroke-dasharray:none;stroke-opacity:1"
         id="rect19204-5"
         width="19.750866"
         height="28.343979"
         x="-249.72731"
         y="28.654371"
         ry="3.6847157"
         inkscape:export-filename="C:\Users\Clément\Desktop\Diapo capgemini/Liste.png"
         inkscape:export-xdpi="96"
         inkscape:export-ydpi="96" />
      <path
         style="fill:#ffffff;fill-opacity:1;stroke:#bebebe;stroke-width:0.23389;stroke-linecap:butt;stroke-linejoin:miter;stroke-miterlimit:4;stroke-dasharray:none;stroke-opacity:1"
         d="m -246.22638,31.180679 12.99413,-0.163448 c 0.50051,0.100137 0.61404,0.432465 0.57206,0.858104 l 0.3269,20.022393 -3.22809,2.656035 -10.70586,0.122583 c -0.57411,0.05164 -1.06925,-0.0038 -1.185,-0.572072 l 0.12259,-22.269803 c 0.15714,-0.563945 0.56567,-0.714882 1.10327,-0.653792 z"
         id="path21681"
         sodipodi:nodetypes="ccccccccc"
         inkscape:export-filename="C:\Users\Clément\Desktop\Diapo capgemini/Liste.png"
         inkscape:export-xdpi="96"
         inkscape:export-ydpi="96" />
      <path
         style="fill:none;stroke:#bebebe;stroke-width:0.23389;stroke-linecap:butt;stroke-linejoin:miter;stroke-miterlimit:4;stroke-dasharray:none;stroke-opacity:1"
         d="m -235.56139,54.553757 -0.0205,-2.063531 c 0.0529,-0.215114 -0.20357,-0.546249 0.40862,-0.551635 l 2.83991,-0.04085"
         id="path22293"
         sodipodi:nodetypes="cccc"
         inkscape:export-filename="C:\Users\Clément\Desktop\Diapo capgemini/Liste.png"
         inkscape:export-xdpi="96"
         inkscape:export-ydpi="96" />
      <path
         style="fill:#aeaeae;fill-opacity:1;stroke:#696969;stroke-width:0.23389;stroke-linecap:butt;stroke-linejoin:miter;stroke-miterlimit:4;stroke-dasharray:none;stroke-opacity:1"
         d="m -244.24874,29.214321 h 8.32141 l -1.12684,-2.282611 -6.1544,0.05779 z"
         id="path24444"
         inkscape:export-filename="C:\Users\Clément\Desktop\Diapo capgemini/Liste.png"
         inkscape:export-xdpi="96"
         inkscape:export-ydpi="96" />
      <ellipse
         style="fill:#aeaeae;fill-opacity:0;stroke:#696969;stroke-width:0.467781;stroke-miterlimit:4;stroke-dasharray:none;stroke-opacity:1"
         id="path25868"
         cx="-240.15948"
         cy="25.934721"
         rx="0.964288"
         ry="0.89277941"
         inkscape:export-filename="C:\Users\Clément\Desktop\Diapo capgemini/Liste.png"
         inkscape:export-xdpi="96"
         inkscape:export-ydpi="96" />
      <text
         xml:space="preserve"
         style="font-style:normal;font-weight:normal;font-size:3.27047px;line-height:1.25;font-family:sans-serif;fill:#000000;fill-opacity:1;stroke:none;stroke-width:0.0490571"
         x="-244.73772"
         y="35.576714"
         id="text29323"
         inkscape:export-filename="C:\Users\Clément\Desktop\Diapo capgemini/Liste.png"
         inkscape:export-xdpi="96"
         inkscape:export-ydpi="96"><tspan
           sodipodi:role="line"
           id="tspan29321"
           style="font-style:normal;font-variant:normal;font-weight:normal;font-stretch:normal;font-family:'Special Elite';-inkscape-font-specification:'Special Elite';stroke-width:0.0490571"
           x="-244.73772"
           y="35.576714">Stats</tspan></text>
      <text
         xml:space="preserve"
         style="font-style:normal;font-weight:normal;font-size:1.74062px;line-height:1.25;font-family:sans-serif;fill:#000000;fill-opacity:1;stroke:none;stroke-width:0.0261092"
         x="-246.28374"
         y="38.960457"
         id="text32693"
         inkscape:export-filename="C:\Users\Clément\Desktop\Diapo capgemini/Liste.png"
         inkscape:export-xdpi="96"
         inkscape:export-ydpi="96"><tspan
           sodipodi:role="line"
           id="tspan32691"
           style="font-style:normal;font-variant:normal;font-weight:normal;font-stretch:normal;font-family:'Special Elite';-inkscape-font-specification:'Special Elite';stroke-width:0.0261092"
           x="-246.28374"
           y="38.960457">1)</tspan></text>
      <text
         xml:space="preserve"
         style="font-style:normal;font-weight:normal;font-size:1.74062px;line-height:1.25;font-family:sans-serif;fill:#000000;fill-opacity:1;stroke:none;stroke-width:0.0261092"
         x="-246.29117"
         y="43.731129"
         id="text32693-4"
         inkscape:export-filename="C:\Users\Clément\Desktop\Diapo capgemini/Liste.png"
         inkscape:export-xdpi="96"
         inkscape:export-ydpi="96"><tspan
           sodipodi:role="line"
           id="tspan32691-4"
           style="font-style:normal;font-variant:normal;font-weight:normal;font-stretch:normal;font-family:'Special Elite';-inkscape-font-specification:'Special Elite';stroke-width:0.0261092"
           x="-246.29117"
           y="43.731129">2)</tspan></text>
      <text
         xml:space="preserve"
         style="font-style:normal;font-weight:normal;font-size:1.74062px;line-height:1.25;font-family:sans-serif;fill:#000000;fill-opacity:1;stroke:none;stroke-width:0.0261092"
         x="-246.39627"
         y="49.084049"
         id="text32693-4-8"
         inkscape:export-filename="C:\Users\Clément\Desktop\Diapo capgemini/Liste.png"
         inkscape:export-xdpi="96"
         inkscape:export-ydpi="96"><tspan
           sodipodi:role="line"
           style="font-style:normal;font-variant:normal;font-weight:normal;font-stretch:normal;font-family:'Special Elite';-inkscape-font-specification:'Special Elite';stroke-width:0.0261092"
           x="-246.39627"
           y="49.084049"
           id="tspan38028">3)</tspan></text>
      <path
         style="fill:none;stroke:#000000;stroke-width:0.23389;stroke-linecap:butt;stroke-linejoin:miter;stroke-miterlimit:4;stroke-dasharray:none;stroke-opacity:1"
         d="m -243.7338,38.413257 c 0.0575,0.170962 0.91221,-0.166324 1.02156,-0.122584 0.14029,0.05612 0.27319,0.20003 0.40862,0.245173 0.17498,0.05833 0.362,-0.0565 0.49034,-0.163452 0.0234,-0.0195 0.0136,-0.0681 0.0408,-0.08172 0.0366,-0.01826 0.086,0.01826 0.12259,0 0.0273,-0.0136 0.0155,-0.06482 0.0408,-0.08173 0.0226,-0.01512 0.0559,0.0086 0.0817,0 0.0183,-0.0062 0.0222,-0.03619 0.0408,-0.04085 0.24603,-0.06151 0.61372,0.0067 0.89896,-0.04085 0.38279,-0.0638 1.15141,-0.0038 1.55276,0.04085 0.14468,0.01609 0.30849,-0.03132 0.44949,0 0.0595,0.01322 0.10488,0.06499 0.16344,0.08172 0.1264,0.03608 1.31312,0.06626 1.38931,0.04085 0.12608,-0.04205 0.24159,-0.0093 0.36777,-0.04085 0.14836,-0.03712 0.29826,-0.08479 0.44947,-0.122584 0.11375,-0.02845 0.25696,0.03695 0.36777,0 0.11269,-0.03755 0.35019,-0.0759 0.49033,-0.04085 0.0195,0.0049 0.10315,0.07687 0.1226,0.08173 0.15251,0.03815 0.3755,-0.03311 0.49033,0.08172"
         id="path33156"
         inkscape:export-filename="C:\Users\Clément\Desktop\Diapo capgemini/Liste.png"
         inkscape:export-xdpi="96"
         inkscape:export-ydpi="96" />
      <path
         style="fill:none;stroke:#000000;stroke-width:0.23389;stroke-linecap:butt;stroke-linejoin:miter;stroke-miterlimit:4;stroke-dasharray:none;stroke-opacity:1"
         d="m -246.14466,40.333778 c 0.27161,-0.03641 0.5207,0.13148 0.77638,0.163447 0.42781,0.05347 0.88829,-0.01723 1.30759,-0.08172 0.0667,-0.01024 0.46167,-0.105739 0.65379,-0.08172 0.33483,0.04183 0.65044,0.146022 0.9807,0.204304 0.30806,0.05436 0.5929,0.01301 0.89896,0.04085 0.12011,0.01094 0.17545,0.05407 0.28603,0.08173 0.27881,0.0697 0.61511,-0.04053 0.89896,0 0.18914,0.0076 0.3481,0.135278 0.53121,0.163441 0.19224,0.02958 0.41491,0 0.61293,0"
         id="path33271"
         inkscape:export-filename="C:\Users\Clément\Desktop\Diapo capgemini/Liste.png"
         inkscape:export-xdpi="96"
         inkscape:export-ydpi="96" />
      <path
         style="fill:none;stroke:#000000;stroke-width:0.23389;stroke-linecap:butt;stroke-linejoin:miter;stroke-miterlimit:4;stroke-dasharray:none;stroke-opacity:1"
         d="m -244.14242,43.480148 c 0.0887,-0.183262 0.2157,-0.18466 0.36777,-0.286031 0.22178,-0.147859 0.63824,-0.17949 0.89896,-0.08173 0.11903,0.04465 0.29257,0.175302 0.40861,0.204316 0.0461,0.01149 0.33832,0.02942 0.36777,0 0.01,-0.0096 -0.013,-0.03657 0,-0.04085 0.0811,-0.02704 1.01837,-0.04058 1.02155,-0.04085 0.12288,-0.01068 0.24517,-0.02725 0.36775,-0.04085 0.16345,-0.04085 0.32317,-0.101692 0.49035,-0.12259 0.16218,-0.02027 0.32718,0.0096 0.49034,0 0.10963,-0.0065 0.23905,-0.106752 0.3269,-0.04085 0.40475,0.303568 0.54683,0.443474 1.06241,0.490346 0.13669,0.01241 0.32019,-0.0038 0.44948,-0.04085 0.17694,-0.05055 0.0812,-0.201655 0.36776,-0.163441 0.30054,0.04004 0.60747,0.12481 0.89897,0.204304 0.0708,0.01929 0.13238,0.06734 0.20431,0.08173 0.30196,0.06039 0.98003,0 1.30758,0 0.24944,0 0.36103,-0.272474 0.53121,-0.40862 0.0238,-0.01902 0.0602,-0.01934 0.0817,-0.04085 0.01,-0.0096 -0.0122,-0.03479 0,-0.04085 0.14394,-0.07198 0.54039,0.04085 0.69465,0.04085"
         id="path36279"
         inkscape:export-filename="C:\Users\Clément\Desktop\Diapo capgemini/Liste.png"
         inkscape:export-xdpi="96"
         inkscape:export-ydpi="96" />
      <path
         style="fill:none;stroke:#000000;stroke-width:0.23389;stroke-linecap:butt;stroke-linejoin:miter;stroke-miterlimit:4;stroke-dasharray:none;stroke-opacity:1"
         d="m -245.61345,45.032906 c 0.3403,0.0099 0.68135,-0.01479 1.02156,0 0.29871,0.01301 0.41814,0.114651 0.69465,0.163447 0.1736,0.03061 0.89263,0.137635 1.10327,0.122589 0.23274,-0.01663 0.39636,-0.07927 0.61293,-0.122589 0.24944,-0.0499 0.57277,0.01371 0.81724,0.04085 0.27256,0.03029 0.58796,0.02454 0.8581,0 0.87447,-0.0795 1.76949,-0.226774 2.65604,-0.163447 0.35818,0.02557 0.62977,0.104965 0.98069,0.163447 0.42374,0.07063 0.88641,-0.08423 1.30758,0 0.25684,0.05136 -0.024,0.03397 0.28604,0.122589 0.22376,0.06393 0.95268,-0.04855 1.18499,-0.08172"
         id="path36281"
         inkscape:export-filename="C:\Users\Clément\Desktop\Diapo capgemini/Liste.png"
         inkscape:export-xdpi="96"
         inkscape:export-ydpi="96" />
      <path
         style="fill:none;stroke:#000000;stroke-width:0.23389;stroke-linecap:butt;stroke-linejoin:miter;stroke-miterlimit:4;stroke-dasharray:none;stroke-opacity:1"
         d="m -244.265,48.50618 c 0.49778,0.04942 1.01568,-0.06203 1.5119,0 0.47978,0.05998 0.94709,0.208016 1.43016,0.245167 0.40359,0.03104 1.1627,0.03901 1.55277,0 0.32147,-0.03213 0.6202,-0.179722 0.93983,-0.20431 0.20272,-0.0156 0.41039,0.01842 0.61292,0 0.31932,-0.02904 0.61845,-0.04085 0.93982,-0.04085 0.12875,0 0.12472,0.09247 0.24518,0.122583 0.0265,0.0066 0.0574,-0.01219 0.0817,0 0.0609,0.03045 0.0977,0.104673 0.16344,0.122585 0.16159,0.0441 0.89164,0.02438 1.06242,0 0.15044,-0.02151 0.24309,-0.113579 0.36775,-0.163448 0.24096,-0.09638 0.48262,-0.163446 0.73552,-0.163446"
         id="path39341"
         inkscape:export-filename="C:\Users\Clément\Desktop\Diapo capgemini/Liste.png"
         inkscape:export-xdpi="96"
         inkscape:export-ydpi="96" />
      <g
         id="g43134"
         transform="matrix(0.2338904,0,0,0.2338904,-328.64758,-40.853183)"
         inkscape:export-filename="C:\Users\Clément\Desktop\Diapo capgemini/Liste.png"
         inkscape:export-xdpi="96"
         inkscape:export-ydpi="96">
        <path
           style="fill:#00cc67;fill-opacity:1;stroke:#000000;stroke-width:0.264583px;stroke-linecap:butt;stroke-linejoin:miter;stroke-opacity:1"
           d="m 386.54326,382.21951 25.69541,-27.91907 2.96487,6.42384 -25.32483,27.17787 z"
           id="path39468" />
        <path
           style="fill:#00cc67;fill-opacity:1;stroke:#000000;stroke-width:0.5;stroke-linecap:butt;stroke-linejoin:miter;stroke-miterlimit:4;stroke-dasharray:none;stroke-opacity:1"
           d="m 395.80844,388.89042 -5.92973,-0.98827 25.32483,-27.17787 6.05324,3.70607 z"
           id="path39470" />
        <path
           style="fill:#e2dbb7;fill-opacity:1;stroke:#000000;stroke-width:0.5;stroke-linecap:butt;stroke-linejoin:miter;stroke-miterlimit:4;stroke-dasharray:none;stroke-opacity:1"
           d="m 412.23867,354.30044 2.96487,-2.59427 5.92971,4.20021 3.0884,6.05327 -2.96487,2.4707 -6.05324,-3.70607 z"
           id="path39472" />
        <path
           style="fill:#e2dbb7;fill-opacity:1;stroke:#000000;stroke-width:0.5;stroke-linecap:butt;stroke-linejoin:miter;stroke-miterlimit:4;stroke-dasharray:none;stroke-opacity:1"
           d="m 386.54326,382.21951 -6.05327,16.18316 15.31845,-9.51225 -5.92973,-0.98827 z"
           id="path39474" />
        <path
           style="fill:#000000;fill-opacity:1;stroke:#000000;stroke-width:0.264583px;stroke-linecap:butt;stroke-linejoin:miter;stroke-opacity:1"
           d="m 416.80951,357.26528 0.86473,1.48243 1.97657,0.61767 -0.15441,-0.86474 -0.7721,-1.08093 -0.67945,-1.32802 -1.35888,0.15441 z"
           id="path40745" />
        <path
           style="fill:#6e6e6e;fill-opacity:1;stroke:#000000;stroke-width:0.264583px;stroke-linecap:butt;stroke-linejoin:miter;stroke-opacity:1"
           d="m 382.0441,394.4458 1.61605,1.96545 -3.17016,1.99142 z"
           id="path42686" />
      </g>
      <path
         style="fill:none;stroke:#000000;stroke-width:0.210501;stroke-linecap:butt;stroke-linejoin:miter;stroke-miterlimit:4;stroke-dasharray:none;stroke-opacity:1"
         d="m -243.61308,51.375881 c 0.18676,0.214827 0.28393,0.260046 0.57788,0.260046 0.0944,0 0.43339,0.01316 0.54899,-0.02888 0.14236,-0.0518 0.24177,-0.399198 0.4623,-0.288941 0.12898,0.0645 0.0915,0.08766 0.17336,0.202257 0.0563,0.07885 0.10218,0.09702 0.17336,0.144467 0.0599,0.03993 0.0956,0.124518 0.14447,0.173367 0.0711,0.0711 0.19,0.06869 0.28894,0.08668 0.17831,0.03246 0.83856,-0.05746 0.95349,0 0.0972,0.0486 0.25543,0.195343 0.31783,0.288945 0.0241,0.03614 -0.0302,0.0571 0.0289,0.08668 0.0403,0.02016 0.009,0.03316 0.0578,0.05779 0.0175,0.0087 0.0746,0.0168 0.0867,0.02888 0.0385,0.03852 -0.0481,0.02888 0.0289,0.02888"
         id="path43202"
         inkscape:export-filename="C:\Users\Clément\Desktop\Diapo capgemini/Liste.png"
         inkscape:export-xdpi="96"
         inkscape:export-ydpi="96" />
    </g>
  </g>
</svg>
