<?xml version="1.0" encoding="UTF-8" standalone="no"?>
<!-- Created with Inkscape (http://www.inkscape.org/) -->

<svg
   width="150"
   height="150"
   viewBox="0 0 39.687499 39.687501"
   version="1.1"
   id="svg5"
   inkscape:version="1.1.1 (3bf5ae0d25, 2021-09-20)"
   sodipodi:docname="zzz - Copie (7).svg"
   inkscape:export-filename="C:\Users\Clément\Desktop\freepic\res\img/icon.png"
   inkscape:export-xdpi="96"
   inkscape:export-ydpi="96"
   xmlns:inkscape="http://www.inkscape.org/namespaces/inkscape"
   xmlns:sodipodi="http://sodipodi.sourceforge.net/DTD/sodipodi-0.dtd"
   xmlns="http://www.w3.org/2000/svg"
   xmlns:svg="http://www.w3.org/2000/svg">
  <sodipodi:namedview
     id="namedview7"
     pagecolor="#ffffff"
     bordercolor="#666666"
     borderopacity="1.0"
     inkscape:pageshadow="2"
     inkscape:pageopacity="0.0"
     inkscape:pagecheckerboard="true"
     inkscape:document-units="mm"
     showgrid="false"
     units="px"
     inkscape:zoom="3.0289002"
     inkscape:cx="67.021026"
     inkscape:cy="70.817784"
     inkscape:window-width="1920"
     inkscape:window-height="1013"
     inkscape:window-x="-9"
     inkscape:window-y="-9"
     inkscape:window-maximized="1"
     inkscape:current-layer="layer1"
     inkscape:snap-object-midpoints="false"
     inkscape:snap-center="false" />
  <defs
     id="defs2">
    <clipPath
       clipPathUnits="userSpaceOnUse"
       id="clipPath168419-0">
      <path
         style="fill:#d4d591;fill-opacity:1;stroke:#000000;stroke-width:0.264583px;stroke-linecap:butt;stroke-linejoin:miter;stroke-opacity:1"
         d="m 1976.6629,1120.9601 c -14.9756,1.5925 -25.8038,9.2969 -36.1081,17.7735 -10.8363,13.4703 -17.8314,26.9407 -24.1344,40.4111 -5.0825,17.6623 -6.7297,33.8216 -6.174,49.0172 2.96,13.8998 7.3576,26.531 16.2768,35.1727 10.0404,8.8438 23.2314,13.9465 38.9144,16.0897 14.6068,1.5407 26.9047,-0.7669 39.4757,-2.6193 16.4002,-3.4206 25.6399,-12.8083 33.676,-23.199 4.188,-8.0615 7.6011,-17.2853 8.9802,-29.56 0.1671,-11.8575 -2.4879,-24.9245 -4.6772,-37.7919 -3.678,-11.8565 -9.5794,-24.1299 -18.896,-37.0436 -6.3738,-10.6207 -16.705,-17.504 -27.502,-23.9473 -6.0539,-1.7474 -10.1493,-4.5965 -19.8314,-4.3031 z"
         id="path168421-4"
         sodipodi:nodetypes="ccccccccccccc" />
    </clipPath>
    <linearGradient
       x1="-989.37677"
       y1="-3204.3379"
       x2="1175.8552"
       y2="2649.3293"
       gradientUnits="userSpaceOnUse"
       id="color-1"
       gradientTransform="matrix(0.17670732,0,0,0.17670732,-22.688903,-12.005473)">
      <stop
         offset="0"
         stop-color="#2a221e"
         id="stop2" />
      <stop
         offset="1"
         stop-color="#2a221e"
         stop-opacity="0"
         id="stop4" />
    </linearGradient>
    <linearGradient
       x1="-3323.7942"
       y1="-330.77435"
       x2="2849.8162"
       y2="585.84308"
       gradientUnits="userSpaceOnUse"
       id="color-2"
       gradientTransform="matrix(0.17670732,0,0,0.17670732,-22.688903,-12.005473)">
      <stop
         offset="0"
         stop-color="#2a221e"
         id="stop7" />
      <stop
         offset="1"
         stop-color="#2a221e"
         stop-opacity="0"
         id="stop9" />
    </linearGradient>
  </defs>
  <g
     inkscape:label="Calque 1"
     inkscape:groupmode="layer"
     id="layer1">
    <g
       id="g54277"
       transform="matrix(1.1512614,0,0,1.1512614,300.12685,-337.00714)">
      <path
         style="fill:#7b7878;fill-opacity:1;stroke:#000000;stroke-width:0.264583px;stroke-linecap:butt;stroke-linejoin:miter;stroke-opacity:1"
         d="m -230.3941,304.29935 -1.42067,-2.1001 -5.28115,-1.26625 -6.76358,4.87966 4.81789,0.92652 z"
         id="path36204" />
      <g
         id="g53300"
         transform="matrix(0.2393948,0.25152546,-0.25152546,0.2393948,-104.78013,286.56033)">
        <rect
           style="opacity:1;fill:#8c8c8c;fill-opacity:1;stroke:#3f3f3f;stroke-width:0.2;stroke-miterlimit:4;stroke-dasharray:none;stroke-opacity:1"
           id="rect47437"
           width="5.5905881"
           height="9.9145584"
           x="-225.19588"
           y="302.67795"
           ry="0.81679279" />
        <rect
           style="opacity:1;fill:#000000;fill-opacity:1;stroke:#000000;stroke-width:0.137065;stroke-miterlimit:4;stroke-dasharray:none;stroke-opacity:1"
           id="rect47437-9"
           width="3.8313713"
           height="6.7946973"
           x="-224.32785"
           y="304.19888"
           ry="0" />
        <circle
           style="opacity:1;fill:#3f3f3f;fill-opacity:1;stroke:#3f3f3f;stroke-width:0.136051;stroke-miterlimit:4;stroke-dasharray:none;stroke-opacity:1"
           id="path47950"
           cx="-222.31024"
           cy="311.78101"
           r="0.44118673" />
        <circle
           style="fill:#3f3f3f;fill-opacity:1;stroke:#3f3f3f;stroke-width:0.0432211;stroke-miterlimit:4;stroke-dasharray:none;stroke-opacity:1"
           id="path47950-6"
           cx="-223.80811"
           cy="303.31879"
           r="0.14015749" />
        <ellipse
           style="opacity:1;fill:#3f3f3f;fill-opacity:1;stroke:#3f3f3f;stroke-width:0.2;stroke-miterlimit:4;stroke-dasharray:none;stroke-opacity:1"
           id="path50419"
           cx="-222.02457"
           cy="303.34195"
           rx="0.98828572"
           ry="0.092651784" />
        <rect
           style="opacity:1;fill:#000000;fill-opacity:1;stroke:#3f3f3f;stroke-width:0;stroke-miterlimit:4;stroke-dasharray:none;stroke-opacity:1"
           id="rect50545"
           width="0.91107613"
           height="0.16479044"
           x="-221.29787"
           y="302.41956"
           ry="0" />
        <rect
           style="fill:#000000;fill-opacity:1;stroke:#3f3f3f;stroke-width:0;stroke-miterlimit:4;stroke-dasharray:none;stroke-opacity:1"
           id="rect50545-3"
           width="1.0191698"
           height="0.16479038"
           x="-305.07144"
           y="-225.45015"
           ry="0"
           transform="rotate(-90)" />
        <rect
           style="fill:#000000;fill-opacity:1;stroke:#3f3f3f;stroke-width:0;stroke-miterlimit:4;stroke-dasharray:none;stroke-opacity:1"
           id="rect50545-3-1"
           width="1.0191698"
           height="0.16479038"
           x="-306.25275"
           y="-225.45015"
           ry="0"
           transform="rotate(-90)" />
      </g>
      <g
         id="g44491">
        <path
           style="opacity:0.805797;fill:#29cb00;fill-opacity:1;stroke:#000000;stroke-width:0.1;stroke-linecap:butt;stroke-linejoin:miter;stroke-miterlimit:4;stroke-dasharray:none;stroke-opacity:1"
           d="m -235.70007,305.01463 2.88265,-2.0528 1.31029,0.32758 0.76434,-0.52411 0.4586,0.39309 -0.65515,0.52411 0.21838,0.93903 -3.51595,1.98729 z"
           id="path37845" />
        <path
           style="fill:#81510b;fill-opacity:1;stroke:#000000;stroke-width:0.1;stroke-linecap:butt;stroke-linejoin:miter;stroke-miterlimit:4;stroke-dasharray:none;stroke-opacity:1"
           d="m -230.72096,302.81988 -0.26205,-0.2948 0.33849,-0.1638 0.7425,0.76435 -0.32757,0.24022 z"
           id="path38455" />
        <path
           style="fill:#ffffff;fill-opacity:1;stroke:#000000;stroke-width:0.05;stroke-linecap:butt;stroke-linejoin:miter;stroke-miterlimit:4;stroke-dasharray:none;stroke-opacity:1"
           d="m -232.83926,303.54055 -0.5678,0.39309 0.94997,0.91721 0.79709,-0.51321 -1.07007,-0.93904 z"
           id="path38900" />
        <text
           xml:space="preserve"
           style="font-style:normal;font-weight:normal;font-size:0.192003px;line-height:1.25;font-family:sans-serif;fill:#000000;fill-opacity:1;stroke:none;stroke-width:0.00288003"
           x="53.378719"
           y="379.10593"
           id="text43712"
           transform="rotate(45.502515)"><tspan
             sodipodi:role="line"
             id="tspan43710"
             style="font-style:normal;font-variant:normal;font-weight:normal;font-stretch:normal;font-family:'Special Elite';-inkscape-font-specification:'Special Elite';stroke-width:0.00288003"
             x="53.378719"
             y="379.10593">Cloud Chaos</tspan></text>
      </g>
      <path
         style="fill:#c5c3c3;fill-opacity:1;stroke:#000000;stroke-width:0.265;stroke-linecap:butt;stroke-linejoin:miter;stroke-miterlimit:4;stroke-dasharray:none;stroke-opacity:1"
         d="m -230.44562,304.31332 -2.59875,19.17397 -1.39764,1.13559 2.62059,-20.17853 z"
         id="path28326-7" />
      <path
         style="fill:#b3b3b3;fill-opacity:1;stroke:#000000;stroke-width:0.265;stroke-linecap:butt;stroke-linejoin:miter;stroke-miterlimit:4;stroke-dasharray:none;stroke-opacity:1"
         d="m -231.82142,304.42252 -4.36765,0.80801 -1.87809,20.87735 3.64699,-1.52867 z"
         id="path28427-9" />
      <path
         style="fill:#c5c3c3;fill-opacity:1;stroke:#000000;stroke-width:0.265;stroke-linecap:butt;stroke-linejoin:miter;stroke-miterlimit:4;stroke-dasharray:none;stroke-opacity:1"
         d="m -236.21091,305.20869 -7.75257,0.24022 0.61147,21.09574 5.39404,-0.43677 z"
         id="path28462-6" />
      <path
         style="fill:#b3b3b3;fill-opacity:1;stroke:#000000;stroke-width:0.265;stroke-linecap:butt;stroke-linejoin:miter;stroke-miterlimit:4;stroke-dasharray:none;stroke-opacity:1"
         d="m -243.87613,305.36156 -6.35493,-0.32757 1.87809,20.72448 5.11015,0.78618 z"
         id="path28497-2" />
      <path
         style="fill:#c5c3c3;fill-opacity:1;stroke:#000000;stroke-width:0.265;stroke-linecap:butt;stroke-linejoin:miter;stroke-miterlimit:4;stroke-dasharray:none;stroke-opacity:1"
         d="m -250.10003,304.99031 -2.31485,-0.50228 1.79073,20.26588 2.27118,0.98272 z"
         id="path28598-3" />
      <path
         style="fill:#b3b3b3;fill-opacity:1;stroke:#000000;stroke-width:0.265;stroke-linecap:butt;stroke-linejoin:miter;stroke-miterlimit:4;stroke-dasharray:none;stroke-opacity:1"
         d="m -252.41488,304.48803 -1.26662,-0.24022 2.24934,20.0475 0.80801,0.43676 z"
         id="path28633-4" />
      <path
         style="fill:#fcca17;fill-opacity:1;stroke:#000000;stroke-width:0.15;stroke-linecap:butt;stroke-linejoin:miter;stroke-miterlimit:4;stroke-dasharray:none;stroke-opacity:1"
         d="m -235.39434,305.08014 v 2.5114 l 0.41493,1.68155 0.10919,1.7689 0.69883,-0.13104 0.1747,-1.22294 1.04824,-1.81258 -0.98272,-1.83441 0.0874,-1.26661 z"
         id="path36418" />
      <g
         id="g45369"
         transform="matrix(0.03795876,0.24181758,-0.24181758,0.03795876,-150.32699,345.72131)"
         inkscape:transform-center-x="-0.10175311"
         inkscape:transform-center-y="-0.014675976">
        <ellipse
           style="fill:#ffa200;fill-opacity:1;stroke:#b77707;stroke-width:0.245569;stroke-miterlimit:4;stroke-dasharray:none;stroke-opacity:1"
           id="path1644"
           cx="-219.4734"
           cy="313.26089"
           rx="2.5109808"
           ry="6.0239987"
           transform="matrix(0.99956317,0.02955444,-0.02165647,0.99976547,0,0)"
           inkscape:export-filename="C:\Users\Clément\Desktop\Seed Keeper\Sprites\Icons\Vegetables/CarrotIcon.png"
           inkscape:export-xdpi="96"
           inkscape:export-ydpi="96" />
        <path
           style="fill:none;fill-opacity:1;stroke:#b77707;stroke-width:0.15;stroke-linecap:butt;stroke-linejoin:miter;stroke-miterlimit:4;stroke-dasharray:none;stroke-opacity:1"
           d="m -228.23691,310.12789 c 0.79529,-0.61545 1.89762,-0.84014 2.31305,0.10604"
           id="path2742"
           sodipodi:nodetypes="cc"
           inkscape:export-filename="C:\Users\Clément\Desktop\Seed Keeper\Sprites\Icons\Vegetables/CarrotIcon.png"
           inkscape:export-xdpi="96"
           inkscape:export-ydpi="96" />
        <path
           style="fill:none;fill-opacity:1;stroke:#b77707;stroke-width:0.2;stroke-linecap:butt;stroke-linejoin:miter;stroke-miterlimit:4;stroke-dasharray:none;stroke-opacity:1"
           d="m -228.58124,308.40123 c 0.79528,-0.61545 2.43921,-0.63306 2.85464,0.31311"
           id="path2742-8"
           sodipodi:nodetypes="cc"
           inkscape:export-filename="C:\Users\Clément\Desktop\Seed Keeper\Sprites\Icons\Vegetables/CarrotIcon.png"
           inkscape:export-xdpi="96"
           inkscape:export-ydpi="96" />
        <path
           style="fill:none;fill-opacity:1;stroke:#b77707;stroke-width:0.2;stroke-linecap:butt;stroke-linejoin:miter;stroke-miterlimit:4;stroke-dasharray:none;stroke-opacity:1"
           d="m -228.56038,305.65798 c 0.79529,-0.61544 2.43922,-0.63305 2.85465,0.31312"
           id="path2742-8-2"
           sodipodi:nodetypes="cc"
           inkscape:export-filename="C:\Users\Clément\Desktop\Seed Keeper\Sprites\Icons\Vegetables/CarrotIcon.png"
           inkscape:export-xdpi="96"
           inkscape:export-ydpi="96" />
        <path
           style="fill:none;fill-opacity:1;stroke:#b77707;stroke-width:0.15;stroke-linecap:butt;stroke-linejoin:miter;stroke-miterlimit:4;stroke-dasharray:none;stroke-opacity:1"
           d="m -228.56038,305.21197 c 0.79529,-0.61545 2.43922,-0.63306 2.85465,0.31312"
           id="path2742-8-3"
           sodipodi:nodetypes="cc"
           inkscape:export-filename="C:\Users\Clément\Desktop\Seed Keeper\Sprites\Icons\Vegetables/CarrotIcon.png"
           inkscape:export-xdpi="96"
           inkscape:export-ydpi="96" />
        <path
           style="fill:none;fill-opacity:1;stroke:#b77707;stroke-width:0.25;stroke-linecap:butt;stroke-linejoin:miter;stroke-miterlimit:4;stroke-dasharray:none;stroke-opacity:1"
           d="m -228.71967,306.78896 c 0.79528,-0.61545 3.45868,-0.48969 3.87411,0.45648"
           id="path2742-8-1"
           sodipodi:nodetypes="cc"
           inkscape:export-filename="C:\Users\Clément\Desktop\Seed Keeper\Sprites\Icons\Vegetables/CarrotIcon.png"
           inkscape:export-xdpi="96"
           inkscape:export-ydpi="96" />
        <ellipse
           style="fill:#04ec09;fill-opacity:1;stroke:#000000;stroke-width:0;stroke-miterlimit:4;stroke-dasharray:none;stroke-opacity:1"
           id="path9811"
           cx="-366.48889"
           cy="86.035851"
           rx="0.99858868"
           ry="2.5303223"
           transform="rotate(-39.610012)"
           inkscape:export-filename="C:\Users\Clément\Desktop\Seed Keeper\Sprites\Icons\Vegetables/CarrotIcon.png"
           inkscape:export-xdpi="96"
           inkscape:export-ydpi="96" />
        <ellipse
           style="fill:#00e205;fill-opacity:1;stroke:#000000;stroke-width:0;stroke-miterlimit:4;stroke-dasharray:none;stroke-opacity:1"
           id="path9811-3"
           cx="-63.619396"
           cy="369.23407"
           rx="0.99858868"
           ry="2.5303223"
           transform="rotate(27.130935)"
           inkscape:export-filename="C:\Users\Clément\Desktop\Seed Keeper\Sprites\Icons\Vegetables/CarrotIcon.png"
           inkscape:export-xdpi="96"
           inkscape:export-ydpi="96" />
        <path
           style="fill:none;stroke:#038d06;stroke-width:0.1;stroke-linecap:butt;stroke-linejoin:miter;stroke-miterlimit:4;stroke-dasharray:none;stroke-opacity:1"
           d="m -224.39646,298.37387 -1.61981,2.66321"
           id="path10456-6"
           inkscape:export-filename="C:\Users\Clément\Desktop\Seed Keeper\Sprites\Icons\Vegetables/CarrotIcon.png"
           inkscape:export-xdpi="96"
           inkscape:export-ydpi="96" />
        <ellipse
           style="fill:#05c709;fill-opacity:1;stroke:#000000;stroke-width:0;stroke-miterlimit:4;stroke-dasharray:none;stroke-opacity:1"
           id="path9811-3-3"
           cx="179.99701"
           cy="329.21024"
           rx="0.99858868"
           ry="2.5303223"
           transform="rotate(65.423036)"
           inkscape:export-filename="C:\Users\Clément\Desktop\Seed Keeper\Sprites\Icons\Vegetables/CarrotIcon.png"
           inkscape:export-xdpi="96"
           inkscape:export-ydpi="96" />
        <path
           style="fill:none;stroke:#038d06;stroke-width:0.1;stroke-linecap:butt;stroke-linejoin:miter;stroke-miterlimit:4;stroke-dasharray:none;stroke-opacity:1"
           d="m -228.71079,298.59043 1.94336,2.43717"
           id="path10456"
           inkscape:export-filename="C:\Users\Clément\Desktop\Seed Keeper\Sprites\Icons\Vegetables/CarrotIcon.png"
           inkscape:export-xdpi="96"
           inkscape:export-ydpi="96" />
        <path
           style="fill:none;stroke:#038d06;stroke-width:0.128262;stroke-linecap:butt;stroke-linejoin:miter;stroke-miterlimit:4;stroke-dasharray:none;stroke-opacity:1"
           d="m -223.22455,299.81393 -3.55058,1.83796"
           id="path10456-6-8"
           inkscape:export-filename="C:\Users\Clément\Desktop\Seed Keeper\Sprites\Icons\Vegetables/CarrotIcon.png"
           inkscape:export-xdpi="96"
           inkscape:export-ydpi="96" />
      </g>
      <g
         id="g46566"
         transform="matrix(0.2647599,-0.40713614,0.40713614,0.2647599,-314.34607,140.84644)">
        <path
           style="display:inline;mix-blend-mode:normal;fill:#000000;fill-opacity:1;stroke:#000000;stroke-width:0.399043;stroke-linecap:butt;stroke-linejoin:miter;stroke-miterlimit:10;stroke-dasharray:none;stroke-opacity:1"
           d="m -220.06878,314.64685 c 3.30676,0.69483 6.76772,-0.89336 9.97172,-3.78311 0.82195,-0.74133 1.67201,-1.32979 2.85902,-1.70323 1.10037,0.81651 0.91914,1.80176 0.51576,2.81624 -1.75829,2.61679 -1.61405,5.27092 -3.08942,7.52758 -1.18551,1.8293 -2.59718,3.33991 -4.38084,4.32635 -0.35348,-2.46264 -1.05395,-4.62029 -4.93946,-3.9784 1.21566,-1.49333 0.97119,-3.21773 -0.93678,-5.20543 z"
           id="path1830-62-9-1"
           inkscape:label="palme1"
           sodipodi:nodetypes="cscccccc"
           inkscape:export-filename="C:\Users\Clément\Desktop\AquaRescue\res\images2\diver2.png"
           inkscape:export-xdpi="96"
           inkscape:export-ydpi="96" />
        <path
           style="display:inline;mix-blend-mode:normal;fill:#7f7f7f;fill-opacity:1;stroke:#000000;stroke-width:0.31449;stroke-linecap:butt;stroke-linejoin:miter;stroke-miterlimit:10;stroke-dasharray:none;stroke-opacity:1"
           d="m -218.23939,315.01451 c 2.60609,0.5476 5.33372,-0.70407 7.85883,-2.9815 0.64778,-0.58426 1.31773,-1.04804 2.25323,-1.34235 0.86721,0.64352 0.72438,1.41999 0.40648,2.21952 -1.38574,2.06232 -1.27206,4.15406 -2.43481,5.93258 -0.93432,1.4417 -2.04687,2.63222 -3.45259,3.40966 -0.27859,-1.94086 -0.83064,-3.64132 -3.89285,-3.13546 0.95807,-1.17689 0.76539,-2.53591 -0.73829,-4.10245 z"
           id="path10071-14-2-1"
           inkscape:label="palme2"
           sodipodi:nodetypes="cscccccc"
           inkscape:export-filename="C:\Users\Clément\Desktop\AquaRescue\res\images2\diver2.png"
           inkscape:export-xdpi="96"
           inkscape:export-ydpi="96" />
        <path
           style="display:inline;fill:#e67600;fill-opacity:1;stroke:#000000;stroke-width:0.264583px;stroke-linecap:butt;stroke-linejoin:miter;stroke-opacity:1"
           d="m -190.66306,318.84285 c -4.29521,-1.18078 -8.33555,-2.40835 -12.63076,-4.17688 -1.64081,-1.36912 -3.30422,-2.72316 -4.59557,-4.32525 -0.50667,-0.92797 0.0439,-1.01017 0.72088,-0.9912 2.07225,0.28728 4.1122,0.81684 5.9472,2.8835 3.96812,0.61076 7.39485,2.03362 10.90321,3.33404 z"
           id="path1209-5"
           sodipodi:nodetypes="ccccccc"
           inkscape:export-filename="C:\Users\Clément\Desktop\AquaRescue\res\images2\diver2.png"
           inkscape:export-xdpi="96"
           inkscape:export-ydpi="96" />
        <rect
           style="display:inline;fill:#e67600;fill-opacity:1;stroke:#570d05;stroke-width:0;stroke-linecap:butt;stroke-linejoin:round;stroke-miterlimit:4;stroke-dasharray:none;stroke-dashoffset:0;stroke-opacity:1;paint-order:normal"
           id="rect3863-9"
           width="0.74867296"
           height="2.9787629"
           x="-190.81621"
           y="315.58783"
           inkscape:export-filename="C:\Users\Clément\Desktop\AquaRescue\res\images2\diver2.png"
           inkscape:export-xdpi="96"
           inkscape:export-ydpi="96" />
      </g>
      <path
         style="fill:#c5c3c3;fill-opacity:1;stroke:#000000;stroke-width:0.265;stroke-linecap:butt;stroke-linejoin:miter;stroke-miterlimit:4;stroke-dasharray:none;stroke-opacity:1"
         d="m -259.23913,301.91293 1.48313,5.10837 c 4.79349,0.83883 9.14613,-0.54476 13.6372,-1.23051 4.0259,-0.80241 7.91694,-2.09155 11.55467,-4.29505 l -0.42081,-4.50094 c -4.03391,2.81869 -8.6465,3.16921 -13.13192,4.06213 -4.37332,0.51875 -8.74637,1.08982 -13.12227,0.856 z"
         id="path28668-4"
         sodipodi:nodetypes="ccccccc" />
      <path
         style="fill:#b3b3b3;fill-opacity:1;stroke:#000000;stroke-width:0.265;stroke-linecap:butt;stroke-linejoin:miter;stroke-miterlimit:4;stroke-dasharray:none;stroke-opacity:1"
         d="m -259.23208,301.94301 c 2.89065,-2.79863 5.57095,-3.07892 8.34338,-4.46209 2.91402,-0.9985 5.75879,-1.53941 8.60856,-2.11338 3.75099,-0.1599 6.69948,0.49953 9.19797,1.61839 -3.74348,2.79516 -7.99933,3.10443 -12.15563,3.89669 -4.7384,0.75849 -9.4391,1.30964 -13.99428,1.06039 z"
         id="path29059-7"
         sodipodi:nodetypes="cccccc" />
      <path
         style="fill:#c5c3c3;fill-opacity:1;stroke:#000000;stroke-width:0.265;stroke-linecap:butt;stroke-linejoin:miter;stroke-miterlimit:4;stroke-dasharray:none;stroke-opacity:1"
         d="m -250.89632,299.27497 c -0.56506,-1.1141 -0.64685,-2.36607 -0.37985,-3.71751 0.48256,-0.63292 1.26865,-0.90102 1.97015,-1.27079 l 4.31391,-0.94791 c 0.97614,-0.0141 1.81161,0.0963 2.33391,0.48375 0.41652,0.27242 0.75599,0.56292 0.89322,0.90083 0.43215,0.70758 0.51521,1.497 0.855,2.22623 -0.49878,0.39744 -1.10382,0.68543 -1.93611,0.73942 -0.13423,-0.91305 -0.28258,-1.82206 -1.19166,-2.5121 -0.77459,-0.22795 -1.59662,-0.39718 -2.66302,-0.26386 -0.65441,0.20037 -1.30192,0.14961 -2.40031,0.72136 l -0.8156,0.44498 c 0.13426,0.88845 0.11468,1.81296 0.46297,2.65123 -0.28378,0.34645 -0.68785,0.59217 -1.44257,0.54436 z"
         id="path29490-0"
         sodipodi:nodetypes="cccccccccccccc" />
    </g>
  </g>
</svg>
