<?xml version="1.0" encoding="UTF-8" standalone="no"?>
<!-- Created with Inkscape (http://www.inkscape.org/) -->

<svg
   width="150"
   height="150"
   viewBox="0 0 39.687499 39.687501"
   version="1.1"
   id="svg5"
   inkscape:version="1.1.1 (3bf5ae0d25, 2021-09-20)"
   sodipodi:docname="zzz - Copie (6).svg"
   inkscape:export-filename="C:\Users\Clément\Desktop\freepic\res\img/icon.png"
   inkscape:export-xdpi="96"
   inkscape:export-ydpi="96"
   xmlns:inkscape="http://www.inkscape.org/namespaces/inkscape"
   xmlns:sodipodi="http://sodipodi.sourceforge.net/DTD/sodipodi-0.dtd"
   xmlns="http://www.w3.org/2000/svg"
   xmlns:svg="http://www.w3.org/2000/svg">
  <sodipodi:namedview
     id="namedview7"
     pagecolor="#ffffff"
     bordercolor="#666666"
     borderopacity="1.0"
     inkscape:pageshadow="2"
     inkscape:pageopacity="0.0"
     inkscape:pagecheckerboard="true"
     inkscape:document-units="mm"
     showgrid="false"
     units="px"
     inkscape:zoom="3.0289002"
     inkscape:cx="47.872162"
     inkscape:cy="55.630753"
     inkscape:window-width="1920"
     inkscape:window-height="1013"
     inkscape:window-x="-9"
     inkscape:window-y="-9"
     inkscape:window-maximized="1"
     inkscape:current-layer="layer1"
     inkscape:snap-object-midpoints="false"
     inkscape:snap-center="false" />
  <defs
     id="defs2">
    <clipPath
       clipPathUnits="userSpaceOnUse"
       id="clipPath168419-0">
      <path
         style="fill:#d4d591;fill-opacity:1;stroke:#000000;stroke-width:0.264583px;stroke-linecap:butt;stroke-linejoin:miter;stroke-opacity:1"
         d="m 1976.6629,1120.9601 c -14.9756,1.5925 -25.8038,9.2969 -36.1081,17.7735 -10.8363,13.4703 -17.8314,26.9407 -24.1344,40.4111 -5.0825,17.6623 -6.7297,33.8216 -6.174,49.0172 2.96,13.8998 7.3576,26.531 16.2768,35.1727 10.0404,8.8438 23.2314,13.9465 38.9144,16.0897 14.6068,1.5407 26.9047,-0.7669 39.4757,-2.6193 16.4002,-3.4206 25.6399,-12.8083 33.676,-23.199 4.188,-8.0615 7.6011,-17.2853 8.9802,-29.56 0.1671,-11.8575 -2.4879,-24.9245 -4.6772,-37.7919 -3.678,-11.8565 -9.5794,-24.1299 -18.896,-37.0436 -6.3738,-10.6207 -16.705,-17.504 -27.502,-23.9473 -6.0539,-1.7474 -10.1493,-4.5965 -19.8314,-4.3031 z"
         id="path168421-4"
         sodipodi:nodetypes="ccccccccccccc" />
    </clipPath>
    <linearGradient
       x1="-989.37677"
       y1="-3204.3379"
       x2="1175.8552"
       y2="2649.3293"
       gradientUnits="userSpaceOnUse"
       id="color-1"
       gradientTransform="matrix(0.17670732,0,0,0.17670732,-22.688903,-12.005473)">
      <stop
         offset="0"
         stop-color="#2a221e"
         id="stop2" />
      <stop
         offset="1"
         stop-color="#2a221e"
         stop-opacity="0"
         id="stop4" />
    </linearGradient>
    <linearGradient
       x1="-3323.7942"
       y1="-330.77435"
       x2="2849.8162"
       y2="585.84308"
       gradientUnits="userSpaceOnUse"
       id="color-2"
       gradientTransform="matrix(0.17670732,0,0,0.17670732,-22.688903,-12.005473)">
      <stop
         offset="0"
         stop-color="#2a221e"
         id="stop7" />
      <stop
         offset="1"
         stop-color="#2a221e"
         stop-opacity="0"
         id="stop9" />
    </linearGradient>
    <inkscape:path-effect
       effect="skeletal"
       id="path-effect130233"
       is_visible="true"
       lpeversion="1"
       pattern="m 247.41061,1.5132619 c 0,-2.7556609 2.23648,-4.9921384 4.99214,-4.9921384 2.75566,0 4.99214,2.2364775 4.99214,4.9921384 0,2.7556601 -2.23648,4.9921381 -4.99214,4.9921381 -2.75566,0 -4.99214,-2.236478 -4.99214,-4.9921381 z"
       copytype="single_stretched"
       prop_scale="0.041753128"
       scale_y_rel="false"
       spacing="0"
       normal_offset="0"
       tang_offset="0"
       prop_units="false"
       vertical_pattern="false"
       hide_knot="false"
       fuse_tolerance="0" />
    <inkscape:path-effect
       effect="skeletal"
       id="path-effect130237"
       is_visible="true"
       lpeversion="1"
       pattern="m 247.41061,1.5132619 c 0,-2.7556609 2.23648,-4.9921384 4.99214,-4.9921384 2.75566,0 4.99214,2.2364775 4.99214,4.9921384 0,2.7556601 -2.23648,4.9921381 -4.99214,4.9921381 -2.75566,0 -4.99214,-2.236478 -4.99214,-4.9921381 z"
       copytype="single_stretched"
       prop_scale="0.062404847"
       scale_y_rel="false"
       spacing="0"
       normal_offset="0"
       tang_offset="0"
       prop_units="false"
       vertical_pattern="false"
       hide_knot="false"
       fuse_tolerance="0" />
  </defs>
  <g
     inkscape:label="Calque 1"
     inkscape:groupmode="layer"
     id="layer1">
    <g
       id="g79217-1-48"
       transform="matrix(0.2216082,0,0,0.2216082,-125.71754,-184.5102)"
       inkscape:export-filename="C:\Users\Clément\Desktop\allCollectibles.png"
       inkscape:export-xdpi="96"
       inkscape:export-ydpi="96">
      <rect
         style="opacity:1;fill:#a8622c;fill-opacity:1;stroke:#ff0000;stroke-width:0;stroke-miterlimit:4;stroke-dasharray:none;stroke-opacity:1"
         id="rect11655-0-7"
         width="151.60625"
         height="171.18541"
         x="582.64392"
         y="836.61249"
         ry="0"
         inkscape:export-filename="C:\Users\Clément\Desktop/portrait.png"
         inkscape:export-xdpi="96"
         inkscape:export-ydpi="96" />
      <rect
         style="fill:#8f865d;fill-opacity:1;stroke:#ff0000;stroke-width:0;stroke-miterlimit:4;stroke-dasharray:none;stroke-opacity:1"
         id="rect11655-7-0-5-7-3"
         width="118.40531"
         height="133.25165"
         x="599.59869"
         y="855.16229"
         ry="0"
         inkscape:export-filename="C:\Users\Clément\Desktop/portrait.png"
         inkscape:export-xdpi="96"
         inkscape:export-ydpi="96" />
      <path
         style="fill:#bb8254;fill-opacity:1;stroke:#000000;stroke-width:0.264583px;stroke-linecap:butt;stroke-linejoin:miter;stroke-opacity:1"
         d="m 607.83925,987.65026 6.21771,-8.40052 12.96458,-13.03073 9.26042,7.67291 c 3.28869,1.63829 6.74638,2.98687 10.64948,3.57188 3.78257,0.73248 7.61725,1.20436 11.57552,1.05833 l 8.86354,-0.46302 c 4.05317,-0.68728 7.80688,-1.67402 10.98021,-3.24114 l 21.29896,-15.875 c 2.29384,1.71507 4.94635,3.28667 6.68073,5.22552 5.45491,4.82864 10.06629,9.65729 14.94895,14.48593 l 3.39445,14.48803 -119.1755,-0.1871 z"
         id="path10809-0-6-0"
         sodipodi:nodetypes="cccccccccccccc"
         inkscape:export-filename="C:\Users\Clément\Desktop/portrait.png"
         inkscape:export-xdpi="96"
         inkscape:export-ydpi="96" />
      <path
         style="fill:#524f3c;fill-opacity:1;stroke:#000000;stroke-width:0.264583px;stroke-linecap:butt;stroke-linejoin:miter;stroke-opacity:1"
         d="m 597.18701,915.42483 8.60608,-6.36101 12.72204,9.91568 10.85112,-11.78658 10.66405,4.67723 8.04482,-2.61924 13.47039,8.2319 8.04481,-7.85773 9.35442,2.99342 4.49014,2.99341 7.85773,-1.68381 8.98025,0.56129 7.67064,-1.12255 6.92227,0.74835 h 5.79974 l 3.18053,79.13852 -128.34284,-2.61925 z"
         id="path25374-3-3"
         inkscape:export-filename="C:\Users\Clément\Desktop/portrait.png"
         inkscape:export-xdpi="96"
         inkscape:export-ydpi="96" />
      <path
         style="fill:#3d3425;fill-opacity:1;stroke:#000000;stroke-width:0.264583px;stroke-linecap:butt;stroke-linejoin:miter;stroke-opacity:1"
         d="m 595.31612,947.41697 11.22532,7.85773 8.04481,-1.68378 15.71546,3.92885 14.5929,-1.8709 24.8828,5.98686 23.76027,-2.43215 h 19.08304 l 11.97367,0.56126 3.55468,35.73393 -132.08461,0.74835 z"
         id="path25376-6-1"
         inkscape:export-filename="C:\Users\Clément\Desktop/portrait.png"
         inkscape:export-xdpi="96"
         inkscape:export-ydpi="96" />
      <path
         style="fill:#ebb78f;fill-opacity:1;stroke:#000000;stroke-width:0.264583px;stroke-linecap:butt;stroke-linejoin:miter;stroke-opacity:1"
         d="m 646.26998,934.46901 -1.38906,8.73125 -3.37344,6.28385 -5.35781,4.7625 -2.38125,6.48229 0.92604,5.22552 -0.15063,6.42118 -0.14033,4.95784 6.08039,1.87089 10.66405,1.4967 13.00266,1.59025 12.62848,-1.30961 5.79975,-3.1805 -2.05796,-5.61266 -11.88013,-45.46256 z"
         id="path11499-1-7-0"
         inkscape:export-filename="C:\Users\Clément\Desktop/portrait.png"
         inkscape:export-xdpi="96"
         inkscape:export-ydpi="96" />
      <path
         style="fill:#e3b189;fill-opacity:1;stroke:#000000;stroke-width:0.264583px;stroke-linecap:butt;stroke-linejoin:miter;stroke-opacity:1"
         d="m 647.98977,876.92213 -13.49375,13.09688 -4.89479,24.20937 5.29167,19.84375 11.85846,4.15978 c 1.7548,-0.0877 3.45532,-0.0488 5.33202,-0.42095 2.17834,-0.65156 4.37715,-1.27448 6.12717,-2.52569 2.6703,-1.92187 5.07432,-4.16327 7.43677,-6.45456 l 4.23672,-5.07733 2.11667,-22.9526 -4.29948,-11.90625 -9.65729,-8.00365 -3.90261,-4.36562 z"
         id="path8000-6-1-7"
         sodipodi:nodetypes="cccccccccccccc"
         inkscape:export-filename="C:\Users\Clément\Desktop/portrait.png"
         inkscape:export-xdpi="96"
         inkscape:export-ydpi="96" />
      <path
         style="fill:#000000;stroke:#000000;stroke-width:0.264583px;stroke-linecap:butt;stroke-linejoin:miter;stroke-opacity:1"
         d="m 642.54187,925.36956 c 0.0203,-0.008 0.0725,0.0598 0.23594,0.12794 0.11972,0.0443 0.238,0.0714 0.43363,0.10536 0.40817,0.0696 0.78756,0.0982 1.42259,0.12461 1.15904,0.047 2.33815,0.0354 3.93654,-0.0357 0.002,-1.1e-4 0.18237,-0.008 0.18481,-0.008 1.68403,-0.0783 2.84039,-0.16991 4.00897,-0.32588 0.59693,-0.0806 0.91567,-0.1321 1.28085,-0.23542 0.16327,-0.0477 0.24941,-0.0757 0.33947,-0.12914 0,0 0,0 0,0 0.10095,-0.0705 0.11219,-0.1342 0.13086,-0.13793 0.0187,-0.004 0.0588,0.12108 -0.0632,0.22464 0,0 0,0 0,0 -0.0827,0.0804 -0.18984,0.14405 -0.34605,0.21154 -0.34165,0.15045 -0.71883,0.25147 -1.29232,0.3649 -1.12008,0.22302 -2.39814,0.36458 -4.03894,0.44351 -0.0617,0.003 -0.12372,0.006 -0.18594,0.009 -1.56968,0.0702 -2.84608,0.0479 -3.97714,-0.0625 -0.61989,-0.06 -1.05318,-0.13112 -1.44624,-0.24911 -0.19199,-0.0571 -0.32984,-0.11493 -0.44407,-0.18711 -0.18988,-0.11077 -0.19757,-0.23295 -0.17981,-0.24002 z"
         id="path8037-9-4-1"
         inkscape:path-effect="#path-effect130233"
         inkscape:original-d="m 642.54187,925.36956 c 0.4322,1.08532 12.17219,0.47818 11.97366,-0.51448"
         sodipodi:nodetypes="cc"
         inkscape:export-filename="C:\Users\Clément\Desktop/portrait.png"
         inkscape:export-xdpi="96"
         inkscape:export-ydpi="96" />
      <path
         style="fill:#000000;stroke:#000000;stroke-width:0.264583px;stroke-linecap:butt;stroke-linejoin:miter;stroke-opacity:1"
         d="m 647.24246,928.87749 c 0.005,-0.17191 0.79408,-0.29048 1.76227,-0.26467 0.96818,0.0258 1.75024,0.18626 1.74566,0.35817 -0.005,0.17191 -0.79408,0.29048 -1.76227,0.26467 -0.96818,-0.0258 -1.75024,-0.18626 -1.74566,-0.35817 z"
         id="path8093-1-5-3"
         inkscape:path-effect="#path-effect130237"
         inkscape:original-d="m 647.24246,928.87749 3.50792,0.0935"
         inkscape:export-filename="C:\Users\Clément\Desktop/portrait.png"
         inkscape:export-xdpi="96"
         inkscape:export-ydpi="96" />
      <path
         style="fill:none;stroke:#000000;stroke-width:0.4;stroke-linecap:butt;stroke-linejoin:miter;stroke-miterlimit:4;stroke-dasharray:none;stroke-opacity:1"
         d="m 645.09094,906.12282 c 0.35335,2.48107 0.66227,4.96476 -0.0233,7.50694 -0.15936,1.59175 -0.77442,2.7929 -1.35639,4.02241 0.44435,1.65188 1.71405,2.17829 2.80633,2.94664 1.10112,-0.32544 1.91294,-0.94018 2.64264,-1.63703 0.85427,-0.18658 1.63229,0.008 2.36198,0.44434 0.57007,-1.13298 0.8981,-2.30996 -0.56126,-3.81193"
         id="path8900-2-2-4"
         sodipodi:nodetypes="ccccccc"
         inkscape:export-filename="C:\Users\Clément\Desktop/portrait.png"
         inkscape:export-xdpi="96"
         inkscape:export-ydpi="96" />
      <path
         style="fill:none;stroke:#000000;stroke-width:0.264583px;stroke-linecap:butt;stroke-linejoin:miter;stroke-opacity:1"
         d="m 638.56399,907.36575 c 1.01692,-0.58224 1.94789,-1.39997 3.12539,-1.67018 1.42858,-0.15993 2.23847,0.34316 3.02617,1.14102"
         id="path9433-6-6-7"
         sodipodi:nodetypes="ccc"
         inkscape:export-filename="C:\Users\Clément\Desktop/portrait.png"
         inkscape:export-xdpi="96"
         inkscape:export-ydpi="96" />
      <path
         style="fill:#ffffff;fill-opacity:1;stroke:#000000;stroke-width:0.264583px;stroke-linecap:butt;stroke-linejoin:miter;stroke-opacity:1"
         d="m 640.41607,906.30742 c 0.28779,0.63041 0.5753,1.26169 0.99219,1.50482 0.79493,0.42272 1.25448,0.28647 1.80248,0.29765 0.29336,-0.28625 0.88589,-0.31074 0.85989,-0.87643 l 0.1819,-0.81028 c -0.4285,-0.36606 -1.04016,-0.5856 -1.68672,-0.77722 -0.78682,0.0625 -1.53785,0.20543 -2.14974,0.66146 z"
         id="path9672-0-1-8"
         sodipodi:nodetypes="ccccccc"
         inkscape:export-filename="C:\Users\Clément\Desktop/portrait.png"
         inkscape:export-xdpi="96"
         inkscape:export-ydpi="96" />
      <path
         style="fill:none;stroke:#000000;stroke-width:0.264583px;stroke-linecap:butt;stroke-linejoin:miter;stroke-opacity:1"
         d="m 652.37193,906.90273 c 1.4497,-0.562 2.89939,-1.34153 4.34909,-1.37252 l 2.48047,0.29765 c 0.69583,0.36635 1.18289,0.70288 1.57096,1.02526 0.84761,-0.054 1.05858,-0.46165 1.55443,-0.71106"
         id="path10025-3-5-5"
         sodipodi:nodetypes="ccccc"
         inkscape:export-filename="C:\Users\Clément\Desktop/portrait.png"
         inkscape:export-xdpi="96"
         inkscape:export-ydpi="96" />
      <path
         style="fill:#fdffff;fill-opacity:1;stroke:#000000;stroke-width:0.264583px;stroke-linecap:butt;stroke-linejoin:miter;stroke-opacity:1"
         d="m 655.28235,905.87747 c -0.0777,0.82685 -5.9e-4,1.54017 0.57878,1.88516 0.57587,0.36442 1.24363,0.36125 1.9513,0.19844 l 1.05833,-0.71107 c 0,0 0.64492,-1.55443 0.0496,-1.47175 -0.59531,0.0827 -2.1332,-0.29765 -2.24896,-0.24804 -0.11575,0.0496 -1.38906,0.34726 -1.38906,0.34726 z"
         id="path10302-2-0-9"
         sodipodi:nodetypes="ccccsscc"
         inkscape:export-filename="C:\Users\Clément\Desktop/portrait.png"
         inkscape:export-xdpi="96"
         inkscape:export-ydpi="96" />
      <ellipse
         style="opacity:0.811594;fill:#74acc2;fill-opacity:1;stroke:#000000;stroke-width:0.2;stroke-miterlimit:4;stroke-dasharray:none;stroke-opacity:1"
         id="path10672-7-3-1"
         cx="642.50677"
         cy="906.66077"
         rx="0.28063297"
         ry="0.3975634"
         inkscape:export-filename="C:\Users\Clément\Desktop/portrait.png"
         inkscape:export-xdpi="96"
         inkscape:export-ydpi="96" />
      <ellipse
         style="opacity:0.811594;fill:#89adb7;fill-opacity:1;stroke:#000000;stroke-width:0.2;stroke-miterlimit:4;stroke-dasharray:none;stroke-opacity:1"
         id="path10672-2-0-1-4"
         cx="656.99451"
         cy="906.38013"
         rx="0.28063297"
         ry="0.3975634"
         inkscape:export-filename="C:\Users\Clément\Desktop/portrait.png"
         inkscape:export-xdpi="96"
         inkscape:export-ydpi="96" />
      <path
         style="fill:#836435;fill-opacity:1;stroke:#000000;stroke-width:0.264583px;stroke-linecap:butt;stroke-linejoin:miter;stroke-opacity:1"
         d="m 608.82103,987.25453 6.21771,-8.4005 12.96458,-13.03073 9.26042,7.67291 c 3.28869,1.63829 6.74638,2.98687 10.64948,3.57188 3.78257,0.73248 7.61725,1.20435 11.57552,1.05832 l 8.86354,-0.46302 c 4.05317,-0.68728 7.80688,-1.67402 10.98021,-3.24114 l 21.29896,-15.875 c 2.29384,1.71507 4.94635,3.28667 6.68073,5.22552 5.45491,4.82864 10.06629,9.65729 14.94895,14.48593 l 3.39445,14.48803 -119.1755,-0.1871 z"
         id="path10809-5-4-0"
         sodipodi:nodetypes="cccccccccccccc"
         inkscape:export-filename="C:\Users\Clément\Desktop/portrait.png"
         inkscape:export-xdpi="96"
         inkscape:export-ydpi="96" />
      <path
         style="fill:#94531f;fill-opacity:1;stroke:#000000;stroke-width:0.264583px;stroke-linecap:butt;stroke-linejoin:miter;stroke-opacity:1"
         d="m 621.02667,975.69641 c 1.31534,-0.54755 2.67862,-0.98004 3.69501,-2.24507 -0.28962,-1.08792 -0.68767,-2.04031 -0.74838,-3.41437 0.67181,-1.30962 1.19802,-2.61923 2.33863,-3.92885 -0.11934,-2.13533 -0.75568,-3.90138 -0.0936,-6.59487 0.97592,-3.22986 2.28245,-6.59747 2.57247,-9.54154 -1.38314,-2.27567 -2.57623,-4.69387 -3.46112,-7.34322 -0.86947,-2.6926 -0.13525,-5.65248 0.84188,-8.65285 1.3455,-3.67347 2.21322,-7.2853 1.63703,-10.71081 -1.07278,-2.56813 -1.65474,-5.21178 -1.91765,-7.90451 0.80698,-3.38677 1.86103,-6.79413 3.41437,-10.2431 0.33873,-3.82304 0.8023,-7.54899 0.60804,-11.78658 1.53266,-4.011 3.56714,-7.75914 6.40778,-11.08501 3.89247,-3.7855 8.13483,-7.09762 14.12518,-8.04481 4.01122,-0.58773 8.07485,-1.00775 12.39464,-0.60804 0.84707,-0.87732 13.38777,5.85987 13.93809,6.92229 0.2641,0.50985 6.895,13.24491 6.50135,13.00266 0.64222,0.22478 2.97817,14.55731 3.27403,14.9203 0.67029,0.82238 2.94665,11.84115 2.29185,11.13179 -0.86548,5.74454 1.21265,9.42856 2.7128,13.51716 l 3.04016,6.17392 c -0.88528,4.09458 -1.42939,8.08533 0.51451,11.31885 2.05941,2.51011 4.65237,5.02022 5.56588,7.53033 -0.0502,2.59713 -0.46275,4.8578 -2.24507,5.84653 -1.12132,0.22432 -2.31173,0.10314 -3.32081,0.88865 0.68595,3.35198 -0.003,5.6042 -0.51451,7.99804 -0.88425,4.01916 -3.76369,4.47547 -6.31422,5.51913 1.19049,-2.02247 3.14843,-4.24391 -2.15152,-4.58367 -2.81969,2.09911 -5.52134,3.07686 -8.09159,2.80633 v -4.77075 c -2.04568,-1.41258 -4.01902,-1.59518 -5.94005,-0.88869 -2.32528,-0.0485 -4.6631,-0.0817 -5.28527,-2.19829 -0.0238,-3.38165 2.79179,-5.50132 4.86431,-7.95125 1.29556,-1.23302 1.04098,-3.35184 -0.28064,-6.08039 -2.22825,-1.49712 -4.30564,-3.04453 -5.42557,-4.91109 -1.06622,-2.31554 -0.2836,-3.93777 0.60804,-5.51911 0.82335,-1.87035 2.78688,-3.08917 2.05798,-5.84652 -2.93447,-2.06782 -2.87963,-5.75485 -2.89989,-9.4012 l 2.7128,-14.59291 c 0.65581,-5.05538 0.41865,-10.03635 -0.42095,-14.96711 -1.24562,-3.02788 -2.37661,-6.01278 -4.58367,-9.4012 -2.82044,-3.16822 -6.01837,-6.03037 -13.37686,-5.5191 -1.06055,-2.25808 1.63417,-4.30754 2.57247,-6.45457 -2.63285,1.7668 -5.36469,3.39219 -7.15613,6.36101 -3.04517,1.87815 -6.64012,3.30649 -8.41899,6.2207 -1.22666,4.29047 -2.60197,8.62342 -2.99342,12.67526 -0.43898,3.35201 -0.94851,6.70401 -0.42095,10.05602 l 2.24507,10.2431 c 1.57175,4.29036 3.95269,7.77153 6.64165,10.94468 l 5.19171,3.78854 c 1.34059,3.72826 1.78703,6.77526 0.51448,8.51255 l -9.58829,10.89789 c -1.36287,2.32015 -2.1099,5.11616 -0.74835,9.54154 -0.65922,3.78884 -3.09961,6.43773 -6.87551,8.2319 -1.60641,0.54236 -3.07031,0.60966 -4.30303,-0.0936 2.14323,-1.16414 3.09153,-2.70848 3.88207,-4.30302 -1.12109,1.66538 -2.42728,3.19194 -4.53688,4.11594 -1.7694,0.95366 -3.40179,0.60573 -5.05136,0.42099 z"
         id="path4818-9-6-0"
         sodipodi:nodetypes="cccccccccccccccscscccccccccccccccccccccccccccccccccccccccc"
         inkscape:export-filename="C:\Users\Clément\Desktop/portrait.png"
         inkscape:export-xdpi="96"
         inkscape:export-ydpi="96" />
      <path
         style="fill:#94531f;fill-opacity:1;stroke:#000000;stroke-width:0.264583px;stroke-linecap:butt;stroke-linejoin:miter;stroke-opacity:1"
         d="m 638.46344,905.48573 c 1.82879,-0.52115 3.63622,-1.10102 5.70622,-0.95883 -0.79564,-0.28501 -1.69749,-0.50628 -3.11037,-0.42095 -1.02781,0.2974 -1.87974,0.77068 -2.59585,1.37978 z"
         id="path28770-5-5"
         sodipodi:nodetypes="cccc"
         inkscape:export-filename="C:\Users\Clément\Desktop/portrait.png"
         inkscape:export-xdpi="96"
         inkscape:export-ydpi="96" />
      <path
         style="fill:#94531f;fill-opacity:1;stroke:#000000;stroke-width:0.264583px;stroke-linecap:butt;stroke-linejoin:miter;stroke-opacity:1"
         d="m 654.17527,904.34653 c 1.90145,-0.0236 3.79768,-0.10936 5.75802,0.57046 -0.69311,-0.4836 -1.50542,-0.93353 -2.89126,-1.22154 -1.06983,0.0176 -2.01603,0.25099 -2.86676,0.65108 z"
         id="path28770-2-5-0"
         sodipodi:nodetypes="cccc"
         inkscape:export-filename="C:\Users\Clément\Desktop/portrait.png"
         inkscape:export-xdpi="96"
         inkscape:export-ydpi="96" />
      <path
         id="rect11655-7-8-9"
         style="fill:#e9850d;fill-opacity:1;stroke:#ff0000;stroke-width:0;stroke-miterlimit:4;stroke-dasharray:none;stroke-opacity:1"
         d="m 2221.918,3181.959 v 605 h 535.8027 v -605 z m 44.2812,50.1504 h 447.5176 v 503.6289 h -447.5176 z"
         transform="scale(0.26458333)"
         inkscape:export-filename="C:\Users\Clément\Desktop/portrait.png"
         inkscape:export-xdpi="96"
         inkscape:export-ydpi="96" />
      <path
         id="rect11655-7-0-59-1"
         style="fill:#ffba2e;fill-opacity:1;stroke:#ff0000;stroke-width:0;stroke-miterlimit:4;stroke-dasharray:none;stroke-opacity:1"
         d="m 2242.6426,3205.5391 v 554.9941 h 491.5156 v -554.9941 z m 23.5566,26.5703 h 447.5176 v 503.6289 h -447.5176 z"
         transform="scale(0.26458333)"
         inkscape:export-filename="C:\Users\Clément\Desktop/portrait.png"
         inkscape:export-xdpi="96"
         inkscape:export-ydpi="96" />
    </g>
  </g>
</svg>
