<?xml version="1.0" encoding="UTF-8" standalone="no"?>
<!-- Created with Inkscape (http://www.inkscape.org/) -->

<svg
   width="150"
   height="150"
   viewBox="0 0 39.687499 39.687501"
   version="1.1"
   id="svg5"
   inkscape:version="1.1.1 (3bf5ae0d25, 2021-09-20)"
   sodipodi:docname="zzz - Copie (4).svg"
   inkscape:export-filename="C:\Users\Clément\Desktop\freepic\res\img/icon.png"
   inkscape:export-xdpi="96"
   inkscape:export-ydpi="96"
   xmlns:inkscape="http://www.inkscape.org/namespaces/inkscape"
   xmlns:sodipodi="http://sodipodi.sourceforge.net/DTD/sodipodi-0.dtd"
   xmlns="http://www.w3.org/2000/svg"
   xmlns:svg="http://www.w3.org/2000/svg">
  <sodipodi:namedview
     id="namedview7"
     pagecolor="#ffffff"
     bordercolor="#666666"
     borderopacity="1.0"
     inkscape:pageshadow="2"
     inkscape:pageopacity="0.0"
     inkscape:pagecheckerboard="true"
     inkscape:document-units="mm"
     showgrid="false"
     units="px"
     inkscape:zoom="3.0289002"
     inkscape:cx="62.729039"
     inkscape:cy="70.487631"
     inkscape:window-width="1920"
     inkscape:window-height="1013"
     inkscape:window-x="-9"
     inkscape:window-y="-9"
     inkscape:window-maximized="1"
     inkscape:current-layer="layer1"
     inkscape:snap-object-midpoints="false"
     inkscape:snap-center="false" />
  <defs
     id="defs2">
    <clipPath
       clipPathUnits="userSpaceOnUse"
       id="clipPath168419-0">
      <path
         style="fill:#d4d591;fill-opacity:1;stroke:#000000;stroke-width:0.264583px;stroke-linecap:butt;stroke-linejoin:miter;stroke-opacity:1"
         d="m 1976.6629,1120.9601 c -14.9756,1.5925 -25.8038,9.2969 -36.1081,17.7735 -10.8363,13.4703 -17.8314,26.9407 -24.1344,40.4111 -5.0825,17.6623 -6.7297,33.8216 -6.174,49.0172 2.96,13.8998 7.3576,26.531 16.2768,35.1727 10.0404,8.8438 23.2314,13.9465 38.9144,16.0897 14.6068,1.5407 26.9047,-0.7669 39.4757,-2.6193 16.4002,-3.4206 25.6399,-12.8083 33.676,-23.199 4.188,-8.0615 7.6011,-17.2853 8.9802,-29.56 0.1671,-11.8575 -2.4879,-24.9245 -4.6772,-37.7919 -3.678,-11.8565 -9.5794,-24.1299 -18.896,-37.0436 -6.3738,-10.6207 -16.705,-17.504 -27.502,-23.9473 -6.0539,-1.7474 -10.1493,-4.5965 -19.8314,-4.3031 z"
         id="path168421-4"
         sodipodi:nodetypes="ccccccccccccc" />
    </clipPath>
    <linearGradient
       x1="-989.37677"
       y1="-3204.3379"
       x2="1175.8552"
       y2="2649.3293"
       gradientUnits="userSpaceOnUse"
       id="color-1"
       gradientTransform="matrix(0.17670732,0,0,0.17670732,-22.688903,-12.005473)">
      <stop
         offset="0"
         stop-color="#2a221e"
         id="stop2" />
      <stop
         offset="1"
         stop-color="#2a221e"
         stop-opacity="0"
         id="stop4" />
    </linearGradient>
    <linearGradient
       x1="-3323.7942"
       y1="-330.77435"
       x2="2849.8162"
       y2="585.84308"
       gradientUnits="userSpaceOnUse"
       id="color-2"
       gradientTransform="matrix(0.17670732,0,0,0.17670732,-22.688903,-12.005473)">
      <stop
         offset="0"
         stop-color="#2a221e"
         id="stop7" />
      <stop
         offset="1"
         stop-color="#2a221e"
         stop-opacity="0"
         id="stop9" />
    </linearGradient>
  </defs>
  <g
     inkscape:label="Calque 1"
     inkscape:groupmode="layer"
     id="layer1">
    <path
       style="fill:#fbb35f;fill-opacity:1;stroke:#ba7c00;stroke-width:0.847613px;stroke-linecap:butt;stroke-linejoin:miter;stroke-opacity:1"
       d="m 21.023522,1.3331524 c 6.974767,0.4981193 10.778571,3.8068488 11.537558,9.8144076 0.670046,7.237846 2.975563,14.018728 -5.544018,23.82428 -3.53208,2.609807 -7.414292,4.285898 -12.211856,3.521199 C 10.300489,36.698126 5.2050081,35.740162 3.9419457,29.352905 3.3814577,24.506294 3.4598376,19.957828 7.0885755,17.06617 L 8.8116938,14.968435 12.257987,6.2028949 C 14.590964,3.6227351 17.56081,2.0774994 21.023522,1.3331524 Z"
       id="path34141-3"
       sodipodi:nodetypes="ccccccccc"
       inkscape:export-filename="C:\Users\Clément\Desktop\Seed Keeper\Sprites\Icons\Vegetables/PotatoIcon.png"
       inkscape:export-xdpi="96"
       inkscape:export-ydpi="96" />
    <path
       style="fill:none;stroke:#ba7c00;stroke-width:0.847613px;stroke-linecap:butt;stroke-linejoin:miter;stroke-opacity:1"
       d="M 7.3117456,16.71766 C 8.9459788,15.480708 11.052209,15.06984 13.245072,14.810533"
       id="path34786-1"
       sodipodi:nodetypes="cc"
       inkscape:export-filename="C:\Users\Clément\Desktop\Seed Keeper\Sprites\Icons\Vegetables/PotatoIcon.png"
       inkscape:export-xdpi="96"
       inkscape:export-ydpi="96" />
    <path
       style="fill:#ba7c00;fill-opacity:1;stroke:#e89851;stroke-width:0.820116;stroke-miterlimit:4;stroke-dasharray:none;stroke-opacity:1"
       id="path34878-2"
       d="m 15.163928,11.403954 c 0.409784,0.324813 0.301128,-1.020004 0.607409,-0.852669 0.333629,0.182306 -0.06815,0.759245 -0.05577,1.139222 0.0056,0.221452 0.02535,0.856927 0.116035,0.654561 0.347456,-0.779053 0.516806,-3.0629702 0.325348,-0.948662 -0.134621,-0.214467 -0.172642,-0.539984 -0.403867,-0.643436 -0.451972,-0.202273 -1.919983,-0.408094 -1.472404,-0.196301 0.804358,0.380606 1.847996,0.198667 2.571666,0.716471 0.392096,0.280539 -1.008771,-0.117697 -1.443451,0.0908 -0.34926,0.167489 -1.059777,1.055145 -0.692098,0.933399 0.685423,-0.226944 1.163785,-0.854837 1.745678,-1.282254 -0.393787,-1.8451328 -0.780899,4.715031 -0.295045,3.609779 0.513482,-1.168325 -0.119696,-2.81424 0.741384,-3.75605 0.448284,-0.490294 0.981791,0.917351 1.567401,1.231065 0.349682,0.187318 -0.527818,-0.598517 -0.841027,-0.84194 -0.174617,-0.135664 -0.401082,-0.186189 -0.601665,-0.279328 -4.389244,2.74923 -2.469853,1.734683 1.229266,-1.7159621 0.68148,-0.6356826 -1.20634,1.2856191 -1.645892,1.0678221 -0.09406,-0.04666 -0.08618,-0.192472 -0.116314,-0.293127 C 16.457772,9.895652 16.432432,9.74931 16.398067,9.6053085 13.82381,20.068298 16.088264,11.361827 15.868249,10.659942 15.702645,10.13186 14.810304,10.266485 14.256913,10.259705 c -0.130398,-0.0016 0.09153,0.251138 0.08788,0.381573 -0.0084,0.291622 -0.258826,0.50402 -0.422261,0.702533 0.424767,0.03242 0.849533,0.0648 1.274272,0.09722 -0.04478,0.239844 -0.373087,0.669699 -0.134341,0.71954 0.329854,0.06883 0.52838,-0.42803 0.832071,-0.573913 0.107304,-0.05151 0.249813,-0.04934 0.356864,0.0028 1.070084,0.5223 -0.324983,3.716924 0.839957,-2.5324466 0.354696,0.8458465 0.709362,1.6916966 1.064085,2.5375436 0.250376,-0.157352 1.038907,-0.401114 0.751664,-0.472048 -0.79298,-0.195823 -1.712613,0.40441 -2.4498,0.05269 -0.347683,-0.165885 0.611211,-0.503285 0.787544,-0.845782 0.14786,-0.287584 0.391589,-1.1657231 0.142227,-0.9599359 -0.558657,0.460667 -0.790277,1.2135309 -1.185414,1.8202989 1.280861,-6.8432157 0.252065,-0.6505 -0.343205,-0.18574 -0.499175,0.389728 0.495571,-1.5653548 -0.04253,-1.8994113 -0.777774,-0.4828717 -1.861095,-0.08103 -2.741185,0.1710919 -0.257981,0.073874 -0.59575,0.5856327 -0.362582,0.7181744 1.044793,0.594026 2.301857,0.692492 3.452798,1.038739 -0.05886,-0.02422 -0.122793,-0.04014 -0.177149,-0.07336 -0.01408,-0.007 0.02873,-0.0023 0.03971,-0.0101 0.123358,-0.08716 0.240801,-0.182193 0.361286,-0.273275 0,0 -1.755564,1.77311 -1.755564,1.77311 v 0 c 0.920197,-0.843638 3.018062,-1.309378 2.760561,-2.5309136 -0.147015,-0.6969022 -5.1139,3.1917206 -1.8093,1.1365796 0.02253,-0.01352 0.04111,-0.04444 0.06675,-0.04078 0.11012,0.01577 0.306901,0.206018 0.319715,0.09553 0.03324,-0.286785 -0.258543,-0.546272 -0.23404,-0.833944 0.03408,-0.3951433 0.168982,-0.798618 0.401192,-1.1200826 0.07464,-0.103108 0.394857,-0.087054 0.379705,0.039317 -0.130117,1.0843916 -0.510948,2.1237286 -0.766394,3.1855956 0.126456,-0.225508 0.225592,-0.468683 0.379254,-0.676484 0.450537,-0.608721 1.09729,-1.085507 1.428666,-1.7664433 0.257135,-0.5287783 -0.806809,0.8559493 -1.198877,1.2942683 -0.126174,0.141073 0.317491,-0.232267 0.400912,-0.402112 0.02873,-0.05554 -0.09857,-0.07486 -0.14786,-0.112289 0.138003,-0.195429 0.275723,-0.390863 0.413782,-0.586298 0.01971,-0.4686986 0.408686,-1.7209912 0.06084,-1.4061029 -0.483488,0.4377895 -0.321603,1.2691993 -0.573923,1.8706509 -0.09632,0.230015 -0.281638,0.415603 -0.458901,0.591131 -0.09744,0.0964 -0.478193,0.265191 -0.351991,0.21199 0.667482,-0.281498 1.378731,-0.492591 1.978986,-0.898142 0.459183,-0.310267 -1.031922,0.40458 -1.547883,0.606871 -5.116801,-0.37911 -0.737638,0.02056 -0.411558,-0.210468 0.278822,-0.197484 -0.883132,-0.117415 -0.917323,-0.457369 -0.02873,-0.294921 0.683141,-0.109332 0.882401,0.110064 0.212918,0.234661 0.04168,0.6329 0.07802,0.947769 0.0028,0.02851 0.01689,-0.05577 0.02253,-0.08364 -0.307239,0.777245 -0.179684,0.359843 0.400124,-0.380989 0.677283,-0.865388 0.967792,-2.5235909 2.065759,-2.5693007 0.998547,-0.041542 -0.956471,1.7669017 -1.578666,2.5490257 -1.271765,1.598584 -5.927637,2.044513 3.801438,-0.343808 -0.789629,0.255925 -1.580299,0.508719 -2.368885,0.767828 -0.143918,0.04726 -0.360301,0.28653 -0.428232,0.15124 C 17.314588,10.8597 17.563726,9.8317962 17.005125,9.2389959 16.684058,8.8983208 16.884302,10.16952 16.771647,10.623867 c -0.01689,0.06236 -0.01408,-0.216917 -0.06535,-0.181291 -0.07717,0.05143 -0.04478,0.179855 -0.06731,0.269753 -0.129272,0.188276 -0.232915,0.397015 -0.387957,0.564838 -0.03324,0.03616 -0.195738,0.02084 -0.147015,0.01436 0.154056,-0.01944 0.569896,0.05776 0.462506,-0.0543 -0.195738,-0.20416 -0.537985,-0.177769 -0.795965,-0.293573 -0.507709,-0.22793 -2.02478,-0.916885 -1.498315,-0.736499 0.662976,0.22717 1.27368,0.585157 1.910521,0.877737 0.132088,-1.6136067 -0.134624,1.851106 -0.49222,2.069365 -0.650893,0.397047 0.224466,-1.515067 0.212637,-2.277428 -0.0017,-0.08596 -0.199118,0.0048 -0.246433,0.07661 -0.251221,0.384375 -0.567867,1.691959 -0.610929,1.23477 -0.06675,-0.706613 0.355371,-1.374273 0.533056,-2.061412 0,0 -0.414965,1.277174 -0.414965,1.277174 z"
       inkscape:export-filename="C:\Users\Clément\Desktop\Seed Keeper\Sprites\Icons\Vegetables/PotatoIcon.png"
       inkscape:export-xdpi="96"
       inkscape:export-ydpi="96" />
    <path
       style="fill:#ba7c00;fill-opacity:1;stroke:#e89851;stroke-width:0.820116;stroke-miterlimit:4;stroke-dasharray:none;stroke-opacity:1"
       id="path34882-9"
       d="m 16.851222,28.293977 c -0.05773,0.157718 -0.960696,2.362888 -0.63577,2.570064 0.554123,0.353292 0.533395,-1.532836 1.101684,-1.522277 1.859516,0.03456 1.577933,1.349512 1.602267,-0.308568 -0.326193,-0.235422 -0.733188,-0.387461 -0.978523,-0.706261 -0.647458,-0.841462 2.696009,-0.635311 -1.279566,-0.354436 0,0 1.140465,-0.453367 1.140465,-0.453367 v 0 c 0.109838,0.112599 0.205315,0.241167 0.329517,0.337841 0.230943,0.179995 0.993675,0.358873 0.730794,0.488116 -0.611183,0.300497 -1.358256,0.102824 -2.03737,0.154253 0.210102,0.172476 0.361539,0.476903 0.630363,0.517488 0.146733,0.02197 0.04675,-0.376232 -0.089,-0.43577 -0.118288,-0.05185 -0.252067,0.406795 -0.268683,0.278821 -0.05238,-0.399106 0.346246,-1.548792 0.147579,-1.19857 -0.952022,1.680019 -3.208788,7.748715 -0.890935,1.656097 0,0 0.497289,-1.023391 0.497289,-1.023391 z"
       inkscape:export-filename="C:\Users\Clément\Desktop\Seed Keeper\Sprites\Icons\Vegetables/PotatoIcon.png"
       inkscape:export-xdpi="96"
       inkscape:export-ydpi="96" />
    <path
       style="fill:#ba7c00;fill-opacity:1;stroke:#e89851;stroke-width:0.820116;stroke-miterlimit:4;stroke-dasharray:none;stroke-opacity:1"
       id="path34884-9"
       d="m 24.412445,15.050233 c 0.856236,-0.502657 2.326105,-2.470741 2.568709,-1.507972 0.28023,1.113062 -1.697124,1.585025 -2.303687,2.559515 -0.194331,0.312317 -0.321406,1.231049 0.02253,1.103419 2.270905,-0.840028 3.984897,-3.118652 6.38023,-3.472262 1.244784,-0.183769 -1.65054,1.900891 -2.429523,2.88904 -0.400799,0.508442 -0.737554,1.064249 -1.106359,1.596376 0.378409,-0.10629 0.757015,-0.425859 1.135255,-0.318918 0.246715,0.0697 0.326982,0.96873 0.27516,0.717738 -0.166166,-0.807572 0.114345,-2.768594 -0.620166,-2.394407 -1.178628,0.600312 -0.39911,3.760779 -1.709544,3.580992 -1.899451,-0.260599 2.399529,-9.2822 -1.286522,-0.597252 -0.235731,0.206807 -0.394097,0.63466 -0.707448,0.620493 -0.737102,-0.03332 -1.349553,-0.819296 -2.083811,-0.746679 -0.784898,0.07762 -0.708237,2.198673 -0.512723,2.406758 0.393646,0.418954 2.607715,0.642519 3.177863,0.720606 -2.129831,6.528154 -0.574372,-0.346968 2.906872,0.609808 3.109426,0.854591 -7.387649,6.938369 1.751874,0.95354 0,0 0.743834,-0.730967 0.743834,-0.730967 v 0 c -8.917817,6.246992 -0.941741,1.685176 -2.628191,-0.08057 -2.044862,-2.140999 -5.408353,6.458397 -0.711924,-2.701394 -0.509259,0.109557 -1.014067,0.242265 -1.52769,0.32866 -0.980466,0.164927 -2.000701,0.403027 -2.856401,-0.398954 -0.279386,-0.261896 -0.692746,-1.218837 -0.328306,-1.101098 2.244402,0.725066 2.089332,1.644051 2.485258,3.356931 0.56353,-2.219054 0.722938,-4.582209 1.690562,-6.657158 0.254319,-0.545389 0.575302,2.711829 0.852096,2.852461 0.631996,0.321141 1.511185,0.601912 2.114313,0.229367 0.482249,-0.297869 0.801063,-1.604225 0.239956,-1.68348 -1.023304,-0.144509 -1.869824,0.880859 -2.804721,1.32129 0.174052,-0.386185 0.342246,-0.774924 0.521735,-1.158558 0.266993,-0.570328 0.751297,-1.076905 0.817031,-1.703119 0.143636,-1.368415 -1.775502,-0.782199 -2.163431,-0.758463 -0.399588,0.02422 -1.159194,0.473406 -1.198624,0.07503 -0.05492,-0.554613 0.719783,-0.851079 1.07966,-1.276617 0,0 -1.785051,1.365837 -1.785051,1.365837 z"
       inkscape:export-filename="C:\Users\Clément\Desktop\Seed Keeper\Sprites\Icons\Vegetables/PotatoIcon.png"
       inkscape:export-xdpi="96"
       inkscape:export-ydpi="96" />
  </g>
</svg>
