<?xml version="1.0" encoding="UTF-8" standalone="no"?>
<!-- Created with Inkscape (http://www.inkscape.org/) -->

<svg
   width="150"
   height="150"
   viewBox="0 0 39.687499 39.687501"
   version="1.1"
   id="svg5"
   inkscape:version="1.1.1 (3bf5ae0d25, 2021-09-20)"
   sodipodi:docname="zzz - Copie (6).svg"
   inkscape:export-filename="C:\Users\Clément\Desktop\freepic\res\img/icon.png"
   inkscape:export-xdpi="96"
   inkscape:export-ydpi="96"
   xmlns:inkscape="http://www.inkscape.org/namespaces/inkscape"
   xmlns:sodipodi="http://sodipodi.sourceforge.net/DTD/sodipodi-0.dtd"
   xmlns="http://www.w3.org/2000/svg"
   xmlns:svg="http://www.w3.org/2000/svg">
  <sodipodi:namedview
     id="namedview7"
     pagecolor="#ffffff"
     bordercolor="#666666"
     borderopacity="1.0"
     inkscape:pageshadow="2"
     inkscape:pageopacity="0.0"
     inkscape:pagecheckerboard="true"
     inkscape:document-units="mm"
     showgrid="false"
     units="px"
     inkscape:zoom="3.0289002"
     inkscape:cx="62.729039"
     inkscape:cy="70.487631"
     inkscape:window-width="1920"
     inkscape:window-height="1013"
     inkscape:window-x="-9"
     inkscape:window-y="-9"
     inkscape:window-maximized="1"
     inkscape:current-layer="layer1"
     inkscape:snap-object-midpoints="false"
     inkscape:snap-center="false" />
  <defs
     id="defs2">
    <clipPath
       clipPathUnits="userSpaceOnUse"
       id="clipPath168419-0">
      <path
         style="fill:#d4d591;fill-opacity:1;stroke:#000000;stroke-width:0.264583px;stroke-linecap:butt;stroke-linejoin:miter;stroke-opacity:1"
         d="m 1976.6629,1120.9601 c -14.9756,1.5925 -25.8038,9.2969 -36.1081,17.7735 -10.8363,13.4703 -17.8314,26.9407 -24.1344,40.4111 -5.0825,17.6623 -6.7297,33.8216 -6.174,49.0172 2.96,13.8998 7.3576,26.531 16.2768,35.1727 10.0404,8.8438 23.2314,13.9465 38.9144,16.0897 14.6068,1.5407 26.9047,-0.7669 39.4757,-2.6193 16.4002,-3.4206 25.6399,-12.8083 33.676,-23.199 4.188,-8.0615 7.6011,-17.2853 8.9802,-29.56 0.1671,-11.8575 -2.4879,-24.9245 -4.6772,-37.7919 -3.678,-11.8565 -9.5794,-24.1299 -18.896,-37.0436 -6.3738,-10.6207 -16.705,-17.504 -27.502,-23.9473 -6.0539,-1.7474 -10.1493,-4.5965 -19.8314,-4.3031 z"
         id="path168421-4"
         sodipodi:nodetypes="ccccccccccccc" />
    </clipPath>
    <linearGradient
       x1="-989.37677"
       y1="-3204.3379"
       x2="1175.8552"
       y2="2649.3293"
       gradientUnits="userSpaceOnUse"
       id="color-1"
       gradientTransform="matrix(0.17670732,0,0,0.17670732,-22.688903,-12.005473)">
      <stop
         offset="0"
         stop-color="#2a221e"
         id="stop2" />
      <stop
         offset="1"
         stop-color="#2a221e"
         stop-opacity="0"
         id="stop4" />
    </linearGradient>
    <linearGradient
       x1="-3323.7942"
       y1="-330.77435"
       x2="2849.8162"
       y2="585.84308"
       gradientUnits="userSpaceOnUse"
       id="color-2"
       gradientTransform="matrix(0.17670732,0,0,0.17670732,-22.688903,-12.005473)">
      <stop
         offset="0"
         stop-color="#2a221e"
         id="stop7" />
      <stop
         offset="1"
         stop-color="#2a221e"
         stop-opacity="0"
         id="stop9" />
    </linearGradient>
  </defs>
  <g
     inkscape:label="Calque 1"
     inkscape:groupmode="layer"
     id="layer1">
    <path
       style="fill:#03bf00;fill-opacity:1;stroke:#027700;stroke-width:0.39369;stroke-linecap:butt;stroke-linejoin:miter;stroke-miterlimit:4;stroke-dasharray:none;stroke-opacity:1"
       d="m 24.670266,12.13675 c 2.721708,0.450473 4.389803,0.198551 3.928306,-1.473105 0.848473,-0.7491136 2.267437,-1.3990077 1.35032,-2.4551762 0.718819,-1.3395413 2.235661,-2.7404664 0.98207,-3.9282804 -1.467127,-0.489338 -2.049244,0.791396 -2.915501,1.5037963"
       id="path6964"
       sodipodi:nodetypes="ccccc" />
    <path
       style="fill:#ef135d;fill-opacity:1;stroke:#b2003c;stroke-width:0.524921;stroke-linecap:butt;stroke-linejoin:miter;stroke-miterlimit:4;stroke-dasharray:none;stroke-opacity:1"
       d="m 10.01386,20.259465 c -1.1956826,-6.75162 2.565874,-7.774859 6.466881,-8.636956 8.005755,1.836009 8.385048,4.902092 9.461559,7.855722 0.09184,3.227113 -1.510327,5.554187 -5.121394,6.814079 -2.802435,-2.497853 -5.425124,-5.105116 -10.807046,-6.032845 z"
       id="path3883"
       sodipodi:nodetypes="ccccc" />
    <path
       style="fill:#ffffff;fill-opacity:1;stroke:#dbdbdb;stroke-width:0.39369;stroke-linecap:butt;stroke-linejoin:miter;stroke-miterlimit:4;stroke-dasharray:none;stroke-opacity:1"
       d="m 10.000655,20.422967 c 0.646385,1.370805 0.907321,2.649542 2.086849,4.020349 1.007004,1.500153 0.598732,2.734951 -1.012754,3.744142 0.01272,0.831252 0.42318,1.639032 1.104829,2.547246 0.417939,1.234307 -0.583747,2.042724 -1.780041,2.792759 -1.2248397,0.924463 -1.943964,1.878671 -1.7799626,2.884833 l 0.3375931,2.731382 c 0.1780946,-1.474231 0.102781,-2.928933 1.2890035,-4.480696 1.368971,-1.345255 3.921056,-2.41749 3.375829,-4.204487 -0.247553,-1.255528 -0.864578,-2.634247 0.521718,-3.345175 0.757721,-0.153263 0.752149,-0.524573 0.982044,-0.828622 2.030037,0.975569 3.923778,0.906206 5.708348,0 -2.956261,-2.462109 -5.290738,-5.123909 -10.833456,-5.861731 z"
       id="path4344"
       sodipodi:nodetypes="ccccccccccccc" />
    <path
       style="fill:#03bf00;fill-opacity:1;stroke:#027700;stroke-width:0.39369;stroke-linecap:butt;stroke-linejoin:miter;stroke-miterlimit:4;stroke-dasharray:none;stroke-opacity:1"
       d="m 20.097533,12.535714 c 0.08702,-1.715531 1.593803,-3.3094002 -0.920678,-5.247936 0.175551,-1.3593114 0.125175,-2.9598929 1.473078,-3.0689689 -0.128228,-1.116189 0.378785,-1.3589002 0.889996,-1.595864 0.351103,-0.7303702 0.430788,-1.5100932 1.626548,-2.08689917 2.08148,1.09198067 1.22316,2.37362287 0.890045,3.62138377 -0.816746,0.5402506 -0.845013,1.3761806 -1.043512,2.1482785 -1.555767,-0.6884464 -1.445781,0.6220377 -1.411688,1.8413818 0.746932,1.854581 -0.07124,3.262027 -1.01278,4.634142 z"
       id="path5371"
       sodipodi:nodetypes="cccccccccc" />
    <path
       style="fill:#03bf00;fill-opacity:1;stroke:#027700;stroke-width:0.39369;stroke-linecap:butt;stroke-linejoin:miter;stroke-miterlimit:4;stroke-dasharray:none;stroke-opacity:1"
       d="M 20.52715,12.842614 C 21.743213,11.319578 22.324338,9.7413334 21.662688,8.0550222 21.629615,7.1581838 21.107819,6.026694 23.01301,6.0601905 23.243006,5.3952477 23.360702,4.7303048 24.056522,4.0653594 l 0.828603,0.7058642 c 0.539604,-1.6088727 1.01835,-3.3177283 2.670009,-3.0996578 1.328136,1.2204996 1.103252,2.6894858 0.398935,4.235178 2.752824,1.3145343 -0.126194,2.0299484 -0.828577,2.9768985 0.642212,1.0002341 1.198531,1.9795147 -1.442473,2.1789697 0.102278,0.618991 -0.157233,1.056911 -1.196854,1.104827 -1.632374,-0.0616 -2.53107,0.378804 -2.608618,1.381037 z"
       id="path6208"
       sodipodi:nodetypes="cccccccccccc" />
    <path
       style="fill:none;stroke:#027700;stroke-width:0.262462;stroke-linecap:butt;stroke-linejoin:miter;stroke-miterlimit:4;stroke-dasharray:none;stroke-opacity:1"
       d="M 21.662688,12.290197 C 23.827287,10.775532 25.247194,8.82281 26.020662,6.4898459"
       id="path10215"
       sodipodi:nodetypes="cc" />
    <path
       style="fill:#ffffff;fill-opacity:1;stroke:#ffffff;stroke-width:0;stroke-miterlimit:4;stroke-dasharray:none;stroke-opacity:1"
       id="path16392"
       d="m 12.633316,18.639227 c 1.841406,-0.189086 0.08268,0.124693 -0.756372,-0.759707 -0.740191,-0.780135 1.816829,0.175551 1.173447,-0.617452 -0.677018,-0.834429 -3.6415726,-0.616249 0.911646,-0.517559 -0.423793,-0.833332 0.277626,0.717947 0.423816,-0.257842 0.02646,-0.178452 -0.341104,-0.118713 -0.506657,-0.190435 -0.09515,-0.04127 -0.372297,-0.181022 -0.273961,-0.147871 1.260331,0.424759 1.846495,0.891683 -0.428371,-0.480114 0.25086,0.127999 0.580388,0.317104 0.867122,0.407219 0.126703,0.03982 0.479713,0.189953 0.387155,0.09465 -0.177078,-0.182523 -0.571816,-0.140899 -0.662772,-0.37849 0.620614,0.142807 0.673101,0.294033 0.480198,-0.0059 -0.0603,-0.230813 1.986326,0.756046 1.559608,0.426826 -0.39761,-0.306755 -0.924978,-0.393716 -1.372099,-0.622279 -0.043,-0.02214 -0.09185,-0.166977 -0.08065,-0.120164 0.54136,2.223615 0.373238,1.409482 0.428879,-0.587797 0.02289,0.471012 -0.165374,1.00607 0.07327,1.413036 0.169955,0.290151 0.08981,-0.667952 0.172244,-0.993959 0.04224,-0.168529 0.147819,-0.315692 0.200484,-0.481303 0.101765,-0.319251 0.18344,-1.296221 0.261929,-0.970471 0.294291,1.221685 -0.313271,3.397194 0.260884,0.987883 0.09032,-0.311923 0.193362,-1.251185 0.270374,-0.935773 0.222875,0.912601 -0.271187,1.992353 0.188019,2.811977 0.301643,0.538634 0.196159,-1.22248 0.370795,-1.81456 0.04986,-0.169191 0.227199,-0.276529 0.2948,-0.439474 0.128483,-0.309883 0.100244,-1.242995 0.287294,-0.964509 0.285054,0.424405 0.06182,1.0206 0.09312,1.530899 0.01017,0.209441 -0.05699,0.817155 0.0346,0.628338 0.122377,-0.486126 0.244754,-0.972256 0.367131,-1.458381 0,0.134234 -0.117034,0.455113 0.0076,0.402642 0.21753,-0.09238 0.210661,-0.707775 0.409161,-0.579167 0.210408,0.1366 -0.128738,0.486068 -0.171226,0.733499 -0.0285,0.164282 -0.02697,0.33226 -0.04096,0.498393 0.169447,-0.233915 0.263608,-0.54861 0.508591,-0.701688 0.02036,-0.01272 -0.0519,0.825429 -0.03842,0.802218 0.216259,-0.355231 0.244245,-0.808033 0.475949,-1.153551 0.495843,-0.739763 -0.380006,1.212728 -0.04733,0.458053 0.938106,0.43296 0.799293,0.395786 -0.326118,-0.281826 0,0 0.151381,0.08146 0.151381,0.08146 v 0 c -0.284877,-0.168327 -0.108641,-0.09051 0.148073,0.558381 0.02289,-0.249895 0.02646,-0.502596 0.06997,-0.749709 0.129246,-0.726732 0.28307,-0.824547 0.09083,-0.432226 -0.146547,0.298522 -0.268543,0.611441 -0.449437,0.890405 -0.04376,0.06711 -0.192852,0.200509 -0.206845,0.12174 -0.03842,-0.214834 0.07633,-0.429523 0.114744,-0.644285 -2.444032,3.759002 0.883787,-1.17473 -0.17606,-0.402276 -0.527672,0.384561 -0.331359,1.394762 -0.878775,1.750739 -0.411782,0.267805 0.308334,-0.938225 0.377283,-1.424602 0.02773,-0.197024 0.05571,-0.723615 -0.09185,-0.589888 -0.239157,0.216946 -0.186491,0.618096 -0.279914,0.927145 -0.06665,0.06116 -0.129757,0.239996 -0.200486,0.183464 -0.146038,-0.116551 -0.108389,-0.668817 -0.216513,-0.516634 -0.252387,0.355298 0.03002,1.530838 -0.318054,1.268548 -0.456509,-0.343864 0.280069,-1.910498 -0.249843,-1.696284 -1.297935,0.524731 0.170718,2.873037 -0.590387,1.554818 -0.04172,-0.339165 0,-0.700504 -0.124411,-1.017498 -0.04096,-0.100977 -0.146293,0.171174 -0.173516,0.276506 -0.135862,0.52181 0.09464,1.941485 -0.311871,1.58732 -0.468748,-0.408272 0.608374,-1.954551 -0.0076,-1.864798 -0.436818,0.06376 -0.12594,4.219724 -0.326857,0.504784 -0.319655,1.673695 -0.09973,-0.465209 0.493782,1.234956 0.05826,0.167741 -0.319707,-0.157361 -0.48788,-0.214605 -0.02036,-0.0073 0.05496,0.06332 0.03206,0.05958 -0.645952,-0.109045 -0.819087,-0.346439 -0.493172,-0.0052 -1.944474,-0.512123 -0.944212,-0.312265 0.299684,0.3367 0.04224,0.02214 0.09464,0.101645 0.05776,0.131384 -0.06462,0.05117 -0.167411,0.0426 -0.246027,0.01832 -0.208626,-0.06401 -0.395703,-0.184049 -0.593541,-0.276059 -0.06336,-0.0173 -0.125685,-0.0348 -0.188782,-0.0522 0.02036,0.04599 0.05623,0.08792 0.06158,0.137998 0,0.02443 -0.05826,0.05015 -0.0374,0.06332 0.123648,0.07844 0.544082,0.122123 0.405473,0.169752 -0.229744,0.07895 -0.929074,-0.19237 -0.725842,-0.0596 0.833411,0.544312 1.705622,0.154738 0.755889,0.483323 -0.447962,0.02653 -0.918364,-0.06259 -1.344062,0.07961 -0.116271,0.03882 -0.05826,0.26294 0.0076,0.367514 0.127974,0.209898 0.707192,0.340187 0.531156,0.511917 -1.426417,1.391838 -1.519409,-0.658735 -0.889968,0.618625 0.03663,0.07421 -0.01526,0.164739 -0.02289,0.247121 0,0 0.233814,0.04463 0.233814,0.04463 z" />
  </g>
</svg>
