<?xml version="1.0" encoding="UTF-8" standalone="no"?>
<!-- Created with Inkscape (http://www.inkscape.org/) -->

<svg
   width="150"
   height="150"
   viewBox="0 0 39.687499 39.687501"
   version="1.1"
   id="svg5"
   inkscape:version="1.1.1 (3bf5ae0d25, 2021-09-20)"
   sodipodi:docname="zzz - Copie (8).svg"
   inkscape:export-filename="C:\Users\Clément\Desktop\freepic\res\img/icon.png"
   inkscape:export-xdpi="96"
   inkscape:export-ydpi="96"
   xmlns:inkscape="http://www.inkscape.org/namespaces/inkscape"
   xmlns:sodipodi="http://sodipodi.sourceforge.net/DTD/sodipodi-0.dtd"
   xmlns="http://www.w3.org/2000/svg"
   xmlns:svg="http://www.w3.org/2000/svg">
  <sodipodi:namedview
     id="namedview7"
     pagecolor="#ffffff"
     bordercolor="#666666"
     borderopacity="1.0"
     inkscape:pageshadow="2"
     inkscape:pageopacity="0.0"
     inkscape:pagecheckerboard="true"
     inkscape:document-units="mm"
     showgrid="false"
     units="px"
     inkscape:zoom="3.0289002"
     inkscape:cx="62.729039"
     inkscape:cy="70.487631"
     inkscape:window-width="1920"
     inkscape:window-height="1013"
     inkscape:window-x="-9"
     inkscape:window-y="-9"
     inkscape:window-maximized="1"
     inkscape:current-layer="layer1"
     inkscape:snap-object-midpoints="false"
     inkscape:snap-center="false" />
  <defs
     id="defs2">
    <clipPath
       clipPathUnits="userSpaceOnUse"
       id="clipPath168419-0">
      <path
         style="fill:#d4d591;fill-opacity:1;stroke:#000000;stroke-width:0.264583px;stroke-linecap:butt;stroke-linejoin:miter;stroke-opacity:1"
         d="m 1976.6629,1120.9601 c -14.9756,1.5925 -25.8038,9.2969 -36.1081,17.7735 -10.8363,13.4703 -17.8314,26.9407 -24.1344,40.4111 -5.0825,17.6623 -6.7297,33.8216 -6.174,49.0172 2.96,13.8998 7.3576,26.531 16.2768,35.1727 10.0404,8.8438 23.2314,13.9465 38.9144,16.0897 14.6068,1.5407 26.9047,-0.7669 39.4757,-2.6193 16.4002,-3.4206 25.6399,-12.8083 33.676,-23.199 4.188,-8.0615 7.6011,-17.2853 8.9802,-29.56 0.1671,-11.8575 -2.4879,-24.9245 -4.6772,-37.7919 -3.678,-11.8565 -9.5794,-24.1299 -18.896,-37.0436 -6.3738,-10.6207 -16.705,-17.504 -27.502,-23.9473 -6.0539,-1.7474 -10.1493,-4.5965 -19.8314,-4.3031 z"
         id="path168421-4"
         sodipodi:nodetypes="ccccccccccccc" />
    </clipPath>
    <linearGradient
       x1="-989.37677"
       y1="-3204.3379"
       x2="1175.8552"
       y2="2649.3293"
       gradientUnits="userSpaceOnUse"
       id="color-1"
       gradientTransform="matrix(0.17670732,0,0,0.17670732,-22.688903,-12.005473)">
      <stop
         offset="0"
         stop-color="#2a221e"
         id="stop2" />
      <stop
         offset="1"
         stop-color="#2a221e"
         stop-opacity="0"
         id="stop4" />
    </linearGradient>
    <linearGradient
       x1="-3323.7942"
       y1="-330.77435"
       x2="2849.8162"
       y2="585.84308"
       gradientUnits="userSpaceOnUse"
       id="color-2"
       gradientTransform="matrix(0.17670732,0,0,0.17670732,-22.688903,-12.005473)">
      <stop
         offset="0"
         stop-color="#2a221e"
         id="stop7" />
      <stop
         offset="1"
         stop-color="#2a221e"
         stop-opacity="0"
         id="stop9" />
    </linearGradient>
  </defs>
  <g
     inkscape:label="Calque 1"
     inkscape:groupmode="layer"
     id="layer1">
    <path
       style="fill:#00ff23;fill-opacity:1;stroke:#076200;stroke-width:0.277585;stroke-linecap:butt;stroke-linejoin:miter;stroke-miterlimit:4;stroke-dasharray:none;stroke-opacity:1"
       d="m 8.0301073,26.037656 c 1.8486629,-0.59831 3.4069157,-1.443443 4.0394217,-3.075487 0.843332,-1.364166 2.792842,-1.281807 4.360783,-1.698404 h 2.616465 l 3.213189,0.13771 c 0.966108,0.52246 2.019905,0.928001 3.350899,0.963959 0.848134,0.874037 1.666705,2.014255 2.570551,2.386946 1.314672,-0.24644 2.146207,-1.13702 3.121392,-1.836114 -0.134074,1.57465 -1.197725,2.770572 -2.983682,3.672225 -1.177101,1.271049 -2.428345,2.467964 -4.268957,3.075487 -2.244861,0.640465 -4.489083,1.287452 -6.793623,1.331179 -1.403028,-0.208243 -2.781434,-0.465703 -3.764031,-1.51479 C 12.698038,28.485416 10.603795,27.92372 8.7645425,27.277033 8.2308848,26.863908 8.077852,26.45078 8.0301073,26.037656 Z"
       id="path32722"
       sodipodi:nodetypes="cccccccccccccc" />
    <path
       style="fill:#32c947;fill-opacity:1;stroke:#067f06;stroke-width:0.277585;stroke-linecap:butt;stroke-linejoin:miter;stroke-miterlimit:4;stroke-dasharray:none;stroke-opacity:1"
       d="m 11.426891,28.195085 c -2.4397804,1.362364 -3.4582133,2.975551 -2.7771576,4.888647 1.1389881,1.242189 2.6259576,1.44041 4.3148696,1.032812 2.575854,1.618264 3.945682,0.469726 5.531333,-0.183623 1.78754,0.190591 3.473842,0.291181 4.177159,-0.48198 0.960391,-1.324507 1.518199,-2.615468 1.744292,-3.878783 l -7.206728,1.400035 c -1.741735,-0.32475 -3.389732,-0.774482 -4.406667,-2.065626 z"
       id="path33478"
       sodipodi:nodetypes="ccccccccc" />
    <path
       style="fill:#32c947;fill-opacity:1;stroke:#076200;stroke-width:0.277585;stroke-linecap:butt;stroke-linejoin:miter;stroke-miterlimit:4;stroke-dasharray:none;stroke-opacity:1"
       d="m 3.1643971,22.617896 c -0.8264827,1.844696 -3.40236361,3.742405 -2.3869286,5.531288 1.385706,1.2891 2.3159778,3.55119 4.9574798,2.157429 C 8.2698578,30.484184 9.4648349,29.053845 11.1744,28.24099 9.8502899,27.732339 8.224306,27.491998 7.9382821,26.060606 7.7906067,25.586277 7.9355062,25.111949 8.2136466,24.637621 6.5123816,24.146109 4.8064255,23.701822 3.1643971,22.617896 Z"
       id="path33935"
       sodipodi:nodetypes="ccccccc" />
    <path
       style="fill:#32c947;fill-opacity:1;stroke:#076200;stroke-width:0.277585;stroke-linecap:butt;stroke-linejoin:miter;stroke-miterlimit:4;stroke-dasharray:none;stroke-opacity:1"
       d="M 3.1184844,22.594945 C 1.132167,20.652002 0.38812726,18.669622 2.2463391,16.604632 3.1326136,15.04099 2.7172071,13.043458 2.9348895,11.256958 3.7468823,10.048715 4.0628576,8.5924527 5.643151,7.7683484 7.1028613,8.4921665 8.4730503,8.8876701 9.5677913,8.273279 11.627308,5.9039882 15.056292,5.6415839 17.830313,4.3715394 c 1.483168,0.1762666 1.669816,0.7577219 2.24922,1.2164233 0.389785,0.6084172 0.40272,0.6892694 0.504927,0.8951046 L 12.459675,14.171785 8.1907181,24.614668 C 6.5250672,24.104473 4.8986392,23.849348 3.1184844,22.594945 Z"
       id="path34544"
       sodipodi:nodetypes="ccccccccccc" />
    <path
       style="fill:#00ff23;fill-opacity:1;stroke:#076200;stroke-width:0.277585;stroke-linecap:butt;stroke-linejoin:miter;stroke-miterlimit:4;stroke-dasharray:none;stroke-opacity:1"
       d="M 9.3382838,25.349114 C 8.2044586,24.647919 6.9508832,24.150283 6.4005148,22.457239 6.1409726,21.66924 6.4732417,20.881241 6.7448039,20.093243 6.7503589,19.097906 6.6745747,18.067467 7.0890652,17.247272 7.6963109,16.333277 8.8336336,15.816835 8.5579358,14.24064 8.1762004,13.478262 8.0182544,12.699902 8.4888177,11.876646 9.039658,11.415881 9.5904705,11.329249 10.141311,11.417618 c -0.3327139,0.997454 -0.3475369,1.848178 0.114642,2.478749 l 0.918058,3.373856 c 0.408745,1.134021 0.849605,2.255194 2.157422,3.029583 l 2.318144,1.055765 c -1.256685,0.28108 -2.639755,0.43575 -3.373885,1.239374 -0.55678,1.293478 -1.29091,2.429319 -2.9374082,2.754169 z"
       id="path35082"
       sodipodi:nodetypes="ccccccccccccc" />
    <path
       style="fill:#59ff70;fill-opacity:1;stroke:#076200;stroke-width:0.277585;stroke-linecap:butt;stroke-linejoin:miter;stroke-miterlimit:4;stroke-dasharray:none;stroke-opacity:1"
       d="m 10.302254,13.712758 c 0.0297,-0.832225 0.793145,-1.480995 1.537768,-2.134481 0.454435,-0.206551 0.844109,-0.413125 1.23939,-0.619687 -0.188757,-0.633592 0.396087,-1.0562324 0.849162,-1.5147922 0.780153,-0.6004534 1.438947,-1.5892814 2.501738,-1.2852782 -0.744318,0.666688 -0.720973,1.2480797 -0.963971,1.8590644 -1.48905,0.947754 -1.905928,2.315062 -1.99681,3.809931 0.547593,2.102823 2.131995,3.23798 3.557507,4.521424 0.467037,0.790107 0.77016,0.678518 1.124581,0.8492 -0.09549,0.420775 -0.879668,0.841553 -1.560697,1.262328 -0.06134,0.361091 -0.227896,0.70108 -0.895073,0.941005 -1.694603,-0.774698 -3.446306,-1.505736 -4.131247,-3.052533 z"
       id="path35970"
       sodipodi:nodetypes="ccccccccccccc" />
    <path
       style="fill:#59ff70;fill-opacity:1;stroke:#076200;stroke-width:0.277585;stroke-linecap:butt;stroke-linejoin:miter;stroke-miterlimit:4;stroke-dasharray:none;stroke-opacity:1"
       d="m 15.535155,9.879876 c 1.052632,-0.333255 2.06729,-0.5018737 2.937797,-0.045912 0.633478,0.867496 1.326496,1.318056 2.019711,1.767254 0.324053,-1.247023 -0.252048,-2.4940495 -0.688551,-3.7410745 -1.035087,0.023039 -1.832895,-0.2177379 -3.3738,0.3672205 -0.442221,0.5508349 -0.979682,1.1016665 -0.895157,1.6525021 z"
       id="path37521"
       sodipodi:nodetypes="cccccc" />
    <path
       style="fill:#59ff70;fill-opacity:1;stroke:#076200;stroke-width:0.277585;stroke-linecap:butt;stroke-linejoin:miter;stroke-miterlimit:4;stroke-dasharray:none;stroke-opacity:1"
       d="m 19.850025,7.9060558 c 1.259155,-0.2953814 1.562167,0.6018333 2.088608,1.668751 0.501125,1.0155862 0.656766,1.9290962 0.02221,3.1969432 -0.391784,-0.503584 -0.82951,-0.968878 -1.583625,-1.170523 0.630841,-1.052431 -0.129632,-2.4140621 -0.527911,-3.6951712 z"
       id="path38308"
       sodipodi:nodetypes="csccc" />
    <path
       style="fill:#59ff70;fill-opacity:1;stroke:#076200;stroke-width:0.277585;stroke-linecap:butt;stroke-linejoin:miter;stroke-miterlimit:4;stroke-dasharray:none;stroke-opacity:1"
       d="m 20.492663,6.6207774 c 1.117781,0.052741 1.582459,0.7585989 2.249246,1.2623277 1.061403,-0.071257 1.939905,0.6804088 2.891856,1.1016666 -0.804136,1.2317243 -1.035087,2.4634483 -1.239363,3.6951713 0.231507,1.442909 -0.336156,2.459612 -1.009855,3.419757 -0.673061,0.547738 -1.224678,1.071189 -2.180349,1.675453 -0.644109,0.899582 -1.610495,1.100868 -2.616464,1.216424 0.716059,-1.480216 1.318198,-2.983212 2.318059,-4.406667 l 1.03284,-1.721355 c 0.46304,-0.912662 0.831423,-1.844251 0.390146,-2.9377767 C 21.999064,9.2864158 21.62152,8.6340071 20.630372,7.8142499 l -1.491798,-0.02304 z"
       id="path39903"
       sodipodi:nodetypes="ccccccccccccc" />
    <path
       style="fill:#b2ffbc;fill-opacity:1;stroke:#076200;stroke-width:0.277585;stroke-linecap:butt;stroke-linejoin:miter;stroke-miterlimit:4;stroke-dasharray:none;stroke-opacity:1"
       d="m 15.48927,9.8339717 c -1.342625,1.1633913 -1.977602,2.2946153 -1.973827,3.3968073 -0.238168,1.393097 0.66529,2.052174 1.216463,2.937776 0.717642,0.696193 1.232757,1.392385 2.341044,2.088577 0.44372,0.95229 0.887468,0.756491 1.331189,0.849201 0.599695,-1.040463 1.15978,-2.080926 1.698377,-3.121389 L 22.030459,12.7947 C 21.901381,12.277348 21.009527,11.907932 20.286139,11.509424 19.24525,10.943289 18.965611,10.354203 18.381127,9.7880706 17.625344,9.65197 16.899154,9.4943547 15.48927,9.833983 Z"
       id="path40555"
       sodipodi:nodetypes="cccccccccc" />
    <path
       style="fill:#32c947;fill-opacity:1;stroke:#076200;stroke-width:0.277585;stroke-linecap:butt;stroke-linejoin:miter;stroke-miterlimit:4;stroke-dasharray:none;stroke-opacity:1"
       d="m 24.440315,29.57217 c 1.517143,-0.660761 2.675119,-1.824386 3.901739,-2.891877 1.063985,-0.49671 1.773604,-1.347757 2.478726,-2.203333 2.19942,0.440166 4.030067,-0.173324 5.806753,-0.941006 2.157393,1.615011 2.084027,3.118483 1.836116,4.61323 -0.514172,1.528511 -2.183431,1.901929 -3.626319,2.501698 -1.293825,-0.05226 -2.168164,0.501367 -2.914868,1.239377 -1.531495,0.749043 -3.083863,1.458911 -5.095218,1.30823 -1.118586,-0.252825 -2.215798,-0.601863 -3.213189,-1.400035 0.380459,-0.663321 0.689633,-1.380096 0.82626,-2.226284 z"
       id="path55050"
       sodipodi:nodetypes="cccccccccc" />
    <path
       style="fill:#32c947;fill-opacity:1;stroke:#076200;stroke-width:0.277585;stroke-linecap:butt;stroke-linejoin:miter;stroke-miterlimit:4;stroke-dasharray:none;stroke-opacity:1"
       d="m 32.84052,9.8110217 c 2.022154,-0.5322069 3.646472,-0.1095352 4.750957,1.5606923 0.641471,1.069237 0.781319,2.082735 0.321332,3.029583 0.09883,1.037314 0.182373,2.087793 0.757364,2.708265 0.590674,0.96396 0.594393,1.927916 0.02221,2.891875 -1.108786,1.061051 -1.544207,2.346549 -2.13452,3.580419 -1.897323,0.800591 -3.794619,1.389124 -5.691943,0.918055 0.395031,-0.965809 0.521084,-1.617784 0.550841,-2.157429 1.236448,-1.537064 2.326471,-3.11355 1.996809,-5.072259 -0.548924,-1.455158 -0.967606,-2.969517 -0.849243,-4.727987 0.272033,-0.520231 0.660874,-1.040464 0.631173,-1.560693 z"
       id="path56566"
       sodipodi:nodetypes="cccccccccccc" />
    <path
       style="fill:#32c947;fill-opacity:1;stroke:#076200;stroke-width:0.277585;stroke-linecap:butt;stroke-linejoin:miter;stroke-miterlimit:4;stroke-dasharray:none;stroke-opacity:1"
       d="m 20.068096,5.4961598 c 1.593284,-0.6048502 3.12922,-0.8656555 4.636175,-0.9524843 1.630203,0.2253439 2.801753,0.7054693 4.062433,1.1360958 1.236033,0.2236783 2.385347,0.8086728 3.362364,2.1115279 l 0.275365,1.7902094 C 30.977311,9.1104488 30.353354,9.9780057 29.535561,10.522514 28.858947,10.260251 28.370091,9.904112 27.951881,9.5126531 27.854726,9.0842281 27.862225,8.6558021 27.355128,8.2273747 26.773697,8.3671944 26.192267,8.4281244 25.610837,8.9388675 24.697386,8.4059592 23.724339,7.9922626 22.681063,7.7189798 21.735357,6.9279311 21.186876,6.7327357 20.571302,6.4368798 Z"
       id="path58578"
       sodipodi:nodetypes="cccccccccccc" />
    <path
       style="fill:#00ff23;fill-opacity:1;stroke:#076200;stroke-width:0.277585;stroke-linecap:butt;stroke-linejoin:miter;stroke-miterlimit:4;stroke-dasharray:none;stroke-opacity:1"
       d="m 22.259966,21.240814 c 0.710867,-1.135592 1.830758,-1.540759 2.960753,-1.927916 1.587288,-0.970698 2.944597,-2.131722 3.649248,-3.832885 l 1.400057,-1.721353 c -0.09661,-0.954833 -0.02887,-1.672172 -0.642639,-3.373853 0.881805,-0.8099909 1.779573,-1.1606984 2.845972,-0.7803483 0.559863,0.4972803 0.668121,0.9945613 0.780348,1.4918403 l -0.642638,1.422987 c -0.194309,1.527327 0.203193,2.709553 0.504928,3.947638 0.670842,1.114305 0.371548,2.143005 0.02221,3.167293 -0.505734,1.085057 -1.051243,2.106486 -1.859045,2.708265 -0.16322,1.147195 -1.670314,1.714022 -3.144377,2.295139 -0.925497,-0.704034 -1.866372,-1.392721 -2.524638,-2.363995 -1.337128,0.07817 -2.37674,-0.413918 -3.350178,-1.032812 z"
       id="path60717"
       sodipodi:nodetypes="cccccccccccccc" />
    <path
       style="fill:#00ff23;fill-opacity:1;stroke:#076200;stroke-width:0.277585;stroke-linecap:butt;stroke-linejoin:miter;stroke-miterlimit:4;stroke-dasharray:none;stroke-opacity:1"
       d="m 16.205718,21.124203 0.373241,-0.681622 c 0.741153,-0.332136 1.354894,-0.74073 1.639142,-1.347013 1.32064,-0.148675 2.290024,-0.600706 2.937463,-1.330785 l 2.207165,-1.574223 c 0.93846,-1.094253 1.120084,-2.326113 1.05488,-3.602855 0.07106,-1.463893 0.636947,-2.6151877 1.282112,-3.7164602 0.446078,-0.2839082 0.842664,-0.5906515 1.671618,-0.6978522 0.407189,0.434665 0.541069,0.8272848 0.551784,1.2009535 0.490272,0.4966667 0.924109,1.0754659 1.736518,1.1035769 0.471091,1.087037 0.66751,2.15691 0.649162,3.213359 l -1.428205,1.76897 c -0.890244,1.484327 -1.848747,2.908262 -3.521642,3.700232 -1.327968,0.577025 -2.556838,1.207424 -3.099796,2.207153 -2.024235,-0.06185 -4.084057,-0.01693 -6.053442,-0.243442 z"
       id="path63763"
       sodipodi:nodetypes="ccccccccccccccc" />
  </g>
</svg>
