<?xml version="1.0" encoding="UTF-8" standalone="no"?>
<!-- Created with Inkscape (http://www.inkscape.org/) -->

<svg
   width="150"
   height="150"
   viewBox="0 0 39.687499 39.687501"
   version="1.1"
   id="svg5"
   inkscape:version="1.1.1 (3bf5ae0d25, 2021-09-20)"
   sodipodi:docname="zzz - Copie (2).svg"
   inkscape:export-filename="C:\Users\Clément\Desktop\freepic\res\img/icon.png"
   inkscape:export-xdpi="96"
   inkscape:export-ydpi="96"
   xmlns:inkscape="http://www.inkscape.org/namespaces/inkscape"
   xmlns:sodipodi="http://sodipodi.sourceforge.net/DTD/sodipodi-0.dtd"
   xmlns:xlink="http://www.w3.org/1999/xlink"
   xmlns="http://www.w3.org/2000/svg"
   xmlns:svg="http://www.w3.org/2000/svg">
  <sodipodi:namedview
     id="namedview7"
     pagecolor="#ffffff"
     bordercolor="#666666"
     borderopacity="1.0"
     inkscape:pageshadow="2"
     inkscape:pageopacity="0.0"
     inkscape:pagecheckerboard="true"
     inkscape:document-units="mm"
     showgrid="false"
     units="px"
     inkscape:zoom="3.0289002"
     inkscape:cx="29.713756"
     inkscape:cy="26.577304"
     inkscape:window-width="1920"
     inkscape:window-height="1013"
     inkscape:window-x="-9"
     inkscape:window-y="-9"
     inkscape:window-maximized="1"
     inkscape:current-layer="layer1"
     inkscape:snap-object-midpoints="false"
     inkscape:snap-center="false" />
  <defs
     id="defs2">
    <linearGradient
       inkscape:collect="always"
       id="linearGradient856">
      <stop
         style="stop-color:#000000;stop-opacity:1;"
         offset="0"
         id="stop852" />
      <stop
         style="stop-color:#777777;stop-opacity:1"
         offset="1"
         id="stop854" />
    </linearGradient>
    <clipPath
       clipPathUnits="userSpaceOnUse"
       id="clipPath168419-0">
      <path
         style="fill:#d4d591;fill-opacity:1;stroke:#000000;stroke-width:0.264583px;stroke-linecap:butt;stroke-linejoin:miter;stroke-opacity:1"
         d="m 1976.6629,1120.9601 c -14.9756,1.5925 -25.8038,9.2969 -36.1081,17.7735 -10.8363,13.4703 -17.8314,26.9407 -24.1344,40.4111 -5.0825,17.6623 -6.7297,33.8216 -6.174,49.0172 2.96,13.8998 7.3576,26.531 16.2768,35.1727 10.0404,8.8438 23.2314,13.9465 38.9144,16.0897 14.6068,1.5407 26.9047,-0.7669 39.4757,-2.6193 16.4002,-3.4206 25.6399,-12.8083 33.676,-23.199 4.188,-8.0615 7.6011,-17.2853 8.9802,-29.56 0.1671,-11.8575 -2.4879,-24.9245 -4.6772,-37.7919 -3.678,-11.8565 -9.5794,-24.1299 -18.896,-37.0436 -6.3738,-10.6207 -16.705,-17.504 -27.502,-23.9473 -6.0539,-1.7474 -10.1493,-4.5965 -19.8314,-4.3031 z"
         id="path168421-4"
         sodipodi:nodetypes="ccccccccccccc" />
    </clipPath>
    <linearGradient
       x1="-989.37677"
       y1="-3204.3379"
       x2="1175.8552"
       y2="2649.3293"
       gradientUnits="userSpaceOnUse"
       id="color-1"
       gradientTransform="matrix(0.17670732,0,0,0.17670732,-22.688903,-12.005473)">
      <stop
         offset="0"
         stop-color="#2a221e"
         id="stop2" />
      <stop
         offset="1"
         stop-color="#2a221e"
         stop-opacity="0"
         id="stop4" />
    </linearGradient>
    <linearGradient
       x1="-3323.7942"
       y1="-330.77435"
       x2="2849.8162"
       y2="585.84308"
       gradientUnits="userSpaceOnUse"
       id="color-2"
       gradientTransform="matrix(0.17670732,0,0,0.17670732,-22.688903,-12.005473)">
      <stop
         offset="0"
         stop-color="#2a221e"
         id="stop7" />
      <stop
         offset="1"
         stop-color="#2a221e"
         stop-opacity="0"
         id="stop9" />
    </linearGradient>
    <radialGradient
       inkscape:collect="always"
       xlink:href="#linearGradient856"
       id="radialGradient858"
       cx="24.353455"
       cy="24.491819"
       fx="24.353455"
       fy="24.491819"
       r="18.074079"
       gradientTransform="matrix(0.44697145,-0.66903575,1.2074818,0.80669812,-16.10527,18.415753)"
       gradientUnits="userSpaceOnUse" />
  </defs>
  <g
     inkscape:label="Calque 1"
     inkscape:groupmode="layer"
     id="layer1">
    <path
       id="rect32968-5"
       style="fill:#c2c8cb;fill-opacity:1;stroke:#000000;stroke-width:0.18;stroke-miterlimit:4;stroke-dasharray:none;stroke-opacity:1"
       d="M 0.96025787,7.1669955 H 38.665681 c 0.07374,0 0.133111,0.059355 0.133111,0.1331085 v 22.239437 c 0,0.07374 -0.05939,0.131399 -0.133111,0.133112 -12.568474,0.292304 -25.13695,0.300415 -37.70542313,0 -0.073721,-0.0018 -0.1331091,-0.05938 -0.1331091,-0.133112 V 7.300104 c 0,-0.073737 0.059367,-0.1331085 0.1331091,-0.1331085 z"
       sodipodi:nodetypes="sssssssss" />
    <rect
       style="fill:url(#radialGradient858);fill-opacity:1;stroke:#000000;stroke-width:0.179931;stroke-miterlimit:4;stroke-dasharray:none;stroke-opacity:1"
       id="rect33226-4"
       width="35.968227"
       height="20.256271"
       x="1.8602867"
       y="8.354558"
       ry="0.1198071" />
    <path
       style="fill:#a5adb1;fill-opacity:1;stroke:#000000;stroke-width:0.179931;stroke-linecap:butt;stroke-linejoin:miter;stroke-miterlimit:4;stroke-dasharray:none;stroke-opacity:1"
       d="m 19.765823,32.801308 -4.383785,0.06781 c -1.603736,0.05303 -3.28245,0.05918 -4.567823,0.311197 -0.386318,0.302427 -0.623412,0.694392 -0.80108,1.122011 3.261692,0.383649 6.692034,0.564921 10.161343,0.699427 3.371163,-0.202898 6.514747,-0.431081 9.509065,-0.675853 -0.11086,-0.38322 -0.137859,-0.755956 -0.565826,-1.178814 l -5.438244,-0.377219 z"
       id="path33943-3"
       sodipodi:nodetypes="ccccccccc" />
    <path
       style="fill:#c2c8cb;fill-opacity:1;stroke:#000000;stroke-width:0.179931;stroke-linecap:butt;stroke-linejoin:miter;stroke-miterlimit:4;stroke-dasharray:none;stroke-opacity:1"
       d="m 10.002898,34.269477 c -0.06579,0.205469 -0.2108401,0.399614 0,0.644605 3.168326,0.439002 6.550584,0.592759 9.967251,0.700643 3.211603,-0.04739 6.423207,-0.338285 9.634809,-0.675841 l 0.12574,-0.628703 c -3.24894,0.315234 -6.433017,0.543988 -9.55622,0.691571 -3.532196,-0.166817 -7.087067,-0.321266 -10.17158,-0.732275 z"
       id="path34486-6"
       sodipodi:nodetypes="ccccccc" />
    <circle
       style="fill:#32bbff;fill-opacity:1;stroke:#000000;stroke-width:0.143944;stroke-miterlimit:4;stroke-dasharray:none;stroke-opacity:1"
       id="path35080-8"
       cx="19.716465"
       cy="29.268219"
       r="0.40010139" />
    <path
       style="fill:#959a9c;fill-opacity:1;stroke:#000000;stroke-width:0.179931;stroke-linecap:butt;stroke-linejoin:miter;stroke-miterlimit:4;stroke-dasharray:none;stroke-opacity:1"
       d="m 16.79522,29.893569 c -0.0122,1.272641 -0.282275,2.380243 -1.335984,2.986318 -0.165936,0.09018 -0.237322,0.176063 -0.07859,0.251486 2.782929,0.401298 5.584017,0.457599 8.408844,0.06287 0.126093,-0.08411 0.249363,-0.168818 0.07859,-0.314357 -1.315698,-0.743595 -1.349889,-1.859241 -1.398856,-2.970596 z"
       id="path33376-2"
       sodipodi:nodetypes="ccccccc" />
    <path
       style="fill:#c2c8cb;fill-opacity:1;stroke:#000000;stroke-width:0.132;stroke-linecap:butt;stroke-linejoin:miter;stroke-miterlimit:4;stroke-dasharray:none;stroke-opacity:1"
       d="m 37.408108,29.748417 v 0.224846 H 36.018429 V 29.74009 Z"
       id="path1259" />
    <path
       style="fill:#c2c8cb;fill-opacity:1;stroke:#000000;stroke-width:0.132;stroke-linecap:butt;stroke-linejoin:miter;stroke-miterlimit:4;stroke-dasharray:none;stroke-opacity:1"
       d="m 35.112204,29.792093 v 0.224846 h -0.895633 v -0.233173 z"
       id="path1377" />
    <path
       style="fill:#c2c8cb;fill-opacity:1;stroke:#000000;stroke-width:0.132185;stroke-linecap:butt;stroke-linejoin:miter;stroke-miterlimit:4;stroke-dasharray:none;stroke-opacity:1"
       d="m 33.830521,29.792093 v 0.224846 h -0.895633 v -0.233173 z"
       id="path1379" />
  </g>
</svg>
