<?xml version="1.0" encoding="UTF-8" standalone="no"?>
<!-- Created with Inkscape (http://www.inkscape.org/) -->

<svg
   width="150"
   height="150"
   viewBox="0 0 39.687499 39.687501"
   version="1.1"
   id="svg5"
   inkscape:version="1.1.1 (3bf5ae0d25, 2021-09-20)"
   sodipodi:docname="scenic_car - Copie.svg"
   inkscape:export-filename="C:\Users\Clément\Desktop\freepic\res\img/icon.png"
   inkscape:export-xdpi="96"
   inkscape:export-ydpi="96"
   xmlns:inkscape="http://www.inkscape.org/namespaces/inkscape"
   xmlns:sodipodi="http://sodipodi.sourceforge.net/DTD/sodipodi-0.dtd"
   xmlns="http://www.w3.org/2000/svg"
   xmlns:svg="http://www.w3.org/2000/svg">
  <sodipodi:namedview
     id="namedview7"
     pagecolor="#ffffff"
     bordercolor="#666666"
     borderopacity="1.0"
     inkscape:pageshadow="2"
     inkscape:pageopacity="0.0"
     inkscape:pagecheckerboard="true"
     inkscape:document-units="mm"
     showgrid="false"
     units="px"
     inkscape:zoom="4.2835116"
     inkscape:cx="61.398223"
     inkscape:cy="48.675017"
     inkscape:window-width="1920"
     inkscape:window-height="1013"
     inkscape:window-x="-9"
     inkscape:window-y="-9"
     inkscape:window-maximized="1"
     inkscape:current-layer="layer1" />
  <defs
     id="defs2">
    <clipPath
       clipPathUnits="userSpaceOnUse"
       id="clipPath168419-0">
      <path
         style="fill:#d4d591;fill-opacity:1;stroke:#000000;stroke-width:0.264583px;stroke-linecap:butt;stroke-linejoin:miter;stroke-opacity:1"
         d="m 1976.6629,1120.9601 c -14.9756,1.5925 -25.8038,9.2969 -36.1081,17.7735 -10.8363,13.4703 -17.8314,26.9407 -24.1344,40.4111 -5.0825,17.6623 -6.7297,33.8216 -6.174,49.0172 2.96,13.8998 7.3576,26.531 16.2768,35.1727 10.0404,8.8438 23.2314,13.9465 38.9144,16.0897 14.6068,1.5407 26.9047,-0.7669 39.4757,-2.6193 16.4002,-3.4206 25.6399,-12.8083 33.676,-23.199 4.188,-8.0615 7.6011,-17.2853 8.9802,-29.56 0.1671,-11.8575 -2.4879,-24.9245 -4.6772,-37.7919 -3.678,-11.8565 -9.5794,-24.1299 -18.896,-37.0436 -6.3738,-10.6207 -16.705,-17.504 -27.502,-23.9473 -6.0539,-1.7474 -10.1493,-4.5965 -19.8314,-4.3031 z"
         id="path168421-4"
         sodipodi:nodetypes="ccccccccccccc" />
    </clipPath>
  </defs>
  <g
     inkscape:label="Calque 1"
     inkscape:groupmode="layer"
     id="layer1">
    <path
       style="fill:#c80000;fill-opacity:1;stroke:#000000;stroke-width:0.0342316px;stroke-linecap:butt;stroke-linejoin:miter;stroke-opacity:1"
       d="m 5.2341016,20.093273 c 0.072931,0.0098 0.4545358,-0.09048 0.5711538,0.0068 -0.1333126,0.177837 -0.4642895,0.422826 -0.5680431,0.43809 -0.2446479,0.206415 -0.4693197,0.296732 -0.7287599,0.32564 -0.026896,0.147095 -0.2240799,0.14473 -0.3702041,0.202404 -0.1163182,-0.05211 -0.260775,-0.101404 -0.2348255,-0.167733 0.07037,-0.303169 1.0424482,-0.654771 1.3306788,-0.805116 z"
       id="path12290"
       sodipodi:nodetypes="ccccccc" />
    <path
       style="fill:#0084e4;fill-opacity:1;stroke:#000000;stroke-width:0.129379;stroke-linecap:butt;stroke-linejoin:miter;stroke-miterlimit:4;stroke-dasharray:none;stroke-opacity:1"
       d="M 0.60050933,18.570605 C 2.3360858,17.6934 4.3654347,17.068553 6.3251699,16.388276 7.22109,16.135252 8.3293931,15.882228 9.5828493,15.629204 c 2.4427897,-0.52347 4.9667867,-0.316057 7.4642017,-0.347906 0.350897,-0.200219 0.699469,-1.394836 2.656748,-3.763728 0.642659,-0.503826 1.216085,-0.661504 1.739539,-0.569304 v 3.89024 c 1.090555,1.59366 0.714039,0.986714 0.822327,1.106977 l 6.578617,1.486516 1.125505,-0.239922 0.234496,0.556201 2.498611,0.379536 c 0.387882,-1.201611 1.198991,-2.161378 1.992559,-3.131169 0.760746,-1.134777 1.899089,-1.93391 3.194426,-2.593493 0.354234,-0.102745 0.743742,-0.247905 1.268956,-0.122673 l -0.537676,0.403761 c -0.107915,0.576601 0.01673,0.963206 -0.10557,1.113415 -0.154554,0.18982 -0.556624,0.06888 -0.688966,0.218524 -0.738593,1.41226 -1.456977,2.839677 -1.960933,4.427915 0.232198,1.507341 0.852983,2.626093 1.296747,3.921866 0.419105,0.519331 0.740778,0.746364 1.106977,1.10698 l -0.569302,0.09489 c -0.848355,-0.267025 -1.702794,-0.518835 -2.435353,-1.07535 -0.847102,-0.510055 -1.473603,-1.284832 -2.024192,-2.150702 -0.0901,-0.311497 -0.173686,-0.616476 -0.379535,-1.043723 -0.545036,0.102537 -1.075766,0.215814 -1.454886,0.442791 l -0.268838,0.490235 -0.300465,0.110697 c -0.0345,-0.155973 -0.144749,-0.255158 -0.347907,-0.28465 -0.326822,0.03261 -0.653646,0.157826 -0.980468,0.31628 0.379536,0.06707 0.759069,0.08039 1.138606,0.06325 0.04948,0.08069 0.09635,0.16268 0.06325,0.284652 -0.556953,0.159688 -1.058948,0.366485 -1.897678,0.284651 -0.378801,0.231694 -0.256364,0.296309 -0.284652,0.411164 0.159604,0.215247 0.306828,0.39335 0.506047,0.727443 -0.0086,0.09585 -0.04584,0.177391 -0.221395,0.189768 -0.468761,-0.115194 -1.031384,-0.418116 -1.613026,-0.759072 -0.38359,-0.09651 -0.762009,-0.177492 -0.980468,0.221396 -0.106938,0.172346 -0.03167,0.266596 0,0.379537 -0.06929,0.115953 -0.18403,0.12584 -0.316279,0.09489 -0.25918,-0.119765 -0.599098,-0.104972 -0.917212,-0.126511 -1.196764,0.454726 -2.355396,0.604388 -3.510702,0.727444 -0.868327,0.07763 -1.779844,0.198444 -2.53024,0.158138 -0.07854,0.11768 -0.745191,0.288473 -0.711628,0.490235 0.518418,0.590388 0.471888,1.370544 0.764829,1.960934 0.467273,0.601018 1.584408,1.321274 1.992889,1.804712 v 0 c -0.92694,0.08099 1.177539,0.314203 0.887968,0.302385 -0.255227,0.286498 -0.736541,0.03791 -1.099634,0.0278 -1.386461,-0.205919 -2.581187,-0.880528 -3.700473,-1.739539 -0.855287,-0.561662 -1.732283,-1.096961 -2.18233,-2.1507 -0.141683,-0.201596 -0.301215,-0.568774 -0.413081,-0.830003 -1.515533,0.243067 -3.008843,0.0034 -4.6994667,-0.35717 C 8.3016332,22.38595 6.9678766,22.158142 5.629355,21.76503 4.9980469,21.607604 4.5356719,21.309403 4.079584,21.005959 4.735692,20.699167 5.1383855,20.500981 5.597727,20.278515 5.8383496,20.117482 5.7389586,20.069784 5.629355,20.025492 5.0931858,20.019463 4.5960002,19.857507 3.8898174,20.531539 3.012052,20.481212 2.2185565,20.3105 1.5493476,19.962235 1.0897935,19.762559 0.78902483,19.457023 0.50562543,19.139909 0.46311789,18.977941 0.41113724,18.819527 0.60050933,18.570605 Z"
       id="path946"
       sodipodi:nodetypes="ccccccccccccccccscccccccccccccccccccccccccccccccccccccccccccc" />
    <ellipse
       style="fill:#000002;fill-opacity:1;fill-rule:evenodd;stroke:#005c00;stroke-width:0;stroke-miterlimit:4;stroke-dasharray:none;stroke-opacity:1"
       id="path5962"
       cx="3.2538579"
       cy="18.324978"
       rx="0.20687021"
       ry="0.17891477" />
    <path
       style="fill:#000002;fill-opacity:1;stroke:#000000;stroke-width:0.0342316px;stroke-linecap:butt;stroke-linejoin:miter;stroke-opacity:1"
       d="m 2.3089641,18.861722 c -0.1398872,0.254681 -0.1215272,0.366937 -0.1174128,0.492016 -0.00736,0.06434 -0.019156,0.127002 0.089459,0.234825 l 0.050319,-0.03355 c -0.033245,-0.06723 -0.014356,-0.160556 0.011178,-0.257192 0.029023,-0.04552 0.033454,-0.115641 0.1174128,-0.106232 0.020881,-0.104364 0.05956,-0.208732 0.039137,-0.3131 v 0 c -0.1241523,-0.06078 -0.1614108,-0.05144 -0.1900967,-0.01676 z"
       id="path6371"
       sodipodi:nodetypes="ccccccccc" />
    <path
       style="fill:none;stroke:#000000;stroke-width:0.0342316px;stroke-linecap:butt;stroke-linejoin:miter;stroke-opacity:1"
       d="m 11.455982,16.79302 c 0.209075,1.3298 1.043776,2.442545 -0.08945,4.238044"
       id="path8527"
       sodipodi:nodetypes="cc" />
    <path
       style="fill:none;stroke:#000000;stroke-width:0.0342316px;stroke-linecap:butt;stroke-linejoin:miter;stroke-opacity:1"
       d="m 12.563018,16.848931 c 0.208171,1.448693 0.400281,2.896789 -0.178915,4.31632"
       id="path8695"
       sodipodi:nodetypes="cc" />
    <path
       style="fill:none;stroke:#000000;stroke-width:0.0342316px;stroke-linecap:butt;stroke-linejoin:miter;stroke-opacity:1"
       d="m 13.368134,16.971935 c 0.153674,1.420137 -0.06954,2.840273 -0.35783,4.260409"
       id="path8787"
       sodipodi:nodetypes="cc" />
    <path
       style="fill:none;stroke:#000000;stroke-width:0.0342316px;stroke-linecap:butt;stroke-linejoin:miter;stroke-opacity:1"
       d="m 14.016699,16.904841 c 0.174132,1.543623 -0.02214,3.003606 -0.771569,4.338685"
       id="path8959"
       sodipodi:nodetypes="cc" />
    <path
       style="fill:none;stroke:#000000;stroke-width:0.0342316px;stroke-linecap:butt;stroke-linejoin:miter;stroke-opacity:1"
       d="m 14.419258,16.960752 c 0.976364,2.123639 -0.530152,2.910342 -0.92812,4.293955"
       id="path9279"
       sodipodi:nodetypes="cc" />
    <path
       style="fill:#0084e4;fill-opacity:1;stroke:#000000;stroke-width:0.129379;stroke-linecap:butt;stroke-linejoin:miter;stroke-miterlimit:4;stroke-dasharray:none;stroke-opacity:1"
       d="m 14.184719,20.895261 1.296746,-0.03164 1.391631,0.332093 1.597213,1.138608 0.458605,0.221395 c -0.01732,0.295194 -0.04116,0.590388 -0.142326,0.885583 0.126136,0.772463 1.046927,1.793925 1.42326,2.482795 0.237599,0.248922 0.496463,0.561639 0.695813,0.695815 0.4556,0.330399 0.908934,0.586727 0.964655,0.790698 0.05865,0.17857 0.04114,0.311442 -0.1107,0.363724 -0.471958,0.08645 -0.99353,0.02406 -1.549769,-0.142326 -0.844158,-0.272867 -1.668834,-0.578205 -2.387912,-1.059538 -0.641066,-0.455611 -1.206699,-0.735216 -1.960934,-1.454887 -0.569304,-0.558761 -1.012094,-1.222947 -1.328374,-1.992561 -0.26592,-0.518638 -0.37686,-1.0523 -0.474419,-1.613027 -0.01274,-0.205581 -0.02541,-0.411162 0.126511,-0.616744 z"
       id="path9565"
       sodipodi:nodetypes="cccccccccccccccc" />
    <path
       style="fill:#ffffff;fill-opacity:1;stroke:#000000;stroke-width:0.0342316px;stroke-linecap:butt;stroke-linejoin:miter;stroke-opacity:1"
       d="m 3.9639256,20.639689 -0.016772,0.206869 c 0.1095361,0.04348 0.1351078,-0.01381 0.1733238,-0.05591 -0.016921,-0.06599 -0.011231,-0.14203 -0.1565518,-0.150958 z"
       id="path13568"
       sodipodi:nodetypes="cccc" />
    <path
       style="fill:#ffffff;fill-opacity:1;stroke:#000000;stroke-width:0.0342316px;stroke-linecap:butt;stroke-linejoin:miter;stroke-opacity:1"
       d="m 4.1327691,20.613759 c 0.020922,-0.06805 0.034971,-0.136108 -0.03734,-0.204162 -0.2437292,0.03095 -0.097306,0.228949 0.03734,0.204162 z"
       id="path13568-4"
       sodipodi:nodetypes="ccc" />
    <path
       style="fill:#ffffff;fill-opacity:1;stroke:#000000;stroke-width:0.0342316px;stroke-linecap:butt;stroke-linejoin:miter;stroke-opacity:1"
       d="m 4.3174125,20.472362 c 0.020921,-0.06805 0.034971,-0.136108 -0.03734,-0.204161 -0.2437298,0.03095 -0.097306,0.22895 0.03734,0.204161 z"
       id="path13568-4-4"
       sodipodi:nodetypes="ccc" />
    <path
       style="fill:#ffffff;fill-opacity:1;stroke:#000000;stroke-width:0.0342316px;stroke-linecap:butt;stroke-linejoin:miter;stroke-opacity:1"
       d="m 4.5348548,20.385385 c 0.020921,-0.06805 0.03497,-0.136108 -0.03734,-0.204161 -0.24373,0.03095 -0.097307,0.228949 0.03734,0.204161 z"
       id="path13568-4-0"
       sodipodi:nodetypes="ccc" />
    <path
       style="fill:#ffffff;fill-opacity:1;stroke:#000000;stroke-width:0.0342316px;stroke-linecap:butt;stroke-linejoin:miter;stroke-opacity:1"
       d="m 4.7483434,20.266781 c 0.02092,-0.06805 0.03497,-0.136108 -0.03734,-0.204161 -0.2437302,0.03095 -0.097306,0.228949 0.03734,0.204161 z"
       id="path13568-4-43"
       sodipodi:nodetypes="ccc" />
    <path
       style="fill:#ffffff;fill-opacity:1;stroke:#000000;stroke-width:0.0342316px;stroke-linecap:butt;stroke-linejoin:miter;stroke-opacity:1"
       d="m 4.9855531,20.203525 c 0.020921,-0.06805 0.034972,-0.136108 -0.037339,-0.204161 -0.2437304,0.03095 -0.097306,0.228948 0.037339,0.204161 z"
       id="path13568-4-5"
       sodipodi:nodetypes="ccc" />
    <path
       style="fill:#ffffff;fill-opacity:1;stroke:#000000;stroke-width:0.0342316px;stroke-linecap:butt;stroke-linejoin:miter;stroke-opacity:1"
       d="m 5.214856,20.175851 c 0.020922,-0.06805 0.034971,-0.136108 -0.03734,-0.204161 -0.2437302,0.03095 -0.097306,0.228948 0.03734,0.204161 z"
       id="path13568-4-7"
       sodipodi:nodetypes="ccc" />
    <path
       style="fill:#ffffff;fill-opacity:1;stroke:#000000;stroke-width:0.0342316px;stroke-linecap:butt;stroke-linejoin:miter;stroke-opacity:1"
       d="m 4.2067454,20.529133 -0.016773,0.20687 c 0.1095372,0.04348 0.1351084,-0.01381 0.1733242,-0.05591 -0.01692,-0.06599 -0.011233,-0.142033 -0.1565503,-0.150959 z"
       id="path13568-3"
       sodipodi:nodetypes="cccc" />
    <path
       style="fill:#ffffff;fill-opacity:1;stroke:#000000;stroke-width:0.0342316px;stroke-linecap:butt;stroke-linejoin:miter;stroke-opacity:1"
       d="m 4.4583441,20.389355 -0.016773,0.206869 c 0.1095367,0.04348 0.1351079,-0.01381 0.1733237,-0.05591 -0.01692,-0.06599 -0.011233,-0.142031 -0.1565505,-0.15096 z"
       id="path13568-2"
       sodipodi:nodetypes="cccc" />
    <path
       style="fill:#ffffff;fill-opacity:1;stroke:#000000;stroke-width:0.0342316px;stroke-linecap:butt;stroke-linejoin:miter;stroke-opacity:1"
       d="m 4.7490806,20.260761 -0.016773,0.206869 c 0.1095368,0.04348 0.1351081,-0.01381 0.1733238,-0.05591 -0.01692,-0.066 -0.011233,-0.142031 -0.1565508,-0.150959 z"
       id="path13568-0"
       sodipodi:nodetypes="cccc" />
    <path
       style="fill:#ffffff;fill-opacity:1;stroke:#000000;stroke-width:0.0342316px;stroke-linecap:butt;stroke-linejoin:miter;stroke-opacity:1"
       d="m 5.0342261,20.154529 -0.016772,0.20687 c 0.1095367,0.04348 0.1351078,-0.01381 0.1733237,-0.05591 -0.01692,-0.066 -0.011233,-0.142033 -0.1565504,-0.15096 z"
       id="path13568-5"
       sodipodi:nodetypes="cccc" />
    <path
       style="fill:#ffffff;fill-opacity:1;stroke:#000000;stroke-width:0.0342316px;stroke-linecap:butt;stroke-linejoin:miter;stroke-opacity:1"
       d="m 5.2858249,20.042709 -0.016773,0.206869 c 0.1095368,0.04348 0.1351078,-0.01381 0.1733238,-0.05591 -0.01692,-0.06599 -0.011233,-0.142031 -0.1565507,-0.150958 z"
       id="path13568-36"
       sodipodi:nodetypes="cccc" />
  </g>
</svg>
