<?xml version="1.0" encoding="UTF-8" standalone="no"?>
<!-- Created with Inkscape (http://www.inkscape.org/) -->

<svg
   width="150"
   height="150"
   viewBox="0 0 39.687499 39.687501"
   version="1.1"
   id="svg5"
   inkscape:version="1.1.1 (3bf5ae0d25, 2021-09-20)"
   sodipodi:docname="zzz - Copie (2).svg"
   inkscape:export-filename="C:\Users\Clément\Desktop\freepic\res\img/icon.png"
   inkscape:export-xdpi="96"
   inkscape:export-ydpi="96"
   xmlns:inkscape="http://www.inkscape.org/namespaces/inkscape"
   xmlns:sodipodi="http://sodipodi.sourceforge.net/DTD/sodipodi-0.dtd"
   xmlns="http://www.w3.org/2000/svg"
   xmlns:svg="http://www.w3.org/2000/svg">
  <sodipodi:namedview
     id="namedview7"
     pagecolor="#ffffff"
     bordercolor="#666666"
     borderopacity="1.0"
     inkscape:pageshadow="2"
     inkscape:pageopacity="0.0"
     inkscape:pagecheckerboard="true"
     inkscape:document-units="mm"
     showgrid="false"
     units="px"
     inkscape:zoom="3.0289002"
     inkscape:cx="62.729039"
     inkscape:cy="70.487631"
     inkscape:window-width="1920"
     inkscape:window-height="1013"
     inkscape:window-x="-9"
     inkscape:window-y="-9"
     inkscape:window-maximized="1"
     inkscape:current-layer="layer1"
     inkscape:snap-object-midpoints="false"
     inkscape:snap-center="false" />
  <defs
     id="defs2">
    <clipPath
       clipPathUnits="userSpaceOnUse"
       id="clipPath168419-0">
      <path
         style="fill:#d4d591;fill-opacity:1;stroke:#000000;stroke-width:0.264583px;stroke-linecap:butt;stroke-linejoin:miter;stroke-opacity:1"
         d="m 1976.6629,1120.9601 c -14.9756,1.5925 -25.8038,9.2969 -36.1081,17.7735 -10.8363,13.4703 -17.8314,26.9407 -24.1344,40.4111 -5.0825,17.6623 -6.7297,33.8216 -6.174,49.0172 2.96,13.8998 7.3576,26.531 16.2768,35.1727 10.0404,8.8438 23.2314,13.9465 38.9144,16.0897 14.6068,1.5407 26.9047,-0.7669 39.4757,-2.6193 16.4002,-3.4206 25.6399,-12.8083 33.676,-23.199 4.188,-8.0615 7.6011,-17.2853 8.9802,-29.56 0.1671,-11.8575 -2.4879,-24.9245 -4.6772,-37.7919 -3.678,-11.8565 -9.5794,-24.1299 -18.896,-37.0436 -6.3738,-10.6207 -16.705,-17.504 -27.502,-23.9473 -6.0539,-1.7474 -10.1493,-4.5965 -19.8314,-4.3031 z"
         id="path168421-4"
         sodipodi:nodetypes="ccccccccccccc" />
    </clipPath>
    <linearGradient
       x1="-989.37677"
       y1="-3204.3379"
       x2="1175.8552"
       y2="2649.3293"
       gradientUnits="userSpaceOnUse"
       id="color-1"
       gradientTransform="matrix(0.17670732,0,0,0.17670732,-22.688903,-12.005473)">
      <stop
         offset="0"
         stop-color="#2a221e"
         id="stop2" />
      <stop
         offset="1"
         stop-color="#2a221e"
         stop-opacity="0"
         id="stop4" />
    </linearGradient>
    <linearGradient
       x1="-3323.7942"
       y1="-330.77435"
       x2="2849.8162"
       y2="585.84308"
       gradientUnits="userSpaceOnUse"
       id="color-2"
       gradientTransform="matrix(0.17670732,0,0,0.17670732,-22.688903,-12.005473)">
      <stop
         offset="0"
         stop-color="#2a221e"
         id="stop7" />
      <stop
         offset="1"
         stop-color="#2a221e"
         stop-opacity="0"
         id="stop9" />
    </linearGradient>
  </defs>
  <g
     inkscape:label="Calque 1"
     inkscape:groupmode="layer"
     id="layer1">
    <ellipse
       style="fill:#81ccfa;fill-opacity:1;stroke:#000000;stroke-width:0.569196;stroke-miterlimit:4;stroke-dasharray:none;stroke-opacity:1"
       id="path21834-8"
       cx="36.274574"
       cy="19.998238"
       rx="2.4459467"
       ry="4.4925556"
       inkscape:export-filename="C:\Users\Clément\Desktop\Cloud Chaos\Sprites\items/spyglass.png"
       inkscape:export-xdpi="96"
       inkscape:export-ydpi="96" />
    <rect
       style="fill:#ffdb00;fill-opacity:1;stroke:#000000;stroke-width:0.569196;stroke-miterlimit:4;stroke-dasharray:none;stroke-opacity:1"
       id="rect21515-2"
       width="3.529685"
       height="5.6474962"
       x="0.76301312"
       y="17.028841"
       ry="0.77653068"
       inkscape:export-filename="C:\Users\Clément\Desktop\Cloud Chaos\Sprites\items/spyglass.png"
       inkscape:export-xdpi="96"
       inkscape:export-ydpi="96" />
    <rect
       style="fill:#857202;fill-opacity:1;stroke:#000000;stroke-width:0.72255;stroke-miterlimit:4;stroke-dasharray:none;stroke-opacity:1"
       id="rect21515-5-0"
       width="8.5061388"
       height="3.7763608"
       x="4.4399829"
       y="18.070293"
       ry="0.5192495"
       inkscape:export-filename="C:\Users\Clément\Desktop\Cloud Chaos\Sprites\items/spyglass.png"
       inkscape:export-xdpi="96"
       inkscape:export-ydpi="96" />
    <rect
       style="fill:#857202;fill-opacity:1;stroke:#000000;stroke-width:0.842628;stroke-miterlimit:4;stroke-dasharray:none;stroke-opacity:1"
       id="rect21515-5-1-9"
       width="8.3860607"
       height="5.2093444"
       x="12.665322"
       y="17.153824"
       ry="0.71628481"
       inkscape:export-filename="C:\Users\Clément\Desktop\Cloud Chaos\Sprites\items/spyglass.png"
       inkscape:export-xdpi="96"
       inkscape:export-ydpi="96" />
    <rect
       style="fill:#857202;fill-opacity:1;stroke:#000000;stroke-width:1.02488;stroke-miterlimit:4;stroke-dasharray:none;stroke-opacity:1"
       id="rect21515-5-1-4-5"
       width="8.486187"
       height="7.6155314"
       x="21.580711"
       y="15.809479"
       ry="1.0471355"
       inkscape:export-filename="C:\Users\Clément\Desktop\Cloud Chaos\Sprites\items/spyglass.png"
       inkscape:export-xdpi="96"
       inkscape:export-ydpi="96" />
    <rect
       style="display:inline;fill:#ffdb00;fill-opacity:1;stroke:#000000;stroke-width:0.941322;stroke-miterlimit:4;stroke-dasharray:none;stroke-opacity:1"
       id="rect21515-5-1-4-7-2"
       width="5.2753692"
       height="10.334583"
       x="30.62195"
       y="14.661824"
       ry="1.4210052"
       inkscape:export-filename="C:\Users\Clément\Desktop\Cloud Chaos\Sprites\items/spyglass.png"
       inkscape:export-xdpi="96"
       inkscape:export-ydpi="96" />
    <path
       style="fill:none;stroke:#000000;stroke-width:0.376499px;stroke-linecap:butt;stroke-linejoin:miter;stroke-opacity:1"
       d="m 5.4692769,19.193737 5.2945321,0.04706"
       id="path25191-1"
       inkscape:export-filename="C:\Users\Clément\Desktop\Cloud Chaos\Sprites\items/spyglass.png"
       inkscape:export-xdpi="96"
       inkscape:export-ydpi="96" />
    <path
       style="fill:none;stroke:#000000;stroke-width:0.376499px;stroke-linecap:butt;stroke-linejoin:miter;stroke-opacity:1"
       d="m 14.175834,18.440732 5.271,-0.141164"
       id="path25193-9"
       inkscape:export-filename="C:\Users\Clément\Desktop\Cloud Chaos\Sprites\items/spyglass.png"
       inkscape:export-xdpi="96"
       inkscape:export-ydpi="96" />
    <path
       style="fill:none;stroke:#000000;stroke-width:0.376499px;stroke-linecap:butt;stroke-linejoin:miter;stroke-opacity:1"
       d="m 23.235368,17.31123 5.106271,-0.02347"
       id="path25195-2"
       inkscape:export-filename="C:\Users\Clément\Desktop\Cloud Chaos\Sprites\items/spyglass.png"
       inkscape:export-xdpi="96"
       inkscape:export-ydpi="96" />
    <path
       style="fill:#022185;fill-opacity:1;stroke:#000000;stroke-width:0;stroke-miterlimit:4;stroke-dasharray:none;stroke-opacity:1"
       id="path25527-4"
       d="m 37.668197,17.570356 c 0.0011,0.06359 0.273689,0.126931 0.194812,0.139888 -0.119388,0.0196 -0.244997,-0.112015 -0.357137,-0.06632 -0.06905,0.02815 0.236746,0.101417 0.173549,0.141026 -0.240997,0.150736 -0.731354,-0.196988 -0.108938,0.163874 -0.0596,0.0212 -0.147442,0.008 -0.178882,0.0637 -0.02154,0.03738 0.05857,0.06336 0.08808,0.09492 -0.123227,0.01493 -0.261941,-0.01698 -0.369523,0.04501 -0.0498,0.0286 0.09857,0.06051 0.15265,0.07965 0.23972,0.08558 0.331087,0.01709 0.08353,0.114271 0.118965,0.0057 0.254192,-0.04467 0.356806,0.01561 0.204144,0.120094 -0.712883,0.008 -0.526709,0.157356 0.108483,0.08706 0.416551,-0.143602 0.417303,-0.0046 7.52e-4,0.155521 -1.130117,0.0498 0.01812,0.117108 -0.212418,0.0114 -0.426032,0.008 -0.637287,0.03316 -0.03772,0.0046 0.07441,0.01607 0.110191,0.02906 0.106773,0.0384 0.223494,0.05994 0.316536,0.1248 0.02439,0.01709 -0.05037,0.0457 -0.07954,0.04045 -0.163783,-0.0294 -0.405908,-0.290475 -0.478928,-0.140867 -0.07213,0.147806 0.284629,0.164922 0.426943,0.247366 -0.08455,-0.02199 -0.168603,-0.08603 -0.253747,-0.06621 -0.04364,0.01026 0.05504,0.07076 0.0825,0.106203 -0.145369,-0.06974 -0.29844,-0.125221 -0.436105,-0.209067 -0.08432,-0.05151 0.232131,0.02188 0.275125,0.110989 0.0531,0.109963 0.02917,0.267263 -0.04592,0.363586 -0.04786,0.06131 -0.04159,-0.149801 -0.06233,-0.22469 -0.01778,-0.0114 -0.04809,-0.05686 -0.05367,-0.03612 -0.194367,0.739217 0.113838,0.543163 -0.09219,-0.247697 -0.03077,-0.117963 -0.01424,0.246899 -0.05549,0.361581 -0.01026,0.02735 -0.03282,-0.04786 -0.04934,-0.07168 -0.01276,0.08672 -0.02518,0.173298 -0.03783,0.259958 -0.09105,-0.06814 -0.182278,-0.136469 -0.273405,-0.204646 0,0 0.211403,0.131489 0.211403,0.131489 v 0 c 0.01641,-0.118817 0.0327,-0.237658 0.04911,-0.356475 0.0196,0.171486 0.0114,0.348373 0.05891,0.514469 0.0147,0.05208 0.02735,-0.104721 0.04228,-0.156672 0.01527,-0.0531 0.0253,-0.10814 0.04854,-0.158313 0.01026,-0.02097 0.03441,-0.06905 0.04763,-0.05002 0.03692,0.05219 0.03202,0.123797 0.04809,0.185673 0.01675,0.06404 0.03362,0.12807 0.05037,0.192157 0.02097,-0.14432 0.0376,-0.289312 0.06256,-0.43296 0.0114,-0.06336 -0.0147,-0.209238 0.04581,-0.187405 0.08444,0.03043 0.07509,0.162882 0.112242,0.244483 0.01276,0.02735 -0.01812,-0.05926 -0.03795,-0.0817 -0.05037,-0.05629 -0.24135,-0.127934 -0.169332,-0.150884 0.103696,-0.03316 0.206048,0.07088 0.309083,0.106203 0.0057,-0.01778 -0.0011,-0.0474 0.01641,-0.05333 0.05926,-0.02017 0.428493,0.03134 0.415685,0.01424 -0.07874,-0.107571 -0.324512,-0.02473 -0.370777,-0.149767 -0.08626,-0.232895 0.606851,0.129347 0.181446,-0.07737 -0.524805,-0.102329 -0.0939,0.03715 -0.199131,-0.07509 -0.01652,-0.01755 -0.08307,-0.03248 -0.06017,-0.03988 0.187246,-0.05971 0.423138,-0.0011 0.576278,-0.124788 0.102556,-0.0825 -0.573201,0.135602 -0.391493,-0.05299 0.06472,-0.01994 0.128925,-0.04216 0.194253,-0.05983 0.06359,-0.01721 0.226685,0.0114 0.192522,-0.04467 -0.04672,-0.07692 -0.176477,-0.0384 -0.261326,-0.06871 -0.06848,-0.02438 -0.255844,-0.05264 -0.196441,-0.09447 0.170175,-0.119957 0.4408,0.03988 0.619841,-0.0768 -0.02074,-0.03327 -0.03601,-0.07076 -0.06245,-0.09971 -0.0425,-0.04683 -0.112698,-0.06985 -0.142497,-0.125655 -0.01276,-0.02336 0.05607,-0.05025 0.03817,-0.06974 -0.06039,-0.06541 -0.189194,-0.05777 -0.229123,-0.137312 -0.0825,-0.164592 0.98337,0.437883 0.535107,0.137312 0,0 -0.333925,-0.138315 -0.333925,-0.138315 z"
       inkscape:export-filename="C:\Users\Clément\Desktop\Cloud Chaos\Sprites\items/spyglass.png"
       inkscape:export-xdpi="96"
       inkscape:export-ydpi="96" />
    <path
       style="fill:#022185;fill-opacity:1;stroke:#000000;stroke-width:0;stroke-miterlimit:4;stroke-dasharray:none;stroke-opacity:1"
       id="path25660-7"
       d="m 37.267018,19.790183 c -0.02963,0.01026 -0.08854,3.65e-4 -0.08865,0.03179 -6.8e-5,0.02974 0.05903,0.0068 0.08854,0.0114 -0.07361,0.02108 -0.156171,0.02188 -0.220543,0.06313 -0.02815,0.01812 0.0825,-0.01436 0.09937,0.01447 0.0596,0.103354 -0.285187,-0.01949 0.0286,0.06906 -0.05641,-0.06632 0.154736,0.04626 0.115263,0.06655 -0.140024,0.07202 -0.580482,0.104152 -0.439262,0.173754 0.178095,0.08774 0.389693,-0.07965 0.587137,-0.100848 0.07418,-0.0091 0.265884,-0.04672 0.222992,0.01424 -0.07817,0.110989 -0.241965,0.122954 -0.362948,0.18442 0.299933,0.108596 0.08524,-0.01424 -0.05151,0.183348 -0.01789,0.02587 0.0351,0.06393 0.06655,0.06746 0.150735,0.01698 0.526959,-0.142577 0.45493,-0.0091 -0.274191,0.508145 -0.706331,-0.01641 -0.491201,0.227288 0.06689,0.01025 0.138748,0.0011 0.200726,0.02792 0.03305,0.01436 -0.01481,0.117405 -0.02142,0.122521 -0.267684,0.202082 -0.07897,-0.05413 -0.440253,0.172272 -0.02507,0.01561 0.05504,0.02131 0.0825,0.03202 0.202993,0.0057 0.409508,-0.01949 0.608958,0.0188 0.04957,0.01026 -0.08296,0.0637 -0.132629,0.07259 -0.154359,0.02758 -0.578886,-0.07703 -0.469116,0.03498 0.393293,0.401293 0.895991,-0.07931 0.339097,0.126783 -0.0229,0.008 -0.02564,0.04171 -0.03851,0.06245 -0.07327,0.01026 -0.146451,0.01937 -0.219677,0.02917 0,0 0.08752,0.01276 0.08752,0.01276 v 0 c 0.03829,-0.01481 0.07658,-0.02974 0.11483,-0.04455 -0.05812,-0.02609 -0.149893,-0.01926 -0.173959,-0.07794 -0.01664,-0.04057 0.08204,-0.03054 0.122942,-0.04638 0.03966,-0.01538 0.158188,-0.03145 0.118533,-0.04695 -0.131477,-0.05139 -0.533659,0.01026 -0.417553,-0.06974 0.271604,-0.187576 0.88806,0.05128 0.432686,-0.107115 -0.03088,-0.01493 -0.102443,-0.01276 -0.09253,-0.04501 3.87e-4,-0.0011 0.229716,-0.07737 0.08341,-0.125506 -0.0596,-0.0196 -0.234297,0.01447 -0.186585,-0.02632 0.289962,-0.248256 0.453323,7.52e-4 0.316319,-0.177469 -0.209842,0.01481 -0.419434,0.05572 -0.629493,0.04455 -0.0302,-0.0011 0.02222,-0.06438 0.05025,-0.07544 0.208053,-0.08307 0.441768,-0.09902 0.641435,-0.200737 0.0433,-0.02211 -0.107571,-0.01675 -0.13362,-0.05777 -0.128071,-0.202139 0.436048,0.0011 -0.155749,-0.141448 -0.02917,-0.02097 -0.06803,-0.03259 -0.0874,-0.06279 -0.01276,-0.02028 -0.01903,-0.05869 7.29e-4,-0.07259 0.0939,-0.06609 0.347416,-0.03806 0.311487,-0.147123 -0.150804,-0.457836 -0.300138,0.21203 -0.447409,0.02108 -0.0147,-0.01903 0.02553,-0.04102 0.03829,-0.06131 0.03715,-0.01983 0.07498,-0.0384 0.111559,-0.05937 0.02268,-0.01276 0.05948,-0.01675 0.06586,-0.04216 0.0046,-0.01755 -0.0539,-0.0046 -0.04934,-0.02245 0.0057,-0.0245 0.04501,-0.02347 0.06518,-0.03852 0.06529,-0.04911 0.171236,-0.373284 -0.245133,-0.0046 0,0 0.138885,-0.02211 0.138885,-0.02211 z"
       inkscape:export-filename="C:\Users\Clément\Desktop\Cloud Chaos\Sprites\items/spyglass.png"
       inkscape:export-xdpi="96"
       inkscape:export-ydpi="96" />
    <path
       style="fill:#022185;fill-opacity:1;stroke:#000000;stroke-width:0;stroke-miterlimit:4;stroke-dasharray:none;stroke-opacity:1"
       id="path25662-8"
       d="m 37.617625,20.502177 c 0.0023,0.506937 -0.02484,-0.130634 0.147864,-0.169652 0.105177,-0.0237 -0.0023,0.217364 0.02074,0.322598 0.0068,0.03396 0.04512,0.05276 0.06769,0.07931 0,0 0.0011,-0.05037 0.0011,-0.05037 v 0 c -0.01983,-0.04729 -0.04638,-0.09207 -0.05937,-0.141585 -0.01743,-0.06643 0.01447,-0.255104 -0.03145,-0.20394 -0.132344,0.14726 -0.263058,0.907444 -0.089,0.04467 0,0 -0.05777,0.118955 -0.05777,0.118955 z"
       inkscape:export-filename="C:\Users\Clément\Desktop\Cloud Chaos\Sprites\items/spyglass.png"
       inkscape:export-xdpi="96"
       inkscape:export-ydpi="96" />
    <path
       style="fill:#022185;fill-opacity:1;stroke:#000000;stroke-width:0;stroke-miterlimit:4;stroke-dasharray:none;stroke-opacity:1"
       id="path25664-2"
       d="m 37.351524,19.975685 c 0.137461,-0.182926 -0.01276,-0.0114 0.0433,0.115399 0.01276,0.02974 0.06883,-0.09367 0.07555,-0.06176 0.02245,0.107001 -0.09994,0.253087 -0.01983,0.32743 0.008,0.008 0.181753,-0.365865 0.19921,-0.403207 0.02245,-0.0068 0.08387,-0.0023 0.06757,-0.01994 -0.06131,-0.06415 -0.145403,-0.102785 -0.223996,-0.144035 -0.0694,-0.03646 -0.276982,-0.03646 -0.218024,-0.08808 0.07601,-0.06643 0.201604,0.01926 0.302372,0.01424 0.991734,-0.04991 0.438657,-0.06245 0.07361,-0.08843 0.965765,-0.325742 0.05105,0.02359 0.119388,-0.109621 0.174369,-0.340477 0.537556,0.01481 -0.0645,-0.06461 -0.05105,-0.0068 0.09082,-0.05527 0.119957,-0.09777 0.008,-0.0114 -0.0229,-0.01812 -0.03441,-0.02701 -0.04638,0.0057 -0.09287,0.01139 -0.139318,0.01698 0,0 0.0068,-0.0023 0.0068,-0.0023 v 0 c -0.01424,0.01948 -0.02826,0.03886 -0.04239,0.05834 0.01276,0.01026 0.02097,0.02997 0.03669,0.03031 0.05584,0.0011 0.212258,-0.05618 0.165253,-0.02632 -0.568939,0.363245 -0.623169,0.204988 -0.212042,0.157675 0.01778,-0.0011 0.03453,0.01276 0.04683,0.02678 0.008,0.01026 0.0068,0.0245 0.0114,0.03669 0.217614,0.008 0.497081,-0.124937 0.652865,0.02735 0.131056,0.128071 -0.364145,0.04387 -0.543927,0.07908 -0.03783,0.0068 -0.06746,0.04011 -0.105063,0.04843 -0.05527,0.0114 -0.11304,0.0188 -0.168957,0.0114 -0.274088,-0.0376 -0.421519,-0.269017 0.14546,0.260278 -0.01026,-0.06484 -0.02917,-0.129074 -0.0302,-0.194801 -0.0011,-0.09617 0.08808,-0.216577 0.02336,-0.287854 -0.05151,-0.05675 -0.06188,0.140161 -0.09435,0.209569 -0.049,0.104266 -0.05777,0.242171 -0.149801,0.311579 -0.05789,0.04364 0.09207,-0.192807 0.02347,-0.21627 -0.06757,-0.02302 -0.06404,0.127638 -0.09606,0.191405 0,0 0.02917,-0.08991 0.02917,-0.08991 z"
       inkscape:export-filename="C:\Users\Clément\Desktop\Cloud Chaos\Sprites\items/spyglass.png"
       inkscape:export-xdpi="96"
       inkscape:export-ydpi="96" />
    <path
       style="fill:#022185;fill-opacity:1;stroke:#000000;stroke-width:0;stroke-miterlimit:4;stroke-dasharray:none;stroke-opacity:1"
       id="path25666-4"
       d="m 37.190078,21.153434 c -0.02518,0.02245 -0.0743,0.03373 -0.07555,0.06746 -7.63e-4,0.02473 0.09002,-0.03054 0.07339,-0.01276 -0.04752,0.05265 -0.119102,0.07783 -0.173571,0.123364 -0.01709,0.01424 -0.02325,0.03829 -0.03897,0.05379 -0.02632,0.02575 -0.12309,0.06905 -0.08637,0.0686 0.149733,-0.0011 0.295602,-0.04786 0.443409,-0.0719 -0.777823,0.262329 -0.337707,0.05606 0.03726,0.16686 0.03658,0.0114 -0.04216,0.06791 -0.07601,0.08524 -0.06473,0.03316 -0.165185,0.0023 -0.209512,0.06085 0.126088,0.09629 0.137608,0.05356 0.02974,0.129358 0.02929,0.02746 0.127934,0.08056 0.08774,0.08239 -0.121803,0.0057 -0.239139,-0.0482 -0.359313,-0.06917 -0.03225,-0.0057 -0.07054,-0.02837 -0.098,-0.01026 -0.01755,0.0114 0.01276,0.04182 0.02849,0.05629 0.06917,0.06564 0.156832,0.110761 0.221431,0.18083 0.01424,0.0147 3.76e-4,0.04 7.52e-4,0.05994 -0.106545,-0.04114 -0.213192,-0.08216 -0.319783,-0.123239 0,0 0.129632,0.07031 0.129632,0.07031 v 0 c 0.04,0.0046 0.07988,0.008 0.11982,0.01276 -0.05584,-0.0523 -0.110191,-0.106203 -0.167133,-0.157254 -0.05447,-0.04877 -0.237259,-0.162689 -0.167054,-0.142155 0.234251,0.06848 0.436311,0.227608 0.672305,0.2897 0.115114,0.03031 -0.19741,-0.133472 -0.301027,-0.191986 -0.07623,-0.04307 -0.325025,-0.105064 -0.237692,-0.11247 0.179212,-0.01527 0.354983,0.05823 0.532474,0.0874 -0.05025,-0.03168 -0.100049,-0.06427 -0.150826,-0.09515 -0.04296,-0.02621 -0.179645,-0.06632 -0.13035,-0.07623 0.238045,-0.04786 0.527506,0.09458 0.72707,-0.04364 0.15086,-0.104494 -0.388793,0.01447 -0.544314,-0.08296 -0.06359,-0.03988 0.471761,-0.09082 0.146667,-0.171008 -0.119387,0.01538 -0.238934,0.03054 -0.358389,0.04592 0.0425,-0.02986 0.16752,-0.05607 0.127785,-0.08979 -0.04752,-0.04045 -0.229134,0.08444 -0.181673,0.04398 0.121803,-0.103582 0.298394,-0.131626 0.414237,-0.241885 0.665604,-0.633174 -0.954323,0.648431 -0.179394,0.0433 0,0 0.06267,-0.03715 0.06267,-0.03715 z"
       inkscape:export-filename="C:\Users\Clément\Desktop\Cloud Chaos\Sprites\items/spyglass.png"
       inkscape:export-xdpi="96"
       inkscape:export-ydpi="96" />
    <path
       style="fill:#022185;fill-opacity:1;stroke:#000000;stroke-width:0;stroke-miterlimit:4;stroke-dasharray:none;stroke-opacity:1"
       id="path25668-0"
       d="m 36.762747,16.733414 c -0.130919,0.244769 -0.05983,0.08706 0.067,-0.02165 0.04581,-0.03931 0.141016,-0.155978 0.152719,-0.09674 0.01481,0.07475 -0.154827,0.110191 -0.135614,0.183792 0.06997,0.268516 0.250899,-0.290577 0.13632,0.02211 -0.555276,0.447603 -0.283159,0.09276 -0.21285,0.234023 0.0068,0.01584 -0.01026,0.04695 0.0057,0.05253 0.04524,0.01493 0.157151,-0.04877 0.143021,-0.0034 -0.04239,0.136754 -0.466405,0.16931 0.04854,0.08854 -0.06233,0.03487 -0.199929,0.03441 -0.186984,0.104607 0.01276,0.067 0.136321,-0.0046 0.204145,-0.0114 0.157333,-0.01652 0.314438,-0.08273 0.470906,-0.05926 0.06108,0.008 -0.09572,0.07965 -0.151089,0.107001 -0.187496,0.09264 -0.418841,0.112243 -0.57475,0.25164 -0.06598,0.05903 0.176295,0.01721 0.264436,0.02587 -0.02746,0.04649 -0.05481,0.0931 -0.08204,0.139591 0,0 0.238216,-0.08341 0.238216,-0.08341 v 0 c -0.01664,-0.02974 -0.03327,-0.0596 -0.05002,-0.08945 -0.04171,-0.02108 -0.07897,-0.0555 -0.124948,-0.06302 -0.859812,-0.141027 0.411036,0.352396 0.388063,-0.265064 -0.01026,-0.275638 -1.187708,0.361364 -0.448583,0.0068 0.09276,-0.04444 0.183451,-0.09287 0.275183,-0.139454 -0.06472,0.0046 -0.129632,0.0057 -0.194311,0.0114 -0.06222,0.0057 -0.225602,0.06997 -0.185844,0.02188 0.08478,-0.102443 0.239253,-0.121666 0.340112,-0.208315 0.01618,-0.01424 -0.0114,-0.05641 -0.03339,-0.05504 -0.27688,0.01607 -0.474814,0.246991 0.0114,-0.159749 -0.0023,-0.0011 -0.114692,-0.06734 -0.115262,-0.067 -0.105177,0.0498 -0.337525,0.303625 -0.287045,0.198767 0.100164,-0.208213 0.374777,-0.310565 0.446612,-0.530195 0.06051,-0.184956 -0.454224,0.664475 -0.413976,0.411628 0,0 0.0023,-0.0068 0.0023,-0.0068 z"
       inkscape:export-filename="C:\Users\Clément\Desktop\Cloud Chaos\Sprites\items/spyglass.png"
       inkscape:export-xdpi="96"
       inkscape:export-ydpi="96" />
    <path
       style="fill:#022185;fill-opacity:1;stroke:#000000;stroke-width:0;stroke-miterlimit:4;stroke-dasharray:none;stroke-opacity:1"
       id="path25670-9"
       d="m 37.044345,17.904064 c 0.04364,-0.03156 0.08398,-0.0686 0.130919,-0.09492 0.03248,-0.01823 0.130486,-0.06461 0.105177,-0.03726 -0.16899,0.183109 -0.692565,0.312672 -0.543994,0.512692 0.163053,0.219528 0.755945,-0.763751 0.591296,-0.289905 -0.01812,0.05196 -0.04467,0.100278 -0.06712,0.150474 0.164182,-0.54289 0.347827,-0.117815 0.294907,-0.03419 -0.0425,0.06712 -0.108026,0.116687 -0.161891,0.174962 0,0 0.309049,-0.199974 0.309049,-0.199974 v 0 c -0.07031,0.02279 -0.201,0.141448 -0.210959,0.06814 -0.02496,-0.18279 1.171447,-0.776844 -0.419149,0.130053 0.07145,-0.08626 0.142975,-0.172489 0.214446,-0.25875 -0.01778,-0.01937 -0.05663,-0.03202 -0.05322,-0.05789 0.0068,-0.05618 0.09344,-0.09435 0.08113,-0.149721 -0.0046,-0.01652 -0.140446,0.06814 -0.128355,-0.01926 0.0023,-0.02541 0.02222,-0.04649 0.03327,-0.06974 0,0 -0.17552,0.175155 -0.17552,0.175155 z"
       inkscape:export-filename="C:\Users\Clément\Desktop\Cloud Chaos\Sprites\items/spyglass.png"
       inkscape:export-xdpi="96"
       inkscape:export-ydpi="96" />
    <path
       style="fill:#022185;fill-opacity:1;stroke:#000000;stroke-width:0;stroke-miterlimit:4;stroke-dasharray:none;stroke-opacity:1"
       id="path25672-1"
       d="m 37.110778,17.903893 c 0.517137,-0.111672 0.287695,-0.08763 0.101645,0.03327 -0.01618,0.01026 -0.0196,0.0335 -0.0294,0.05025 0,0 -0.251708,0.07555 -0.251708,0.07555 v 0 c 1.131655,-0.427638 0.467601,-0.145118 0.160991,-0.125791 -0.05219,0.0034 0.0931,-0.04797 0.139591,-0.0719 0,0 -0.121097,0.03886 -0.121097,0.03886 z"
       inkscape:export-filename="C:\Users\Clément\Desktop\Cloud Chaos\Sprites\items/spyglass.png"
       inkscape:export-xdpi="96"
       inkscape:export-ydpi="96" />
    <path
       style="fill:#022185;fill-opacity:1;stroke:#000000;stroke-width:0;stroke-miterlimit:4;stroke-dasharray:none;stroke-opacity:1"
       id="path25674-8"
       d="m 37.225676,17.499216 c -0.131489,0.05196 -0.384986,0.01481 -0.394285,0.155807 -0.008,0.13305 0.258329,-0.06803 0.389932,-0.08968 0.04193,-0.0068 0.155749,-0.02735 0.127501,0.0046 -0.08968,0.100505 -0.26765,0.109963 -0.334175,0.227174 -0.03521,0.06188 0.14187,-0.008 0.212896,-0.01424 -0.04615,0.04615 -0.09219,0.0923 -0.138315,0.138451 -0.0694,0.05185 -0.139032,0.103583 -0.208429,0.155408 0,0 0.246421,-0.08672 0.246421,-0.08672 v 0 c 0.08068,-0.05846 0.161276,-0.117108 0.241919,-0.175656 -0.05333,-0.008 -0.106772,-0.01527 -0.159942,-0.02393 -0.04364,-0.0068 -0.09481,0.0034 -0.130635,-0.02336 -0.0196,-0.01424 -0.008,-0.04911 -0.0023,-0.0727 0.0068,-0.03111 0.07282,-0.08307 0.04102,-0.0866 -0.245657,-0.02746 -0.441073,0.163042 -0.207814,-0.03008 0,0 0.316547,-0.07885 0.316547,-0.07885 z"
       inkscape:export-filename="C:\Users\Clément\Desktop\Cloud Chaos\Sprites\items/spyglass.png"
       inkscape:export-xdpi="96"
       inkscape:export-ydpi="96" />
  </g>
</svg>
