<?xml version="1.0" encoding="UTF-8" standalone="no"?>
<!-- Created with Inkscape (http://www.inkscape.org/) -->

<svg
   width="150"
   height="150"
   viewBox="0 0 39.687499 39.687501"
   version="1.1"
   id="svg5"
   inkscape:version="1.1.1 (3bf5ae0d25, 2021-09-20)"
   sodipodi:docname="zzz - Copie (9).svg"
   inkscape:export-filename="C:\Users\Clément\Desktop\freepic\res\img/icon.png"
   inkscape:export-xdpi="96"
   inkscape:export-ydpi="96"
   xmlns:inkscape="http://www.inkscape.org/namespaces/inkscape"
   xmlns:sodipodi="http://sodipodi.sourceforge.net/DTD/sodipodi-0.dtd"
   xmlns="http://www.w3.org/2000/svg"
   xmlns:svg="http://www.w3.org/2000/svg">
  <sodipodi:namedview
     id="namedview7"
     pagecolor="#ffffff"
     bordercolor="#666666"
     borderopacity="1.0"
     inkscape:pageshadow="2"
     inkscape:pageopacity="0.0"
     inkscape:pagecheckerboard="true"
     inkscape:document-units="mm"
     showgrid="false"
     units="px"
     inkscape:zoom="3.0289002"
     inkscape:cx="62.729039"
     inkscape:cy="70.487631"
     inkscape:window-width="1920"
     inkscape:window-height="1013"
     inkscape:window-x="-9"
     inkscape:window-y="-9"
     inkscape:window-maximized="1"
     inkscape:current-layer="layer1"
     inkscape:snap-object-midpoints="false"
     inkscape:snap-center="false" />
  <defs
     id="defs2">
    <clipPath
       clipPathUnits="userSpaceOnUse"
       id="clipPath168419-0">
      <path
         style="fill:#d4d591;fill-opacity:1;stroke:#000000;stroke-width:0.264583px;stroke-linecap:butt;stroke-linejoin:miter;stroke-opacity:1"
         d="m 1976.6629,1120.9601 c -14.9756,1.5925 -25.8038,9.2969 -36.1081,17.7735 -10.8363,13.4703 -17.8314,26.9407 -24.1344,40.4111 -5.0825,17.6623 -6.7297,33.8216 -6.174,49.0172 2.96,13.8998 7.3576,26.531 16.2768,35.1727 10.0404,8.8438 23.2314,13.9465 38.9144,16.0897 14.6068,1.5407 26.9047,-0.7669 39.4757,-2.6193 16.4002,-3.4206 25.6399,-12.8083 33.676,-23.199 4.188,-8.0615 7.6011,-17.2853 8.9802,-29.56 0.1671,-11.8575 -2.4879,-24.9245 -4.6772,-37.7919 -3.678,-11.8565 -9.5794,-24.1299 -18.896,-37.0436 -6.3738,-10.6207 -16.705,-17.504 -27.502,-23.9473 -6.0539,-1.7474 -10.1493,-4.5965 -19.8314,-4.3031 z"
         id="path168421-4"
         sodipodi:nodetypes="ccccccccccccc" />
    </clipPath>
    <linearGradient
       x1="-989.37677"
       y1="-3204.3379"
       x2="1175.8552"
       y2="2649.3293"
       gradientUnits="userSpaceOnUse"
       id="color-1"
       gradientTransform="matrix(0.17670732,0,0,0.17670732,-22.688903,-12.005473)">
      <stop
         offset="0"
         stop-color="#2a221e"
         id="stop2" />
      <stop
         offset="1"
         stop-color="#2a221e"
         stop-opacity="0"
         id="stop4" />
    </linearGradient>
    <linearGradient
       x1="-3323.7942"
       y1="-330.77435"
       x2="2849.8162"
       y2="585.84308"
       gradientUnits="userSpaceOnUse"
       id="color-2"
       gradientTransform="matrix(0.17670732,0,0,0.17670732,-22.688903,-12.005473)">
      <stop
         offset="0"
         stop-color="#2a221e"
         id="stop7" />
      <stop
         offset="1"
         stop-color="#2a221e"
         stop-opacity="0"
         id="stop9" />
    </linearGradient>
  </defs>
  <g
     inkscape:label="Calque 1"
     inkscape:groupmode="layer"
     id="layer1">
    <path
       style="fill:#ed1900;fill-opacity:1;stroke:#000000;stroke-width:0.741007px;stroke-linecap:butt;stroke-linejoin:miter;stroke-opacity:1"
       d="M 19.03657,7.7125948 C 13.806533,7.4869734 8.7690127,8.4163846 4.2343226,12.362845 1.7527977,16.96263 -0.30941239,21.616523 2.5314092,26.903061 5.4041024,32.43493 9.0946734,37.223259 17.661109,37.578987 28.301938,38.142208 33.728273,33.618123 37.244529,27.230541 40.749808,16.604473 35.04562,13.12044 30.301945,8.8915303 26.637561,7.1374713 22.875547,6.847634 19.03657,7.7125948 Z"
       id="path4047"
       sodipodi:nodetypes="ccccccc" />
    <path
       style="fill:#2d9200;fill-opacity:1;stroke:#000000;stroke-width:0.560132;stroke-linecap:butt;stroke-linejoin:miter;stroke-miterlimit:4;stroke-dasharray:none;stroke-opacity:1"
       d="M 18.971062,7.6470987 C 17.132765,6.4441734 15.132898,5.9683776 12.945329,6.3371685 c 0.5058,0.7241135 0.966649,1.4032685 1.637463,2.2923763 -1.763044,1.1134397 -2.306092,2.2268812 -3.274869,3.3403192 1.571927,-0.74813 3.143853,-1.576241 4.715781,-1.309929 -0.580745,1.440923 -0.663757,2.881845 -0.196608,4.322768 0.468075,-1.437724 1.125362,-2.812387 3.143882,-3.733299 2.105453,0.978984 4.05824,2.187002 6.484117,2.685357 -0.501206,-1.468725 -0.69997,-2.85103 -2.357904,-4.6502507 2.810994,-0.751246 3.548996,0.3113808 5.10874,0.6549658 C 26.590818,9.07336 26.986496,7.7604052 22.573243,7.5161064 c 2.019836,-1.183164 2.608535,-1.8296601 1.8339,-1.9648955 -2.55395,0.1421895 -4.278232,0.9066269 -5.436081,2.0958878 z"
       id="path4519"
       sodipodi:nodetypes="ccccccccccccc" />
    <path
       style="fill:#38b800;fill-opacity:1;stroke:#000000;stroke-width:0.560132;stroke-linecap:butt;stroke-linejoin:miter;stroke-miterlimit:4;stroke-dasharray:none;stroke-opacity:1"
       d="m 18.381579,9.6774884 c 0.228814,-2.7927605 -0.549686,-5.7534163 2.619822,-8.0560659 1.474128,0.4518333 1.974829,1.0983545 1.702913,1.8993966 -2.761255,0.2820096 -2.71356,3.5736315 -3.143797,6.3531577 -0.392989,0.068198 -0.78595,0.2352832 -1.178938,-0.1964937 z"
       id="path5593"
       sodipodi:nodetypes="ccccc" />
    <path
       style="fill:#ffffff;fill-opacity:0.5;stroke:#000000;stroke-width:0;stroke-linecap:butt;stroke-linejoin:miter;stroke-miterlimit:4;stroke-dasharray:none;stroke-opacity:1"
       d="m 7.1816825,12.62483 c -1.191542,1.340471 -0.6761634,0.807148 -1.5064762,1.637412 -0.6817927,0.681843 -1.1789379,1.121661 -1.1789379,2.095887 0,0.07548 0.016804,0.277966 0.065255,0.327482 0.031088,0.0309 0.091862,-0.0196 0.1310709,0 0.3583725,0.179158 0.7354534,-0.139977 1.047951,-0.327482 0.2181715,-0.130874 0.9100197,-0.320546 1.0479242,-0.458476 0.034729,-0.0345 0.022405,-0.10917 0.065255,-0.130987 0.058533,-0.02929 0.1377924,0.02929 0.1966064,0 0.04369,-0.02185 0.031088,-0.09648 0.065255,-0.130987 0.1327513,-0.132807 0.2904565,-0.243489 0.4584401,-0.327483 0.039209,-0.0196 0.093542,0.02241 0.1310709,0 0.8732739,-0.523971 -0.087381,-0.0291 0.2618617,-0.261974 0.3555998,-0.237076 -0.182043,0.188485 0.3930447,-0.130987 0.1221088,-0.06789 0.2061285,-0.192629 0.3274532,-0.261974 0.096623,-0.05523 0.2279736,-0.01569 0.3274531,-0.0655 0.3374516,-0.168712 0.6434797,-0.288978 0.9824996,-0.458474 0.1237888,-0.0619 0.3605578,-0.229626 0.4584408,-0.327483 0.07477,-0.07486 0.147594,-0.270237 0.261861,-0.327482 0.0196,-0.0098 0.05041,0.0154 0.06526,0 0.03109,-0.0309 0,-0.08732 0,-0.130987 0,-0.514361 -0.415282,-0.546257 -0.720414,-0.851454 -0.03473,-0.03453 -0.03109,-0.09648 -0.065255,-0.130987 -0.1044641,-0.10446 -0.3477579,-0.292237 -0.5239754,-0.327484 -0.2030479,-0.04061 -1.1829429,-0.06417 -1.3754603,0 -0.1470346,0.04901 -0.178122,0.121745 -0.3274532,0.196495 -0.6325851,0.316278 0.1221088,-0.08438 -0.3275372,0.0655 -0.1529161,0.0655 -0.3056641,0.130986 -0.4584401,0.196494 -0.022406,0.02185 -0.037809,0.05171 -0.065255,0.0655 -0.069736,0.03479 -0.2036079,0.007 -0.2618616,0.0655 -0.1061451,0.106174 0.2268534,0.148575 0.5239754,0 z"
       id="path7505" />
    <path
       style="fill:#ffffff;fill-opacity:0.5;stroke:#000000;stroke-width:0;stroke-linecap:butt;stroke-linejoin:miter;stroke-miterlimit:4;stroke-dasharray:none;stroke-opacity:1"
       d="m 3.3341624,20.155738 c 0.3128338,-0.173361 -0.031088,0.788711 0.2352555,0.818278 0.466814,0.05184 1.1863876,-1.032912 1.3705871,-1.432062 0.022406,-0.04664 0.1151071,-0.429406 -1.12e-4,-0.419307 -0.1246294,0.01093 -0.5460448,0.294123 -0.695544,0.388743 -0.3330546,0.210722 -0.5476972,0.478213 -0.9103546,0.64444 z"
       id="path9124" />
  </g>
</svg>
