<?xml version="1.0" encoding="UTF-8" standalone="no"?>
<!-- Created with Inkscape (http://www.inkscape.org/) -->

<svg
   width="150"
   height="150"
   viewBox="0 0 39.687499 39.687501"
   version="1.1"
   id="svg5"
   inkscape:version="1.1.1 (3bf5ae0d25, 2021-09-20)"
   sodipodi:docname="zzz - Copie (6).svg"
   inkscape:export-filename="C:\Users\Clément\Desktop\freepic\res\img/icon.png"
   inkscape:export-xdpi="96"
   inkscape:export-ydpi="96"
   xmlns:inkscape="http://www.inkscape.org/namespaces/inkscape"
   xmlns:sodipodi="http://sodipodi.sourceforge.net/DTD/sodipodi-0.dtd"
   xmlns="http://www.w3.org/2000/svg"
   xmlns:svg="http://www.w3.org/2000/svg">
  <sodipodi:namedview
     id="namedview7"
     pagecolor="#ffffff"
     bordercolor="#666666"
     borderopacity="1.0"
     inkscape:pageshadow="2"
     inkscape:pageopacity="0.0"
     inkscape:pagecheckerboard="true"
     inkscape:document-units="mm"
     showgrid="false"
     units="px"
     inkscape:zoom="3.0289002"
     inkscape:cx="113.57258"
     inkscape:cy="36.812042"
     inkscape:window-width="1920"
     inkscape:window-height="1013"
     inkscape:window-x="-9"
     inkscape:window-y="-9"
     inkscape:window-maximized="1"
     inkscape:current-layer="layer1"
     inkscape:snap-object-midpoints="false"
     inkscape:snap-center="false" />
  <defs
     id="defs2">
    <clipPath
       clipPathUnits="userSpaceOnUse"
       id="clipPath168419-0">
      <path
         style="fill:#d4d591;fill-opacity:1;stroke:#000000;stroke-width:0.264583px;stroke-linecap:butt;stroke-linejoin:miter;stroke-opacity:1"
         d="m 1976.6629,1120.9601 c -14.9756,1.5925 -25.8038,9.2969 -36.1081,17.7735 -10.8363,13.4703 -17.8314,26.9407 -24.1344,40.4111 -5.0825,17.6623 -6.7297,33.8216 -6.174,49.0172 2.96,13.8998 7.3576,26.531 16.2768,35.1727 10.0404,8.8438 23.2314,13.9465 38.9144,16.0897 14.6068,1.5407 26.9047,-0.7669 39.4757,-2.6193 16.4002,-3.4206 25.6399,-12.8083 33.676,-23.199 4.188,-8.0615 7.6011,-17.2853 8.9802,-29.56 0.1671,-11.8575 -2.4879,-24.9245 -4.6772,-37.7919 -3.678,-11.8565 -9.5794,-24.1299 -18.896,-37.0436 -6.3738,-10.6207 -16.705,-17.504 -27.502,-23.9473 -6.0539,-1.7474 -10.1493,-4.5965 -19.8314,-4.3031 z"
         id="path168421-4"
         sodipodi:nodetypes="ccccccccccccc" />
    </clipPath>
    <linearGradient
       x1="-989.37677"
       y1="-3204.3379"
       x2="1175.8552"
       y2="2649.3293"
       gradientUnits="userSpaceOnUse"
       id="color-1"
       gradientTransform="matrix(0.17670732,0,0,0.17670732,-22.688903,-12.005473)">
      <stop
         offset="0"
         stop-color="#2a221e"
         id="stop2" />
      <stop
         offset="1"
         stop-color="#2a221e"
         stop-opacity="0"
         id="stop4" />
    </linearGradient>
    <linearGradient
       x1="-3323.7942"
       y1="-330.77435"
       x2="2849.8162"
       y2="585.84308"
       gradientUnits="userSpaceOnUse"
       id="color-2"
       gradientTransform="matrix(0.17670732,0,0,0.17670732,-22.688903,-12.005473)">
      <stop
         offset="0"
         stop-color="#2a221e"
         id="stop7" />
      <stop
         offset="1"
         stop-color="#2a221e"
         stop-opacity="0"
         id="stop9" />
    </linearGradient>
  </defs>
  <g
     inkscape:label="Calque 1"
     inkscape:groupmode="layer"
     id="layer1">
    <path
       style="fill:#cecdd8;fill-opacity:1;stroke:#000000;stroke-width:0.288003px;stroke-linecap:butt;stroke-linejoin:miter;stroke-opacity:1"
       d="M 9.2119319,2.6817453 12.237516,1.6732136 12.842644,38.719857 9.2119319,37.442386 Z"
       id="path869"
       inkscape:export-filename="C:\Users\Clément\Desktop/rangement.png"
       inkscape:export-xdpi="96"
       inkscape:export-ydpi="96" />
    <path
       style="fill:#cecdd8;fill-opacity:1;stroke:#000000;stroke-width:0.288003px;stroke-linecap:butt;stroke-linejoin:miter;stroke-opacity:1"
       d="M 12.304754,2.345568 14.792459,0.59744438 14.456281,38.719857 12.775406,37.576861 Z"
       id="path871"
       inkscape:export-filename="C:\Users\Clément\Desktop/rangement.png"
       inkscape:export-xdpi="96"
       inkscape:export-ydpi="96" />
    <path
       style="fill:#cecdd8;fill-opacity:1;stroke:#000000;stroke-width:0.288003px;stroke-linecap:butt;stroke-linejoin:miter;stroke-opacity:1"
       d="M 26.356926,3.2196244 31.534049,2.1438661 31.668524,36.29939 26.2897,35.089156 Z"
       id="path873"
       inkscape:export-filename="C:\Users\Clément\Desktop/rangement.png"
       inkscape:export-xdpi="96"
       inkscape:export-ydpi="96" />
    <path
       style="fill:#cecdd8;fill-opacity:1;stroke:#000000;stroke-width:0.288003px;stroke-linecap:butt;stroke-linejoin:miter;stroke-opacity:1"
       d="m 14.657994,36.366617 11.76617,-1.277461 0.672354,1.613638 -12.707474,1.815361 z"
       id="path875"
       inkscape:export-filename="C:\Users\Clément\Desktop/rangement.png"
       inkscape:export-xdpi="96"
       inkscape:export-ydpi="96" />
    <path
       style="fill:#747190;fill-opacity:1;stroke:#000000;stroke-width:0.288003px;stroke-linecap:butt;stroke-linejoin:miter;stroke-opacity:1"
       d="m 14.725221,2.345568 11.631705,0.8068188 0.06727,32.1384712 -11.900645,1.075759 z"
       id="path877"
       inkscape:export-filename="C:\Users\Clément\Desktop/rangement.png"
       inkscape:export-xdpi="96"
       inkscape:export-ydpi="96" />
    <path
       style="fill:#c0403e;fill-opacity:1;stroke:#000000;stroke-width:0.288003px;stroke-linecap:butt;stroke-linejoin:miter;stroke-opacity:1"
       d="m 20.843637,35.358096 4.60562,-0.437039 0.336177,-4.16858 -6.790771,0.302553 z"
       id="path879"
       inkscape:export-filename="C:\Users\Clément\Desktop/rangement.png"
       inkscape:export-xdpi="96"
       inkscape:export-ydpi="96" />
    <path
       style="fill:none;fill-opacity:1;stroke:#c0403e;stroke-width:0.288003px;stroke-linecap:butt;stroke-linejoin:miter;stroke-opacity:1"
       d="M 24.138161,30.853328 26.155224,20.062066"
       id="path881"
       inkscape:export-filename="C:\Users\Clément\Desktop/rangement.png"
       inkscape:export-xdpi="96"
       inkscape:export-ydpi="96" />
    <path
       style="fill:none;stroke:#ffffff;stroke-width:0.288003px;stroke-linecap:butt;stroke-linejoin:miter;stroke-opacity:1"
       d="M 14.758845,7.0184247 26.356926,7.4890662"
       id="path883"
       inkscape:export-filename="C:\Users\Clément\Desktop/rangement.png"
       inkscape:export-xdpi="96"
       inkscape:export-ydpi="96" />
    <path
       style="fill:none;stroke:#ffffff;stroke-width:0.288003px;stroke-linecap:butt;stroke-linejoin:miter;stroke-opacity:1"
       d="m 14.590757,20.667182 h 4.235817"
       id="path887"
       inkscape:export-filename="C:\Users\Clément\Desktop/rangement.png"
       inkscape:export-xdpi="96"
       inkscape:export-ydpi="96" />
    <path
       style="fill:#323232;fill-opacity:1;stroke:#000000;stroke-width:0.288003px;stroke-linecap:butt;stroke-linejoin:miter;stroke-opacity:1"
       d="m 19.095525,12.027448 c 0.291352,-0.437028 0.530738,-0.91357 0.874056,-1.311085 0.06205,-0.07184 0.72469,-0.268743 0.806819,-0.302564 0.656081,-0.270147 1.214609,-0.382733 1.546411,0.336178 0.135182,0.292897 0.360298,0.634343 0.437028,0.941294 0.04876,0.195279 0.04169,0.385922 0.134475,0.571503 0.133452,0.266893 0.395686,0.522422 0.537879,0.806819 0.704455,1.408909 1.812314,4.422139 1.546411,6.017565 -0.08207,0.49239 -0.347128,0.940521 -0.504266,1.411936 -0.11904,0.357142 -0.167882,0.722067 -0.268939,1.075769 -0.128195,0.448686 0.472699,1.29381 0.537879,1.81535 0.112694,0.901498 -0.465177,2.170566 -0.773206,2.991971 -0.04931,0.131602 -0.181052,0.346758 -0.201702,0.470642 -0.135389,0.812337 0.419177,2.251007 -0.874056,2.151527 -0.549145,-0.04223 -1.063741,-0.352429 -1.613648,-0.437028 -0.121827,-0.01872 -0.282633,0.08719 -0.369791,0 -0.07086,-0.07086 -0.102756,-0.173858 -0.134475,-0.26894 -0.115622,-0.346866 -0.146133,-0.88161 -0.100797,-1.243847 0.03113,-0.249498 0.190599,-0.425337 0.134476,-0.705978 -0.153253,-0.766261 -1.485922,-0.833858 -1.580035,-1.680875 -0.07827,-0.70476 -0.343514,-1.380641 -0.302553,-2.117915 0.02678,-0.48194 0.220816,-0.930724 0.268939,-1.411946 0.07685,-0.768438 0.140506,-1.617437 0.06727,-2.386843 -0.091,-0.955739 -0.483899,-1.860284 -0.571503,-2.823882 -0.04104,-0.451386 -0.0054,-0.84434 0.06727,-1.277471 0.05998,-0.359961 1.116915,-2.426998 0.336177,-2.62218 z"
       id="path924"
       inkscape:export-filename="C:\Users\Clément\Desktop/rangement.png"
       inkscape:export-xdpi="96"
       inkscape:export-ydpi="96" />
    <path
       style="fill:#db4949;fill-opacity:1;stroke:#000000;stroke-width:0.288003px;stroke-linecap:butt;stroke-linejoin:miter;stroke-opacity:1"
       d="m 20.978113,5.8081802 3.664314,0.7732054 C 24.316852,5.7260408 24.670511,4.8329572 22.86069,4.0600674 22.053806,4.4634061 21.258863,4.8786966 20.978113,5.8081802 Z"
       id="path959"
       sodipodi:nodetypes="cccc"
       inkscape:export-filename="C:\Users\Clément\Desktop/rangement.png"
       inkscape:export-xdpi="96"
       inkscape:export-ydpi="96" />
    <path
       style="fill:#fcfbf7;fill-opacity:1;stroke:#000000;stroke-width:0.288003px;stroke-linecap:butt;stroke-linejoin:miter;stroke-opacity:1"
       d="m 17.011224,6.5477722 3.294534,0.3697906 C 20.286165,6.0091746 20.186305,5.1208696 18.759348,4.5643333 17.553446,4.4323289 17.248477,5.4469671 17.011224,6.5477722 Z"
       id="path961"
       sodipodi:nodetypes="cccc"
       inkscape:export-filename="C:\Users\Clément\Desktop/rangement.png"
       inkscape:export-xdpi="96"
       inkscape:export-ydpi="96" />
    <path
       style="fill:#0668a9;fill-opacity:1;stroke:#000000;stroke-width:0.288003px;stroke-linecap:butt;stroke-linejoin:miter;stroke-opacity:1"
       d="m 16.137167,12.666189 0.134476,-3.6979493 0.336166,-0.4034042 h 0.874067 l 1.008532,1.7817375 -0.134475,2.588555 z"
       id="path1238"
       inkscape:export-filename="C:\Users\Clément\Desktop/rangement.png"
       inkscape:export-xdpi="96"
       inkscape:export-ydpi="96" />
    <path
       style="fill:#5eb14f;fill-opacity:1;stroke:#000000;stroke-width:0.288003px;stroke-linecap:butt;stroke-linejoin:miter;stroke-opacity:1"
       d="m 15.565664,20.331005 -0.201702,-4.101353 0.537879,-0.571493 0.403415,-0.03364 0.437028,1.109383 0.03364,3.496236 1.378323,0.168089 -0.201702,-3.866027 -0.437029,-0.840443 -0.605127,0.134464 -0.134465,1.109383 0.03364,3.395385 z"
       id="path1240"
       inkscape:export-filename="C:\Users\Clément\Desktop/rangement.png"
       inkscape:export-xdpi="96"
       inkscape:export-ydpi="96" />
    <path
       style="fill:#f7f6fe;fill-opacity:1;stroke:#000000;stroke-width:0.288003px;stroke-linecap:butt;stroke-linejoin:miter;stroke-opacity:1"
       d="m 16.506958,27.424329 -0.168089,1.680886 0.403415,1.781726 0.235327,5.143498 -2.386854,0.369802 V 27.25624 Z"
       id="path1242"
       inkscape:export-filename="C:\Users\Clément\Desktop/rangement.png"
       inkscape:export-xdpi="96"
       inkscape:export-ydpi="96" />
    <path
       style="fill:#eab359;fill-opacity:1;stroke:#000000;stroke-width:0.288003px;stroke-linecap:butt;stroke-linejoin:miter;stroke-opacity:1"
       d="m 16.036317,26.651124 -0.134476,-2.286003 1.008532,-0.06727 0.403415,2.622181 z"
       id="path1244"
       inkscape:export-filename="C:\Users\Clément\Desktop/rangement.png"
       inkscape:export-xdpi="96"
       inkscape:export-ydpi="96" />
    <path
       style="fill:none;stroke:#ffffff;stroke-width:0.288003px;stroke-linecap:butt;stroke-linejoin:miter;stroke-opacity:1"
       d="m 18.725723,7.3209776 0.26894,19.5990854 -4.403906,0.03364"
       id="path885"
       inkscape:export-filename="C:\Users\Clément\Desktop/rangement.png"
       inkscape:export-xdpi="96"
       inkscape:export-ydpi="96" />
    <path
       style="fill:none;stroke:#ffffff;stroke-width:0.288003px;stroke-linecap:butt;stroke-linejoin:miter;stroke-opacity:1"
       d="m 14.657994,13.069593 4.16858,0.03364"
       id="path889"
       inkscape:export-filename="C:\Users\Clément\Desktop/rangement.png"
       inkscape:export-xdpi="96"
       inkscape:export-ydpi="96" />
  </g>
</svg>
