<?xml version="1.0" encoding="UTF-8" standalone="no"?>
<!-- Created with Inkscape (http://www.inkscape.org/) -->

<svg
   width="150"
   height="150"
   viewBox="0 0 39.687499 39.687501"
   version="1.1"
   id="svg5"
   inkscape:version="1.1.1 (3bf5ae0d25, 2021-09-20)"
   sodipodi:docname="zzz - Copie - Copie (6).svg"
   inkscape:export-filename="C:\Users\Clément\Desktop\freepic\res\img/icon.png"
   inkscape:export-xdpi="96"
   inkscape:export-ydpi="96"
   xmlns:inkscape="http://www.inkscape.org/namespaces/inkscape"
   xmlns:sodipodi="http://sodipodi.sourceforge.net/DTD/sodipodi-0.dtd"
   xmlns="http://www.w3.org/2000/svg"
   xmlns:svg="http://www.w3.org/2000/svg">
  <sodipodi:namedview
     id="namedview7"
     pagecolor="#ffffff"
     bordercolor="#666666"
     borderopacity="1.0"
     inkscape:pageshadow="2"
     inkscape:pageopacity="0.0"
     inkscape:pagecheckerboard="true"
     inkscape:document-units="mm"
     showgrid="false"
     units="px"
     inkscape:zoom="1.5144501"
     inkscape:cx="-10.564891"
     inkscape:cy="-2.9713755"
     inkscape:window-width="1920"
     inkscape:window-height="1013"
     inkscape:window-x="-9"
     inkscape:window-y="-9"
     inkscape:window-maximized="1"
     inkscape:current-layer="layer1"
     inkscape:snap-object-midpoints="false"
     inkscape:snap-center="false" />
  <defs
     id="defs2">
    <clipPath
       clipPathUnits="userSpaceOnUse"
       id="clipPath168419-0">
      <path
         style="fill:#d4d591;fill-opacity:1;stroke:#000000;stroke-width:0.264583px;stroke-linecap:butt;stroke-linejoin:miter;stroke-opacity:1"
         d="m 1976.6629,1120.9601 c -14.9756,1.5925 -25.8038,9.2969 -36.1081,17.7735 -10.8363,13.4703 -17.8314,26.9407 -24.1344,40.4111 -5.0825,17.6623 -6.7297,33.8216 -6.174,49.0172 2.96,13.8998 7.3576,26.531 16.2768,35.1727 10.0404,8.8438 23.2314,13.9465 38.9144,16.0897 14.6068,1.5407 26.9047,-0.7669 39.4757,-2.6193 16.4002,-3.4206 25.6399,-12.8083 33.676,-23.199 4.188,-8.0615 7.6011,-17.2853 8.9802,-29.56 0.1671,-11.8575 -2.4879,-24.9245 -4.6772,-37.7919 -3.678,-11.8565 -9.5794,-24.1299 -18.896,-37.0436 -6.3738,-10.6207 -16.705,-17.504 -27.502,-23.9473 -6.0539,-1.7474 -10.1493,-4.5965 -19.8314,-4.3031 z"
         id="path168421-4"
         sodipodi:nodetypes="ccccccccccccc" />
    </clipPath>
    <linearGradient
       x1="-989.37677"
       y1="-3204.3379"
       x2="1175.8552"
       y2="2649.3293"
       gradientUnits="userSpaceOnUse"
       id="color-1"
       gradientTransform="matrix(0.17670732,0,0,0.17670732,-22.688903,-12.005473)">
      <stop
         offset="0"
         stop-color="#2a221e"
         id="stop2" />
      <stop
         offset="1"
         stop-color="#2a221e"
         stop-opacity="0"
         id="stop4" />
    </linearGradient>
    <linearGradient
       x1="-3323.7942"
       y1="-330.77435"
       x2="2849.8162"
       y2="585.84308"
       gradientUnits="userSpaceOnUse"
       id="color-2"
       gradientTransform="matrix(0.17670732,0,0,0.17670732,-22.688903,-12.005473)">
      <stop
         offset="0"
         stop-color="#2a221e"
         id="stop7" />
      <stop
         offset="1"
         stop-color="#2a221e"
         stop-opacity="0"
         id="stop9" />
    </linearGradient>
  </defs>
  <g
     inkscape:label="Calque 1"
     inkscape:groupmode="layer"
     id="layer1">
    <ellipse
       style="fill:#009c07;fill-opacity:1;stroke:#000000;stroke-width:0.384405;stroke-linecap:butt;stroke-linejoin:round;stroke-miterlimit:4;stroke-dasharray:none;stroke-dashoffset:0;stroke-opacity:1;paint-order:normal"
       id="path12074"
       cx="9.9134197"
       cy="-2.2539265"
       rx="3.2975516"
       ry="1.4350455"
       transform="rotate(60.978716)"
       inkscape:export-filename="C:\Users\Clément\Desktop\Seed Keeper\Sprites\Objects\Props/trunk.png"
       inkscape:export-xdpi="96"
       inkscape:export-ydpi="96" />
    <ellipse
       style="fill:#009c07;fill-opacity:1;stroke:#000000;stroke-width:0.384405;stroke-linecap:butt;stroke-linejoin:round;stroke-miterlimit:4;stroke-dasharray:none;stroke-dashoffset:0;stroke-opacity:1;paint-order:normal"
       id="path12074-0"
       cx="7.3772812"
       cy="6.3062148"
       rx="3.2975516"
       ry="1.4350455"
       transform="rotate(21.793321)"
       inkscape:export-filename="C:\Users\Clément\Desktop\Seed Keeper\Sprites\Objects\Props/trunk.png"
       inkscape:export-xdpi="96"
       inkscape:export-ydpi="96" />
    <path
       style="fill:#735900;fill-opacity:1;stroke:#000000;stroke-width:0.383801px;stroke-linecap:butt;stroke-linejoin:miter;stroke-opacity:1"
       d="M 12.678166,12.275352 V 3.954973 C 20.670974,0.55487326 28.66375,-0.27581494 36.656557,4.0859745 37.982148,14.600876 37.05009,24.614044 37.246197,34.877897 35.457052,38.065391 32.12374,38.512545 28.227056,38.835331 23.153172,39.255624 16.848172,39.343267 12.481631,37.170919 11.410388,31.907892 11.360066,26.644897 11.891992,21.38187 9.3178614,18.435195 6.6078129,15.721483 3.1785432,14.24077 3.0709701,11.912045 3.8810346,9.9400596 5.9956696,8.4754823 8.2231573,9.4190226 10.450678,10.593022 12.678166,12.275319 Z"
       id="path8095"
       sodipodi:nodetypes="ccccsccccc"
       inkscape:export-filename="C:\Users\Clément\Desktop\Seed Keeper\Sprites\Objects\Props/trunk.png"
       inkscape:export-xdpi="96"
       inkscape:export-ydpi="96" />
    <ellipse
       style="fill:#af8702;fill-opacity:1;stroke:#000000;stroke-width:0.414744;stroke-linecap:butt;stroke-linejoin:round;stroke-miterlimit:4;stroke-dasharray:none;stroke-dashoffset:0;stroke-opacity:1;paint-order:normal"
       id="path8632"
       cx="24.668627"
       cy="3.9120193"
       rx="11.640648"
       ry="2.6648443"
       inkscape:export-filename="C:\Users\Clément\Desktop\Seed Keeper\Sprites\Objects\Props/trunk.png"
       inkscape:export-xdpi="96"
       inkscape:export-ydpi="96" />
    <ellipse
       style="fill:#af8702;fill-opacity:1;stroke:#000000;stroke-width:0.384405;stroke-linecap:butt;stroke-linejoin:round;stroke-miterlimit:4;stroke-dasharray:none;stroke-dashoffset:0;stroke-opacity:1;paint-order:normal"
       id="path8632-1"
       cx="-7.9484134"
       cy="9.1925297"
       rx="2.7224452"
       ry="0.62323791"
       transform="rotate(-62.37822)"
       inkscape:export-filename="C:\Users\Clément\Desktop\Seed Keeper\Sprites\Objects\Props/trunk.png"
       inkscape:export-xdpi="96"
       inkscape:export-ydpi="96" />
    <path
       style="fill:#544207;fill-opacity:1;stroke:#000000;stroke-width:0;stroke-linecap:butt;stroke-linejoin:round;stroke-miterlimit:4;stroke-dasharray:none;stroke-dashoffset:0;stroke-opacity:1;paint-order:normal"
       id="path10144"
       d="m 33.377032,13.693303 c 0.04653,0.033 0.104933,0.05049 0.139581,0.09503 0.05973,0.0759 0.06236,0.193696 0.135951,0.256393 0.0165,0.0165 0.694341,0.284442 0.654975,0.434351 -0.31315,1.191487 -0.745983,0.261013 -0.368256,0.91503 -0.0132,0.442303 0.878634,-0.124401 0.765979,0.107573 -0.15443,0.318099 -0.646824,0.349943 -0.841974,0.644646 -0.0891,0.134632 0.335985,-0.172249 0.475368,-0.09108 0.302921,0.176539 -1.358984,0.606996 0.295001,0.0825 -0.114833,0.0891 -0.229665,0.178518 -0.344399,0.267613 0.100969,-0.0231 0.377495,-0.137271 0.303581,-0.06501 -0.181819,0.177858 -0.446594,0.247484 -0.648607,0.402211 -0.0198,0.0165 0.04124,0.04653 0.06764,0.04224 0.125062,-0.0198 0.237254,-0.107573 0.363769,-0.108233 0.04322,-2.31e-4 -0.04916,0.07128 -0.07391,0.106913 -0.03894,0.113513 -0.0264,0.111863 -0.15014,0.211186 -0.07688,0.06105 -0.299621,0.08183 -0.245174,0.16334 0.05709,0.08513 0.195347,-0.06336 0.29467,-0.0891 0.43181,-0.112194 0.129352,0.0099 -0.212176,0.227685 0.0264,0.08745 0.452864,-0.15113 0.373635,-0.05346 -0.111202,0.137272 -0.30424,0.182149 -0.440092,0.295001 -0.0231,0.0198 -0.05279,0.0792 -0.0231,0.09008 0.06633,0.0231 0.244513,-0.08283 0.210856,-0.0198 -0.06831,0.125391 -0.227356,0.173238 -0.340935,0.260022 -0.0132,0.03696 -0.07226,0.110544 -0.03366,0.110544 0.952681,-0.0029 0.109553,-0.336711 0.106913,0.14354 -3.96e-4,0.09965 0.194358,-0.05741 0.294011,-0.05279 0.02969,0.0011 0.05576,0.03959 0.05279,0.06831 -0.0066,0.05081 -0.04884,0.08975 -0.07326,0.134631 -0.07821,0.07061 -0.188417,0.117143 -0.233954,0.211847 -0.0264,0.05346 0.304571,0.0132 0.296651,0.03959 -0.03399,0.105923 -0.272892,0.109553 -0.252434,0.219106 0.317769,-0.04653 0.295992,-0.137271 0.274872,0.05544 1.190695,-0.740504 -1.249167,0.722786 -0.893317,0.637816 0.359874,-0.0858 0.66692,-0.348359 1.031942,-0.408811 0.174228,-0.0297 -0.293352,0.197327 -0.429897,0.309191 -0.14915,0.122422 -0.14717,0.161029 -0.216796,0.318099 0.0029,0.03959 0.0033,0.0792 0.0066,0.118792 0.05544,0.0231 0.146181,0.0132 0.16664,0.06863 0.0198,0.05774 -0.188419,0.404157 -0.196667,0.42036 -0.03597,0.07128 -0.178519,0.205906 -0.09965,0.217785 0.208876,0.03299 0.412011,-0.09273 0.618017,-0.13925 -0.126052,0.121102 -0.254083,0.240554 -0.378783,0.363141 -0.116482,0.114503 -0.260022,0.208546 -0.34552,0.347764 -0.0264,0.04488 -0.0132,0.139251 0.03762,0.15377 0.129682,0.03696 0.268933,-0.0297 0.404026,-0.0297 0.09702,3.96e-4 0.339581,-0.05148 0.289061,0.0297 -0.132981,0.217127 -0.399076,0.31645 -0.598613,0.474906 0.13727,0.460683 -0.360535,0.396469 -0.398252,0.701337 -0.0099,0.08415 0.229335,-0.06501 0.254084,0.0165 0.103616,0.33737 -0.527339,0.170269 0.03927,0.261674 -0.112852,0.109882 -0.492229,0.29797 -0.338062,0.329318 0.264972,-0.07886 0.52978,-0.15806 0.794686,-0.236924 -0.0792,0.09371 -0.354165,0.244183 -0.237254,0.281141 0.202937,0.06401 0.587692,-0.371886 0.617621,-0.161359 0.06501,0.45867 -1.141329,0.478898 -0.257053,0.420491 -0.16961,0.234945 -0.36664,0.450125 -0.506022,0.705957 -0.0297,0.05609 -0.07853,0.110872 -0.07886,0.174558 -3.3e-5,0.0029 0.15575,0.154431 0.15674,0.155421 -0.0132,0.04488 -0.0165,0.09207 -0.03432,0.135291 -0.195018,0.490579 -0.09735,-0.30754 0.53077,-0.0231 0.140571,0.06368 -0.295001,0.161029 -0.347368,0.30655 -0.0264,0.07161 0.1508,0.0198 0.226365,0.0297 -0.04586,0.07259 -0.09173,0.144861 -0.137601,0.217456 -0.05841,0.0759 -0.116483,0.15212 -0.174889,0.228016 -0.0198,0.05906 -0.0198,0.125391 -0.05544,0.176538 -0.06764,0.100648 -0.292031,0.15707 -0.245174,0.268932 0.04454,0.105593 0.230655,-0.06963 0.34123,-0.04026 0.0099,0.0029 0.0165,0.269593 0.0165,0.271573 -0.04587,0.06731 -0.219765,0.202936 -0.13826,0.201946 0.230985,-0.0029 0.539152,-0.404719 0.661144,-0.208546 0.118793,0.190728 -0.37601,0.250123 -0.539053,0.404916 -0.03992,0.03794 -0.03992,0.182479 0.03629,0.202278 0.06731,0.0165 0.139251,-0.0029 0.208877,-0.0033 -0.196997,0.08283 0.08876,0.131002 0.04554,0.171589 -0.154101,0.144201 -0.410197,0.180498 -0.521036,0.360172 -0.08051,0.130671 0.702293,-0.266623 0.660023,-0.135951 -0.05247,0.161359 -0.264643,0.212506 -0.396899,0.318759 0.0066,0.03564 0.0198,0.07061 0.0198,0.106913 0.0066,0.116813 -0.0165,0.199307 -0.09503,0.29764 -0.08678,0.110544 -0.31414,0.16763 -0.289722,0.306221 0.102619,0.580565 1.215476,-0.958193 -0.05246,0.502425 1.039465,0.15872 -0.09108,-0.143541 0.066,0.575087 0.03696,0.168619 0.49388,-0.03564 0.499258,0.136611 0.0099,0.274212 -0.356014,0.424781 -0.474047,0.672298 -0.03927,0.0825 -0.133641,0.905957 -0.144531,0.993467 0.0132,0.0066 0.822669,0.355255 0.811352,0.484837 -0.0231,0.261014 -0.334598,0.413827 -0.430425,0.657648 -0.514799,0.404026 0.341462,0.532816 0.254414,0.798054 -0.101634,0.309189 -0.414684,0.501468 -0.622009,0.752186 0.131001,0.03332 0.748787,0.04092 0.628278,0.43336 -0.06071,0.198317 -0.250123,0.331101 -0.363338,0.504703 -0.07853,0.120442 -0.140902,0.250784 -0.211188,0.375978 0,0 1.276787,-0.645966 1.276787,-0.645966 v 0 c 0.101966,-0.142881 0.203267,-0.285762 0.30556,-0.428544 0.120442,-0.168289 0.407326,-0.30226 0.361855,-0.503976 -0.31117,-1.379806 -0.862102,1.203333 -0.373668,-0.563075 0.0231,-0.15641 0.04389,-0.31249 0.06599,-0.468868 -0.09075,-0.108892 -0.289721,-0.186107 -0.272233,-0.327009 0.033,-0.255403 0.330144,-0.414254 0.394985,-0.663289 0.03332,-0.127372 -0.05874,-0.261013 -0.124733,-0.374757 -0.155089,-0.267282 -0.401451,-0.398779 -0.643787,-0.570236 0.242534,-0.278831 0.540801,-0.517835 0.727668,-0.836759 0.119782,-0.204258 0.0015,-0.665436 -0.0099,-0.880383 -0.0066,-0.132322 0.08645,-0.288072 0.0132,-0.396965 -0.553309,-0.800264 -0.300281,0.414783 -0.416631,-0.396469 0.0264,-0.100316 0.04322,-0.204587 0.0825,-0.300941 0.04257,-0.104603 0.15773,-0.185777 0.16103,-0.298631 0.0011,-0.04322 -0.245834,-0.07226 -0.208876,-0.181818 0.05906,-0.175218 0.548952,-0.50523 0.59076,-0.537997 -0.0066,-0.03597 -0.0231,-0.07226 -0.0165,-0.108232 0.0099,-0.04851 0.109553,-0.120773 0.06236,-0.134632 -0.102298,-0.0297 -0.32305,0.167629 -0.31315,0.06204 0.0132,-0.14057 0.469361,-0.230655 0.331958,-0.263983 -0.299951,-0.07293 -1.206072,0.642304 -0.109223,-0.14024 -0.06731,-1.32e-4 -0.141231,0.0297 -0.201617,-3.97e-4 -0.0297,-0.0132 0.0132,-0.07721 -0.0099,-0.101301 -0.07061,-0.07128 -0.248804,0.0099 -0.121432,-0.184788 0.224386,-0.341792 0.494077,-0.30985 -0.14684,-0.193037 1.15872,-0.904043 0.586536,-0.274543 0.280151,-0.434055 -0.04257,-0.0231 0.0029,-0.09635 0.0029,-0.1442 3.3e-5,-0.04454 0.0132,-0.09173 -0.0029,-0.133312 -0.08513,-0.226695 -0.171259,0.07788 0.0099,-0.274542 -0.110872,0.0099 -0.287082,0.131661 -0.332981,0.0297 -0.04752,-0.105263 0.212836,-0.144861 0.229995,-0.259034 0.0099,-0.06236 -0.184458,0.0264 -0.185448,-0.03662 -0.0011,-0.09305 0.229336,-0.131331 0.182148,-0.211516 -0.131991,-0.224055 -1.179839,0.673619 0.225046,-0.348985 -0.0264,-0.0264 -0.05246,-0.05576 -0.08085,-0.0815 -0.0297,-0.0297 -0.112193,-0.03993 -0.09833,-0.07986 0.0033,-0.0132 0.446395,-0.499587 0.437783,-0.505295 -0.136941,-0.09042 -0.413133,0.240224 -0.48332,0.09207 -0.07095,-0.149811 0.245835,-0.222736 0.368686,-0.334137 -0.101966,0.0033 -0.207557,0.04026 -0.306221,0.0132 -0.04224,-0.0132 -0.08216,-0.07259 -0.06633,-0.113513 0.04124,-0.104932 0.196008,-0.1508 0.213826,-0.262332 0.0099,-0.05874 -0.09998,-0.0792 -0.15938,-0.07886 -0.552714,0.0033 -0.767035,0.321729 -0.05511,-0.295001 0.122092,-0.109883 0.279492,-0.190068 0.366144,-0.329649 0.0231,-0.03894 -0.06963,-0.06831 -0.115162,-0.07458 -0.0264,-0.0029 -0.665501,0.03861 -0.665897,0.03629 -0.0264,-0.142221 0.233955,-0.185448 0.298961,-0.314469 0.0231,-0.04587 -0.04784,-0.09042 -0.07193,-0.135951 0.06633,-0.0914 0.121762,-0.192048 0.199307,-0.274543 0.128362,-0.136611 0.395843,-0.192377 0.415114,-0.378651 0.0132,-0.125061 -0.254083,0.03762 -0.377133,0.0132 -0.05643,-0.0132 -0.06929,-0.122752 -0.127041,-0.118463 -0.742419,0.05643 -1.300084,0.605413 0.09405,-0.396535 0.413298,-0.6558 -0.0099,0.15674 -0.288731,-0.190728 -0.118462,-0.14717 0.728593,-0.496683 0.587428,-0.607655 -0.1508,-0.118463 -0.521498,0.32074 -0.55994,0.132982 -0.04224,-0.205907 0.341198,-0.245504 0.511797,-0.368323 0.04257,-0.240554 0.06336,-0.132651 -0.32536,-0.05643 -0.0165,-0.136281 0.230325,-0.15509 0.322719,-0.257054 0.0231,-0.0264 -0.0015,-0.07458 0.0099,-0.109222 0.05874,-0.178518 0.119122,-0.08183 0.0066,-0.189738 1.35311,-0.968916 -0.645406,0.518199 -0.31282,-0.03696 0.175218,-0.292361 0.732718,-0.219437 0.874113,-0.529451 0.111533,-0.244185 -0.508761,0.374427 -0.757036,0.272892 -0.202938,-0.08283 0.748589,-0.217126 0.492657,-0.435176 -0.884705,0.292031 -0.650024,0.282132 -0.174558,-0.110873 0.07986,-0.066 0.190067,-0.120442 0.219765,-0.219765 0.0297,-0.09405 -0.425969,0.04619 -0.38492,-0.09305 0.05939,-0.05874 0.115493,-0.121102 0.178519,-0.176209 0.08975,-0.07821 0.270582,-0.104603 0.278502,-0.223395 0.0264,-0.378816 -0.493747,0.433888 -0.497839,0.105263 -0.0011,-0.09635 0.219435,-0.07985 0.228675,-0.175549 0.0066,-0.07326 -0.144201,0.0297 -0.216136,0.04521 0.113513,-0.145521 0.07061,-0.106913 0.271902,-0.251444 0.10262,-0.07391 0.392378,-0.113513 0.31381,-0.212507 -0.08348,-0.105263 -0.250454,0.104603 -0.383072,0.125062 -0.0231,0.0029 -0.0132,-0.05049 0.0029,-0.06633 0.066,-0.07061 0.15212,-0.120112 0.228015,-0.179839 0.07358,-0.05906 0.179508,-0.09207 0.220426,-0.177198 0.0198,-0.03993 -0.0891,-0.0099 -0.133312,-0.0033 -0.0792,0.0099 -0.15674,0.0297 -0.235604,0.04191 -0.208547,0.033 -0.330869,0.09108 -0.106583,-0.118792 0.103284,-0.09668 0.219436,-0.179179 0.328988,-0.268602 -1.09741,0.339119 -0.346346,0.185778 -0.126052,-0.189408 0.03299,-0.05379 -0.125391,-0.03332 -0.170929,-0.0759 -0.04322,-0.04026 -0.09537,-0.101301 -0.07985,-0.15806 0.139251,-0.505427 0.468174,-0.267282 -0.09702,-0.473882 9.9e-5,-1.005147 0.07095,0.31678 -0.217455,-0.600297 -0.04059,-0.128361 0.06104,-0.280151 0.0066,-0.403761 -0.04884,-0.112523 -0.220426,-0.128692 -0.284112,-0.233295 -0.174889,-0.286422 0.03366,-0.396502 0.194687,-0.594589 0,0 -1.530606,0.818347 -1.530606,0.818347 z"
       inkscape:export-filename="C:\Users\Clément\Desktop\Seed Keeper\Sprites\Objects\Props/trunk.png"
       inkscape:export-xdpi="96"
       inkscape:export-ydpi="96" />
    <path
       style="fill:#544207;fill-opacity:1;stroke:#000000;stroke-width:0;stroke-linecap:butt;stroke-linejoin:round;stroke-miterlimit:4;stroke-dasharray:none;stroke-dashoffset:0;stroke-opacity:1;paint-order:normal"
       id="path12011"
       d="m 9.0715324,16.821137 c -0.6660949,0.696089 -0.094044,0.0033 0.1656492,0.15377 0.099984,0.05774 -0.2402244,0.221745 -0.1616895,0.306221 0.097013,0.104272 0.2867514,0.0033 0.4267283,-0.0198 0.2488039,-0.04653 0.4888309,-0.260353 0.7334766,-0.195677 0.121432,0.033 -0.06269,0.243195 -0.09405,0.364692 0.275863,0.658308 -0.1877568,-0.226365 0.660651,0.219106 0.0947,0.04949 -0.112193,0.304901 -0.0066,0.320079 0.280482,0.04026 0.577067,-0.337996 0.826068,-0.202606 -0.327669,0.613462 -0.453357,0.452268 0.08381,0.607424 0.07655,0.196337 0.07293,0.335819 0.32371,0.385943 0.142881,0.0297 0.344002,-0.117472 0.436991,-0.0066 0.08085,0.09735 -0.114833,0.227025 -0.153441,0.347467 -0.0231,0.07688 -0.113512,0.222406 -0.03465,0.239895 0.184128,0.04124 0.368521,-0.08283 0.552781,-0.123742 -0.06468,0.170599 0.219436,0.256723 0.195347,0.404587 -0.0264,0.15971 -0.360105,0.335753 -0.227685,0.429071 0.191058,0.134631 0.664049,-0.331793 0.694671,-0.09965 0.105593,0.798714 -1.340077,0.593698 -0.174888,0.667217 -0.290052,0.721894 -0.135291,0.03564 0.257383,0.344795 0.06434,0.05082 -0.05214,0.15542 -0.07985,0.232635 -0.0264,0.06765 -0.05049,0.135291 -0.07556,0.202937 0.0264,0.03696 0.0848,0.06698 0.07755,0.111533 -0.0132,0.08513 -0.08843,0.14816 -0.132651,0.222075 0.135291,-0.0165 0.274872,-0.08778 0.405477,-0.04949 0.05313,0.0165 0.0297,0.125721 -0.0099,0.164989 -0.178189,0.182148 -0.48101,0.243854 -0.606699,0.4656 -0.05873,0.103615 0.295331,-0.125062 0.355816,-0.0231 0.217126,0.366441 -1.433494,0.557037 0.500445,0.137601 -0.14519,0.141891 -0.379541,0.230656 -0.435737,0.425772 -0.0264,0.09635 0.194358,0.05049 0.291371,0.07556 -0.05841,0.109223 -0.102951,0.227355 -0.174888,0.327999 -0.110542,0.153769 -0.30721,0.252763 -0.369609,0.431479 -0.0297,0.0815 0.09405,0.145192 0.142881,0.216466 0.05279,0.07721 0.108563,0.15245 0.163009,0.228675 0.04157,0.50269 -0.668008,0.581522 -0.746081,0.986307 -0.0297,0.14849 0.45405,-0.08216 0.448507,0.06896 -0.0099,0.226035 -0.392411,0.277512 -0.469032,0.490513 -0.0297,0.08645 0.168289,0.07425 0.252434,0.111203 -0.218447,0.16829 -0.436629,0.336413 -0.654943,0.504637 0.08118,0.08975 0.279823,0.288401 0.227686,0.432997 -0.03597,0.09933 -0.216466,0.164329 -0.177859,0.262664 0.146181,0.370895 0.835408,-0.521136 -0.0264,0.37073 0.549778,0.06401 0.14948,-0.05379 -0.09008,0.375087 -0.0264,0.04422 0.07886,0.07953 0.129682,0.08018 0.14519,0.0015 0.328659,-0.177859 0.429665,-0.07326 0.08348,0.08678 -0.163669,0.176868 -0.239564,0.270253 -0.06963,0.08546 -0.131332,0.177198 -0.196997,0.265633 -0.0132,0.06401 -0.07953,0.136941 -0.04389,0.191717 0.04158,0.06368 0.176209,0.0066 0.216136,0.07226 0.03696,0.06006 -0.0015,0.1508 -0.04521,0.205906 -0.123741,0.15707 -0.50282,0.219106 -0.439201,0.408646 0.196007,0.583864 0.902096,-0.672332 0.369081,0.166309 -0.03959,0.08283 -0.118792,0.15674 -0.118792,0.248474 -6.6e-5,0.05643 0.15245,0.07623 0.118462,0.121432 -0.14651,0.193697 -0.578782,0.222076 -0.561327,0.464181 0.0132,0.198977 0.442898,-0.262004 0.585976,-0.123082 0.919091,0.893813 -1.071011,0.08777 -0.14519,0.43016 3.96e-4,0.258373 -0.05279,0.126381 0.176869,0.248144 0.07458,0.03959 0.14189,0.0924 0.216135,0.133311 0.116483,0.06434 0.3378,0.05016 0.355916,0.182149 0.0297,0.212506 -0.205577,0.383303 -0.249465,0.593301 -0.03497,0.168289 0.0132,0.343508 0.0165,0.515262 -0.207227,0.287411 -0.596238,0.508794 -0.621251,0.862134 -0.0132,0.199968 0.369213,0.159711 0.54166,0.262004 0.1475,0.08778 0.456361,0.139251 0.414222,0.30589 -0.09042,0.357796 -0.471573,0.567894 -0.707342,0.85184 0,0 1.061509,-0.540835 1.061509,-0.540835 v 0 c 0.0231,-0.15509 0.171919,-0.840422 0.0099,-1.012408 -0.703548,-0.738822 -1.380762,0.654777 0.254084,-1.213034 -0.186768,-0.07953 -0.47507,-0.05478 -0.559974,-0.238904 -0.178519,-0.387527 0.822504,-1.202277 0.855073,-1.266195 0.04124,-0.08118 -0.238574,-0.0297 -0.245503,-0.119452 -0.0297,-0.402838 0.540043,-0.210196 -0.0264,-0.326678 -0.116153,-2.32e-4 -0.31645,0.110872 -0.348723,-7.59e-4 -0.03729,-0.130012 0.1673,-0.212507 0.259034,-0.312161 0.119452,-0.129681 0.265963,-0.235274 0.373535,-0.375053 0.04719,-0.06138 0.108894,-0.14486 0.08183,-0.217456 -0.0231,-0.06566 -0.146182,-0.0297 -0.193038,-0.08216 -0.03827,-0.04191 -0.0231,-0.111534 -0.033,-0.16697 -1.164099,0.226035 -0.341594,0.187428 -0.30622,-0.190067 0.0066,-0.07491 -0.221086,-0.0015 -0.212176,-0.07656 0.03464,-0.294672 0.385249,-0.252104 0.377693,-0.557268 -0.0015,-0.05478 -0.08546,-0.06896 -0.128362,-0.103284 0.05379,-0.08183 0.196008,-0.1541 0.16136,-0.245834 -0.103944,-0.276193 -0.568256,0.322389 -0.100648,-0.236264 0.07755,-0.09273 0.363736,-0.230986 0.247814,-0.264974 -0.423131,-0.124731 -1.349447,0.701931 0.0033,-0.318429 -0.07161,-0.0198 -0.158719,-0.0132 -0.214815,-0.06401 -0.03993,-0.03531 -0.06401,-0.111863 -0.03465,-0.15641 0.0924,-0.140241 0.282462,-0.200298 0.366507,-0.345686 0.0264,-0.04554 -0.09008,-0.07556 -0.09272,-0.128031 -0.0165,-0.341892 0.432733,-0.229666 -0.366112,-0.187099 0.145521,-0.129681 0.666556,-0.535489 0.745883,-0.789639 0.0231,-0.07721 -0.122751,-0.154759 -0.08612,-0.226695 0.102619,-0.202607 0.545652,-0.29698 0.456657,-0.50589 -0.297971,-0.699522 -1.473354,0.954496 -0.197658,-0.538757 0.04719,-0.114831 0.257054,-0.525688 0.198647,-0.699389 -0.0264,-0.07953 -0.201616,-0.07458 -0.196007,-0.15839 0.0099,-0.14321 0.202278,-0.222736 0.231645,-0.363471 0.03861,-0.185448 -0.362613,-0.221746 -0.399438,-0.230655 0.795974,-0.951592 -0.0297,0.188418 -0.292361,-0.243854 -0.222736,-0.366442 1.177726,-0.437057 0.989308,-0.822241 -0.104273,-0.213166 -0.627322,0.419238 -0.68586,0.189407 -0.06401,-0.251443 0.407821,-0.320408 0.611714,-0.480481 -0.252433,0.06104 -0.763603,0.254083 -0.702096,0.04554 0.03629,-0.122752 0.262663,-0.172249 0.241214,-0.2983 -0.0165,-0.09867 -0.313149,0.06501 -0.29797,-0.03399 0.120772,-0.797855 0.632239,-0.16961 0.196008,-0.607194 0.08546,-0.14519 0.279491,-0.268273 0.256723,-0.435011 -0.0165,-0.115493 -0.219436,-0.07788 -0.331299,-0.110543 -0.122092,-0.03564 -0.269592,-0.0165 -0.370005,-0.0947 -0.07128,-0.05544 -0.06336,-0.169609 -0.08348,-0.257714 -0.09207,-0.40353 0.112523,-0.264973 -0.453258,-0.266952 0.642072,-0.957499 0.172248,-0.0231 -0.08843,-0.396239 -0.06534,-0.09372 0.212506,-0.269592 0.112192,-0.324039 -0.165649,-0.09008 -0.38525,0.15146 -0.559841,0.08051 -0.09305,-0.03794 0.0132,-0.200298 0.0198,-0.300281 -0.210196,0.0297 -0.420723,0.05808 -0.631117,0.08711 0.309191,-1.029071 0.122093,0.0848 -0.249134,-0.507012 -0.0297,-0.04949 0.237255,-0.575515 -0.106253,-0.583897 -0.269592,-0.0066 -0.541395,0.291042 -0.787955,0.182149 -0.147831,-0.06533 0.126051,-0.297971 0.189077,-0.446758 -0.238244,0.05379 -0.475334,0.209536 -0.714799,0.161359 -0.09833,-0.0198 0.0165,-0.199637 0.0264,-0.299621 -0.111863,-0.0132 -0.223726,-0.0264 -0.335721,-0.04059 -0.134301,0.0033 -0.437155,0.192708 -0.398119,0.06401 0.06996,-0.229995 0.389276,-0.295331 0.528065,-0.491735 0.04257,-0.06039 -0.143871,0.03332 -0.215805,0.04983 0,0 -1.3319597,0.842436 -1.3319597,0.842436 z"
       inkscape:export-filename="C:\Users\Clément\Desktop\Seed Keeper\Sprites\Objects\Props/trunk.png"
       inkscape:export-xdpi="96"
       inkscape:export-ydpi="96" />
    <path
       style="fill:#544207;fill-opacity:1;stroke:#000000;stroke-width:0;stroke-linecap:butt;stroke-linejoin:round;stroke-miterlimit:4;stroke-dasharray:none;stroke-dashoffset:0;stroke-opacity:1;paint-order:normal"
       id="path12017"
       d="m 20.586203,7.8869656 c 0.168289,0.4679095 0.740439,-0.076882 0.953704,0.1653186 0.139581,0.15839 -0.395579,0.5749554 -0.186768,0.6056427 0.479591,0.070291 0.904868,-0.4157071 1.389375,-0.4291033 0.178849,-0.00332 0.207557,0.329648 0.379343,0.380168 0.30985,0.091069 0.645999,0.00986 0.968982,0.016501 0.975946,0.4544127 0.347171,0.2471538 1.602937,0.3945886 0.291041,0.033989 0.583205,0.064013 0.871145,0.118792 0.225375,0.042571 0.437023,0.1861081 0.665929,0.1725791 0.386901,-0.023102 0.752549,-0.1854481 1.128825,-0.2785022 0,0 1.006467,-0.7232806 1.006467,-0.7232806 v 0 c -0.290051,0.033003 -0.580103,0.063027 -0.870154,0.094701 C 28.373566,8.2766692 28.302951,8.0517881 28.128656,8.0210676 27.737994,7.9521044 27.337203,8.1807777 26.94367,8.1309509 24.480644,7.8191202 29.504667,7.2241032 24.915786,8.0478008 24.56921,8.0610018 24.222633,8.0709026 23.87609,8.0840933 23.862889,7.8788468 24.036459,7.5350751 23.842101,7.468419 23.489683,7.3476469 23.060909,7.8997339 22.748122,7.6974244 22.526377,7.5538835 23.349409,7.0455848 23.092587,6.9835488 20.900177,6.4538011 22.20643,8.0684856 21.57528,7.2069443 c 0,0 -0.989111,0.6809772 -0.989111,0.6809772 z"
       inkscape:export-filename="C:\Users\Clément\Desktop\Seed Keeper\Sprites\Objects\Props/trunk.png"
       inkscape:export-xdpi="96"
       inkscape:export-ydpi="96" />
  </g>
</svg>
