<?xml version="1.0" encoding="UTF-8" standalone="no"?>
<!-- Created with Inkscape (http://www.inkscape.org/) -->

<svg
   width="150"
   height="150"
   viewBox="0 0 39.687499 39.687501"
   version="1.1"
   id="svg5"
   inkscape:version="1.1.1 (3bf5ae0d25, 2021-09-20)"
   sodipodi:docname="zzz - Copie - Copie (7).svg"
   inkscape:export-filename="C:\Users\Clément\Desktop\freepic\res\img/icon.png"
   inkscape:export-xdpi="96"
   inkscape:export-ydpi="96"
   xmlns:inkscape="http://www.inkscape.org/namespaces/inkscape"
   xmlns:sodipodi="http://sodipodi.sourceforge.net/DTD/sodipodi-0.dtd"
   xmlns="http://www.w3.org/2000/svg"
   xmlns:svg="http://www.w3.org/2000/svg">
  <sodipodi:namedview
     id="namedview7"
     pagecolor="#ffffff"
     bordercolor="#666666"
     borderopacity="1.0"
     inkscape:pageshadow="2"
     inkscape:pageopacity="0.0"
     inkscape:pagecheckerboard="true"
     inkscape:document-units="mm"
     showgrid="false"
     units="px"
     inkscape:zoom="3.0289002"
     inkscape:cx="62.729039"
     inkscape:cy="70.487631"
     inkscape:window-width="1920"
     inkscape:window-height="1013"
     inkscape:window-x="-9"
     inkscape:window-y="-9"
     inkscape:window-maximized="1"
     inkscape:current-layer="layer1"
     inkscape:snap-object-midpoints="false"
     inkscape:snap-center="false" />
  <defs
     id="defs2">
    <clipPath
       clipPathUnits="userSpaceOnUse"
       id="clipPath168419-0">
      <path
         style="fill:#d4d591;fill-opacity:1;stroke:#000000;stroke-width:0.264583px;stroke-linecap:butt;stroke-linejoin:miter;stroke-opacity:1"
         d="m 1976.6629,1120.9601 c -14.9756,1.5925 -25.8038,9.2969 -36.1081,17.7735 -10.8363,13.4703 -17.8314,26.9407 -24.1344,40.4111 -5.0825,17.6623 -6.7297,33.8216 -6.174,49.0172 2.96,13.8998 7.3576,26.531 16.2768,35.1727 10.0404,8.8438 23.2314,13.9465 38.9144,16.0897 14.6068,1.5407 26.9047,-0.7669 39.4757,-2.6193 16.4002,-3.4206 25.6399,-12.8083 33.676,-23.199 4.188,-8.0615 7.6011,-17.2853 8.9802,-29.56 0.1671,-11.8575 -2.4879,-24.9245 -4.6772,-37.7919 -3.678,-11.8565 -9.5794,-24.1299 -18.896,-37.0436 -6.3738,-10.6207 -16.705,-17.504 -27.502,-23.9473 -6.0539,-1.7474 -10.1493,-4.5965 -19.8314,-4.3031 z"
         id="path168421-4"
         sodipodi:nodetypes="ccccccccccccc" />
    </clipPath>
    <linearGradient
       x1="-989.37677"
       y1="-3204.3379"
       x2="1175.8552"
       y2="2649.3293"
       gradientUnits="userSpaceOnUse"
       id="color-1"
       gradientTransform="matrix(0.17670732,0,0,0.17670732,-22.688903,-12.005473)">
      <stop
         offset="0"
         stop-color="#2a221e"
         id="stop2" />
      <stop
         offset="1"
         stop-color="#2a221e"
         stop-opacity="0"
         id="stop4" />
    </linearGradient>
    <linearGradient
       x1="-3323.7942"
       y1="-330.77435"
       x2="2849.8162"
       y2="585.84308"
       gradientUnits="userSpaceOnUse"
       id="color-2"
       gradientTransform="matrix(0.17670732,0,0,0.17670732,-22.688903,-12.005473)">
      <stop
         offset="0"
         stop-color="#2a221e"
         id="stop7" />
      <stop
         offset="1"
         stop-color="#2a221e"
         stop-opacity="0"
         id="stop9" />
    </linearGradient>
  </defs>
  <g
     inkscape:label="Calque 1"
     inkscape:groupmode="layer"
     id="layer1">
    <path
       style="fill:#5c3600;fill-opacity:1;stroke:#000000;stroke-width:0.147705px;stroke-linecap:butt;stroke-linejoin:miter;stroke-opacity:1"
       d="m 16.810422,21.513571 c -0.190464,0.757365 -0.259767,1.480116 0.01779,2.103756 0.833578,2.806333 0.842191,5.530187 0.677476,8.236703 -1.27865,0.889311 -1.264573,2.332647 -0.909247,3.922234 -0.426528,0.840903 -0.857949,1.677674 -1.711521,2.157234 0.244962,0.532935 0.733991,0.801479 1.782836,0.463542 0.722586,0.288621 1.431684,0.401934 2.120676,0.253917 0.847669,0.833093 1.427301,0.326034 2.050271,0.03565 0.813271,-0.453365 1.383916,-0.249055 2.068986,-0.09345 1.126842,0.457726 2.085599,0.271126 3.012994,-0.03565 0.329831,-0.142635 0.115413,-0.285255 0.03566,-0.427884 -2.288853,-0.112024 -3.284697,-1.517075 -3.922236,-3.280422 l -0.481369,-7.844483 0.896622,-1.764679 0.904043,-1.444415 -4.243148,-4.65321 z"
       id="path7772"
       sodipodi:nodetypes="ccccccccccccccccc"
       inkscape:export-filename="C:\Users\Clément\Desktop\Seed Keeper\Sprites\Objects\Props/tree.png"
       inkscape:export-xdpi="96"
       inkscape:export-ydpi="96" />
    <path
       style="fill:#3a7738;fill-opacity:1;stroke:#000000;stroke-width:0.147705px;stroke-linecap:butt;stroke-linejoin:miter;stroke-opacity:1"
       d="M 7.6745004,16.264152 C 6.7500235,16.723532 5.8255392,16.785086 4.9010623,16.012015 4.0365101,14.299159 4.1466523,12.995677 5.6574524,12.280467 4.4752252,10.444452 5.2539476,9.4536619 6.8172582,8.8010571 l 6.9083938,-4.437504 c 0.343795,-0.6179456 0.173803,-1.2756873 0.578127,-1.8570083 1.300439,-1.86968542 3.544061,-3.11548484 6.274064,-1.0931516 0.406713,0.3012831 0.396135,0.886676 0.863011,1.33652 0.36065,0.2205525 0.252308,0.5453067 0.201711,0.8572422 1.016783,-0.7209191 1.95131,-0.4550027 2.87429,-0.050396 2.783875,-0.6992347 5.377435,-0.8582322 6.706697,2.5717342 1.872388,1.4432602 4.554071,2.3186064 3.882818,5.5468834 -0.217932,0.784171 -0.879158,1.366832 -1.613632,1.916204 1.299254,0.622702 1.624233,1.4681 1.26065,2.470882 0.844736,0.921432 1.403569,1.858765 0.554685,2.87429 0.98968,0.688679 2.002056,1.373048 0.302557,2.571741 0.389725,1.861125 -0.573475,2.339242 -2.319604,2.017049 -0.864627,0.782175 -1.763481,0.982621 -2.723019,0.151285 l -1.714492,-0.554694 c -0.812795,0.494337 -1.572564,1.598498 -2.47089,1.109379 -0.67362,0.716178 -1.128704,1.986 -2.470882,1.008529 -0.458367,0.145383 -0.911703,0.316044 -1.462361,0 l 0.403415,-0.705972 c -0.750361,-0.482925 -1.125213,-1.207254 -1.210232,-2.1179 -0.617618,0.105944 -0.973563,0.691619 -1.311084,1.311076 -0.38569,-1.210023 -0.273308,-2.309368 -0.25213,-3.428983 -0.631888,0.44275 -1.2977,0.690473 -2.117899,0.0504 -0.723994,1.005014 -1.628498,1.714619 -2.874298,1.865771 l -3.98367,-0.958095 C 9.3880096,21.045652 9.0571438,19.593608 8.683028,18.180333 7.8388352,18.169167 7.7239735,17.257025 7.6745004,16.264138 Z"
       id="path874"
       sodipodi:nodetypes="cccccsscccccccccccccccccccccccc"
       inkscape:export-filename="C:\Users\Clément\Desktop\Seed Keeper\Sprites\Objects\Props/tree.png"
       inkscape:export-xdpi="96"
       inkscape:export-ydpi="96" />
    <path
       style="fill:#409e3b;fill-opacity:1;stroke:#000000;stroke-width:0.147705px;stroke-linecap:butt;stroke-linejoin:miter;stroke-opacity:1"
       d="M 8.4687138,4.1240259 C 7.8214088,4.2527633 7.4262561,3.9405746 7.0271209,4.0946962 5.4708003,4.6957515 5.5056385,6.1550165 7.4223703,7.1117484 6.722689,7.6731565 6.8769371,8.5078209 6.9937493,9.3305081 5.9907003,10.015324 6.3768234,10.819229 6.4894816,11.599686 c -0.531282,0.981103 0.3518135,1.732848 1.0085277,2.521316 0.042208,1.132657 -0.02449,2.402092 1.2858708,1.941401 1.4626289,0.517793 1.9160239,-0.153884 2.4708819,-0.705965 0.570207,-0.284786 1.116616,-0.706343 1.815344,-0.252129 0.798524,0.313105 1.340912,-0.02835 1.840557,-0.479047 0.506672,0.41176 1.039808,0.545597 1.613639,0.25213 0.503725,0.223902 0.973326,0.788996 1.538002,0.403408 0.409892,0.753874 0.902211,0.655917 1.411928,0.378195 1.17747,0.56283 2.040132,0.113805 2.748239,-0.83203 1.199558,-0.0098 1.889919,-0.632937 1.613632,-2.420455 1.152325,-0.361743 1.274088,-1.48063 0.781612,-3.0507969 C 25.237923,8.2760057 27.18429,7.8216356 23.936957,4.9182021 23.956238,4.3383029 23.85434,3.7584112 23.306631,3.1785046 22.739864,3.1642864 22.176244,3.1911588 21.642565,3.6071257 20.815784,3.3128697 20.298816,2.6158459 19.802008,1.8926339 19.255727,1.8234039 18.709437,1.789571 18.163155,2.0186989 17.144043,1.6871929 16.484469,1.9720251 16.17132,2.8507356 15.325326,2.7499058 14.473778,2.5396858 13.725652,4.3635233 13.266711,4.4579064 12.77186,4.7138776 12.439781,4.2374583 12.082592,2.794518 11.308857,2.7995503 10.246234,3.8088297 9.5421683,2.7842973 8.9054192,2.441387 8.4687138,4.1239886 Z"
       id="path2562"
       sodipodi:nodetypes="cscccccccccccccccccccccccc"
       inkscape:export-filename="C:\Users\Clément\Desktop\Seed Keeper\Sprites\Objects\Props/tree.png"
       inkscape:export-xdpi="96"
       inkscape:export-ydpi="96" />
    <path
       style="fill:#409e3b;fill-opacity:1;stroke:#000000;stroke-width:0.147705px;stroke-linecap:butt;stroke-linejoin:miter;stroke-opacity:1"
       d="m 11.925449,20.729124 c -1.386098,-0.41231 -1.917566,-1.251933 -1.782836,-2.424654 0.589354,-1.389544 1.680518,-1.182399 2.781225,-0.944904 0.592784,-1.299061 1.258796,-2.094771 2.22854,-0.802274 2.379737,-1.383172 2.652585,-0.107642 3.102146,0.944895 0.337669,1.013806 -0.643427,1.490336 -1.551073,1.996778 0.574889,0.999275 1.107534,1.994969 -1.616297,2.715471 -1.992058,1.901449 -3.508024,2.21095 -3.98367,-0.958094 0.893428,-0.04533 0.796692,-0.299124 0.821965,-0.527218 z"
       id="path4060"
       sodipodi:nodetypes="ccccccccc"
       inkscape:export-filename="C:\Users\Clément\Desktop\Seed Keeper\Sprites\Objects\Props/tree.png"
       inkscape:export-xdpi="96"
       inkscape:export-ydpi="96" />
    <path
       style="fill:#409e3b;fill-opacity:1;stroke:#000000;stroke-width:0.147705px;stroke-linecap:butt;stroke-linejoin:miter;stroke-opacity:1"
       d="m 28.755431,7.6609334 c -1.097349,-0.015112 -2.280054,-0.218937 -2.763403,1.1231884 0.136612,0.8954006 0.156191,1.8254832 1.533245,2.3533482 -0.598443,1.3067 -0.3995,2.294443 0.427876,3.030817 1.530005,0.127063 2.263089,-0.409982 2.656418,-1.230153 2.591371,-0.104448 1.915934,-1.776955 2.335527,-2.923852 L 34.264388,8.4275591 C 34.165844,7.1094706 33.722699,6.0733255 31.554477,6.4486099 L 31.073115,6.8051725 C 30.156521,6.1686391 29.337222,6.154823 28.755431,7.6609334 Z"
       id="path4570"
       sodipodi:nodetypes="cccccccccc"
       inkscape:export-filename="C:\Users\Clément\Desktop\Seed Keeper\Sprites\Objects\Props/tree.png"
       inkscape:export-xdpi="96"
       inkscape:export-ydpi="96" />
    <path
       style="fill:#409e3b;fill-opacity:1;stroke:#000000;stroke-width:0.147705px;stroke-linecap:butt;stroke-linejoin:miter;stroke-opacity:1"
       d="m 23.603031,18.375776 c -1.427948,-1.138798 -0.880625,-1.694012 0.641818,-1.961113 0.292738,-0.529473 0.669362,-0.765293 1.230153,-0.356563 1.567702,-0.501089 1.496455,0.392675 1.533244,1.194495 l 0.695296,-0.03565 c 0.08695,-0.797273 0.0731,-1.665138 1.461938,-1.551066 0.298395,-0.351575 0.505302,-1.018272 1.087531,-0.392227 1.784362,-0.280284 2.058631,0.400408 2.406826,1.034046 1.257315,-0.548776 1.503148,-0.110135 1.354959,0.713133 1.380917,0.36161 1.514068,1.087152 1.293277,1.915928 l -0.651458,0.847468 c 0.698052,0.9247 0.271083,1.524394 -0.534855,2.014606 0.325335,0.868974 0.153251,1.495615 -0.830734,1.726708 -0.828083,0.673865 -1.695026,1.043388 -2.723019,0.151286 l -1.714492,-0.554687 -1.251971,0.399954 -1.143273,-0.07221 c -0.307789,0.06826 -0.401398,0.462559 -0.725392,0.67656 -0.488628,0.322722 -1.22812,0.460288 -1.8446,0.239654 -0.28769,-0.482189 -0.540713,-0.972536 -0.267419,-1.586723 -0.813144,-0.770049 -0.817164,-1.726833 -0.320914,-2.79906 -0.06729,-0.552564 -0.240964,-1.116317 0.303085,-1.604536 z"
       id="path5232"
       sodipodi:nodetypes="cccccccccccccccccscccc"
       inkscape:export-filename="C:\Users\Clément\Desktop\Seed Keeper\Sprites\Objects\Props/tree.png"
       inkscape:export-xdpi="96"
       inkscape:export-ydpi="96" />
    <path
       style="fill:#409e3b;fill-opacity:1;stroke:#000000;stroke-width:0.147705px;stroke-linecap:butt;stroke-linejoin:miter;stroke-opacity:1"
       d="m 10.80226,28.66275 c -0.145501,-0.699205 -0.212051,-1.345773 0.623999,-1.390617 l 0.320905,-0.873589 c -0.787291,-0.612407 -1.070671,-1.101637 0.267428,-1.194502 0.332793,-0.719482 0.665594,-0.514995 0.998388,-0.410048 0.707788,-0.229849 0.951878,0.351798 1.301466,0.748789 0.328246,-1.553893 1.285625,-1.981978 2.513805,-1.925456 0.630861,0.285435 1.378899,0.515367 1.141009,1.212323 2.529713,-0.07161 1.621136,1.244215 1.622386,2.192892 1.414624,0.775998 0.564714,1.120665 0.07131,1.533236 0.423715,1.127254 -0.06156,1.475405 -1.301481,1.176674 -0.555594,0.303614 -1.051845,0.734409 -1.925449,0.356564 -0.259054,-0.249033 -0.537267,-0.486894 -1.354967,-0.410049 -0.231517,0.60451 -0.678503,0.92173 -1.47975,0.766618 -0.681489,0.74684 -1.339178,1.344106 -1.693693,0.03565 -1.672739,-0.08989 -1.703974,-0.829536 -1.105361,-1.818508 z"
       id="path6996"
       sodipodi:nodetypes="cccccccccccccccc"
       inkscape:export-filename="C:\Users\Clément\Desktop\Seed Keeper\Sprites\Objects\Props/tree.png"
       inkscape:export-xdpi="96"
       inkscape:export-ydpi="96" />
    <path
       style="fill:#69d802;fill-opacity:1;stroke:#000000;stroke-width:0.147705px;stroke-linecap:butt;stroke-linejoin:miter;stroke-opacity:1"
       d="m 9.875185,10.317359 c 0.308132,-1.6883265 0.904259,-1.1170628 1.515415,-0.4278848 1.71523,-0.8034514 1.597465,0.017269 1.479753,0.8379398 1.848953,-0.08559 1.325681,0.676046 1.283637,1.265817 -0.836258,0.04995 -1.626638,0.329317 -2.549454,-0.05345 -0.130048,1.175022 -0.401458,1.849266 -1.354959,0.10697 -1.2726205,-0.27626 -2.1513834,-0.655518 -0.374392,-1.72936 z"
       id="path8586"
       sodipodi:nodetypes="ccccccc"
       inkscape:export-filename="C:\Users\Clément\Desktop\Seed Keeper\Sprites\Objects\Props/tree.png"
       inkscape:export-xdpi="96"
       inkscape:export-ydpi="96" />
    <path
       style="fill:#69d802;fill-opacity:1;stroke:#000000;stroke-width:0.147705px;stroke-linecap:butt;stroke-linejoin:miter;stroke-opacity:1"
       d="M 9.6285198,5.6242108 C 9.6136288,5.2066069 10.331633,4.9409063 10.384909,5.2712213 c 0.543393,0.065433 1.380537,0.035359 0.100849,0.6933615 0.943452,0.9867016 0.08956,0.7216561 -0.1891,0.8572496 C 9.742592,7.1383238 9.1288896,7.5293598 9.8680396,6.229323 8.0412465,5.8757082 8.7761606,5.7448567 9.6285198,5.6242108 Z"
       id="path9020"
       sodipodi:nodetypes="cccccc"
       inkscape:export-filename="C:\Users\Clément\Desktop\Seed Keeper\Sprites\Objects\Props/tree.png"
       inkscape:export-xdpi="96"
       inkscape:export-ydpi="96" />
    <path
       style="fill:#69d802;fill-opacity:1;stroke:#000000;stroke-width:0.147705px;stroke-linecap:butt;stroke-linejoin:miter;stroke-opacity:1"
       d="m 18.575429,5.361071 c 0.573848,-2.2013031 1.423787,-2.0404445 2.424654,-0.5883332 2.823626,-0.7901787 2.615007,-0.2986926 0.837933,0.8557533 3.444364,0.8761724 1.743085,1.212867 -0.623998,1.4797661 -0.687681,0.8599444 -1.453131,2.7695232 -1.871971,0 -1.946112,0.4408443 -2.430706,-0.00224 -0.766618,-1.7471862 z"
       id="path9297"
       sodipodi:nodetypes="cccccc"
       inkscape:export-filename="C:\Users\Clément\Desktop\Seed Keeper\Sprites\Objects\Props/tree.png"
       inkscape:export-xdpi="96"
       inkscape:export-ydpi="96" />
    <path
       style="fill:#69d802;fill-opacity:1;stroke:#000000;stroke-width:0.147705px;stroke-linecap:butt;stroke-linejoin:miter;stroke-opacity:1"
       d="m 28.541482,9.6398751 c 0.243317,-0.6291045 0.43544,-1.4331139 1.230159,-0.1782771 2.116389,-0.9394249 1.585368,-0.2609815 1.212332,0.3209125 1.505358,1.0549935 0.231212,0.9015125 -0.303085,1.0697025 -0.271038,-0.15855 -0.541994,-0.316289 -0.766626,0.03565 -0.283603,0.490041 -0.501899,1.796427 -0.962723,0.07131 -1.334689,0.38552 -1.207873,-0.235769 -0.410057,-1.319317 z"
       id="path9617"
       sodipodi:nodetypes="ccccccc"
       inkscape:export-filename="C:\Users\Clément\Desktop\Seed Keeper\Sprites\Objects\Props/tree.png"
       inkscape:export-xdpi="96"
       inkscape:export-ydpi="96" />
    <path
       style="fill:#69d802;fill-opacity:1;stroke:#000000;stroke-width:0.147705px;stroke-linecap:butt;stroke-linejoin:miter;stroke-opacity:1"
       d="m 24.99364,17.805272 c -0.421379,-0.171854 -0.684541,-0.331997 0.160456,-0.410048 0.04243,-0.244247 0.249614,-0.213905 0.427884,-0.231771 0.690496,0.1248 0.347376,0.249599 0.285248,0.37439 -0.452166,0.11886 -0.352148,0.237713 -0.196113,0.35658 0.312352,0.50938 -0.04057,0.286937 -0.160449,0.320904 -0.38476,0.235046 -0.695371,0.340343 -0.517026,-0.410055 z"
       id="path9975"
       sodipodi:nodetypes="ccccccc"
       inkscape:export-filename="C:\Users\Clément\Desktop\Seed Keeper\Sprites\Objects\Props/tree.png"
       inkscape:export-xdpi="96"
       inkscape:export-ydpi="96" />
    <path
       style="fill:#69d802;fill-opacity:1;stroke:#000000;stroke-width:0.147705px;stroke-linecap:butt;stroke-linejoin:miter;stroke-opacity:1"
       d="m 30.449117,18.57189 c 0.03953,-0.82431 0.459775,-0.887071 1.212331,-0.285249 1.106649,-0.291836 0.823908,0.111014 0.641827,0.463542 1.587318,0.727008 0.958541,0.969237 -0.481369,1.034038 -0.2796,0.211798 -0.43282,1.358829 -0.927076,-0.01779 -1.283444,-0.176743 -1.099241,-0.639846 -0.445713,-1.194525 z"
       id="path10333"
       sodipodi:nodetypes="cccccc"
       inkscape:export-filename="C:\Users\Clément\Desktop\Seed Keeper\Sprites\Objects\Props/tree.png"
       inkscape:export-xdpi="96"
       inkscape:export-ydpi="96" />
    <path
       style="fill:#69d802;fill-opacity:1;stroke:#000000;stroke-width:0.147705px;stroke-linecap:butt;stroke-linejoin:miter;stroke-opacity:1"
       d="m 25.813751,20.943074 c -0.510171,-0.780658 -0.07757,-0.71282 0.338734,-0.659662 0.929822,-0.706285 1.317805,-0.65399 0.588341,0.962738 0.833577,0.68944 1.014996,1.114911 -0.142636,0.99839 -0.274001,0.490845 -0.482606,1.596481 -0.980554,-0.01779 -1.146055,-0.570408 -0.149148,-0.888701 0.196115,-1.28366 z"
       id="path10615"
       sodipodi:nodetypes="cccccc"
       inkscape:export-filename="C:\Users\Clément\Desktop\Seed Keeper\Sprites\Objects\Props/tree.png"
       inkscape:export-xdpi="96"
       inkscape:export-ydpi="96" />
    <path
       style="fill:#69d802;fill-opacity:1;stroke:#000000;stroke-width:0.147705px;stroke-linecap:butt;stroke-linejoin:miter;stroke-opacity:1"
       d="m 13.183569,18.999775 c -0.612959,-1.31966 0.08743,-1.203801 0.895064,-0.970712 2.330384,-2.135938 0.733232,0.82882 0.756391,1.689277 1.461334,0.754471 0.543297,0.994474 -0.428621,1.222835 -0.508333,0.49998 -1.090815,2.19878 -1.411936,-0.327769 -1.722234,-0.562011 -0.435648,-1.083355 0.189102,-1.613631 z"
       id="path10859"
       sodipodi:nodetypes="cccccc"
       inkscape:export-filename="C:\Users\Clément\Desktop\Seed Keeper\Sprites\Objects\Props/tree.png"
       inkscape:export-xdpi="96"
       inkscape:export-ydpi="96" />
    <path
       style="fill:#69d802;fill-opacity:1;stroke:#000000;stroke-width:0.147705px;stroke-linecap:butt;stroke-linejoin:miter;stroke-opacity:1"
       d="m 13.410478,27.761326 c 1.163519,-0.647081 0.332265,0.240273 0.327777,0.491659 0.224601,0.337119 0.216405,0.557842 0.03782,0.693361 -0.343632,0.319819 -0.728697,0.782378 -0.781618,0.100848 -0.148873,-0.184708 -0.668715,-0.256522 -0.113454,-0.655538 0.01496,-0.371659 0.178471,-0.594735 0.529472,-0.630325 z"
       id="path11141"
       sodipodi:nodetypes="cccccc"
       inkscape:export-filename="C:\Users\Clément\Desktop\Seed Keeper\Sprites\Objects\Props/tree.png"
       inkscape:export-xdpi="96"
       inkscape:export-ydpi="96" />
    <path
       style="fill:#69d802;fill-opacity:1;stroke:#000000;stroke-width:0.147705px;stroke-linecap:butt;stroke-linejoin:miter;stroke-opacity:1"
       d="m 16.5117,25.90816 c 0.08748,-1.083943 0.493101,-0.982117 0.94549,-0.705964 1.135896,-0.1407 1.815085,-0.159615 0.453836,0.365593 0.88113,0.456089 1.288469,0.817415 -0.163889,0.806816 -0.255569,0.117213 -0.466325,0.951514 -0.781603,0.113455 -1.020803,0.19091 -0.864247,-0.138415 -0.453834,-0.5799 z"
       id="path11461"
       sodipodi:nodetypes="cccccc"
       inkscape:export-filename="C:\Users\Clément\Desktop\Seed Keeper\Sprites\Objects\Props/tree.png"
       inkscape:export-xdpi="96"
       inkscape:export-ydpi="96" />
    <path
       style="fill:#69d802;fill-opacity:1;stroke:#000000;stroke-width:0.147705px;stroke-linecap:butt;stroke-linejoin:miter;stroke-opacity:1"
       d="m 16.335209,28.719421 c 0.15823,-0.225599 0.336492,-0.411172 0.693353,-0.23952 0.560754,0.157367 0.908249,0.330531 0.567297,0.554687 0.880282,0.337029 0.60649,0.548618 -0.0504,0.718574 -0.319916,0.0075 -0.673925,0.219555 -0.932889,-0.138675 -0.419533,-0.263312 -0.781789,-0.532756 -0.277336,-0.895066 z"
       id="path11781"
       sodipodi:nodetypes="cccccc"
       inkscape:export-filename="C:\Users\Clément\Desktop\Seed Keeper\Sprites\Objects\Props/tree.png"
       inkscape:export-xdpi="96"
       inkscape:export-ydpi="96" />
  </g>
</svg>
