<?xml version="1.0" encoding="UTF-8" standalone="no"?>
<!-- Created with Inkscape (http://www.inkscape.org/) -->

<svg
   width="150"
   height="150"
   viewBox="0 0 39.687499 39.687501"
   version="1.1"
   id="svg5"
   inkscape:version="1.1.1 (3bf5ae0d25, 2021-09-20)"
   sodipodi:docname="zzz - Copie - Copie (2).svg"
   inkscape:export-filename="C:\Users\Clément\Desktop\freepic\res\img/icon.png"
   inkscape:export-xdpi="96"
   inkscape:export-ydpi="96"
   xmlns:inkscape="http://www.inkscape.org/namespaces/inkscape"
   xmlns:sodipodi="http://sodipodi.sourceforge.net/DTD/sodipodi-0.dtd"
   xmlns="http://www.w3.org/2000/svg"
   xmlns:svg="http://www.w3.org/2000/svg">
  <sodipodi:namedview
     id="namedview7"
     pagecolor="#ffffff"
     bordercolor="#666666"
     borderopacity="1.0"
     inkscape:pageshadow="2"
     inkscape:pageopacity="0.0"
     inkscape:pagecheckerboard="true"
     inkscape:document-units="mm"
     showgrid="false"
     units="px"
     inkscape:zoom="2.1417559"
     inkscape:cx="59.764048"
     inkscape:cy="66.534194"
     inkscape:window-width="1920"
     inkscape:window-height="1013"
     inkscape:window-x="-9"
     inkscape:window-y="-9"
     inkscape:window-maximized="1"
     inkscape:current-layer="layer1"
     inkscape:snap-object-midpoints="false"
     inkscape:snap-center="false" />
  <defs
     id="defs2">
    <clipPath
       clipPathUnits="userSpaceOnUse"
       id="clipPath168419-0">
      <path
         style="fill:#d4d591;fill-opacity:1;stroke:#000000;stroke-width:0.264583px;stroke-linecap:butt;stroke-linejoin:miter;stroke-opacity:1"
         d="m 1976.6629,1120.9601 c -14.9756,1.5925 -25.8038,9.2969 -36.1081,17.7735 -10.8363,13.4703 -17.8314,26.9407 -24.1344,40.4111 -5.0825,17.6623 -6.7297,33.8216 -6.174,49.0172 2.96,13.8998 7.3576,26.531 16.2768,35.1727 10.0404,8.8438 23.2314,13.9465 38.9144,16.0897 14.6068,1.5407 26.9047,-0.7669 39.4757,-2.6193 16.4002,-3.4206 25.6399,-12.8083 33.676,-23.199 4.188,-8.0615 7.6011,-17.2853 8.9802,-29.56 0.1671,-11.8575 -2.4879,-24.9245 -4.6772,-37.7919 -3.678,-11.8565 -9.5794,-24.1299 -18.896,-37.0436 -6.3738,-10.6207 -16.705,-17.504 -27.502,-23.9473 -6.0539,-1.7474 -10.1493,-4.5965 -19.8314,-4.3031 z"
         id="path168421-4"
         sodipodi:nodetypes="ccccccccccccc" />
    </clipPath>
    <linearGradient
       x1="-989.37677"
       y1="-3204.3379"
       x2="1175.8552"
       y2="2649.3293"
       gradientUnits="userSpaceOnUse"
       id="color-1"
       gradientTransform="matrix(0.17670732,0,0,0.17670732,-22.688903,-12.005473)">
      <stop
         offset="0"
         stop-color="#2a221e"
         id="stop2" />
      <stop
         offset="1"
         stop-color="#2a221e"
         stop-opacity="0"
         id="stop4" />
    </linearGradient>
    <linearGradient
       x1="-3323.7942"
       y1="-330.77435"
       x2="2849.8162"
       y2="585.84308"
       gradientUnits="userSpaceOnUse"
       id="color-2"
       gradientTransform="matrix(0.17670732,0,0,0.17670732,-22.688903,-12.005473)">
      <stop
         offset="0"
         stop-color="#2a221e"
         id="stop7" />
      <stop
         offset="1"
         stop-color="#2a221e"
         stop-opacity="0"
         id="stop9" />
    </linearGradient>
  </defs>
  <g
     inkscape:label="Calque 1"
     inkscape:groupmode="layer"
     id="layer1">
    <path
       style="fill:#00842f;fill-opacity:1;stroke:#000000;stroke-width:0;stroke-linecap:butt;stroke-linejoin:miter;stroke-miterlimit:4;stroke-dasharray:none;stroke-opacity:1"
       d="m 0.6383899,32.873765 c 3.9725516,4.037616 8.5175154,5.785608 13.4512771,5.978343 6.574857,-0.582506 9.948588,-3.113528 13.451277,-5.566045 2.54813,-2.228878 5.422164,-4.312908 6.80291,-7.060627 1.742373,-4.086415 3.20812,-8.197975 3.453043,-12.420523 C 37.785574,9.6058486 36.87203,5.7068693 33.983108,2.466676 33.367021,1.6397168 32.553591,1.0100746 31.663908,0.45671445 21.291707,11.302757 12.093908,22.836482 1.5660583,31.069955 1.0492938,31.532863 0.7428637,32.135992 0.6383899,32.873765 Z"
       id="path33446"
       sodipodi:nodetypes="ccccccccc" />
    <path
       style="fill:#6dd491;fill-opacity:1;stroke:#000000;stroke-width:0;stroke-linecap:butt;stroke-linejoin:miter;stroke-miterlimit:4;stroke-dasharray:none;stroke-opacity:1"
       d="m 1.411428,31.224568 c 1.5755984,3.006153 4.8726792,3.761121 8.1944987,4.483756 4.1212663,1.187905 7.5816673,0.06281 11.1835923,-0.566913 5.231644,-1.790429 7.918808,-4.79253 10.307468,-7.936764 3.221082,-3.038562 4.189255,-6.640355 4.689914,-10.359025 C 35.895875,13.190321 36.444369,9.6082456 34.189282,5.5589219 33.289493,4.1627575 32.482319,2.7511611 30.787755,1.4874641 21.148597,11.752809 11.7063,20.512964 1.411428,31.224568 Z"
       id="path34032"
       sodipodi:nodetypes="cccccccc" />
    <path
       style="fill:#f62a0b;fill-opacity:1;stroke:#a6a6a6;stroke-width:0;stroke-linecap:butt;stroke-linejoin:miter;stroke-miterlimit:4;stroke-dasharray:none;stroke-opacity:1"
       d="M 2.7514438,29.781518 C 5.7341126,26.256231 9.2015896,21.933703 14.244212,17.721758 20.123389,12.671089 24.514685,8.1357927 29.267436,3.0851234 c 2.82283,2.5940524 4.075582,5.1881021 4.715672,7.7821546 0.23946,3.920722 -0.851359,7.342634 -1.649164,10.8744 -1.072363,3.358789 -4.127635,6.320996 -7.21523,9.276738 -2.996198,2.148203 -6.540411,3.017742 -10.359067,3.246859 -2.8823,0.246848 -5.9309759,-0.282823 -9.2252263,-1.958423 C 4.2911232,31.859635 3.4478036,30.912428 2.7514438,29.781518 Z"
       id="path34466"
       sodipodi:nodetypes="ccccccccc" />
    <path
       style="fill:#000000;fill-opacity:1;stroke:#b55050;stroke-width:0;stroke-linecap:butt;stroke-linejoin:miter;stroke-miterlimit:4;stroke-dasharray:none;stroke-opacity:1"
       d="m 10.456266,27.565409 c 1.142588,0.712935 0.920818,1.298323 0.88807,2.011257 -1.499232,-0.604195 -1.183716,-1.33096 -0.88807,-2.011257 z"
       id="path36174"
       sodipodi:nodetypes="ccc" />
    <path
       style="fill:#000000;fill-opacity:1;stroke:#b55050;stroke-width:0;stroke-linecap:butt;stroke-linejoin:miter;stroke-miterlimit:4;stroke-dasharray:none;stroke-opacity:1"
       d="m 17.141032,25.652737 c 1.142588,0.712936 0.920818,1.298323 0.88807,2.011258 -1.499232,-0.604195 -1.183716,-1.330961 -0.88807,-2.011258 z"
       id="path36174-5"
       sodipodi:nodetypes="ccc" />
    <path
       style="fill:#000000;fill-opacity:1;stroke:#b55050;stroke-width:0;stroke-linecap:butt;stroke-linejoin:miter;stroke-miterlimit:4;stroke-dasharray:none;stroke-opacity:1"
       d="m 20.912109,22.897089 c 1.324986,0.2413 1.334751,0.867197 1.567219,1.541952 -1.616358,-0.0088 -1.591137,-0.800576 -1.567219,-1.541952 z"
       id="path36174-3"
       sodipodi:nodetypes="ccc" />
    <path
       style="fill:#000000;fill-opacity:1;stroke:#b55050;stroke-width:0;stroke-linecap:butt;stroke-linejoin:miter;stroke-miterlimit:4;stroke-dasharray:none;stroke-opacity:1"
       d="m 23.436802,19.427661 c 1.261384,-0.471923 1.590571,0.06051 2.136038,0.520747 -1.39238,0.821008 -1.776592,0.128109 -2.136038,-0.520747 z"
       id="path36174-52"
       sodipodi:nodetypes="ccc" />
    <path
       style="fill:#000000;fill-opacity:1;stroke:#b55050;stroke-width:0;stroke-linecap:butt;stroke-linejoin:miter;stroke-miterlimit:4;stroke-dasharray:none;stroke-opacity:1"
       d="m 24.881348,14.871973 c 1.13438,-0.725947 1.567899,-0.274361 2.197743,0.06122 -1.189235,1.094738 -1.710217,0.497805 -2.197743,-0.06122 z"
       id="path36174-4"
       sodipodi:nodetypes="ccc" />
    <path
       style="fill:#000000;fill-opacity:1;stroke:#b55050;stroke-width:0;stroke-linecap:butt;stroke-linejoin:miter;stroke-miterlimit:4;stroke-dasharray:none;stroke-opacity:1"
       d="m 25.095815,10.869245 c 1.104349,-0.770867 1.555644,-0.337047 2.198451,-0.02689 -1.144372,1.141563 -1.688876,0.566012 -2.198451,0.02689 z"
       id="path36174-6"
       sodipodi:nodetypes="ccc" />
  </g>
</svg>
